<?xml version="1.0" encoding="UTF-8" standalone="no"?>
<!-- Created with Inkscape (http://www.inkscape.org/) -->

<svg
   xmlns:dc="http://purl.org/dc/elements/1.1/"
   xmlns:cc="http://creativecommons.org/ns#"
   xmlns:rdf="http://www.w3.org/1999/02/22-rdf-syntax-ns#"
   xmlns:svg="http://www.w3.org/2000/svg"
   xmlns="http://www.w3.org/2000/svg"
   xmlns:sodipodi="http://sodipodi.sourceforge.net/DTD/sodipodi-0.dtd"
   xmlns:inkscape="http://www.inkscape.org/namespaces/inkscape"
   width="51mm"
   height="51mm"
   viewBox="0 0 51 51"
   version="1.1"
   id="svg8"
   inkscape:version="0.92.3 (2405546, 2018-03-11)"
   sodipodi:docname="a1.svg">
  <defs
     id="defs2" />
  <sodipodi:namedview
     id="base"
     pagecolor="#ffffff"
     bordercolor="#666666"
     borderopacity="1.0"
     inkscape:pageopacity="0.0"
     inkscape:pageshadow="2"
     inkscape:zoom="0.98994949"
     inkscape:cx="186.49333"
     inkscape:cy="-30.885231"
     inkscape:document-units="mm"
     inkscape:current-layer="layer1"
     showgrid="false"
     inkscape:window-width="1853"
     inkscape:window-height="1025"
     inkscape:window-x="67"
     inkscape:window-y="27"
     inkscape:window-maximized="1" />
  <metadata
     id="metadata5">
    <rdf:RDF>
      <cc:Work
         rdf:about="">
        <dc:format>image/svg+xml</dc:format>
        <dc:type
           rdf:resource="http://purl.org/dc/dcmitype/StillImage" />
        <dc:title></dc:title>
      </cc:Work>
    </rdf:RDF>
  </metadata>
  <g
     inkscape:label="Layer 1"
     inkscape:groupmode="layer"
     id="layer1"
     transform="translate(0,-246)">
    <g
       transform="matrix(1.8506236,0,0,2.0321764,6.0231257,-307.88706)"
       id="layer1-3"
       inkscape:label="Layer 1">
      <g
         id="layer1-5"
         inkscape:label="Layer 1"
         transform="matrix(0.26458333,0,0,0.26458333,-3.6753346,242.99589)">
        <rect
           id="rect1317"
           style="fill:#ffffff;stroke-width:0.29800001;stroke-linecap:round"
           rx="0"
           ry="0.24555001"
           height="69.032997"
           width="266"
           y="173.71001"
           x="-376.91" />
        <path
           id="path7606"
           sodipodi:rx="4.8214288"
           sodipodi:ry="1.875"
           style="opacity:0.6;fill:none;stroke-width:0.29800001;stroke-linecap:round"
           sodipodi:type="arc"
           d="m 321.2562,312.1779 a 4.8214288,1.875 0 0 1 5.05539,-1.77768 4.8214288,1.875 0 0 1 4.5755,1.96446 4.8214288,1.875 0 0 1 -5.04755,1.78104 4.8214288,1.875 0 0 1 -4.58414,-1.96141"
           sodipodi:open="true"
           transform="matrix(0.44333,0,0,0.44333,-563.38,-68.089)"
           sodipodi:cy="312.27289"
           sodipodi:cx="326.07144"
           sodipodi:end="3.1888543"
           sodipodi:start="3.1922763" />
        <path
           id="path7609"
           sodipodi:rx="5.1785712"
           sodipodi:ry="1.875"
           style="opacity:0.6;fill:none;stroke-width:0.29800001;stroke-linecap:round"
           sodipodi:type="arc"
           d="m 320.18523,312.1779 a 5.1785712,1.875 0 0 1 5.42985,-1.77768 5.1785712,1.875 0 0 1 4.91443,1.96446 5.1785712,1.875 0 0 1 -5.42144,1.78104 5.1785712,1.875 0 0 1 -4.92371,-1.96141"
           sodipodi:open="true"
           transform="matrix(0.44333,0,0,0.44333,-563.38,-68.089)"
           sodipodi:cy="312.27289"
           sodipodi:cx="325.35715"
           sodipodi:end="3.1888543"
           sodipodi:start="3.1922763" />
        <path
           id="path3075-1"
           sodipodi:rx="12.857142"
           sodipodi:ry="25"
           style="fill:none;stroke:#000000;stroke-width:2.35339999;stroke-linecap:round"
           sodipodi:type="arc"
           d="m 444.0348,362.03361 a 12.857142,25 0 0 1 18.14636,0.97228 12.857142,25 0 0 1 -0.44121,35.28756 12.857142,25 0 0 1 -18.14922,-0.7435 12.857142,25 0 0 1 0.32354,-35.29239"
           sodipodi:open="true"
           transform="matrix(1.0274,0.10617,-0.1184,0.92121,-357.25,-256.18)"
           sodipodi:cy="380.21933"
           sodipodi:cx="452.85715"
           sodipodi:end="3.9431937"
           sodipodi:start="3.9561603" />
        <path
           id="path4833-9"
           sodipodi:rx="3.5714285"
           sodipodi:ry="4.6428571"
           style="fill:none;stroke:#000000;stroke-width:2.07500005;stroke-linecap:round"
           sodipodi:type="arc"
           d="m 293.26364,368.62769 a 3.5714285,4.6428571 0 0 1 5.04066,0.18056 3.5714285,4.6428571 0 0 1 -0.12256,6.55341 3.5714285,4.6428571 0 0 1 -5.04145,-0.13808 3.5714285,4.6428571 0 0 1 0.0899,-6.5543"
           sodipodi:open="true"
           transform="matrix(0.95185,0,0,0.92731,-222.78,-208.33)"
           sodipodi:cy="372.00504"
           sodipodi:cx="295.71429"
           sodipodi:end="3.9431937"
           sodipodi:start="3.9561603" />
        <path
           id="path4835-7"
           sodipodi:rx="3.5714285"
           sodipodi:ry="4.6428571"
           style="fill:none;stroke:#000000;stroke-width:2.07500005;stroke-linecap:round"
           sodipodi:type="arc"
           d="m 293.26364,368.62769 a 3.5714285,4.6428571 0 0 1 5.04066,0.18056 3.5714285,4.6428571 0 0 1 -0.12256,6.55341 3.5714285,4.6428571 0 0 1 -5.04145,-0.13808 3.5714285,4.6428571 0 0 1 0.0899,-6.5543"
           sodipodi:open="true"
           transform="matrix(0.95185,0,0,0.92731,-210.98,-205.75)"
           sodipodi:cy="372.00504"
           sodipodi:cx="295.71429"
           sodipodi:end="3.9431937"
           sodipodi:start="3.9561603" />
        <path
           inkscape:connector-curvature="0"
           id="path4837-0"
           sodipodi:nodetypes="cc"
           style="fill:none;stroke:#000000;stroke-width:1.17439997"
           d="m 68.251,154.59 c -7.7596,3.224 -16.031,0.38584 -14.278,0.66236" />
        <path
           inkscape:connector-curvature="0"
           id="path4874-6"
           sodipodi:nodetypes="cc"
           style="fill:none;stroke:#000000;stroke-width:1.43350005"
           d="m 53.742,171.97 c -5.374,9.1205 -8.9709,25.886 -9.3654,28.514" />
        <path
           inkscape:connector-curvature="0"
           id="path4876-2"
           sodipodi:nodetypes="cc"
           style="fill:none;stroke:#000000;stroke-width:1.8671"
           d="m 56.606,170.26 c 34.212,47.768 29.263,5.219 25.246,3.1257" />
        <path
           inkscape:connector-curvature="0"
           id="path1948-6"
           sodipodi:nodetypes="csssc"
           style="fill:#ffffff;fill-rule:evenodd;stroke:#000000;stroke-width:0.97627002px"
           d="m 79.198,156.26 c -2.0778,-0.89395 -1.392,2.3459 -1.8918,-2.4935 -0.0764,-0.74227 -0.62056,-1.0259 -0.83218,-2.2244 -0.16804,-0.95189 -0.42011,-1.4532 1.7312,-1.2427 1.6,0.15651 1.018,0.54442 1.018,0.54442" />
        <path
           inkscape:connector-curvature="0"
           id="path1946-7"
           sodipodi:nodetypes="cssscc"
           style="fill:#ffffff;fill-rule:evenodd;stroke:#000000;stroke-width:0.77894998px"
           d="m 79.224,171.25 c 1.6863,-14.845 -0.50675,-22.459 0.89914,-21.709 1.4059,0.74994 0.70982,0.54005 0.59176,2.6304 -0.17526,3.1028 0.30701,4.2555 1.0043,7.2165 0.46577,1.978 1.722,11.933 0.94587,14.524 -0.0566,1.8645 -2.8926,3.0606 -3.441,-2.6613 z" />
        <path
           inkscape:connector-curvature="0"
           id="path2039-6"
           sodipodi:nodetypes="csssc"
           style="fill:#000000;fill-rule:evenodd;stroke:#000000;stroke-width:0.89964998px"
           d="m 84.469,166.74 c -2.3588,2.0837 -0.20748,10.376 -1.7442,8.2056 -3.1638,-4.4687 -9.829,-6.0006 -7.9833,-8.0608 0.62261,-0.69492 1.1321,-6.2726 3.8528,-4.4809 10.139,6.677 0.42208,-10.448 5.8747,4.3361 z" />
        <path
           inkscape:connector-curvature="0"
           id="path3077-1-4"
           sodipodi:nodetypes="ccs"
           style="fill:none;stroke:#000000;stroke-width:2.81900001"
           d="m 58.262,200.11 c 0,0 -8.7458,-29.866 1.564,-35.039 -10.746,10.387 -7.7558,29.563 -8.13,35.039" />
      </g>
    </g>
  </g>
</svg>
