<?xml version="1.0" encoding="UTF-8" standalone="no"?>
<!-- Created with Inkscape (http://www.inkscape.org/) -->

<svg
   xmlns:dc="http://purl.org/dc/elements/1.1/"
   xmlns:cc="http://creativecommons.org/ns#"
   xmlns:rdf="http://www.w3.org/1999/02/22-rdf-syntax-ns#"
   xmlns:svg="http://www.w3.org/2000/svg"
   xmlns="http://www.w3.org/2000/svg"
   xmlns:sodipodi="http://sodipodi.sourceforge.net/DTD/sodipodi-0.dtd"
   xmlns:inkscape="http://www.inkscape.org/namespaces/inkscape"
   width="51mm"
   height="51mm"
   viewBox="0 0 51 51"
   version="1.1"
   id="svg8"
   inkscape:version="0.92.3 (2405546, 2018-03-11)"
   sodipodi:docname="a11.svg">
  <defs
     id="defs2">
    <linearGradient
       id="linearGradient3144"
       y2="539.27"
       gradientUnits="userSpaceOnUse"
       x2="247.31"
       gradientTransform="matrix(1.8854,0,0,1,38.598,128.35)"
       y1="498.13"
       x1="200.38">
      <stop
         id="stop6741"
         offset="0" />
      <stop
         id="stop6743"
         stop-opacity="0"
         offset="1" />
    </linearGradient>
    <linearGradient
       id="linearGradient3144-2"
       y2="539.27"
       gradientUnits="userSpaceOnUse"
       x2="247.31"
       gradientTransform="matrix(1.8854,0,0,1,38.598,128.35)"
       y1="498.13"
       x1="200.38">
      <stop
         id="stop6741-8"
         offset="0" />
      <stop
         id="stop6743-9"
         stop-opacity="0"
         offset="1" />
    </linearGradient>
    <linearGradient
       id="linearGradient4219"
       y2="539.27"
       gradientUnits="userSpaceOnUse"
       x2="247.31"
       gradientTransform="matrix(1.21,0,0,1,169.55,-481.7)"
       y1="498.13"
       x1="200.38">
      <stop
         id="stop6741-2"
         offset="0" />
      <stop
         id="stop6743-2"
         stop-opacity="0"
         offset="1" />
    </linearGradient>
    <marker
       id="Arrow2Lstart"
       refY="0"
       refX="0"
       style="overflow:visible"
       orient="auto"
       inkscape:stockid="Arrow2Lstart">
      <path
         id="path2615"
         style="stroke-linejoin:round;stroke-width:.625;fill-rule:evenodd"
         sodipodi:nodetypes="cccc"
         transform="matrix(1.1,0,0,1.1,-5.5,0)"
         d="m8.7186 4.0337l-10.926-4.0177 10.926-4.0177c-1.7455 2.3721-1.7355 5.6174 0 8.0354z" />
    </marker>
    <marker
       id="Arrow1Mstart"
       refY="0"
       refX="0"
       style="overflow:visible"
       orient="auto"
       inkscape:stockid="Arrow1Mstart">
      <path
         id="path2629"
         style="stroke:#000000;stroke-width:1pt;fill-rule:evenodd"
         sodipodi:nodetypes="ccccc"
         transform="scale(.4)"
         d="m0 0l5-5-17.5 5 17.5 5-5-5z" />
    </marker>
    <marker
       id="Arrow2Lstart-8"
       refY="0"
       refX="0"
       style="overflow:visible"
       orient="auto"
       inkscape:stockid="Arrow2Lstart">
      <path
         id="path2615-7"
         style="stroke-linejoin:round;stroke-width:.625;fill-rule:evenodd"
         sodipodi:nodetypes="cccc"
         transform="matrix(1.1,0,0,1.1,-5.5,0)"
         d="m8.7186 4.0337l-10.926-4.0177 10.926-4.0177c-1.7455 2.3721-1.7355 5.6174 0 8.0354z" />
    </marker>
    <marker
       id="Arrow1Mstart-1"
       refY="0"
       refX="0"
       style="overflow:visible"
       orient="auto"
       inkscape:stockid="Arrow1Mstart">
      <path
         id="path2629-7"
         style="stroke:#000000;stroke-width:1pt;fill-rule:evenodd"
         sodipodi:nodetypes="ccccc"
         transform="scale(.4)"
         d="m0 0l5-5-17.5 5 17.5 5-5-5z" />
    </marker>
    <linearGradient
       id="linearGradient2855"
       y2="539.27"
       gradientUnits="userSpaceOnUse"
       x2="247.31"
       gradientTransform="translate(-160.12,-300.58)"
       y1="498.13"
       x1="200.38">
      <stop
         id="stop6741-26"
         offset="0" />
      <stop
         id="stop6743-6"
         stop-opacity="0"
         offset="1" />
    </linearGradient>
    <marker
       id="Arrow2Lstart-5"
       refY="0"
       refX="0"
       style="overflow:visible"
       orient="auto"
       inkscape:stockid="Arrow2Lstart">
      <path
         id="path2615-6"
         style="stroke-linejoin:round;stroke-width:.625;fill-rule:evenodd"
         sodipodi:nodetypes="cccc"
         transform="matrix(1.1,0,0,1.1,-5.5,0)"
         d="m8.7186 4.0337l-10.926-4.0177 10.926-4.0177c-1.7455 2.3721-1.7355 5.6174 0 8.0354z" />
    </marker>
    <marker
       id="Arrow1Mstart-11"
       refY="0"
       refX="0"
       style="overflow:visible"
       orient="auto"
       inkscape:stockid="Arrow1Mstart">
      <path
         id="path2629-5"
         style="stroke:#000000;stroke-width:1pt;fill-rule:evenodd"
         sodipodi:nodetypes="ccccc"
         transform="scale(.4)"
         d="m0 0l5-5-17.5 5 17.5 5-5-5z" />
    </marker>
  </defs>
  <sodipodi:namedview
     id="base"
     pagecolor="#ffffff"
     bordercolor="#666666"
     borderopacity="1.0"
     inkscape:pageopacity="0.0"
     inkscape:pageshadow="2"
     inkscape:zoom="1.4"
     inkscape:cx="-3.3632226"
     inkscape:cy="61.107045"
     inkscape:document-units="mm"
     inkscape:current-layer="layer1"
     showgrid="false"
     inkscape:window-width="1853"
     inkscape:window-height="1025"
     inkscape:window-x="67"
     inkscape:window-y="27"
     inkscape:window-maximized="1" />
  <metadata
     id="metadata5">
    <rdf:RDF>
      <cc:Work
         rdf:about="">
        <dc:format>image/svg+xml</dc:format>
        <dc:type
           rdf:resource="http://purl.org/dc/dcmitype/StillImage" />
        <dc:title></dc:title>
      </cc:Work>
    </rdf:RDF>
  </metadata>
  <g
     inkscape:label="Layer 1"
     inkscape:groupmode="layer"
     id="layer1"
     transform="translate(0,-246)">
    <g
       transform="matrix(2.0409763,0,0,2.0409763,0.05219058,-309.21215)"
       id="layer1-4"
       inkscape:label="Layer 1">
      <g
         id="layer1-2"
         inkscape:label="Ebene 1"
         transform="matrix(0.05498169,0,0,0.05498169,-25.109775,310.95993)">
        <g
           id="g2602"
           transform="matrix(2.9317,0,0,2.9317,-227.24,-1730.2)">
          <rect
             id="rect2274"
             style="fill:#ffffff;stroke:#000000;stroke-width:10.63300037;stroke-linecap:round;stroke-linejoin:round"
             rx="0"
             ry="0"
             height="137.82001"
             width="142.86"
             y="357.62"
             x="239.8" />
          <path
             inkscape:connector-curvature="0"
             id="path2276"
             sodipodi:nodetypes="cccccc"
             style="fill:#000000"
             d="m 252.25,392.7 c 3.76,13.59 14.83,23.45 28.66,27.46 l 12.32,-9.95 -8.18,-16.77 7.83,-11.84 z" />
          <path
             inkscape:connector-curvature="0"
             id="path2278"
             sodipodi:nodetypes="ccccsccc"
             style="fill:#000000"
             d="m 304.83,384.54 -11.15,9.47 3.78,18.27 -13,6.43 c 7.73,4.73 17.11,7.53 27.25,7.53 26.31,0 47.66,-18.68 47.66,-41.7 h -47.66 z" />
          <path
             inkscape:connector-curvature="0"
             id="path2280"
             style="fill:none;stroke:#000000;stroke-width:2.71659994"
             d="m 310.46,423.32 0.16,50.78" />
          <path
             inkscape:connector-curvature="0"
             id="path2282"
             style="fill:none;stroke:#000000;stroke-width:3.16339993;stroke-linecap:round"
             d="m 335.67,473.71 -50.77,0.15" />
        </g>
        <g
           id="g2609"
           transform="translate(517.14,37.143)">
          <rect
             id="rect2367"
             style="fill:#ffffff;stroke:#000000;stroke-width:11.13700008;stroke-linecap:round;stroke-linejoin:round"
             rx="0"
             ry="0"
             height="138.07001"
             width="156.45"
             y="43.263"
             x="404.17999" />
          <g
             id="g2504"
             transform="matrix(0.15654,0,0,0.15654,353.3,79.618)">
            <path
               inkscape:connector-curvature="0"
               id="path2498"
               sodipodi:nodetypes="ccczccczccccczcccccccccz"
               style="fill:#000000;stroke:#000000;stroke-width:10;stroke-linecap:round;stroke-linejoin:round"
               d="m 1010.1,343.74 c -15.17,0 -27.35,7.83 -27.35,17.56 v 89 c 0,0 112.35,1.8 116.35,-2.96 4.3,-5.06 2.9,-103.6 2.9,-103.6 z m 103.7,0 c 0,0 1.1,100.66 4.2,104.22 3.3,3.85 112.6,1.59 112.6,1.59 V 361.3 c 0,-9.73 -12.2,-17.56 -27.3,-17.56 z m 116.8,117.56 c 0,0 -112,0.54 -114.5,4.22 -3.3,4.67 -1.7,102.28 -1.7,102.28 h 88.9 c 15.1,0 27.3,-7.81 27.3,-17.53 z m -130.8,2.96 c -3.6,-3.16 -117.05,-2.21 -117.05,-2.21 v 88.22 c 0,9.72 12.18,17.53 27.35,17.53 h 92.6 c 0,0 0,-101 -2.9,-103.54 z" />
            <path
               inkscape:connector-curvature="0"
               id="path2500"
               sodipodi:nodetypes="ccczccczccccczcccccccccz"
               style="fill:#000000;stroke:#000000;stroke-width:10;stroke-linecap:round;stroke-linejoin:round"
               d="m 1010.1,94.51 c -15.17,0 -27.35,7.84 -27.35,17.56 v 89 c 0,0 112.35,1.8 116.35,-2.95 4.3,-5.06 2.9,-103.61 2.9,-103.61 z m 103.7,0 c 0,0 1.1,100.67 4.2,104.22 3.3,3.85 112.6,1.59 112.6,1.59 v -88.25 c 0,-9.72 -12.2,-17.56 -27.3,-17.56 z m 116.8,117.56 c 0,0 -112,0.54 -114.5,4.22 -3.3,4.67 -1.7,102.28 -1.7,102.28 h 88.9 c 15.1,0 27.3,-7.8 27.3,-17.53 z m -130.8,2.96 c -3.6,-3.15 -117.05,-2.21 -117.05,-2.21 v 88.22 c 0,9.73 12.18,17.53 27.35,17.53 h 92.6 c 0,0 0,-100.99 -2.9,-103.54 z" />
            <path
               inkscape:connector-curvature="0"
               id="path2502"
               sodipodi:nodetypes="ccczccczccccczcccccccccz"
               style="fill:#000000;stroke:#000000;stroke-width:10;stroke-linecap:round;stroke-linejoin:round"
               d="m 1010.1,-154.72 c -15.17,0 -27.35,7.84 -27.35,17.57 v 88.996 c 0,0 112.35,1.797 116.35,-2.957 4.3,-5.058 2.9,-103.61 2.9,-103.61 h -91.9 z m 103.7,0 c 0,0 1.1,100.67 4.2,104.22 3.3,3.858 112.6,1.596 112.6,1.596 v -88.246 c 0,-9.73 -12.2,-17.57 -27.3,-17.57 z m 116.8,117.57 c 0,0 -112,0.541 -114.5,4.218 -3.3,4.672 -1.7,102.28 -1.7,102.28 l 88.9,0.002 c 15.1,0 27.3,-7.806 27.3,-17.531 z m -130.8,2.958 C 1096.2,-37.346 982.75,-36.4 982.75,-36.4 v 88.219 c 0,9.725 12.18,17.531 27.35,17.531 h 92.6 c 0,0 0,-100.99 -2.9,-103.54 z" />
          </g>
          <path
             inkscape:connector-curvature="0"
             id="path2509"
             style="fill:none;stroke:#000000;stroke-width:1.33490002;marker-start:url(#Arrow2Lstart-5);marker-end:url(#Arrow1Mstart-11)"
             d="m 488.7,66.541 0.68,99.179" />
          <text
             id="text2660"
             style="line-height:0%;font-family:'Bitstream Vera Sans';fill:#000000"
             y="166.85948"
             x="399.49512"
             xml:space="preserve">         <tspan
   id="tspan2662"
   y="166.85948"
   x="399.49512"
   sodipodi:role="line"
   style="font-size:153.38999939px;line-height:1.25">5</tspan>      </text>
        </g>
        <g
           id="g2619">
          <rect
             id="rect2678"
             style="fill:#ffffff;stroke:#000000;stroke-width:11.13700008;stroke-linecap:round;stroke-linejoin:round"
             rx="0"
             ry="0"
             height="138.07001"
             width="156.45"
             y="333.60001"
             x="833.56" />
          <path
             inkscape:connector-curvature="0"
             id="path2686"
             style="fill:#000000;stroke:#000000;stroke-width:2.10829997;stroke-linecap:round;stroke-linejoin:round"
             d="m 912.22,345.73 c -4.29,0 -7.75,1.22 -7.75,2.75 l -0.12,12.75 c 0,0 25,0.19 30.87,-0.32 l 2.41,-1.09 c 0.87,-2.68 0.69,-14.09 0.69,-14.09 z m 29.44,0 c 0,0 0,7.71 0.35,12.15 l 26.59,-11.93 c -0.56,-0.05 -0.93,-0.22 -1.53,-0.22 z m 33.19,3.34 -25.91,12.03 c 8.34,0.23 25.6,0.13 25.6,0.13 z m 0,15.66 c 0,0 -31.81,0.08 -32.53,0.65 -0.91,0.73 -0.47,15.44 -0.47,15.44 h 25.22 c 4.3,0 7.78,-1.23 7.78,-2.75 z m -70.28,0.12 -0.06,9.85 21.68,-9.72 c -9.83,-0.1 -21.62,-0.13 -21.62,-0.13 z m 33.4,1.38 -30,13.97 c 1.26,0.31 2.59,0.62 4.25,0.62 h 26.29 c 0,0 0.04,-11.85 -0.54,-14.59 z" />
          <text
             id="text2690"
             style="line-height:0%;font-family:'Bitstream Vera Sans';fill:#000000"
             transform="scale(0.89825,1.1133)"
             xml:space="preserve"
             y="410.6778"
             x="925.31555">         <tspan
   id="tspan2692"
   y="410.6778"
   x="925.31555"
   sodipodi:role="line"
   style="font-size:137.78999329px;line-height:1.25">5</tspan>      </text>
          <path
             inkscape:connector-curvature="0"
             id="path2705"
             sodipodi:nodetypes="ccczccczccccczcccccccccz"
             style="fill:#000000;stroke:#000000;stroke-width:2.10829997;stroke-linecap:round;stroke-linejoin:round"
             d="m 912.22,385.12 c -4.3,0 -7.76,1.22 -7.76,2.75 l -0.1,12.74 c 0,0 31.91,0.28 33.04,-0.46 1.21,-0.79 0.93,-15.03 0.93,-15.03 z m 29.45,0 c 0,0 0.01,14.67 0.89,15.22 0.96,0.61 31.98,0.25 31.98,0.25 l 0.3,-12.72 c 0,-1.53 -3.46,-2.75 -7.76,-2.75 z m 33.17,18.99 c 0,0 -31.81,0.09 -32.53,0.66 -0.91,0.73 -0.46,15.42 -0.46,15.42 h 25.23 c 4.3,0 7.76,-1.22 7.76,-2.74 z m -37.05,0.46 c -1,-0.49 -33.23,-0.34 -33.23,-0.34 l -0.1,13.22 c 0,1.52 3.46,2.74 7.76,2.74 h 26.3 c 0,0 0.09,-15.22 -0.73,-15.62 z" />
          <path
             inkscape:connector-curvature="0"
             id="path2707"
             sodipodi:nodetypes="ccczccczccccczcccccccccz"
             style="fill:#000000;stroke:#000000;stroke-width:2.10829997;stroke-linecap:round;stroke-linejoin:round"
             d="m 912.22,424.49 c -4.3,0 -7.76,1.23 -7.76,2.75 l -0.1,12.75 c 0,0 31.91,0.28 33.04,-0.46 1.21,-0.79 0.93,-15.04 0.93,-15.04 z m 29.45,0 c 0,0 0.01,14.68 0.89,15.23 0.96,0.61 31.98,0.25 31.98,0.25 l 0.3,-12.73 c 0,-1.52 -3.46,-2.75 -7.76,-2.75 z m 33.17,19 c 0,0 -31.81,0.09 -32.53,0.66 -0.91,0.73 -0.46,15.42 -0.46,15.42 h 25.23 c 4.3,0 7.76,-1.22 7.76,-2.74 z m -37.05,0.46 c -1,-0.49 -33.23,-0.34 -33.23,-0.34 l -0.1,13.22 c 0,1.52 3.46,2.74 7.76,2.74 h 26.3 c 0,0 0.09,-15.22 -0.73,-15.62 z" />
        </g>
        <g
           id="g2627"
           transform="translate(517.14,177.14)">
          <rect
             id="rect3474"
             style="fill:#ffffff;stroke:#000000;stroke-width:11.13700008;stroke-linecap:round;stroke-linejoin:round"
             rx="0"
             ry="0"
             height="138.07001"
             width="156.45"
             y="357.67999"
             x="404.17999" />
          <path
             inkscape:connector-curvature="0"
             id="path3484"
             style="fill:none;stroke:#000000;stroke-width:1.37390006;marker-start:url(#Arrow2Lstart-5);marker-end:url(#Arrow1Mstart-11)"
             d="m 488.7,380.2 0.68,105.05" />
          <text
             id="text3486"
             style="line-height:0%;font-family:'Bitstream Vera Sans';fill:#000000"
             transform="scale(0.9818,1.0185)"
             xml:space="preserve"
             y="476.62079"
             x="406.90097">         <tspan
   id="tspan3488"
   y="476.62079"
   x="406.90097"
   sodipodi:role="line"
   style="font-size:156.24000549px;line-height:1.25">5</tspan>      </text>
          <g
             id="g3516"
             transform="matrix(1.2427,0,0,1.2427,-83.616,-103.52)">
            <path
               inkscape:connector-curvature="0"
               id="rect3492"
               style="fill:#000000"
               d="m 473.74,380.12 c -2.06,0 -3.72,1.66 -3.72,3.71 v 9.86 h 15.55 v -13.57 z m 15.09,0 v 13.57 h 15.55 v -9.86 c 0,-2.05 -1.66,-3.71 -3.71,-3.71 z m -18.81,16.81 v 9.86 c 0,2.06 1.66,3.72 3.72,3.72 h 11.83 v -13.58 z m 18.81,0 v 13.58 h 11.84 c 2.05,0 3.71,-1.66 3.71,-3.72 v -9.86 z" />
            <path
               inkscape:connector-curvature="0"
               id="path3510"
               style="fill:#000000"
               d="m 473.74,412.75 c -2.06,0 -3.72,1.66 -3.72,3.72 v 9.86 h 15.55 v -13.58 z m 15.09,0 v 13.58 h 15.55 v -9.86 c 0,-2.06 -1.66,-3.72 -3.71,-3.72 z m -18.81,16.82 v 9.86 c 0,2.05 1.66,3.71 3.72,3.71 h 11.83 v -13.57 z m 18.81,0 v 13.57 h 11.84 c 2.05,0 3.71,-1.66 3.71,-3.71 v -9.86 z" />
            <path
               inkscape:connector-curvature="0"
               id="path3514"
               style="fill:#000000"
               d="m 473.74,445.39 c -2.06,0 -3.72,1.66 -3.72,3.71 v 9.86 h 15.55 v -13.57 z m 15.09,0 v 13.57 h 15.55 v -9.86 c 0,-2.05 -1.66,-3.71 -3.71,-3.71 z m -18.81,16.81 v 9.86 c 0,2.06 1.66,3.72 3.72,3.72 h 11.83 V 462.2 Z m 18.81,0 v 13.58 h 11.84 c 2.05,0 3.71,-1.66 3.71,-3.72 v -9.86 z" />
          </g>
        </g>
      </g>
    </g>
  </g>
</svg>
