<?xml version="1.0" encoding="UTF-8" standalone="no"?>
<!-- Created with Inkscape (http://www.inkscape.org/) -->

<svg
   xmlns:dc="http://purl.org/dc/elements/1.1/"
   xmlns:cc="http://creativecommons.org/ns#"
   xmlns:rdf="http://www.w3.org/1999/02/22-rdf-syntax-ns#"
   xmlns:svg="http://www.w3.org/2000/svg"
   xmlns="http://www.w3.org/2000/svg"
   xmlns:sodipodi="http://sodipodi.sourceforge.net/DTD/sodipodi-0.dtd"
   xmlns:inkscape="http://www.inkscape.org/namespaces/inkscape"
   width="51mm"
   height="51mm"
   viewBox="0 0 51 51"
   version="1.1"
   id="svg8"
   inkscape:version="0.92.3 (2405546, 2018-03-11)"
   sodipodi:docname="a15.svg">
  <defs
     id="defs2">
    <linearGradient
       id="linearGradient3144"
       y2="539.27"
       gradientUnits="userSpaceOnUse"
       x2="247.31"
       gradientTransform="matrix(1.8854,0,0,1,38.598,128.35)"
       y1="498.13"
       x1="200.38">
      <stop
         id="stop6741"
         offset="0" />
      <stop
         id="stop6743"
         stop-opacity="0"
         offset="1" />
    </linearGradient>
    <linearGradient
       id="linearGradient3144-2"
       y2="539.27"
       gradientUnits="userSpaceOnUse"
       x2="247.31"
       gradientTransform="matrix(1.8854,0,0,1,38.598,128.35)"
       y1="498.13"
       x1="200.38">
      <stop
         id="stop6741-8"
         offset="0" />
      <stop
         id="stop6743-9"
         stop-opacity="0"
         offset="1" />
    </linearGradient>
    <linearGradient
       id="linearGradient4219"
       y2="539.27"
       gradientUnits="userSpaceOnUse"
       x2="247.31"
       gradientTransform="matrix(1.21,0,0,1,169.55,-481.7)"
       y1="498.13"
       x1="200.38">
      <stop
         id="stop6741-2"
         offset="0" />
      <stop
         id="stop6743-2"
         stop-opacity="0"
         offset="1" />
    </linearGradient>
    <marker
       id="Arrow2Lstart"
       refY="0"
       refX="0"
       style="overflow:visible"
       orient="auto"
       inkscape:stockid="Arrow2Lstart">
      <path
         id="path2615"
         style="stroke-linejoin:round;stroke-width:.625;fill-rule:evenodd"
         sodipodi:nodetypes="cccc"
         transform="matrix(1.1,0,0,1.1,-5.5,0)"
         d="m8.7186 4.0337l-10.926-4.0177 10.926-4.0177c-1.7455 2.3721-1.7355 5.6174 0 8.0354z" />
    </marker>
    <marker
       id="Arrow1Mstart"
       refY="0"
       refX="0"
       style="overflow:visible"
       orient="auto"
       inkscape:stockid="Arrow1Mstart">
      <path
         id="path2629"
         style="stroke:#000000;stroke-width:1pt;fill-rule:evenodd"
         sodipodi:nodetypes="ccccc"
         transform="scale(.4)"
         d="m0 0l5-5-17.5 5 17.5 5-5-5z" />
    </marker>
    <marker
       id="Arrow2Lstart-8"
       refY="0"
       refX="0"
       style="overflow:visible"
       orient="auto"
       inkscape:stockid="Arrow2Lstart">
      <path
         id="path2615-7"
         style="stroke-linejoin:round;stroke-width:.625;fill-rule:evenodd"
         sodipodi:nodetypes="cccc"
         transform="matrix(1.1,0,0,1.1,-5.5,0)"
         d="m8.7186 4.0337l-10.926-4.0177 10.926-4.0177c-1.7455 2.3721-1.7355 5.6174 0 8.0354z" />
    </marker>
    <marker
       id="Arrow1Mstart-1"
       refY="0"
       refX="0"
       style="overflow:visible"
       orient="auto"
       inkscape:stockid="Arrow1Mstart">
      <path
         id="path2629-7"
         style="stroke:#000000;stroke-width:1pt;fill-rule:evenodd"
         sodipodi:nodetypes="ccccc"
         transform="scale(.4)"
         d="m0 0l5-5-17.5 5 17.5 5-5-5z" />
    </marker>
    <linearGradient
       id="linearGradient2855"
       y2="539.27"
       gradientUnits="userSpaceOnUse"
       x2="247.31"
       gradientTransform="translate(-160.12,-300.58)"
       y1="498.13"
       x1="200.38">
      <stop
         id="stop6741-26"
         offset="0" />
      <stop
         id="stop6743-6"
         stop-opacity="0"
         offset="1" />
    </linearGradient>
    <marker
       id="Arrow2Lstart-5"
       refY="0"
       refX="0"
       style="overflow:visible"
       orient="auto"
       inkscape:stockid="Arrow2Lstart">
      <path
         id="path2615-6"
         style="stroke-linejoin:round;stroke-width:.625;fill-rule:evenodd"
         sodipodi:nodetypes="cccc"
         transform="matrix(1.1,0,0,1.1,-5.5,0)"
         d="m8.7186 4.0337l-10.926-4.0177 10.926-4.0177c-1.7455 2.3721-1.7355 5.6174 0 8.0354z" />
    </marker>
    <marker
       id="Arrow1Mstart-11"
       refY="0"
       refX="0"
       style="overflow:visible"
       orient="auto"
       inkscape:stockid="Arrow1Mstart">
      <path
         id="path2629-5"
         style="stroke:#000000;stroke-width:1pt;fill-rule:evenodd"
         sodipodi:nodetypes="ccccc"
         transform="scale(.4)"
         d="m0 0l5-5-17.5 5 17.5 5-5-5z" />
    </marker>
    <marker
       id="Arrow2Lstart-4"
       refY="0"
       refX="0"
       style="overflow:visible"
       orient="auto"
       inkscape:stockid="Arrow2Lstart">
      <path
         id="path2615-4"
         style="stroke-linejoin:round;stroke-width:.625;fill-rule:evenodd"
         sodipodi:nodetypes="cccc"
         transform="matrix(1.1,0,0,1.1,-5.5,0)"
         d="m8.7186 4.0337l-10.926-4.0177 10.926-4.0177c-1.7455 2.3721-1.7355 5.6174 0 8.0354z" />
    </marker>
    <marker
       id="Arrow1Mstart-7"
       refY="0"
       refX="0"
       style="overflow:visible"
       orient="auto"
       inkscape:stockid="Arrow1Mstart">
      <path
         id="path2629-6"
         style="stroke:#000000;stroke-width:1pt;fill-rule:evenodd"
         sodipodi:nodetypes="ccccc"
         transform="scale(.4)"
         d="m0 0l5-5-17.5 5 17.5 5-5-5z" />
    </marker>
    <marker
       id="Arrow2Lstart-7"
       refY="0"
       refX="0"
       style="overflow:visible"
       orient="auto"
       inkscape:stockid="Arrow2Lstart">
      <path
         id="path2615-41"
         style="stroke-linejoin:round;stroke-width:.625;fill-rule:evenodd"
         sodipodi:nodetypes="cccc"
         transform="matrix(1.1,0,0,1.1,-5.5,0)"
         d="m8.7186 4.0337l-10.926-4.0177 10.926-4.0177c-1.7455 2.3721-1.7355 5.6174 0 8.0354z" />
    </marker>
    <marker
       id="Arrow1Mstart-8"
       refY="0"
       refX="0"
       style="overflow:visible"
       orient="auto"
       inkscape:stockid="Arrow1Mstart">
      <path
         id="path2629-59"
         style="stroke:#000000;stroke-width:1pt;fill-rule:evenodd"
         sodipodi:nodetypes="ccccc"
         transform="scale(.4)"
         d="m0 0l5-5-17.5 5 17.5 5-5-5z" />
    </marker>
    <marker
       id="Arrow2Lstart-3"
       refY="0"
       refX="0"
       style="overflow:visible"
       orient="auto"
       inkscape:stockid="Arrow2Lstart">
      <path
         id="path2615-3"
         style="stroke-linejoin:round;stroke-width:.625;fill-rule:evenodd"
         sodipodi:nodetypes="cccc"
         transform="matrix(1.1,0,0,1.1,-5.5,0)"
         d="m8.7186 4.0337l-10.926-4.0177 10.926-4.0177c-1.7455 2.3721-1.7355 5.6174 0 8.0354z" />
    </marker>
    <marker
       id="Arrow1Mstart-3"
       refY="0"
       refX="0"
       style="overflow:visible"
       orient="auto"
       inkscape:stockid="Arrow1Mstart">
      <path
         id="path2629-8"
         style="stroke:#000000;stroke-width:1pt;fill-rule:evenodd"
         sodipodi:nodetypes="ccccc"
         transform="scale(.4)"
         d="m0 0l5-5-17.5 5 17.5 5-5-5z" />
    </marker>
    <marker
       id="Arrow2Lstart-43"
       refY="0"
       refX="0"
       style="overflow:visible"
       orient="auto"
       inkscape:stockid="Arrow2Lstart">
      <path
         id="path2615-0"
         style="stroke-linejoin:round;stroke-width:.625;fill-rule:evenodd"
         sodipodi:nodetypes="cccc"
         transform="matrix(1.1,0,0,1.1,-5.5,0)"
         d="m8.7186 4.0337l-10.926-4.0177 10.926-4.0177c-1.7455 2.3721-1.7355 5.6174 0 8.0354z" />
    </marker>
    <marker
       id="Arrow1Mstart-30"
       refY="0"
       refX="0"
       style="overflow:visible"
       orient="auto"
       inkscape:stockid="Arrow1Mstart">
      <path
         id="path2629-9"
         style="stroke:#000000;stroke-width:1pt;fill-rule:evenodd"
         sodipodi:nodetypes="ccccc"
         transform="scale(.4)"
         d="m0 0l5-5-17.5 5 17.5 5-5-5z" />
    </marker>
  </defs>
  <sodipodi:namedview
     id="base"
     pagecolor="#ffffff"
     bordercolor="#666666"
     borderopacity="1.0"
     inkscape:pageopacity="0.0"
     inkscape:pageshadow="2"
     inkscape:zoom="1.4"
     inkscape:cx="-3.3632226"
     inkscape:cy="61.107045"
     inkscape:document-units="mm"
     inkscape:current-layer="layer1-4"
     showgrid="false"
     inkscape:window-width="1853"
     inkscape:window-height="1025"
     inkscape:window-x="67"
     inkscape:window-y="27"
     inkscape:window-maximized="1" />
  <metadata
     id="metadata5">
    <rdf:RDF>
      <cc:Work
         rdf:about="">
        <dc:format>image/svg+xml</dc:format>
        <dc:type
           rdf:resource="http://purl.org/dc/dcmitype/StillImage" />
        <dc:title></dc:title>
      </cc:Work>
    </rdf:RDF>
  </metadata>
  <g
     inkscape:label="Layer 1"
     inkscape:groupmode="layer"
     id="layer1"
     transform="translate(0,-246)">
    <g
       transform="matrix(1.9999999,0,0,1.9999999,-7.4294577,-322.09765)"
       id="layer1-4"
       inkscape:label="Layer 1">
      <g
         transform="translate(3.555709,12.127492)"
         id="layer1-5"
         inkscape:label="Layer 1">
        <g
           id="layer3"
           transform="matrix(0.12255205,0,0,0.12255205,6.1843679,269.9479)">
          <g
             id="g2891">
            <path
               style="fill:none;stroke:#000000;stroke-width:2.07500005;stroke-linecap:round"
               inkscape:connector-curvature="0"
               id="path4833"
               d="m 293.26,368.63 a 3.5714,4.6429 0 1 1 -0.0335,0.0416"
               transform="matrix(0.96157,-0.27458,0.27458,0.96157,-344.8,-235.14)" />
            <path
               style="fill:url(#linearGradient2855)"
               inkscape:connector-curvature="0"
               id="path6737"
               d="m 53.788,206.92 c 12.611,-0.95673 -13.479,3.9073 -15.069,4.2426 -8.0638,0.97493 17.067,-2.0201 25.796,-3.0373 18.345,-1.4611 -24.619,5.02 -27.055,5.5816 0.74216,-3.1136 33.629,-8.9851 24.744,-3.784 -14.033,7.1103 -11.483,4.9317 2.0329,3.4211 22.218,-1.8947 -4.8319,3.6567 -12.467,5.4335 -4.22,-2.0254 38.918,-9.5542 19.038,-3.2312 -1.2286,1.6942 -7.7048,2.6047 1.6701,0.23081 1.2414,-0.31433 -2.4516,0.74906 -3.645,1.2132 -4.0296,1.567 -4.2343,1.9892 0.02068,2.6185 4.2384,0.46827 8.4882,0.8133 12.733,1.2157 l -6.1202,2.5372 c -4.2915,-0.45518 -8.5942,-0.77239 -12.89,-1.1824 -12.007,-1.6894 12.466,-10.975 15.285,-8.1286 -5.5175,1.809 -36.191,7.0647 -19.84,1.9021 19.093,-3.6075 13.323,-0.85571 0.25799,0.0141 -13.201,1.6484 -18.321,2.2494 -2.871,-5.089 6.4057,-3.0746 -31.214,6.7803 -11.563,-0.058 8.157,-1.4871 43.084,-6.8722 14.815,-0.1219 -10.065,1.0589 -46.041,5.8169 -14.064,-2.1852 14.705,-3.034 18.793,-1.8277 2.5082,1.0611 l 6.6835,-2.6537 z" />
            <path
               style="fill:none;stroke:#000000;stroke-width:1.89999998"
               inkscape:connector-curvature="0"
               id="path4874"
               d="M 46.561,76.188 C -7.922,62.859 27.656,64.286 39.986,39.552" />
            <path
               style="fill:none;stroke:#000000;stroke-width:1.89999998"
               inkscape:connector-curvature="0"
               id="path4876"
               d="M 47.531,76.577 C 59.225,77.058 82.945,62.51 83.685,56.467 85.42,42.282 58.82,37.657 58.82,37.657" />
            <path
               style="fill:none;stroke:#000000;stroke-width:1.89999998"
               inkscape:connector-curvature="0"
               id="path4878"
               d="m 42.075,138.93 c 3.5767,67.984 -5.765,61.681 -5.26,63.196 0.50508,1.5152 1.0102,3.5355 1.0102,3.5355" />
            <path
               style="fill:none;stroke:#000000;stroke-width:1.89999998"
               inkscape:connector-curvature="0"
               id="path4880"
               d="m 45.755,139.95 c 11.69,30.184 -1.8496,59.663 -1.4093,62.275 0.2655,1.575 13.208,1.4878 13.208,1.4878" />
            <path
               style="fill-rule:evenodd;stroke:#000000;stroke-width:1px"
               inkscape:connector-curvature="0"
               id="path4882"
               d="m 36.31,202.63 c -2.444,2.4847 -8.1626,2.4836 -5.5558,4.0406 5.3668,3.2055 4.9739,6.7943 8.5863,3.0305 3.9322,-4.0971 13.132,-0.50508 -3.0305,-7.0711 z" />
            <path
               style="fill-rule:evenodd;stroke:#000000;stroke-width:1px"
               inkscape:connector-curvature="0"
               id="path5757"
               d="m 49.31,200.06 c -2.444,2.4847 -5.6626,1.0551 -3.0558,2.612 5.3668,3.2055 12.831,6.08 16.443,2.3162 3.9322,-4.0971 2.7748,1.6378 -13.388,-4.9282 z" />
            <path
               style="fill-rule:evenodd;stroke:#000000;stroke-width:1px"
               inkscape:connector-curvature="0"
               id="path5761"
               d="m 56.75,39.982 c 1.0478,-3.3913 6.6677,-1.5463 3.5741,-2.7542 -6.073,-2.3712 -8.5096,-5.1636 -10.012,-0.08761 -1.6356,5.5254 -12.132,9.3055 6.4381,2.8418 z" />
            <path
               style="fill:none;stroke:#000000;stroke-width:3"
               inkscape:connector-curvature="0"
               id="path3077"
               d="m 48.398,70.777 c 0.3646,2.4319 -0.09441,3.4249 -1.2369,6.4597 -7.1402,18.967 -5.7548,68.197 -1.3775,66.027 6.733,-3.3382 -3.5542,-50.359 1.4688,-66.018 0.63375,-1.9758 1.37,-4.5525 1.1456,-6.4691 z" />
            <path
               style="fill:none;stroke:#000000;stroke-width:2.35339999;stroke-linecap:round"
               inkscape:connector-curvature="0"
               id="path3075"
               d="m 444.03,362.03 a 12.857,25 0 1 1 -0.12053,0.22395"
               transform="matrix(1.0693,-0.18627,0.15316,0.9894,-497.38,-246.43)" />
            <path
               style="fill:none;stroke:#000000;stroke-width:1.97950006;stroke-linecap:round"
               inkscape:connector-curvature="0"
               id="path4835"
               d="m 293.26,368.63 a 3.5714,4.6429 0 1 1 -0.0335,0.0416"
               transform="matrix(1.143,-0.25381,0.32639,0.88884,-407.17,-216.54)" />
            <path
               style="fill:none;stroke:#000000;stroke-width:1.25"
               inkscape:connector-curvature="0"
               id="path4837"
               d="M 54.481,60.012 C 52.6292,56.775 44.063,59.6799 41.967,60.92226" />
            <path
               style="fill-rule:evenodd;stroke:#000000;stroke-width:1px"
               inkscape:connector-curvature="0"
               id="path3787"
               d="m 41.094,44.287 c -2.9655,-1.9506 -6.1288,3.0474 -4.5097,0.14774 3.1784,-5.6922 3.2827,-9.3968 7.6705,-6.4354 4.7763,3.2236 15.281,-0.53536 -3.1608,6.2876 z" />
          </g>
        </g>
      </g>
    </g>
  </g>
</svg>
