<?xml version="1.0" encoding="UTF-8" standalone="no"?>
<!-- Created with Inkscape (http://www.inkscape.org/) -->

<svg
   xmlns:dc="http://purl.org/dc/elements/1.1/"
   xmlns:cc="http://creativecommons.org/ns#"
   xmlns:rdf="http://www.w3.org/1999/02/22-rdf-syntax-ns#"
   xmlns:svg="http://www.w3.org/2000/svg"
   xmlns="http://www.w3.org/2000/svg"
   xmlns:sodipodi="http://sodipodi.sourceforge.net/DTD/sodipodi-0.dtd"
   xmlns:inkscape="http://www.inkscape.org/namespaces/inkscape"
   width="51mm"
   height="51mm"
   viewBox="0 0 51 51"
   version="1.1"
   id="svg8"
   inkscape:version="0.92.3 (2405546, 2018-03-11)"
   sodipodi:docname="a16.svg">
  <defs
     id="defs2">
    <linearGradient
       id="linearGradient3144"
       y2="539.27"
       gradientUnits="userSpaceOnUse"
       x2="247.31"
       gradientTransform="matrix(1.8854,0,0,1,38.598,128.35)"
       y1="498.13"
       x1="200.38">
      <stop
         id="stop6741"
         offset="0" />
      <stop
         id="stop6743"
         stop-opacity="0"
         offset="1" />
    </linearGradient>
    <linearGradient
       id="linearGradient3144-2"
       y2="539.27"
       gradientUnits="userSpaceOnUse"
       x2="247.31"
       gradientTransform="matrix(1.8854,0,0,1,38.598,128.35)"
       y1="498.13"
       x1="200.38">
      <stop
         id="stop6741-8"
         offset="0" />
      <stop
         id="stop6743-9"
         stop-opacity="0"
         offset="1" />
    </linearGradient>
    <linearGradient
       id="linearGradient4219"
       y2="539.27"
       gradientUnits="userSpaceOnUse"
       x2="247.31"
       gradientTransform="matrix(1.21,0,0,1,169.55,-481.7)"
       y1="498.13"
       x1="200.38">
      <stop
         id="stop6741-2"
         offset="0" />
      <stop
         id="stop6743-2"
         stop-opacity="0"
         offset="1" />
    </linearGradient>
    <marker
       id="Arrow2Lstart"
       refY="0"
       refX="0"
       style="overflow:visible"
       orient="auto"
       inkscape:stockid="Arrow2Lstart">
      <path
         id="path2615"
         style="stroke-linejoin:round;stroke-width:.625;fill-rule:evenodd"
         sodipodi:nodetypes="cccc"
         transform="matrix(1.1,0,0,1.1,-5.5,0)"
         d="m8.7186 4.0337l-10.926-4.0177 10.926-4.0177c-1.7455 2.3721-1.7355 5.6174 0 8.0354z" />
    </marker>
    <marker
       id="Arrow1Mstart"
       refY="0"
       refX="0"
       style="overflow:visible"
       orient="auto"
       inkscape:stockid="Arrow1Mstart">
      <path
         id="path2629"
         style="stroke:#000000;stroke-width:1pt;fill-rule:evenodd"
         sodipodi:nodetypes="ccccc"
         transform="scale(.4)"
         d="m0 0l5-5-17.5 5 17.5 5-5-5z" />
    </marker>
    <marker
       id="Arrow2Lstart-8"
       refY="0"
       refX="0"
       style="overflow:visible"
       orient="auto"
       inkscape:stockid="Arrow2Lstart">
      <path
         id="path2615-7"
         style="stroke-linejoin:round;stroke-width:.625;fill-rule:evenodd"
         sodipodi:nodetypes="cccc"
         transform="matrix(1.1,0,0,1.1,-5.5,0)"
         d="m8.7186 4.0337l-10.926-4.0177 10.926-4.0177c-1.7455 2.3721-1.7355 5.6174 0 8.0354z" />
    </marker>
    <marker
       id="Arrow1Mstart-1"
       refY="0"
       refX="0"
       style="overflow:visible"
       orient="auto"
       inkscape:stockid="Arrow1Mstart">
      <path
         id="path2629-7"
         style="stroke:#000000;stroke-width:1pt;fill-rule:evenodd"
         sodipodi:nodetypes="ccccc"
         transform="scale(.4)"
         d="m0 0l5-5-17.5 5 17.5 5-5-5z" />
    </marker>
    <linearGradient
       id="linearGradient2855"
       y2="539.27"
       gradientUnits="userSpaceOnUse"
       x2="247.31"
       gradientTransform="translate(-160.12,-300.58)"
       y1="498.13"
       x1="200.38">
      <stop
         id="stop6741-26"
         offset="0" />
      <stop
         id="stop6743-6"
         stop-opacity="0"
         offset="1" />
    </linearGradient>
    <marker
       id="Arrow2Lstart-5"
       refY="0"
       refX="0"
       style="overflow:visible"
       orient="auto"
       inkscape:stockid="Arrow2Lstart">
      <path
         id="path2615-6"
         style="stroke-linejoin:round;stroke-width:.625;fill-rule:evenodd"
         sodipodi:nodetypes="cccc"
         transform="matrix(1.1,0,0,1.1,-5.5,0)"
         d="m8.7186 4.0337l-10.926-4.0177 10.926-4.0177c-1.7455 2.3721-1.7355 5.6174 0 8.0354z" />
    </marker>
    <marker
       id="Arrow1Mstart-11"
       refY="0"
       refX="0"
       style="overflow:visible"
       orient="auto"
       inkscape:stockid="Arrow1Mstart">
      <path
         id="path2629-5"
         style="stroke:#000000;stroke-width:1pt;fill-rule:evenodd"
         sodipodi:nodetypes="ccccc"
         transform="scale(.4)"
         d="m0 0l5-5-17.5 5 17.5 5-5-5z" />
    </marker>
    <marker
       id="Arrow2Lstart-4"
       refY="0"
       refX="0"
       style="overflow:visible"
       orient="auto"
       inkscape:stockid="Arrow2Lstart">
      <path
         id="path2615-4"
         style="stroke-linejoin:round;stroke-width:.625;fill-rule:evenodd"
         sodipodi:nodetypes="cccc"
         transform="matrix(1.1,0,0,1.1,-5.5,0)"
         d="m8.7186 4.0337l-10.926-4.0177 10.926-4.0177c-1.7455 2.3721-1.7355 5.6174 0 8.0354z" />
    </marker>
    <marker
       id="Arrow1Mstart-7"
       refY="0"
       refX="0"
       style="overflow:visible"
       orient="auto"
       inkscape:stockid="Arrow1Mstart">
      <path
         id="path2629-6"
         style="stroke:#000000;stroke-width:1pt;fill-rule:evenodd"
         sodipodi:nodetypes="ccccc"
         transform="scale(.4)"
         d="m0 0l5-5-17.5 5 17.5 5-5-5z" />
    </marker>
    <marker
       id="Arrow2Lstart-7"
       refY="0"
       refX="0"
       style="overflow:visible"
       orient="auto"
       inkscape:stockid="Arrow2Lstart">
      <path
         id="path2615-41"
         style="stroke-linejoin:round;stroke-width:.625;fill-rule:evenodd"
         sodipodi:nodetypes="cccc"
         transform="matrix(1.1,0,0,1.1,-5.5,0)"
         d="m8.7186 4.0337l-10.926-4.0177 10.926-4.0177c-1.7455 2.3721-1.7355 5.6174 0 8.0354z" />
    </marker>
    <marker
       id="Arrow1Mstart-8"
       refY="0"
       refX="0"
       style="overflow:visible"
       orient="auto"
       inkscape:stockid="Arrow1Mstart">
      <path
         id="path2629-59"
         style="stroke:#000000;stroke-width:1pt;fill-rule:evenodd"
         sodipodi:nodetypes="ccccc"
         transform="scale(.4)"
         d="m0 0l5-5-17.5 5 17.5 5-5-5z" />
    </marker>
    <marker
       id="Arrow2Lstart-3"
       refY="0"
       refX="0"
       style="overflow:visible"
       orient="auto"
       inkscape:stockid="Arrow2Lstart">
      <path
         id="path2615-3"
         style="stroke-linejoin:round;stroke-width:.625;fill-rule:evenodd"
         sodipodi:nodetypes="cccc"
         transform="matrix(1.1,0,0,1.1,-5.5,0)"
         d="m8.7186 4.0337l-10.926-4.0177 10.926-4.0177c-1.7455 2.3721-1.7355 5.6174 0 8.0354z" />
    </marker>
    <marker
       id="Arrow1Mstart-3"
       refY="0"
       refX="0"
       style="overflow:visible"
       orient="auto"
       inkscape:stockid="Arrow1Mstart">
      <path
         id="path2629-8"
         style="stroke:#000000;stroke-width:1pt;fill-rule:evenodd"
         sodipodi:nodetypes="ccccc"
         transform="scale(.4)"
         d="m0 0l5-5-17.5 5 17.5 5-5-5z" />
    </marker>
    <marker
       id="Arrow2Lstart-43"
       refY="0"
       refX="0"
       style="overflow:visible"
       orient="auto"
       inkscape:stockid="Arrow2Lstart">
      <path
         id="path2615-0"
         style="stroke-linejoin:round;stroke-width:.625;fill-rule:evenodd"
         sodipodi:nodetypes="cccc"
         transform="matrix(1.1,0,0,1.1,-5.5,0)"
         d="m8.7186 4.0337l-10.926-4.0177 10.926-4.0177c-1.7455 2.3721-1.7355 5.6174 0 8.0354z" />
    </marker>
    <marker
       id="Arrow1Mstart-30"
       refY="0"
       refX="0"
       style="overflow:visible"
       orient="auto"
       inkscape:stockid="Arrow1Mstart">
      <path
         id="path2629-9"
         style="stroke:#000000;stroke-width:1pt;fill-rule:evenodd"
         sodipodi:nodetypes="ccccc"
         transform="scale(.4)"
         d="m0 0l5-5-17.5 5 17.5 5-5-5z" />
    </marker>
    <marker
       id="Arrow2Lstart-75"
       refY="0"
       refX="0"
       style="overflow:visible"
       orient="auto"
       inkscape:stockid="Arrow2Lstart">
      <path
         id="path2615-48"
         style="stroke-linejoin:round;stroke-width:.625;fill-rule:evenodd"
         sodipodi:nodetypes="cccc"
         transform="matrix(1.1,0,0,1.1,-5.5,0)"
         d="m8.7186 4.0337l-10.926-4.0177 10.926-4.0177c-1.7455 2.3721-1.7355 5.6174 0 8.0354z" />
    </marker>
    <marker
       id="Arrow1Mstart-12"
       refY="0"
       refX="0"
       style="overflow:visible"
       orient="auto"
       inkscape:stockid="Arrow1Mstart">
      <path
         id="path2629-89"
         style="stroke:#000000;stroke-width:1pt;fill-rule:evenodd"
         sodipodi:nodetypes="ccccc"
         transform="scale(.4)"
         d="m0 0l5-5-17.5 5 17.5 5-5-5z" />
    </marker>
    <linearGradient
       id="linearGradient2864"
       y2="883.59"
       gradientUnits="userSpaceOnUse"
       x2="591.52"
       gradientTransform="translate(-0.1101,-523.69)"
       y1="883.59"
       x1="326.99"
       inkscape:collect="always">
      <stop
         id="stop6741-4"
         style="stop-color:rgb(0, 0, 0)"
         offset="0" />
      <stop
         id="stop6743-9-8"
         style="stop-color:rgb(0, 0, 0);stop-opacity:0"
         offset="1" />
    </linearGradient>
  </defs>
  <sodipodi:namedview
     id="base"
     pagecolor="#ffffff"
     bordercolor="#666666"
     borderopacity="1.0"
     inkscape:pageopacity="0.0"
     inkscape:pageshadow="2"
     inkscape:zoom="1.4"
     inkscape:cx="-3.3632226"
     inkscape:cy="61.107045"
     inkscape:document-units="mm"
     inkscape:current-layer="layer1-4"
     showgrid="false"
     inkscape:window-width="1853"
     inkscape:window-height="1025"
     inkscape:window-x="67"
     inkscape:window-y="27"
     inkscape:window-maximized="1" />
  <metadata
     id="metadata5">
    <rdf:RDF>
      <cc:Work
         rdf:about="">
        <dc:format>image/svg+xml</dc:format>
        <dc:type
           rdf:resource="http://purl.org/dc/dcmitype/StillImage" />
        <dc:title></dc:title>
      </cc:Work>
    </rdf:RDF>
  </metadata>
  <g
     inkscape:label="Layer 1"
     inkscape:groupmode="layer"
     id="layer1"
     transform="translate(0,-246)">
    <g
       transform="matrix(1.9999999,0,0,1.9999999,-7.4294577,-322.09765)"
       id="layer1-4"
       inkscape:label="Layer 1">
      <g
         transform="translate(4.1807274,12.076335)"
         id="layer1-1"
         inkscape:label="Layer 1">
        <g
           id="layer3"
           inkscape:label="layer"
           transform="matrix(0.10302905,0,0,0.10302905,-14.585289,293.26907)">
          <path
             inkscape:connector-curvature="0"
             id="path6737"
             style="fill:url(#linearGradient2864)"
             d="m 276.08,22.469 c -44.799,-0.95673 47.883,3.9073 53.532,4.2426 28.646,0.97493 -60.627,-2.0201 -91.635,-3.0373 -65.17,-1.4611 87.457,5.02 96.109,5.5816 -2.6364,-3.1136 -119.46,-8.9851 -87.899,-3.784 49.849,7.1103 40.792,4.9317 -7.2215,3.4211 -78.928,-1.8947 17.165,3.6567 44.286,5.4335 14.991,-2.0254 -138.25,-9.5542 -67.631,-3.2312 4.3644,1.6942 27.37,2.6047 -5.9327,0.23081 -4.4098,-0.31433 8.7088,0.74906 12.949,1.2132 14.314,1.567 15.042,1.9892 -0.0733,2.6185 -15.056,0.46827 -30.153,0.8133 -45.233,1.2157 l 21.741,2.5372 c 15.245,-0.45518 30.53,-0.77239 45.79,-1.1824 42.653,-1.6894 -44.283,-10.975 -54.298,-8.1286 19.6,1.809 128.56,7.0647 70.478,1.9021 -67.825,-3.6075 -47.328,-0.85571 -0.9165,0.0141 46.896,1.6484 65.081,2.2494 10.199,-5.089 -22.755,-3.0746 110.88,6.7803 41.076,-0.058 -28.977,-1.4871 -153.05,-6.8722 -52.629,-0.1219 35.753,1.0589 163.55,5.8169 49.96,-2.1852 -52.238,-3.034 -66.76,-1.8277 -8.9099,1.0611 l -23.742,-2.6537 z" />
          <path
             inkscape:connector-curvature="0"
             id="path4874"
             sodipodi:nodetypes="ccc"
             style="fill:none;stroke:#000000;stroke-width:1.89999998"
             d="m 261.7,-143.22 c -19.167,-1.841 -30.36,-0.12596 -38.732,-3.4831 -5.3674,-1.8931 -16.778,-7.6138 -33.186,-13.386" />
          <path
             inkscape:connector-curvature="0"
             id="path4876"
             sodipodi:nodetypes="cscc"
             style="fill:none;stroke:#000000;stroke-width:1.89999998"
             d="m 260.28,-139.91 c 2.2986,0.28904 0.14254,-3.7507 1.3604,-3.9343 19.651,-2.9631 34.482,-3.5588 34.482,-3.5588 9.1244,-1.0023 33.44,-5.0897 33.44,-5.0897" />
          <path
             inkscape:connector-curvature="0"
             id="path4878"
             sodipodi:nodetypes="cssc"
             style="fill:none;stroke:#000000;stroke-width:1.89999998"
             d="m 265.2,-84.023 c -0.35819,17.19 -0.79583,30.864 -1.2647,41.755 -1.9505,45.309 -4.4409,42.443 -3.9953,44.129 0.53979,2.0429 1.0102,4.8048 1.0102,4.8048" />
          <path
             inkscape:connector-curvature="0"
             id="path4880"
             style="fill:none;stroke:#000000;stroke-width:1.89999998"
             d="m 266.26,-82.419 c 17.993,-0.25919 43.318,-14.997 50.422,-7.3888 7.0072,7.5049 -47.503,47.132 -45.804,51.717 2.7067,7.3025 0.48486,11.268 0.48486,11.268"
             sodipodi:nodetypes="cssc"
             inkscape:transform-center-y="-40.116124"
             inkscape:transform-center-x="-28.41448" />
          <path
             inkscape:connector-curvature="0"
             id="path4882"
             sodipodi:nodetypes="csssssc"
             style="fill:#000000;fill-rule:evenodd;stroke:#000000;stroke-width:1px"
             d="m 259.41,16.432 c -1.0058,4.2505 0.14519,7.809 -1.4604,8.7705 -3.0511,1.8272 -10.582,2.7603 -7.9261,0.80406 7.1041,-5.2333 1.4947,-11.13 5.7117,-16.97 1.7604,-2.4379 2.2734,-6.6095 3.9736,-6.2472 1.7152,0.36546 1.6192,0.062679 3.0279,0.77111 2.2315,1.1223 -2.8784,7.6288 -3.3266,12.872 z" />
          <path
             inkscape:connector-curvature="0"
             id="path5757"
             style="fill:#000000;fill-rule:evenodd;stroke:#000000;stroke-width:1px"
             d="m 275.35,-36.917 c -3.583,-3.2667 -2.0568,-7.5729 -3.823,-4.0849 -3.6363,7.181 -6.0671,15.952 -3.2473,22.86 1.1276,2.7624 4.0138,-1.4236 3.4218,-2.3885 -1.7583,-2.866 1.191,-8.6288 3.6485,-16.386 z"
             sodipodi:nodetypes="csssc"
             inkscape:transform-center-y="9.7205824"
             inkscape:transform-center-x="0.61323169" />
          <path
             inkscape:connector-curvature="0"
             id="path5759"
             style="fill:#000000;fill-rule:evenodd;stroke:#000000;stroke-width:1px"
             d="m 188.15,-161.84 c 3.8393,3.1895 8.1696,2.7662 5.7408,3.4267 -5.0003,1.3597 -1.5489,8.4078 -7.2599,3.6054 -6.2166,-5.2276 -19.555,-9.5592 1.5191,-7.032 z"
             sodipodi:nodetypes="cssc"
             inkscape:transform-center-y="-2.8567412"
             inkscape:transform-center-x="-6.2204225" />
          <path
             inkscape:connector-curvature="0"
             id="path5761"
             style="fill:#000000;fill-rule:evenodd;stroke:#000000;stroke-width:1px"
             d="m 334.59,-151.9 c -2.7637,-2.2273 -11.205,1.6927 -8.1227,0.45652 6.3462,-2.5451 7.7927,-9.7808 11.875,-6.4103 4.4434,3.6689 15.261,0.9397 -3.752,5.9538 z"
             sodipodi:nodetypes="cssc"
             inkscape:transform-center-y="-3.9133471"
             inkscape:transform-center-x="-10.303226" />
          <path
             inkscape:connector-curvature="0"
             id="path3077"
             sodipodi:nodetypes="ccssc"
             style="fill:none;stroke:#000000;stroke-width:3"
             d="m 261.96,-153.28 c 0.56599,2.3931 0.19133,3.4208 -0.69426,6.5403 -5.5348,19.496 -0.0518,68.44 4.1295,65.912 6.4314,-3.8876 -7.7383,-49.887 -4.0378,-65.911 0.4669,-2.0217 0.98587,-4.6508 0.60256,-6.5421 z" />
          <path
             id="path3075"
             sodipodi:rx="12.857142"
             sodipodi:ry="25"
             style="fill:none;stroke:#000000;stroke-width:2.35339999;stroke-linecap:round"
             sodipodi:type="arc"
             d="m 444.0348,362.03361 a 12.857142,25 0 0 1 18.14636,0.97228 12.857142,25 0 0 1 -0.44121,35.28756 12.857142,25 0 0 1 -18.14922,-0.7435 12.857142,25 0 0 1 0.32354,-35.29239"
             sodipodi:open="true"
             transform="matrix(1.0721,-0.16942,0.13758,0.99168,-275.99,-478)"
             sodipodi:cy="380.21933"
             sodipodi:cx="452.85715"
             sodipodi:end="3.9431937"
             sodipodi:start="3.9561603" />
          <path
             id="path4833"
             sodipodi:rx="3.5714285"
             sodipodi:ry="4.6428571"
             style="fill:none;stroke:#000000;stroke-width:2.07500005;stroke-linecap:round"
             sodipodi:type="arc"
             d="m 293.26364,368.62769 a 3.5714285,4.6428571 0 0 1 5.04066,0.18056 3.5714285,4.6428571 0 0 1 -0.12256,6.55341 3.5714285,4.6428571 0 0 1 -5.04145,-0.13808 3.5714285,4.6428571 0 0 1 0.0899,-6.5543"
             sodipodi:open="true"
             transform="matrix(0.96577,-0.25942,0.25942,0.96577,-124.28,-465.58)"
             sodipodi:cy="372.00504"
             sodipodi:cx="295.71429"
             sodipodi:end="3.9431937"
             sodipodi:start="3.9561603" />
          <path
             id="path4835"
             sodipodi:rx="3.5714285"
             sodipodi:ry="4.6428571"
             style="fill:none;stroke:#000000;stroke-width:2.07500005;stroke-linecap:round"
             sodipodi:type="arc"
             d="m 293.26364,368.62769 a 3.5714285,4.6428571 0 0 1 5.04066,0.18056 3.5714285,4.6428571 0 0 1 -0.12256,6.55341 3.5714285,4.6428571 0 0 1 -5.04145,-0.13808 3.5714285,4.6428571 0 0 1 0.0899,-6.5543"
             sodipodi:open="true"
             transform="matrix(0.96577,-0.25942,0.25942,0.96577,-113.04,-468.6)"
             sodipodi:cy="372.00504"
             sodipodi:cx="295.71429"
             sodipodi:end="3.9431937"
             sodipodi:start="3.9561603" />
          <path
             inkscape:connector-curvature="0"
             id="path4837"
             sodipodi:nodetypes="cc"
             style="fill:none;stroke:#000000;stroke-width:1.25"
             d="m 272,-165.99 c -4.9291,3.0821 -9.0969,5.5344 -14.217,3.8552" />
        </g>
      </g>
    </g>
  </g>
</svg>
