<?xml version="1.0" encoding="UTF-8" standalone="no"?>
<!-- Created with Inkscape (http://www.inkscape.org/) -->

<svg
   xmlns:dc="http://purl.org/dc/elements/1.1/"
   xmlns:cc="http://creativecommons.org/ns#"
   xmlns:rdf="http://www.w3.org/1999/02/22-rdf-syntax-ns#"
   xmlns:svg="http://www.w3.org/2000/svg"
   xmlns="http://www.w3.org/2000/svg"
   xmlns:sodipodi="http://sodipodi.sourceforge.net/DTD/sodipodi-0.dtd"
   xmlns:inkscape="http://www.inkscape.org/namespaces/inkscape"
   width="51mm"
   height="51mm"
   viewBox="0 0 51 51"
   version="1.1"
   id="svg8"
   inkscape:version="0.92.3 (2405546, 2018-03-11)"
   sodipodi:docname="a20.svg">
  <defs
     id="defs2">
    <linearGradient
       id="linearGradient3144"
       y2="539.27"
       gradientUnits="userSpaceOnUse"
       x2="247.31"
       gradientTransform="matrix(1.8854,0,0,1,38.598,128.35)"
       y1="498.13"
       x1="200.38">
      <stop
         id="stop6741"
         offset="0" />
      <stop
         id="stop6743"
         stop-opacity="0"
         offset="1" />
    </linearGradient>
    <linearGradient
       id="linearGradient3144-2"
       y2="539.27"
       gradientUnits="userSpaceOnUse"
       x2="247.31"
       gradientTransform="matrix(1.8854,0,0,1,38.598,128.35)"
       y1="498.13"
       x1="200.38">
      <stop
         id="stop6741-8"
         offset="0" />
      <stop
         id="stop6743-9"
         stop-opacity="0"
         offset="1" />
    </linearGradient>
    <linearGradient
       id="linearGradient4219"
       y2="539.27"
       gradientUnits="userSpaceOnUse"
       x2="247.31"
       gradientTransform="matrix(1.21,0,0,1,169.55,-481.7)"
       y1="498.13"
       x1="200.38">
      <stop
         id="stop6741-2"
         offset="0" />
      <stop
         id="stop6743-2"
         stop-opacity="0"
         offset="1" />
    </linearGradient>
    <marker
       id="Arrow2Lstart"
       refY="0"
       refX="0"
       style="overflow:visible"
       orient="auto"
       inkscape:stockid="Arrow2Lstart">
      <path
         id="path2615"
         style="stroke-linejoin:round;stroke-width:.625;fill-rule:evenodd"
         sodipodi:nodetypes="cccc"
         transform="matrix(1.1,0,0,1.1,-5.5,0)"
         d="m8.7186 4.0337l-10.926-4.0177 10.926-4.0177c-1.7455 2.3721-1.7355 5.6174 0 8.0354z" />
    </marker>
    <marker
       id="Arrow1Mstart"
       refY="0"
       refX="0"
       style="overflow:visible"
       orient="auto"
       inkscape:stockid="Arrow1Mstart">
      <path
         id="path2629"
         style="stroke:#000000;stroke-width:1pt;fill-rule:evenodd"
         sodipodi:nodetypes="ccccc"
         transform="scale(.4)"
         d="m0 0l5-5-17.5 5 17.5 5-5-5z" />
    </marker>
    <marker
       id="Arrow2Lstart-8"
       refY="0"
       refX="0"
       style="overflow:visible"
       orient="auto"
       inkscape:stockid="Arrow2Lstart">
      <path
         id="path2615-7"
         style="stroke-linejoin:round;stroke-width:.625;fill-rule:evenodd"
         sodipodi:nodetypes="cccc"
         transform="matrix(1.1,0,0,1.1,-5.5,0)"
         d="m8.7186 4.0337l-10.926-4.0177 10.926-4.0177c-1.7455 2.3721-1.7355 5.6174 0 8.0354z" />
    </marker>
    <marker
       id="Arrow1Mstart-1"
       refY="0"
       refX="0"
       style="overflow:visible"
       orient="auto"
       inkscape:stockid="Arrow1Mstart">
      <path
         id="path2629-7"
         style="stroke:#000000;stroke-width:1pt;fill-rule:evenodd"
         sodipodi:nodetypes="ccccc"
         transform="scale(.4)"
         d="m0 0l5-5-17.5 5 17.5 5-5-5z" />
    </marker>
    <linearGradient
       id="linearGradient2855"
       y2="539.27"
       gradientUnits="userSpaceOnUse"
       x2="247.31"
       gradientTransform="translate(-160.12,-300.58)"
       y1="498.13"
       x1="200.38">
      <stop
         id="stop6741-26"
         offset="0" />
      <stop
         id="stop6743-6"
         stop-opacity="0"
         offset="1" />
    </linearGradient>
    <marker
       id="Arrow2Lstart-5"
       refY="0"
       refX="0"
       style="overflow:visible"
       orient="auto"
       inkscape:stockid="Arrow2Lstart">
      <path
         id="path2615-6"
         style="stroke-linejoin:round;stroke-width:.625;fill-rule:evenodd"
         sodipodi:nodetypes="cccc"
         transform="matrix(1.1,0,0,1.1,-5.5,0)"
         d="m8.7186 4.0337l-10.926-4.0177 10.926-4.0177c-1.7455 2.3721-1.7355 5.6174 0 8.0354z" />
    </marker>
    <marker
       id="Arrow1Mstart-11"
       refY="0"
       refX="0"
       style="overflow:visible"
       orient="auto"
       inkscape:stockid="Arrow1Mstart">
      <path
         id="path2629-5"
         style="stroke:#000000;stroke-width:1pt;fill-rule:evenodd"
         sodipodi:nodetypes="ccccc"
         transform="scale(.4)"
         d="m0 0l5-5-17.5 5 17.5 5-5-5z" />
    </marker>
    <marker
       id="Arrow2Lstart-4"
       refY="0"
       refX="0"
       style="overflow:visible"
       orient="auto"
       inkscape:stockid="Arrow2Lstart">
      <path
         id="path2615-4"
         style="stroke-linejoin:round;stroke-width:.625;fill-rule:evenodd"
         sodipodi:nodetypes="cccc"
         transform="matrix(1.1,0,0,1.1,-5.5,0)"
         d="m8.7186 4.0337l-10.926-4.0177 10.926-4.0177c-1.7455 2.3721-1.7355 5.6174 0 8.0354z" />
    </marker>
    <marker
       id="Arrow1Mstart-7"
       refY="0"
       refX="0"
       style="overflow:visible"
       orient="auto"
       inkscape:stockid="Arrow1Mstart">
      <path
         id="path2629-6"
         style="stroke:#000000;stroke-width:1pt;fill-rule:evenodd"
         sodipodi:nodetypes="ccccc"
         transform="scale(.4)"
         d="m0 0l5-5-17.5 5 17.5 5-5-5z" />
    </marker>
    <marker
       id="Arrow2Lstart-7"
       refY="0"
       refX="0"
       style="overflow:visible"
       orient="auto"
       inkscape:stockid="Arrow2Lstart">
      <path
         id="path2615-41"
         style="stroke-linejoin:round;stroke-width:.625;fill-rule:evenodd"
         sodipodi:nodetypes="cccc"
         transform="matrix(1.1,0,0,1.1,-5.5,0)"
         d="m8.7186 4.0337l-10.926-4.0177 10.926-4.0177c-1.7455 2.3721-1.7355 5.6174 0 8.0354z" />
    </marker>
    <marker
       id="Arrow1Mstart-8"
       refY="0"
       refX="0"
       style="overflow:visible"
       orient="auto"
       inkscape:stockid="Arrow1Mstart">
      <path
         id="path2629-59"
         style="stroke:#000000;stroke-width:1pt;fill-rule:evenodd"
         sodipodi:nodetypes="ccccc"
         transform="scale(.4)"
         d="m0 0l5-5-17.5 5 17.5 5-5-5z" />
    </marker>
    <marker
       id="Arrow2Lstart-3"
       refY="0"
       refX="0"
       style="overflow:visible"
       orient="auto"
       inkscape:stockid="Arrow2Lstart">
      <path
         id="path2615-3"
         style="stroke-linejoin:round;stroke-width:.625;fill-rule:evenodd"
         sodipodi:nodetypes="cccc"
         transform="matrix(1.1,0,0,1.1,-5.5,0)"
         d="m8.7186 4.0337l-10.926-4.0177 10.926-4.0177c-1.7455 2.3721-1.7355 5.6174 0 8.0354z" />
    </marker>
    <marker
       id="Arrow1Mstart-3"
       refY="0"
       refX="0"
       style="overflow:visible"
       orient="auto"
       inkscape:stockid="Arrow1Mstart">
      <path
         id="path2629-8"
         style="stroke:#000000;stroke-width:1pt;fill-rule:evenodd"
         sodipodi:nodetypes="ccccc"
         transform="scale(.4)"
         d="m0 0l5-5-17.5 5 17.5 5-5-5z" />
    </marker>
    <marker
       id="Arrow2Lstart-43"
       refY="0"
       refX="0"
       style="overflow:visible"
       orient="auto"
       inkscape:stockid="Arrow2Lstart">
      <path
         id="path2615-0"
         style="stroke-linejoin:round;stroke-width:.625;fill-rule:evenodd"
         sodipodi:nodetypes="cccc"
         transform="matrix(1.1,0,0,1.1,-5.5,0)"
         d="m8.7186 4.0337l-10.926-4.0177 10.926-4.0177c-1.7455 2.3721-1.7355 5.6174 0 8.0354z" />
    </marker>
    <marker
       id="Arrow1Mstart-30"
       refY="0"
       refX="0"
       style="overflow:visible"
       orient="auto"
       inkscape:stockid="Arrow1Mstart">
      <path
         id="path2629-9"
         style="stroke:#000000;stroke-width:1pt;fill-rule:evenodd"
         sodipodi:nodetypes="ccccc"
         transform="scale(.4)"
         d="m0 0l5-5-17.5 5 17.5 5-5-5z" />
    </marker>
    <marker
       id="Arrow2Lstart-75"
       refY="0"
       refX="0"
       style="overflow:visible"
       orient="auto"
       inkscape:stockid="Arrow2Lstart">
      <path
         id="path2615-48"
         style="stroke-linejoin:round;stroke-width:.625;fill-rule:evenodd"
         sodipodi:nodetypes="cccc"
         transform="matrix(1.1,0,0,1.1,-5.5,0)"
         d="m8.7186 4.0337l-10.926-4.0177 10.926-4.0177c-1.7455 2.3721-1.7355 5.6174 0 8.0354z" />
    </marker>
    <marker
       id="Arrow1Mstart-12"
       refY="0"
       refX="0"
       style="overflow:visible"
       orient="auto"
       inkscape:stockid="Arrow1Mstart">
      <path
         id="path2629-89"
         style="stroke:#000000;stroke-width:1pt;fill-rule:evenodd"
         sodipodi:nodetypes="ccccc"
         transform="scale(.4)"
         d="m0 0l5-5-17.5 5 17.5 5-5-5z" />
    </marker>
    <marker
       id="Arrow2Lstart-0"
       refY="0"
       refX="0"
       style="overflow:visible"
       orient="auto"
       inkscape:stockid="Arrow2Lstart">
      <path
         id="path2615-64"
         style="stroke-linejoin:round;stroke-width:.625;fill-rule:evenodd"
         sodipodi:nodetypes="cccc"
         transform="matrix(1.1,0,0,1.1,-5.5,0)"
         d="m8.7186 4.0337l-10.926-4.0177 10.926-4.0177c-1.7455 2.3721-1.7355 5.6174 0 8.0354z" />
    </marker>
    <marker
       id="Arrow1Mstart-6"
       refY="0"
       refX="0"
       style="overflow:visible"
       orient="auto"
       inkscape:stockid="Arrow1Mstart">
      <path
         id="path2629-2"
         style="stroke:#000000;stroke-width:1pt;fill-rule:evenodd"
         sodipodi:nodetypes="ccccc"
         transform="scale(.4)"
         d="m0 0l5-5-17.5 5 17.5 5-5-5z" />
    </marker>
    <marker
       id="Arrow2Lstart-08"
       refY="0"
       refX="0"
       style="overflow:visible"
       orient="auto"
       inkscape:stockid="Arrow2Lstart">
      <path
         id="path2615-1"
         style="stroke-linejoin:round;stroke-width:.625;fill-rule:evenodd"
         sodipodi:nodetypes="cccc"
         transform="matrix(1.1,0,0,1.1,-5.5,0)"
         d="m8.7186 4.0337l-10.926-4.0177 10.926-4.0177c-1.7455 2.3721-1.7355 5.6174 0 8.0354z" />
    </marker>
    <marker
       id="Arrow1Mstart-31"
       refY="0"
       refX="0"
       style="overflow:visible"
       orient="auto"
       inkscape:stockid="Arrow1Mstart">
      <path
         id="path2629-1"
         style="stroke:#000000;stroke-width:1pt;fill-rule:evenodd"
         sodipodi:nodetypes="ccccc"
         transform="scale(.4)"
         d="m0 0l5-5-17.5 5 17.5 5-5-5z" />
    </marker>
    <marker
       id="Arrow2Lstart-05"
       refY="0"
       refX="0"
       style="overflow:visible"
       orient="auto"
       inkscape:stockid="Arrow2Lstart">
      <path
         id="path2615-66"
         style="stroke-linejoin:round;stroke-width:.625;fill-rule:evenodd"
         sodipodi:nodetypes="cccc"
         transform="matrix(1.1,0,0,1.1,-5.5,0)"
         d="m8.7186 4.0337l-10.926-4.0177 10.926-4.0177c-1.7455 2.3721-1.7355 5.6174 0 8.0354z" />
    </marker>
    <marker
       id="Arrow1Mstart-4"
       refY="0"
       refX="0"
       style="overflow:visible"
       orient="auto"
       inkscape:stockid="Arrow1Mstart">
      <path
         id="path2629-0"
         style="stroke:#000000;stroke-width:1pt;fill-rule:evenodd"
         sodipodi:nodetypes="ccccc"
         transform="scale(.4)"
         d="m0 0l5-5-17.5 5 17.5 5-5-5z" />
    </marker>
    <marker
       id="Arrow2Lstart-9"
       refY="0"
       refX="0"
       style="overflow:visible"
       orient="auto"
       inkscape:stockid="Arrow2Lstart">
      <path
         id="path2615-60"
         style="stroke-linejoin:round;stroke-width:.625;fill-rule:evenodd"
         sodipodi:nodetypes="cccc"
         transform="matrix(1.1,0,0,1.1,-5.5,0)"
         d="m8.7186 4.0337l-10.926-4.0177 10.926-4.0177c-1.7455 2.3721-1.7355 5.6174 0 8.0354z" />
    </marker>
    <marker
       id="Arrow1Mstart-2"
       refY="0"
       refX="0"
       style="overflow:visible"
       orient="auto"
       inkscape:stockid="Arrow1Mstart">
      <path
         id="path2629-76"
         style="stroke:#000000;stroke-width:1pt;fill-rule:evenodd"
         sodipodi:nodetypes="ccccc"
         transform="scale(.4)"
         d="m0 0l5-5-17.5 5 17.5 5-5-5z" />
    </marker>
    <linearGradient
       id="linearGradient2927"
       y2="539.27"
       gradientUnits="userSpaceOnUse"
       x2="247.31"
       gradientTransform="translate(-173.39,-319.09)"
       y1="498.13"
       x1="200.38"
       inkscape:collect="always">
      <stop
         id="stop6741-27"
         style="stop-color:rgb(0, 0, 0)"
         offset="0" />
      <stop
         id="stop6743-22"
         style="stop-color:rgb(0, 0, 0);stop-opacity:0"
         offset="1" />
    </linearGradient>
  </defs>
  <sodipodi:namedview
     id="base"
     pagecolor="#ffffff"
     bordercolor="#666666"
     borderopacity="1.0"
     inkscape:pageopacity="0.0"
     inkscape:pageshadow="2"
     inkscape:zoom="1.4"
     inkscape:cx="-3.3632226"
     inkscape:cy="61.107045"
     inkscape:document-units="mm"
     inkscape:current-layer="layer1-4"
     showgrid="false"
     inkscape:window-width="1853"
     inkscape:window-height="1025"
     inkscape:window-x="67"
     inkscape:window-y="27"
     inkscape:window-maximized="1" />
  <metadata
     id="metadata5">
    <rdf:RDF>
      <cc:Work
         rdf:about="">
        <dc:format>image/svg+xml</dc:format>
        <dc:type
           rdf:resource="http://purl.org/dc/dcmitype/StillImage" />
        <dc:title></dc:title>
      </cc:Work>
    </rdf:RDF>
  </metadata>
  <g
     inkscape:label="Layer 1"
     inkscape:groupmode="layer"
     id="layer1"
     transform="translate(0,-246)">
    <g
       transform="matrix(1.9999999,0,0,1.9999999,-7.4294577,-322.09765)"
       id="layer1-4"
       inkscape:label="Layer 1">
      <g
         transform="translate(5.0756255,11.980793)"
         id="layer1-5"
         inkscape:label="Layer 1">
        <g
           id="layer3"
           inkscape:label="tete"
           transform="matrix(0.11249107,0,0,0.11249107,6.7343642,272.1818)">
          <g
             id="g2851">
            <path
               inkscape:connector-curvature="0"
               id="path6737"
               sodipodi:nodetypes="ccccccccsscccccccccccccc"
               style="fill:url(#linearGradient2927)"
               d="m 56.818,206.7 c 12.611,-0.95673 -13.479,3.9073 -15.069,4.2426 -8.0638,0.97493 35.563,-7.4653 44.292,-8.4825 18.345,-1.4611 -43.116,10.465 -45.551,11.027 0.74216,-3.1136 54.545,-14.258 45.66,-9.0564 -22.416,5.9003 -40.438,14.612 -0.38723,4.6311 22.218,-1.8947 -23.328,7.719 -30.963,9.4958 -4.22,-2.0254 50.5,-11.11 30.62,-4.787 -1.2286,1.6942 -19.287,4.1605 -9.9118,1.7866 1.2414,-0.31433 -2.4516,0.74906 -3.645,1.2132 -4.0296,1.567 -4.2343,1.9892 0.02068,2.6185 4.2384,0.46827 21.021,-1.4339 25.266,-1.0315 l -7.2438,4.698 c -4.2915,-0.45518 -20.003,-0.68596 -24.299,-1.096 -12.007,-1.6894 21.455,-12.963 24.274,-10.117 -5.5175,1.809 -45.18,9.0526 -28.829,3.8901 19.093,-3.6075 13.323,-0.85571 0.25799,0.0141 -13.201,1.6484 -18.321,2.2494 -2.871,-5.089 6.4057,-3.0746 -31.214,6.7803 -11.563,-0.058 8.157,-1.4871 43.084,-6.8722 14.815,-0.1219 -10.065,1.0589 -46.041,5.8169 -14.064,-2.1852 14.705,-3.034 18.793,-1.8277 2.5082,1.0611 l 6.6835,-2.6537 v 3e-5 z"
               transform="translate(-3.0305,0.21677)" />
            <path
               inkscape:connector-curvature="0"
               id="path4874"
               sodipodi:nodetypes="csc"
               style="fill:none;stroke:#000000;stroke-width:1.89999998"
               transform="translate(-3.0305,0.21677)"
               d="M 48.98,79.516 C 37.147,73.036 24.782,69.902 21.235,62.656 9.243,38.158 12.841,26.057 10.624,14.033" />
            <path
               inkscape:connector-curvature="0"
               id="path4876"
               sodipodi:nodetypes="ccc"
               style="fill:none;stroke:#000000;stroke-width:1.89999998"
               transform="translate(-3.0305,0.21677)"
               d="M 50.84,79.463 C 60.51,73.182 70.288,70.424 76.519,63.348 81.696,47.45 87.529,18.216 87.529,18.216" />
            <path
               inkscape:connector-curvature="0"
               id="path4878"
               sodipodi:nodetypes="csc"
               style="fill:none;stroke:#000000;stroke-width:1.89999998"
               transform="translate(-3.0305,0.21677)"
               d="m 45.106,138.71 c 3.5767,67.984 -5.765,61.681 -5.26,63.196 0.50508,1.5152 1.0102,3.5355 1.0102,3.5355" />
            <path
               inkscape:connector-curvature="0"
               id="path4880"
               sodipodi:nodetypes="csc"
               style="fill:none;stroke:#000000;stroke-width:1.89999998"
               transform="translate(-3.0305,0.21677)"
               d="m 49.992,141.93 c 33.452,16.018 19.893,52.73 21.73,54.598 1.1074,1.1266 10.379,-4.7402 10.379,-4.7402" />
            <path
               inkscape:connector-curvature="0"
               id="path4882"
               sodipodi:nodetypes="cssc"
               style="fill:#000000;fill-rule:evenodd;stroke:#000000;stroke-width:1px"
               transform="translate(-3.0305,0.21677)"
               d="m 42.213,199.85 c -2.444,2.0649 -8.1626,2.0641 -5.5558,3.358 5.3668,2.664 4.9739,5.6465 8.5863,2.5185 3.9322,-3.4049 13.132,-0.41975 -3.0305,-5.8765 z" />
            <path
               inkscape:connector-curvature="0"
               id="path5757"
               sodipodi:nodetypes="cssc"
               style="fill:#000000;fill-rule:evenodd;stroke:#000000;stroke-width:1px"
               transform="translate(-3.0305,0.21677)"
               d="m 72.387,194.19 c -2.444,3.9557 -5.6626,4.4633 -3.0558,4.4513 5.3668,-0.0247 12.831,-1.6428 16.443,-7.5808 3.9322,-6.4638 2.7748,-0.0324 -13.388,3.1296 z" />
            <path
               inkscape:connector-curvature="0"
               id="path5759"
               sodipodi:nodetypes="cssc"
               style="fill:#000000;fill-rule:evenodd;stroke:#000000;stroke-width:1px"
               transform="translate(-3.0305,0.21677)"
               d="M 7.0838,12.5 C 10.569,12.446 12.212,20.924 11.448,17.986 9.8751,11.936 15.103,5.191 9.888,5.336 4.2114,5.4951 0.1793,-3.5204 7.0838,12.5 Z" />
            <path
               inkscape:connector-curvature="0"
               id="path5761"
               sodipodi:nodetypes="cssc"
               style="fill:#000000;fill-rule:evenodd;stroke:#000000;stroke-width:1px"
               transform="translate(-3.0305,0.21677)"
               d="m 86.582,12.286 c 2.3258,2.6813 -1.2861,11.259 -0.16229,8.1339 2.3138,-6.4342 9.4924,-8.1415 5.9764,-12.099 -3.8273,-4.3078 -1.4913,-15.217 -5.8141,3.965 z" />
            <path
               inkscape:connector-curvature="0"
               id="path3077"
               sodipodi:nodetypes="ccssc"
               style="fill:none;stroke:#000000;stroke-width:3"
               transform="translate(-3.0305,0.21677)"
               d="m 51.428,70.56 c 0.3646,2.4319 -0.09441,3.4249 -1.2369,6.4597 -7.1402,18.967 -5.7548,68.197 -1.3775,66.027 6.733,-3.3382 -3.5542,-50.359 1.4688,-66.018 0.63375,-1.9758 1.37,-4.5525 1.1456,-6.4691 z" />
            <path
               id="path3075"
               sodipodi:rx="12.857142"
               sodipodi:ry="25"
               style="fill:none;stroke:#000000;stroke-width:2.35339999;stroke-linecap:round"
               sodipodi:type="arc"
               d="m 444.0348,362.03361 a 12.857142,25 0 0 1 18.14636,0.97228 12.857142,25 0 0 1 -0.44121,35.28756 12.857142,25 0 0 1 -18.14922,-0.7435 12.857142,25 0 0 1 0.32354,-35.29239"
               sodipodi:open="true"
               transform="matrix(1.0693,-0.18627,0.15316,0.9894,-497.38,-244.48)"
               sodipodi:cy="380.21933"
               sodipodi:cx="452.85715"
               sodipodi:end="3.9431937"
               sodipodi:start="3.9561603" />
            <path
               id="path4833"
               sodipodi:rx="3.5714285"
               sodipodi:ry="4.6428571"
               style="fill:none;stroke:#000000;stroke-width:2.07500005;stroke-linecap:round"
               sodipodi:type="arc"
               d="m 293.26364,368.62769 a 3.5714285,4.6428571 0 0 1 5.04066,0.18056 3.5714285,4.6428571 0 0 1 -0.12256,6.55341 3.5714285,4.6428571 0 0 1 -5.04145,-0.13808 3.5714285,4.6428571 0 0 1 0.0899,-6.5543"
               sodipodi:open="true"
               transform="matrix(0.96157,-0.27458,0.27458,0.96157,-345.5,-234.45)"
               sodipodi:cy="372.00504"
               sodipodi:cx="295.71429"
               sodipodi:end="3.9431937"
               sodipodi:start="3.9561603" />
            <path
               id="path4835"
               sodipodi:rx="3.5714285"
               sodipodi:ry="4.6428571"
               style="fill:none;stroke:#000000;stroke-width:2.07500005;stroke-linecap:round"
               sodipodi:type="arc"
               d="m 293.26364,368.62769 a 3.5714285,4.6428571 0 0 1 5.04066,0.18056 3.5714285,4.6428571 0 0 1 -0.12256,6.55341 3.5714285,4.6428571 0 0 1 -5.04145,-0.13808 3.5714285,4.6428571 0 0 1 0.0899,-6.5543"
               sodipodi:open="true"
               transform="matrix(0.96157,-0.27458,0.27458,0.96157,-334.3,-237.64)"
               sodipodi:cy="372.00504"
               sodipodi:cx="295.71429"
               sodipodi:end="3.9431937"
               sodipodi:start="3.9561603" />
            <path
               inkscape:connector-curvature="0"
               id="path4837"
               sodipodi:nodetypes="cc"
               style="fill:none;stroke:#000000;stroke-width:1.25"
               d="m 54.121,56.555 c -1.8518,6.0476 -6.0178,10.399 -13.003,1.7219" />
          </g>
        </g>
      </g>
    </g>
  </g>
</svg>
