<?xml version="1.0" encoding="UTF-8" standalone="no"?>
<!-- Created with Inkscape (http://www.inkscape.org/) -->

<svg
   xmlns:dc="http://purl.org/dc/elements/1.1/"
   xmlns:cc="http://creativecommons.org/ns#"
   xmlns:rdf="http://www.w3.org/1999/02/22-rdf-syntax-ns#"
   xmlns:svg="http://www.w3.org/2000/svg"
   xmlns="http://www.w3.org/2000/svg"
   xmlns:sodipodi="http://sodipodi.sourceforge.net/DTD/sodipodi-0.dtd"
   xmlns:inkscape="http://www.inkscape.org/namespaces/inkscape"
   width="51mm"
   height="51mm"
   viewBox="0 0 51 51"
   version="1.1"
   id="svg8"
   inkscape:version="0.92.3 (2405546, 2018-03-11)"
   sodipodi:docname="a3.svg">
  <defs
     id="defs2" />
  <sodipodi:namedview
     id="base"
     pagecolor="#ffffff"
     bordercolor="#666666"
     borderopacity="1.0"
     inkscape:pageopacity="0.0"
     inkscape:pageshadow="2"
     inkscape:zoom="0.98994949"
     inkscape:cx="186.49333"
     inkscape:cy="-30.885231"
     inkscape:document-units="mm"
     inkscape:current-layer="layer1"
     showgrid="false"
     inkscape:window-width="1853"
     inkscape:window-height="1025"
     inkscape:window-x="67"
     inkscape:window-y="27"
     inkscape:window-maximized="1" />
  <metadata
     id="metadata5">
    <rdf:RDF>
      <cc:Work
         rdf:about="">
        <dc:format>image/svg+xml</dc:format>
        <dc:type
           rdf:resource="http://purl.org/dc/dcmitype/StillImage" />
        <dc:title></dc:title>
      </cc:Work>
    </rdf:RDF>
  </metadata>
  <g
     inkscape:label="Layer 1"
     inkscape:groupmode="layer"
     id="layer1"
     transform="translate(0,-246)">
    <g
       transform="matrix(2.0000005,0,0,2.0000005,1.4645469,-297.2378)"
       id="layer1-3"
       inkscape:label="Layer 1">
      <g
         inkscape:transform-center-y="184.95051"
         inkscape:transform-center-x="220.23009"
         transform="matrix(0.01562497,0,0,0.01562497,0.60569513,271.70081)"
         id="g1147">
        <path
           inkscape:connector-curvature="0"
           d="m 1135.426,27.145 c 34.209,-14.771 72.977,-12.823 86.843,-7.495 12.96,4.788 23.859,13.6 34.42,22.272 14.757,11.696 39.294,87.579 22.599,108.224 -16.296,21.378 -11.322,47.187 -13.668,51.403 -0.77,1.483 -2.28,2.306 -3.607,3.191 3.102,7.141 6.47,14.173 9.535,21.34 0.796,-0.396 1.567,-0.885 2.311,-1.416 0.898,2.643 5.764,14.195 7.969,15.927 10.434,8.584 20.685,24.112 23.88,39.494 8.755,0 13.19,10.147 16.14,15.115 2.108,0.812 4.601,0.952 6.496,2.452 2.098,0.989 3.362,3.55 5.845,3.649 9.697,0.921 18.888,4.736 27.263,9.577 15.791,9.453 23.885,17.544 30.256,36.257 5.798,17.582 7.099,36.2 11.461,54.125 4.674,16.791 5.559,34.42 4.507,51.746 -2.269,34.033 -9.584,34.051 -7.417,48.743 4.033,28.425 1.268,28.678 0.094,37.095 -6.253,36.17 -10.797,87.424 -7.042,125.291 3.513,30.081 9.455,33.745 13.829,40.332 20.044,29.046 29.665,64.065 47.375,96.737 14.706,30.412 23.675,71.89 30.094,97.409 3.167,12.982 16.418,32.898 8.375,37.735 -8.953,5.028 -38.9,11.306 -49.243,13.324 -32.464,6.568 -29.962,2.958 -31.979,6.47 -0.594,1.047 -52.573,97.874 -127.144,214.788 -12.341,19.211 -24.655,38.495 -38.547,56.634 -0.229,0.588 0.406,1.093 0.619,1.655 14.548,25.51 26.917,66.919 26.009,98.684 0.078,1.556 -0.37,3.362 0.739,4.69 17.697,25.064 23.091,63.54 28.19,79.067 10.03,27.478 21.693,80.583 22.183,82.445 5.448,7.212 28.604,27.726 10.878,84.985 -2.379,8.816 -1.328,-3.386 -1.629,30.615 -18.115,11.462 -67.775,3.656 -89.648,0.036 -2.696,-0.167 -3.466,-4.18 -6.329,-3.602 -13.474,1.325 -31.524,-0.751 -40.093,-2.472 -38.373,-10.334 -55.41,-27.024 -54.692,-31.125 0.583,-8.687 5.939,-17.691 14.662,-20.195 10.228,-2.561 20.819,-3.024 31.286,-3.841 -6.459,-8.641 -62.594,-116.271 -71.077,-136.908 -98.404,139.873 -100.721,142.369 -106.345,152.262 -3.742,5.909 -9.931,15.865 -22.324,9.926 -15.651,-8.13 -31.146,-16.562 -46.828,-24.619 -0.484,12.278 -1.447,24.536 -2.056,36.809 -12.918,0.753 -74.403,0.119 -84.584,1.988 -35.956,4.979 -132.697,8.344 -151.966,0.614 -1.822,-0.687 -2.774,-2.727 -4.747,-3.061 -19.746,-5.681 -22.73,-15.303 -29.615,-26.035 -3.492,-5.762 -4.278,-12.616 -4.684,-19.201 0,-5.22 -0.198,-10.446 0.193,-15.651 0.314,-8.151 -0.635,-22.491 -5.647,-28.913 -3.771,-4.984 -10.637,-1.515 -15.183,2.582 -12.46,11.567 -16.037,25.321 -27.242,52.949 -1.312,3.154 -2.488,6.386 -4.117,9.4 -2.083,4.266 -12.56,0.125 -10.399,-4.653 6.459,-15.203 10.748,-31.286 13.158,-47.614 3.479,-26.471 0.132,-28.38 -0.494,-35.856 -1.838,-18.063 7.309,-43.011 13.434,-52.881 7.084,-11.758 17.972,-20.408 28.142,-29.35 -0.193,-13.501 -6.648,-69.707 -17.108,-135.94 -4.655,-28.479 -13.338,-55.091 -7.334,-102.921 4.651,-36.352 15.622,-62.571 23.245,-74.372 20.672,-33.304 -10.103,-43.678 -39.38,-64.306 -7.589,-5.168 -14.948,-10.67 -22.511,-15.87 -9.979,69.365 -33.736,242.176 -32.129,312.509 -137.992,-17.563 -164.013,-16.093 -197.472,-17.873 -7.469,-0.229 -14.933,-0.791 -22.402,-0.77 -5.84,13.007 -11.31,26.175 -16.983,39.25 -3.852,-13.314 -8.026,-26.586 -13.715,-39.25 -46.312,2.373 -67.594,18.727 -74.684,22.199 3.265,-35.236 10.199,-88.706 19.044,-121.97 1.037,-5.731 3.879,1.459 -11.862,-28.762 -23.988,-47.386 -58.056,-81.049 -97.846,-102.02 -40.499,-21.154 -66.22,-20.435 -76.683,-20.897 -6.813,0.161 -13.689,-0.443 -20.439,0.687 2.223,6.595 10.356,14.754 12.237,23 0.375,1.551 0.182,3.893 -1.723,4.284 -3.753,0.64 -7.297,-1.192 -10.732,-2.394 -8.519,-3.599 -24.729,-11.898 -21.345,-20.507 15.414,-41.246 26.532,-157.58 30.745,-172.707 3.262,-8.531 10.632,-44.534 31.26,-71.296 15.66,-19.624 43.509,-38.652 73.763,-45.995 9.719,-2.653 15.491,-2.016 21.611,-5.897 18.312,-11.081 33.206,-35.41 62.125,-34.976 9.003,-0.083 43.776,-27.818 77.896,-45.194 2.228,-0.973 3.42,-3.196 4.908,-4.986 36.59,-46.277 60.798,-63.143 134.654,-82.762 17.295,-4.974 2.717,4.279 62.063,-33.285 20.677,-12.919 30.33,-15.109 41.04,-25.165 0.474,-9.265 -0.963,-18.456 -2.368,-27.58 -9.696,-59.108 -22.612,-84.648 -16.817,-133.192 4.306,-37.415 13.772,-56.062 51.252,-115.256 0.612,-1.413 2.352,-19.475 2.431,-20.486 1.556,0.968 3.092,1.983 4.69,2.904 1.213,-3.383 2.014,-6.902 3.206,-10.295 -12.749,4.835 -31.076,3.343 -38.651,1.541 -8.895,-2.121 -7.136,-7.97 -10.748,-15.255 -15.207,-2.658 -18.401,-19.707 -17.197,-35.19 1.606,-21.315 26.744,-16.265 46.016,-19.737 -0.573,-3.8 -0.927,-7.865 0.651,-11.477 2.181,-5.507 7.427,-9.155 12.866,-11.019 1.098,-10.805 4.013,-21.309 6.844,-31.76 5.069,-19.014 18.945,-35.186 32.785,-48.332 15.068,-13.334 27.944,-22.324 65.524,-17.618 3.279,0.52 6.605,0.984 9.936,0.567 16.801,-0.432 33.129,6.433 46.162,16.744 1.041,0.687 1.91,2.046 3.315,1.863 8.109,-0.64 16.551,-0.291 24.125,2.962 4.898,1.957 8.083,6.595 10.082,11.279 2.894,6.74 3.081,14.23 2.597,21.439 -0.675,7.378 -2.349,14.583 -10.311,26.774 -1.395,1.621 -0.066,2.632 1.738,39.598 -6.129,21.122 -7.889,17.232 1.629,47.593 0.999,3.266 3.11,14.605 -2.483,17.228 -4.721,2.556 -10.16,3.425 -15.458,3.721 -0.859,3.331 -1.447,6.73 -1.973,10.129 -0.375,2.275 -0.255,4.648 -1.031,6.844 -0.614,1.223 -1.712,2.098 -2.634,3.076 -0.193,1.863 0.515,4.185 -1.135,5.569 -1.613,1.884 -4.221,1.983 -6.485,2.306 -1.651,16.217 -9.24,21.306 -24.161,21.928 -23.048,-0.598 -36.18,-10.264 -37.766,-11.107 -4.492,7.297 -8.562,14.969 -10.701,23.318 -3.791,14.672 -0.415,20.719 1.005,24.556 17.623,47.019 16.792,44.537 18.264,49.222 -11.377,-17.373 -28.631,-29.838 -33.498,-32.103 5.258,6.599 29.121,29.756 33.743,32.64 0.765,0.968 0.77,2.483 1.868,3.248 16.518,12.959 43.582,31.741 62.692,42.997 16.772,9.68 20.242,10.922 36.569,7.917 42.824,-8.666 22.472,-7.149 108.443,-17.905 16.997,-2.101 74.516,-8.289 77.89,-15.458 3.789,-6.334 8.703,-11.898 12.669,-18.108 1.077,-2.92 1.083,-6.131 2.264,-9.036 9.686,15.76 30.906,30.633 47.65,38.001 -9.972,7.044 -71.52,44.539 -77.734,49.836 7.102,-0.298 16.267,-4.099 32.681,-6.121 1.936,-0.073 3.31,-1.52 4.752,-2.623 7.818,-6.105 18.727,-7.896 28.101,-4.695 0.703,0.115 1.582,0.703 2.233,0.094 9.717,-7.63 17.176,-17.681 23.807,-28.002 -4.216,-3.185 -8.859,-5.783 -13.47,-8.338 -5.773,-5.658 -30.075,-19.982 -46.682,-37.366 -0.474,-0.468 -1.02,-0.833 -1.567,-1.135 -2.196,0.219 -4.315,1.744 -6.537,0.874 -2.061,-0.776 -4.33,-2.181 -4.705,-4.533 -0.89,-4.232 -0.255,-8.676 1.124,-12.731 0.927,-2.774 2.977,-4.965 5.392,-6.548 -2.785,-9.203 -0.66,-13.767 6.995,-19.773 -2.894,-8.073 -0.489,-18.29 7.042,-22.964 0.6,-7.467 2.213,-17.378 8.838,-21.246 7.325,-4.565 25.147,1.058 33.186,3.992 2.457,1.109 5.038,-0.307 7.542,-0.562 5.335,-0.729 11.128,-1.109 16.119,1.317 2.922,1.455 8.598,5.337 7.719,8.244 -0.286,1.572 -1.853,2.269 -3.024,3.092 20.645,4.09 31.288,27.221 26.347,32.728 -1.306,1.426 -3.352,1.587 -5.116,1.952 12.098,4.679 11.599,3.465 10.602,23.744 10.436,-10.077 21.595,-19.378 32.733,-28.653 1.676,-6.693 2.727,-13.559 4.211,-20.309 1.68,-6.961 0.542,-17.616 -5.835,-18.321 -7.104,0.026 -14.209,0.557 -21.319,0.401 -30.925,-0.34 -34.398,1.615 -37.907,-5.517 -5.005,-10.681 -1.23,-23.136 -5.465,-25.842 -1.952,-1.343 -3.867,-2.857 -5.137,-4.882 -0.432,-1.816 0.734,-3.69 0.422,-5.517 -3.559,-7.902 -2.885,-2.761 -2.41,-21.928 -5.319,-1.192 -10.644,-2.353 -16.01,-3.263 -3.914,-1.192 -5.111,-6.058 -3.94,-9.603 4.221,-11.888 8.624,-23.718 12.804,-35.622 -7.648,-3.226 -4.557,-2.253 -2.514,-42.17 -0.088,-3.185 0.687,-6.386 0.063,-9.556 -7.549,-2.011 -14.425,-12.09 -8.083,-24.265 9.2,-17.078 23.851,-26.726 43.71,-40.082 7.784,-5.526 16.076,-10.367 24.861,-14.12 M 605.621,229.093 c 16.424,13.397 60.257,35.149 91.902,36.97 -4.729,-2.162 -33.689,-5.46 -87.191,-34.701 -1.526,-0.858 -3.025,-1.79 -4.711,-2.269 m 530.524,131.745 c -3.216,37.571 -7.528,86.091 -22.563,117.879 -4.464,-5.947 1.762,-43.38 2.457,-48.103 2.873,2.556 5.595,5.278 8.442,7.865 -10.284,-17.151 -15.833,-22.271 -24.104,-28.413 -7.672,-5.548 -15.844,-10.457 -24.39,-14.511 1.015,1.197 2.275,2.15 3.498,3.139 11.872,9.561 23.474,19.466 34.628,29.86 -1.859,12.3 -8.203,47.235 -2.707,52.199 1.005,1.02 2.514,0.692 3.784,0.489 0.547,0.479 1.104,0.958 1.712,1.416 -0.432,-0.687 -0.885,-1.343 -1.306,-2.004 14.853,-24.872 20.797,-84.314 22.854,-113.101 10.806,7.356 97.328,111.071 153.855,136.398 -2.311,-2.306 -5.345,-3.701 -7.896,-5.699 -48.657,-34.062 -89.102,-80.206 -107.412,-98.184 -13.189,-13.523 -27.294,-26.093 -40.852,-39.23 m -530.41,38.36 c 1.358,2.184 26.567,34.028 82.226,64.623 21.189,11.544 43.221,21.73 66.258,29.022 0.968,0.271 0.749,1.525 0.973,2.301 3.796,32.803 -1.993,68.119 -12.382,99.137 4.823,-7.088 18.271,-55.236 15.916,-87.702 0.057,-4.544 -0.942,-9.046 -0.713,-13.585 64.886,12.932 168.931,6.439 178.583,3.513 49.311,-15.036 95.736,-50.65 97.596,-52.34 13.857,6.817 21.337,3.215 24.89,2.42 1.63,0.289 10.978,4.448 20.252,-0.39 5.844,-3.213 7.055,-7.987 1.072,-13.038 -6.44,-4.805 -20.855,-8.305 -28.741,-8.76 1.013,0.332 31.045,5.505 31.39,15.042 0.179,5.75 -12.21,9.889 -21.933,5.777 -1.359,-0.656 -2.884,-0.729 -4.237,-0.083 -7.599,3.071 -16.14,0.562 -22.854,-3.498 -26.679,20.063 -74.548,52.079 -107.725,55 -42.716,2.869 -68.388,2.327 -73.414,2.457 2.134,-1.051 4.388,-1.816 6.636,-2.597 43.585,-16.103 117.818,-55.114 123.594,-59.153 -1.306,0.349 -2.503,0.968 -3.701,1.541 -142.662,66.866 -112.903,51.066 -132.796,59.819 -4.684,0.401 -48.568,-0.647 -83.543,-6.792 -7.995,-1.28 -15.516,-4.33 -23.052,-7.146 -91.192,-35.368 -130.822,-82.801 -134.295,-85.568 m 647.206,30.068 c -3.232,5.564 -6.043,11.471 -7.297,17.821 -1.14,5.611 -2.145,11.336 -1.962,17.077 1.239,-1.988 1.244,-4.466 2.004,-6.647 6.699,-24.692 19.088,-39.041 22.219,-43.804 -6.329,3.603 -11.222,9.385 -14.964,15.553 m -135.789,53.73 c 0.731,1.001 41.665,49.182 60.73,68.168 0.852,1 33.402,35.436 51.476,51.585 7.698,7.026 16.515,12.648 24.869,18.841 7.104,5.205 15.297,10.571 24.515,9.816 14.621,-1.124 29.896,-12.042 40.603,-22.219 10.073,-10.291 29.847,-34.472 37.881,-46.427 11.107,-16.235 16.36,-36.135 17.197,-41.618 -1.103,2.451 -1.676,5.111 -2.811,7.557 -15.052,35.256 -66.244,103.307 -99.074,96.898 -23.268,-4.098 -136.959,-124.806 -145.506,-132.88 -3.369,-3.163 -6.127,-6.994 -9.88,-9.721 m -39.895,65.737 c -61.623,31.032 -67.836,43.455 -268.049,47.65 -1.709,-0.047 -38.962,1.192 -66.138,-1.869 0,0 -5.456,12.09 -12.476,24.478 -25.146,44.184 -44.605,62.24 -60.074,75.762 -15.072,13.195 -49.293,40.613 -64.67,62.104 48.435,57.977 105.441,148.579 143.581,213.388 10.243,15.125 20.242,30.469 28.778,46.641 7.376,15.841 1.647,36.441 -6.506,51.799 -27.083,44.411 -33.566,122.99 -38.157,178.078 -7.749,92.905 -2.909,101.729 -0.167,154.792 1.152,26.331 2.366,78.537 -6.438,103.873 -4.622,14.862 -4.266,36.824 4.804,46.776 12.312,0.11 8.693,0.222 12.075,-1.863 4.715,-3.724 28.711,-15.044 30.729,-18.196 7.287,-10.493 17.686,-18.852 29.631,-23.422 1.046,-0.458 2.332,-0.723 2.873,-1.848 3.331,-5.507 6.756,-10.956 10.066,-16.479 1.422,-2.22 -0.112,-1.081 13.913,-4.19 7.053,-1.693 4.37,0.107 11.024,-5.736 17.313,-17.387 10.385,-10.456 14.193,-18.108 6.22,-14.428 18.347,-25.774 32.255,-32.759 1.967,-1.114 4.637,-1.437 5.777,-3.623 3.232,-4.825 7.677,-8.63 11.664,-12.804 2.592,-2.738 4.44,-6.048 6.386,-9.249 9.512,-15.26 25.006,-22.913 26.857,-24.661 0,0 11.064,-25.136 33.514,-62.791 3.843,-6.437 8.741,-46.047 43.986,-81.409 0.926,-0.999 2.092,-1.832 2.764,-3.034 -0.733,-6.415 -2.678,-18.073 12.049,-36.829 1.296,-1.806 1.478,-4.107 2.212,-6.142 14.918,-48.462 52.688,-128.158 75.47,-175.877 15.72,-33.267 15.83,-27.309 18.992,-67.423 0.026,-0.822 0.219,-1.874 -0.661,-2.29 -1.634,-1.582 -4.601,-2.379 -4.71,-5.002 -3.637,-33.396 2.005,-154.848 -1.14,-195.332 -0.448,-5.871 -1.968,-11.576 -2.946,-17.363 -13.118,-65.956 -12.694,-79.06 -16.479,-105.211 -3.633,-25.998 -7.896,-51.903 -12.434,-77.755 -4.293,1.713 -8.327,4.04 -12.548,5.924 m -474.01,213.945 c -5.476,20.82 -1.012,29.546 -4.398,37.86 -5.403,13.736 -23.732,34.897 -49.103,69.068 -96.364,129.267 -89.863,169.43 -171.187,336.227 -20.459,42.654 -32.943,64.76 -37.787,84.672 0.135,-0.281 0.401,-0.838 0.531,-1.119 6.515,-21.058 24.329,-53.326 34.409,-73.773 75.851,-149.672 76.267,-192.482 136.976,-287.666 0.906,0.854 1.712,1.817 2.457,2.831 14.256,19.13 50,50.451 77.224,65.675 -1.624,-1.983 -3.898,-3.253 -5.829,-4.887 -25.098,-19.804 -50.346,-39.687 -72.28,-63.051 -0.489,-0.547 -1.525,-1.228 -0.723,-1.967 54.912,-86.293 89.691,-112.999 87.499,-137.335 -0.161,-10.915 0.453,-22.152 4.591,-32.39 -1.412,1.639 -1.698,3.872 -2.38,5.855 m 731.806,142.123 c 0.062,1.702 1.561,-0.801 0,0 m 1.514,0.354 c 1.527,1.327 15.687,4.052 18.045,4.445 23.12,2.936 46.011,7.386 68.891,11.789 23.588,4.762 47.687,6.574 71.187,11.825 -1.504,-0.822 -3.175,-1.223 -4.778,-1.738 -31.772,-9.96 -45.892,-12.635 -64.603,-16.614 -36.841,-7.542 -46.094,-8.316 -79.478,-9.593 -3.096,0.026 -6.182,-0.541 -9.264,-0.114 M 255.809,1187.314 c 0.656,2.059 49.692,93.856 54.776,101.104 -3.175,-11.109 -41.948,-85.587 -54.776,-101.104 m 860.968,223.902 c 7.6,-7.495 123.262,-172.716 128.7,-183.83 -18.265,22.455 -122.976,172.756 -128.7,183.83 z"
           id="path1143" />
        <path
           inkscape:connector-curvature="0"
           d="m 91.658,414.25 c 5.928,6.064 11.305,12.637 16.973,18.94 23.046,26.378 -11.65,62.951 22.303,95.852 1.561,1.65 3.446,3.269 5.809,3.513 6.748,-0.63 6.372,-7.857 30.75,-54.078 2.436,-0.125 5.21,-0.13 7.068,1.718 1.447,1.395 2.946,3.711 1.806,5.71 -0.464,1.001 -21.45,46.324 -22.651,49.311 7.408,22.558 -1.369,45.035 -19.258,56.525 -6.876,4.762 -14.725,7.797 -22.334,11.149 4.071,16.57 17.572,36.226 27.377,50.81 21.289,29.88 33.781,90.168 33.337,98.2 -18.516,1.425 -40.124,8.351 -58.966,21.22 -34.956,23.949 -47.728,52.347 -57.045,97.523 -10.937,-79.755 -3.164,-87.448 -2.275,-123.1 1.01,-11.021 0.82,-68.702 -4.794,-112.83 -2.945,-21.402 -4.248,-22.585 -7.079,-30.891 -8.763,-25.041 -18.853,-50.316 -19.758,-73.263 -1.604,-43.446 7.355,-42.515 6.589,-69.302 -0.13,-1.692 -0.229,-3.914 -2.04,-4.684 -2.41,-0.963 -2.014,-4.065 -1.463,-6.095 4.516,-14.013 6.614,-32.983 -4.533,-42.581 -2.446,-2.061 -4.804,-4.383 -6.189,-7.302 -7.491,-15.69 40.769,-22.077 76.373,13.655 z"
           id="path1145" />
      </g>
    </g>
  </g>
</svg>
