<?xml version="1.0" encoding="UTF-8" standalone="no"?>
<!-- Created with Inkscape (http://www.inkscape.org/) -->

<svg
   xmlns:dc="http://purl.org/dc/elements/1.1/"
   xmlns:cc="http://creativecommons.org/ns#"
   xmlns:rdf="http://www.w3.org/1999/02/22-rdf-syntax-ns#"
   xmlns:svg="http://www.w3.org/2000/svg"
   xmlns="http://www.w3.org/2000/svg"
   xmlns:sodipodi="http://sodipodi.sourceforge.net/DTD/sodipodi-0.dtd"
   xmlns:inkscape="http://www.inkscape.org/namespaces/inkscape"
   width="51mm"
   height="51mm"
   viewBox="0 0 51 51"
   version="1.1"
   id="svg8"
   inkscape:version="0.92.3 (2405546, 2018-03-11)"
   sodipodi:docname="a4.svg">
  <defs
     id="defs2" />
  <sodipodi:namedview
     id="base"
     pagecolor="#ffffff"
     bordercolor="#666666"
     borderopacity="1.0"
     inkscape:pageopacity="0.0"
     inkscape:pageshadow="2"
     inkscape:zoom="1.4"
     inkscape:cx="-3.3632226"
     inkscape:cy="-31.98678"
     inkscape:document-units="mm"
     inkscape:current-layer="layer1"
     showgrid="false"
     inkscape:window-width="1853"
     inkscape:window-height="1025"
     inkscape:window-x="67"
     inkscape:window-y="27"
     inkscape:window-maximized="1" />
  <metadata
     id="metadata5">
    <rdf:RDF>
      <cc:Work
         rdf:about="">
        <dc:format>image/svg+xml</dc:format>
        <dc:type
           rdf:resource="http://purl.org/dc/dcmitype/StillImage" />
        <dc:title></dc:title>
      </cc:Work>
    </rdf:RDF>
  </metadata>
  <g
     inkscape:label="Layer 1"
     inkscape:groupmode="layer"
     id="layer1"
     transform="translate(0,-246)">
    <g
       transform="matrix(2,0,0,2,0.66382543,-297.99326)"
       id="layer1-6"
       inkscape:label="Layer 1">
      <g
         transform="matrix(0.15211791,0,0,0.15211791,-1.2639805,270.95986)"
         id="layer1-7">
        <g
           id="g2474"
           transform="translate(207.14,240)">
          <path
             inkscape:connector-curvature="0"
             id="path2167"
             style="fill:#000000;fill-opacity:0.39216003"
             d="m 367.86,604.51 a 61.43,13.571221 0 1 1 -122.86,0 61.43,13.571221 0 1 1 122.86,0 z"
             transform="matrix(1.093,0,0,0.8421,-449.58,-588.31)" />
          <path
             inkscape:connector-curvature="0"
             id="path2169"
             style="fill:#ffffff;stroke:#000000;stroke-width:2.5;stroke-linecap:round;stroke-linejoin:round"
             d="m -38.367,-154.04 c 0,47.59 -40.235,77.454 -82.233,77.454 -42,0 -75.32,-20.556 -75.32,-68.134 0,-47.59 34.09,-86.2 76.09,-86.2 41.997,0 81.463,29.3 81.463,76.88 z" />
          <path
             inkscape:connector-curvature="0"
             id="path2171"
             style="fill:#ffffff;stroke:#000000;stroke-width:2.5;stroke-linecap:round;stroke-linejoin:round"
             d="m -92.267,-185.81 c 3.292,15.11 21.754,27.82 34.263,26.45 12.509,-1.37 17.973,-13.22 16.42,-26.45 -1.553,-13.22 -14.166,-23.95 -28.155,-23.95 -13.988,0 -25.812,8.88 -22.528,23.95 z" />
          <path
             inkscape:connector-curvature="0"
             id="path2173"
             style="fill:#ffffff;stroke:#000000;stroke-width:2.5;stroke-linecap:round;stroke-linejoin:round"
             d="m -96.632,-188.85 c -2.801,16.78 -22.308,25.66 -36.688,24.13 -14.39,-1.52 -24.52,-11.65 -20.45,-25.88 3.92,-13.67 18.42,-22.52 34.54,-24.27 15.36,-1.68 25.393,9.27 22.598,26.02 z" />
          <path
             inkscape:connector-curvature="0"
             id="path2175"
             style="fill:#000000"
             d="m -54.955,-120 c 19.391,-44.77 -23.103,-27.53 -45.105,-30.44 -29.59,-3.91 -47.84,-17.46 -56.58,12.79 -5.82,20.13 4.78,50.306 38.15,53.396 32.38,2.999 54.06,-13.875 63.535,-35.746 z" />
          <path
             inkscape:connector-curvature="0"
             id="path2182"
             style="fill:none;stroke:#000000;stroke-width:2.5;stroke-linecap:round;stroke-linejoin:round"
             d="m -92.282,-193.24 c 7.035,-5.46 23.315,-9.28 36.811,-6.03" />
          <path
             inkscape:connector-curvature="0"
             id="path2184"
             style="fill:none;stroke:#000000;stroke-width:2.5;stroke-linecap:round;stroke-linejoin:round"
             d="m -92.073,-191.13 c 8.292,5.91 25.097,10.04 43.394,10.49" />
          <path
             inkscape:connector-curvature="0"
             id="path2186"
             style="fill:none;stroke:#000000;stroke-width:2.5;stroke-linecap:round;stroke-linejoin:round"
             d="m -91.561,-192.47 c 4.548,-2.03 13.175,-1.06 18.37,1.94" />
          <path
             inkscape:connector-curvature="0"
             id="path2188"
             style="fill:none;stroke:#000000;stroke-width:2.5;stroke-linecap:round;stroke-linejoin:round"
             d="m -96.952,-195.68 c -7.768,-5.46 -25.728,-9.28 -40.628,-6.03" />
          <path
             inkscape:connector-curvature="0"
             id="path2190"
             style="fill:none;stroke:#000000;stroke-width:2.5;stroke-linecap:round;stroke-linejoin:round"
             d="m -97.048,-193.27 c -8.212,7.63 -24.852,12.98 -42.962,13.55" />
          <path
             inkscape:connector-curvature="0"
             id="path2192"
             style="fill:none;stroke:#000000;stroke-width:2.5;stroke-linecap:round;stroke-linejoin:round"
             d="m -96.558,-193.7 c -6.932,-0.68 -13.602,-0.36 -18.922,1.6" />
        </g>
      </g>
    </g>
  </g>
</svg>
