<?xml version="1.0" encoding="UTF-8" standalone="no"?>
<!-- Created with Inkscape (http://www.inkscape.org/) -->

<svg
   xmlns:dc="http://purl.org/dc/elements/1.1/"
   xmlns:cc="http://creativecommons.org/ns#"
   xmlns:rdf="http://www.w3.org/1999/02/22-rdf-syntax-ns#"
   xmlns:svg="http://www.w3.org/2000/svg"
   xmlns="http://www.w3.org/2000/svg"
   xmlns:sodipodi="http://sodipodi.sourceforge.net/DTD/sodipodi-0.dtd"
   xmlns:inkscape="http://www.inkscape.org/namespaces/inkscape"
   width="51mm"
   height="51mm"
   viewBox="0 0 51 51"
   version="1.1"
   id="svg8"
   inkscape:version="0.92.3 (2405546, 2018-03-11)"
   sodipodi:docname="a7.svg">
  <defs
     id="defs2">
    <linearGradient
       id="linearGradient3144"
       y2="539.27"
       gradientUnits="userSpaceOnUse"
       x2="247.31"
       gradientTransform="matrix(1.8854,0,0,1,38.598,128.35)"
       y1="498.13"
       x1="200.38">
      <stop
         id="stop6741"
         offset="0" />
      <stop
         id="stop6743"
         stop-opacity="0"
         offset="1" />
    </linearGradient>
    <linearGradient
       id="linearGradient3144-2"
       y2="539.27"
       gradientUnits="userSpaceOnUse"
       x2="247.31"
       gradientTransform="matrix(1.8854,0,0,1,38.598,128.35)"
       y1="498.13"
       x1="200.38">
      <stop
         id="stop6741-8"
         offset="0" />
      <stop
         id="stop6743-9"
         stop-opacity="0"
         offset="1" />
    </linearGradient>
    <linearGradient
       id="linearGradient4219"
       y2="539.27"
       gradientUnits="userSpaceOnUse"
       x2="247.31"
       gradientTransform="matrix(1.21,0,0,1,169.55,-481.7)"
       y1="498.13"
       x1="200.38">
      <stop
         id="stop6741-2"
         offset="0" />
      <stop
         id="stop6743-2"
         stop-opacity="0"
         offset="1" />
    </linearGradient>
  </defs>
  <sodipodi:namedview
     id="base"
     pagecolor="#ffffff"
     bordercolor="#666666"
     borderopacity="1.0"
     inkscape:pageopacity="0.0"
     inkscape:pageshadow="2"
     inkscape:zoom="1.4"
     inkscape:cx="-3.3632226"
     inkscape:cy="-31.98678"
     inkscape:document-units="mm"
     inkscape:current-layer="layer1"
     showgrid="false"
     inkscape:window-width="1853"
     inkscape:window-height="1025"
     inkscape:window-x="67"
     inkscape:window-y="27"
     inkscape:window-maximized="1" />
  <metadata
     id="metadata5">
    <rdf:RDF>
      <cc:Work
         rdf:about="">
        <dc:format>image/svg+xml</dc:format>
        <dc:type
           rdf:resource="http://purl.org/dc/dcmitype/StillImage" />
        <dc:title></dc:title>
      </cc:Work>
    </rdf:RDF>
  </metadata>
  <g
     inkscape:label="Layer 1"
     inkscape:groupmode="layer"
     id="layer1"
     transform="translate(0,-246)">
    <g
       transform="matrix(2.0000001,0,0,2.0000001,2.4038081,-297.17574)"
       id="layer1-6"
       inkscape:label="Layer 1">
      <g
         id="layer3"
         transform="matrix(0.12620335,0,0,0.12620335,-43.387791,291.29821)">
        <g
           id="g4198">
          <path
             style="fill:url(#linearGradient4219)"
             inkscape:connector-curvature="0"
             id="path6737"
             d="m 432.7,27.294 c 22.315,-0.95673 -23.852,3.9073 -26.666,4.2426 -14.269,0.97493 30.2,-2.0201 45.646,-3.0373 32.463,-1.4611 -43.564,5.02 -47.874,5.5816 1.3133,-3.1136 59.507,-8.9851 43.784,-3.784 -24.831,7.1103 -20.319,4.9317 3.5972,3.4211 39.316,-1.8947 -8.5501,3.6567 -22.06,5.4335 -7.4674,-2.0254 68.866,-9.5542 33.688,-3.2312 -2.174,1.6942 -13.634,2.6047 2.9552,0.23081 2.1966,-0.31433 -4.3381,0.74906 -6.45,1.2132 -7.1304,1.567 -7.4927,1.9892 0.0365,2.6185 7.5,0.46827 15.02,0.8133 22.532,1.2157 l -10.83,2.5372 c -7.5938,-0.45518 -15.208,-0.77239 -22.809,-1.1824 -21.247,-1.6894 22.058,-10.975 27.047,-8.1286 -9.7633,1.809 -64.04,7.0647 -35.107,1.9021 33.785,-3.6075 23.575,-0.85571 0.45653,0.0141 -23.36,1.6484 -32.419,2.2494 -5.0804,-5.089 11.335,-3.0746 -55.234,6.7803 -20.461,-0.058 14.434,-1.4871 76.237,-6.8722 26.216,-0.1219 -17.81,1.0589 -81.47,5.8169 -24.886,-2.1852 26.021,-3.034 33.255,-1.8277 4.4382,1.0611 l 11.827,-2.6537 z" />
          <path
             style="fill:none;stroke:#000000;stroke-width:1.89999998"
             inkscape:connector-curvature="0"
             id="path4876"
             d="m 427.67,-95.073 c -15.432,14.603 -31.337,19.875 -34.316,22.428 1.1804,0.28342 16.758,-29.664 19.829,-30.028" />
          <path
             style="fill:none;stroke:#000000;stroke-width:1.89999998"
             inkscape:connector-curvature="0"
             id="path4878"
             d="m 424.97,-35.355 c -2.2404,11.296 -6.158,21.21 -6.5701,28.763 -1.9697,36.094 -1.8743,31.796 -1.4172,33.069 0.5398,1.5032 -2.0582,2.8537 -2.0582,2.8537" />
          <path
             style="fill:none;stroke:#000000;stroke-width:1.89999998"
             inkscape:connector-curvature="0"
             id="path4880"
             d="m 428.65,-36.382 c 5.5678,29.068 1.1816,56.125 0.17978,62.03 -0.26715,1.5747 11.619,1.7323 11.619,1.7323" />
          <path
             style="fill-rule:evenodd;stroke:#000000;stroke-width:1px"
             inkscape:connector-curvature="0"
             id="path4882"
             d="m 416.82,22.891 c -2.444,2.4847 -17.079,4.8144 -14.249,5.9157 2.9803,1.1599 -2.8674,2.7032 8.0749,1.6668 5.6534,-0.53547 6.3135,1.5405 6.1746,-7.5825 z" />
          <path
             style="fill-rule:evenodd;stroke:#000000;stroke-width:1px"
             inkscape:connector-curvature="0"
             id="path5757"
             d="m 428.79,23.729 c -2.444,2.4847 -5.6626,1.0551 -3.0558,2.612 5.3668,3.2055 12.831,6.08 16.443,2.3162 3.9322,-4.0971 2.7748,1.6378 -13.388,-4.9282 z" />
          <path
             style="fill-rule:evenodd;stroke:#000000;stroke-width:1px"
             inkscape:connector-curvature="0"
             id="path5759"
             d="m 428.31,-94.672 c -4.2734,2.579 -5.0553,5.606 -4.8815,3.0951 0.35782,-5.1695 -3.8267,-4.2242 0.4212,-7.6806 6.3003,-5.1264 13.768,-14.49 4.4603,4.5856 z" />
          <path
             style="fill-rule:evenodd;stroke:#000000;stroke-width:1px"
             inkscape:connector-curvature="0"
             id="path5761"
             d="m 481.81,-82.982 c -2.7185,0.25344 -8.2425,2.2291 -5.9921,0.06201 4.9251,-4.7429 4.2366,-8.0079 9.1991,-6.165 3.7876,1.4066 14.295,-2.7363 -3.207,6.103 z" />
          <path
             style="fill:none;stroke:#000000;stroke-width:1.89999998"
             inkscape:connector-curvature="0"
             id="path4874"
             d="m 478.04,-82.757 c -18.222,4.3701 -34.35,6.5417 -38.252,7.705 -12.771,-9.473 -13.617,-12.524 -23.379,-22.141" />
          <path
             style="fill:none;stroke:#000000;stroke-width:3"
             inkscape:connector-curvature="0"
             id="path3077"
             d="m 412.63,-106.05 c 0.021,2.459 1.1108,4.089 2.7148,6.9072 10.025,17.614 16.372,66.453 11.708,64.995 -7.1729,-2.2417 -4.3819,-50.293 -11.797,-64.972 -0.93556,-1.852 -2.5474,-5.0028 -2.6261,-6.9308 z" />
          <path
             style="fill:none;stroke:#000000;stroke-width:2.35339999;stroke-linecap:round"
             inkscape:connector-curvature="0"
             id="path3075"
             d="m 444.03,362.03 c 5.1653,-9.4742 13.303,-9.0126 18.175,1.0312 4.8724,10.044 4.635,25.866 -0.53031,35.34 -5.1653,9.4742 -13.303,9.0126 -18.175,-1.0312 -4.8278,-9.9517 -4.6452,-25.601 0.40978,-35.116"
             transform="matrix(1,-0.42183,0.37162,0.92966,-191.54,-291.73)" />
          <path
             style="fill:none;stroke:#000000;stroke-width:2.07500005;stroke-linecap:round"
             inkscape:connector-curvature="0"
             id="path4833"
             d="m 293.26,368.63 c 1.4348,-1.7595 3.6952,-1.6738 5.0486,0.1915 1.3534,1.8652 1.2875,4.8037 -0.14731,6.5632 -1.43481,1.7595 -3.6952,1.6738 -5.0486,-0.1915 -1.3411,-1.8482 -1.2903,-4.7544 0.11383,-6.5216"
             transform="rotate(-28.925383,-631.22871,-84.517918)" />
          <path
             style="fill:none;stroke:#000000;stroke-width:2.07500005;stroke-linecap:round"
             inkscape:connector-curvature="0"
             id="path4835"
             d="m 293.26,368.63 c 1.4348,-1.7595 3.6952,-1.6738 5.0486,0.1915 1.3534,1.8652 1.2875,4.8037 -0.14731,6.5632 -1.43481,1.7595 -3.6952,1.6738 -5.0486,-0.1915 -1.3411,-1.8482 -1.2903,-4.7544 0.11383,-6.5216"
             transform="rotate(-28.925383,-639.44046,-103.66199)" />
          <path
             style="fill:none;stroke:#000000;stroke-width:2;stroke-linecap:round;stroke-linejoin:round"
             inkscape:connector-curvature="0"
             id="path4837"
             d="m 417.74,-124.84 c -0.60994,1.4571 1.7535,7.1918 -0.22717,9.1535 -2.7154,2.6894 -9.8303,1.0616 -10.019,-0.63172 -0.44025,-3.9403 6.7296,-8.1717 10.006,-7.9191 l 0.24102,-0.60268 z" />
          <g
             id="g4149"
             transform="matrix(0.9988,0.049038,-0.049038,0.9988,-103.2,-3.3394)">
            <path
               style="stroke:#000000;stroke-width:2"
               inkscape:connector-curvature="0"
               id="path3358"
               d="m 522.36,-128.67 6.8304,14.402 c 0.53714,0.25814 1.406,0.8211 1.2309,-1.1847 l -5.3116,-15.007 -2.7498,1.7897 z" />
            <path
               inkscape:connector-curvature="0"
               id="path3360"
               d="m 511.61,384.73 c 2.1972,-1.8904 5.6586,-1.7983 7.7313,0.20575 2.0726,2.0041 1.9716,5.1612 -0.22558,7.0516 -2.19718,1.8904 -5.6587,1.7983 -7.7313,-0.20575 -2.0537,-1.9857 -1.976,-5.1082 0.17432,-7.0069"
               transform="matrix(0.68803,-0.65909,0.73646,0.46866,-118,25.262)" />
          </g>
          <path
             style="fill:none;stroke:#ffffff;stroke-width:1px;stroke-linecap:round;stroke-linejoin:round;stroke-opacity:0.94118"
             inkscape:connector-curvature="0"
             id="path4153"
             d="m 424.93,-101.42 c 3.3308,-0.35136 5.2837,-1.7207 4.9899,-3.9024" />
          <path
             style="fill:none;stroke:#ffffff;stroke-width:0.89999998;stroke-linecap:round;stroke-linejoin:round;stroke-opacity:0.94118"
             inkscape:connector-curvature="0"
             id="path4153-8"
             d="m 428.97,-93.979 c 2.2108,-2.3409 1.8952,-4.0335 2.6997,-5.5899" />
        </g>
        <g
           id="layer1-8"
           transform="matrix(0.02461,-0.013836,0.011737,0.016411,432.98,-134.31)">
          <path
             inkscape:connector-curvature="0"
             id="path5065"
             d="m 374.44,235.15 c -28.01,122.41 -59.79,323.52 -95.43,421.8 -104.65,-72.46 -170.09,-41.87 -159.54,41.06 6.7707,53.218 107.92,95.879 173.7,-8.6655 39.841,-63.316 52.861,-191.32 75.437,-296.09 62.46,37.494 122.31,101.13 202.86,111.59 -16.838,75.898 -47.082,194.01 -65.21,272.82 -104.65,-72.46 -192.89,-41.986 -182.34,40.945 6.7707,53.218 177.12,90.859 205.55,-23.531 l 103.19,-415.31 c -65.16,35.4 -188.96,-100.04 -258.22,-144.62 z m 10.854,74.896 c 65.248,37.815 131,118.89 206.47,122.72 -2.5111,11.129 -2.0944,26.125 -4.5591,37.149 -77.915,-10.686 -144.21,-80.519 -211.05,-117.12 2.1323,-10.115 7.3372,-33.949 9.1345,-42.74 z" />
        </g>
        <path
           inkscape:connector-curvature="0"
           id="path5065-6"
           d="m 431.14,-134.4 c 0.59019,2.2636 1.6608,5.0982 1.9632,7.2666 -3.3158,-0.15267 -4.6759,1.277 -3.0707,2.086 0.8553,0.43108 3.1952,0.61235 4.0006,-1.4027 0.0669,-0.16735 0.0727,-0.61704 0.0177,-0.84824 -0.48902,-2.0522 -1.7706,-4.9178 -2.2472,-6.6092 1.919,0.27396 4.6708,0.96208 6.7496,0.34221 0.38144,1.4005 1.0989,5.2415 1.4793,6.702 -3.3158,-0.15267 -5.2154,1.2035 -3.8076,2.234 0.96664,0.70756 4.7504,-0.53617 4.4234,-2.0676 l -1.6834,-7.8823 c -1.2234,1.2152 -5.6656,0.22548 -7.8248,0.17927 z" />
        <path
           inkscape:connector-curvature="0"
           id="path5065-6-4"
           d="m 461.81,-140.41 c 0.82185,2.8695 2.3128,6.4628 2.7338,9.2115 -4.6174,-0.19361 -6.5114,1.6188 -4.2762,2.6444 1.191,0.54644 4.4495,0.77626 5.5711,-1.7781 0.0933,-0.21223 0.10134,-0.78221 0.0246,-1.0753 -0.68097,-2.6014 -2.5638,-6.5542 -3.2274,-8.6984 1.0391,0.76868 1.7182,1.5566 2.0897,1.5067 -0.006,-0.31104 0.1275,-0.61356 0.13917,-0.8522 -1.1787,-0.54764 -0.88312,-0.21119 -2.3196,-1.2581 -0.19985,-0.14559 -0.0834,0.22547 -0.73518,0.29968 z" />
        <path
           inkscape:connector-curvature="0"
           id="path5065-6-4-9"
           d="m 472.34,-146.58 c 0.82186,3.4913 2.3128,7.8632 2.7338,11.208 -4.6174,-0.23556 -6.5114,1.9696 -4.2762,3.2174 1.191,0.66485 4.4495,0.94446 5.571,-2.1634 0.0933,-0.25821 0.10134,-0.95172 0.0246,-1.3083 -0.68098,-3.1652 -2.5638,-7.9745 -3.2274,-10.583 1.0391,0.93526 1.7182,1.894 2.0897,1.8332 -0.006,-0.37845 0.12749,-0.74651 0.13917,-1.0369 -1.1786,-0.66632 -0.88312,-0.25696 -2.3196,-1.5308 -0.19984,-0.17722 -0.0834,0.27431 -0.73517,0.36461 z" />
        <path
           inkscape:connector-curvature="0"
           id="path5065-6-4-0"
           d="m 481.5,-151.28 c 0.82185,4.0094 2.3128,9.0302 2.7338,12.871 -4.6174,-0.27051 -6.5114,2.262 -4.2762,3.6949 1.191,0.76353 4.4495,1.0846 5.5711,-2.4845 0.0932,-0.29652 0.10134,-1.0929 0.0246,-1.5025 -0.68097,-3.6349 -2.5638,-9.1581 -3.2274,-12.154 1.0391,1.0741 1.7182,2.1751 2.0897,2.1053 -0.006,-0.43461 0.12749,-0.85731 0.13917,-1.1908 -1.1787,-0.76519 -0.88313,-0.29507 -2.3196,-1.758 -0.19985,-0.20353 -0.0834,0.31502 -0.73517,0.41873 z" />
      </g>
    </g>
  </g>
</svg>
