<?xml version="1.0" encoding="UTF-8" standalone="no"?>
<!-- Created with Inkscape (http://www.inkscape.org/) -->

<svg
   xmlns:dc="http://purl.org/dc/elements/1.1/"
   xmlns:cc="http://creativecommons.org/ns#"
   xmlns:rdf="http://www.w3.org/1999/02/22-rdf-syntax-ns#"
   xmlns:svg="http://www.w3.org/2000/svg"
   xmlns="http://www.w3.org/2000/svg"
   xmlns:sodipodi="http://sodipodi.sourceforge.net/DTD/sodipodi-0.dtd"
   xmlns:inkscape="http://www.inkscape.org/namespaces/inkscape"
   width="51mm"
   height="51mm"
   viewBox="0 0 51 51"
   version="1.1"
   id="svg8"
   inkscape:version="0.92.3 (2405546, 2018-03-11)"
   sodipodi:docname="c11.svg">
  <defs
     id="defs2">
    <linearGradient
       id="linearGradient3144"
       y2="539.27"
       gradientUnits="userSpaceOnUse"
       x2="247.31"
       gradientTransform="matrix(1.8854,0,0,1,38.598,128.35)"
       y1="498.13"
       x1="200.38">
      <stop
         id="stop6741"
         offset="0" />
      <stop
         id="stop6743"
         stop-opacity="0"
         offset="1" />
    </linearGradient>
    <linearGradient
       id="linearGradient3144-2"
       y2="539.27"
       gradientUnits="userSpaceOnUse"
       x2="247.31"
       gradientTransform="matrix(1.8854,0,0,1,38.598,128.35)"
       y1="498.13"
       x1="200.38">
      <stop
         id="stop6741-8"
         offset="0" />
      <stop
         id="stop6743-9"
         stop-opacity="0"
         offset="1" />
    </linearGradient>
    <linearGradient
       id="linearGradient4219"
       y2="539.27"
       gradientUnits="userSpaceOnUse"
       x2="247.31"
       gradientTransform="matrix(1.21,0,0,1,169.55,-481.7)"
       y1="498.13"
       x1="200.38">
      <stop
         id="stop6741-2"
         offset="0" />
      <stop
         id="stop6743-2"
         stop-opacity="0"
         offset="1" />
    </linearGradient>
    <marker
       id="Arrow2Lstart"
       refY="0"
       refX="0"
       style="overflow:visible"
       orient="auto"
       inkscape:stockid="Arrow2Lstart">
      <path
         id="path2615"
         style="stroke-linejoin:round;stroke-width:.625;fill-rule:evenodd"
         sodipodi:nodetypes="cccc"
         transform="matrix(1.1,0,0,1.1,-5.5,0)"
         d="m8.7186 4.0337l-10.926-4.0177 10.926-4.0177c-1.7455 2.3721-1.7355 5.6174 0 8.0354z" />
    </marker>
    <marker
       id="Arrow1Mstart"
       refY="0"
       refX="0"
       style="overflow:visible"
       orient="auto"
       inkscape:stockid="Arrow1Mstart">
      <path
         id="path2629"
         style="stroke:#000000;stroke-width:1pt;fill-rule:evenodd"
         sodipodi:nodetypes="ccccc"
         transform="scale(.4)"
         d="m0 0l5-5-17.5 5 17.5 5-5-5z" />
    </marker>
    <marker
       id="Arrow2Lstart-8"
       refY="0"
       refX="0"
       style="overflow:visible"
       orient="auto"
       inkscape:stockid="Arrow2Lstart">
      <path
         id="path2615-7"
         style="stroke-linejoin:round;stroke-width:.625;fill-rule:evenodd"
         sodipodi:nodetypes="cccc"
         transform="matrix(1.1,0,0,1.1,-5.5,0)"
         d="m8.7186 4.0337l-10.926-4.0177 10.926-4.0177c-1.7455 2.3721-1.7355 5.6174 0 8.0354z" />
    </marker>
    <marker
       id="Arrow1Mstart-1"
       refY="0"
       refX="0"
       style="overflow:visible"
       orient="auto"
       inkscape:stockid="Arrow1Mstart">
      <path
         id="path2629-7"
         style="stroke:#000000;stroke-width:1pt;fill-rule:evenodd"
         sodipodi:nodetypes="ccccc"
         transform="scale(.4)"
         d="m0 0l5-5-17.5 5 17.5 5-5-5z" />
    </marker>
    <linearGradient
       id="linearGradient2855"
       y2="539.27"
       gradientUnits="userSpaceOnUse"
       x2="247.31"
       gradientTransform="translate(-160.12,-300.58)"
       y1="498.13"
       x1="200.38">
      <stop
         id="stop6741-26"
         offset="0" />
      <stop
         id="stop6743-6"
         stop-opacity="0"
         offset="1" />
    </linearGradient>
    <marker
       id="Arrow2Lstart-5"
       refY="0"
       refX="0"
       style="overflow:visible"
       orient="auto"
       inkscape:stockid="Arrow2Lstart">
      <path
         id="path2615-6"
         style="stroke-linejoin:round;stroke-width:.625;fill-rule:evenodd"
         sodipodi:nodetypes="cccc"
         transform="matrix(1.1,0,0,1.1,-5.5,0)"
         d="m8.7186 4.0337l-10.926-4.0177 10.926-4.0177c-1.7455 2.3721-1.7355 5.6174 0 8.0354z" />
    </marker>
    <marker
       id="Arrow1Mstart-11"
       refY="0"
       refX="0"
       style="overflow:visible"
       orient="auto"
       inkscape:stockid="Arrow1Mstart">
      <path
         id="path2629-5"
         style="stroke:#000000;stroke-width:1pt;fill-rule:evenodd"
         sodipodi:nodetypes="ccccc"
         transform="scale(.4)"
         d="m0 0l5-5-17.5 5 17.5 5-5-5z" />
    </marker>
    <marker
       id="Arrow2Lstart-4"
       refY="0"
       refX="0"
       style="overflow:visible"
       orient="auto"
       inkscape:stockid="Arrow2Lstart">
      <path
         id="path2615-4"
         style="stroke-linejoin:round;stroke-width:.625;fill-rule:evenodd"
         sodipodi:nodetypes="cccc"
         transform="matrix(1.1,0,0,1.1,-5.5,0)"
         d="m8.7186 4.0337l-10.926-4.0177 10.926-4.0177c-1.7455 2.3721-1.7355 5.6174 0 8.0354z" />
    </marker>
    <marker
       id="Arrow1Mstart-7"
       refY="0"
       refX="0"
       style="overflow:visible"
       orient="auto"
       inkscape:stockid="Arrow1Mstart">
      <path
         id="path2629-6"
         style="stroke:#000000;stroke-width:1pt;fill-rule:evenodd"
         sodipodi:nodetypes="ccccc"
         transform="scale(.4)"
         d="m0 0l5-5-17.5 5 17.5 5-5-5z" />
    </marker>
    <marker
       id="Arrow2Lstart-7"
       refY="0"
       refX="0"
       style="overflow:visible"
       orient="auto"
       inkscape:stockid="Arrow2Lstart">
      <path
         id="path2615-41"
         style="stroke-linejoin:round;stroke-width:.625;fill-rule:evenodd"
         sodipodi:nodetypes="cccc"
         transform="matrix(1.1,0,0,1.1,-5.5,0)"
         d="m8.7186 4.0337l-10.926-4.0177 10.926-4.0177c-1.7455 2.3721-1.7355 5.6174 0 8.0354z" />
    </marker>
    <marker
       id="Arrow1Mstart-8"
       refY="0"
       refX="0"
       style="overflow:visible"
       orient="auto"
       inkscape:stockid="Arrow1Mstart">
      <path
         id="path2629-59"
         style="stroke:#000000;stroke-width:1pt;fill-rule:evenodd"
         sodipodi:nodetypes="ccccc"
         transform="scale(.4)"
         d="m0 0l5-5-17.5 5 17.5 5-5-5z" />
    </marker>
    <marker
       id="Arrow2Lstart-3"
       refY="0"
       refX="0"
       style="overflow:visible"
       orient="auto"
       inkscape:stockid="Arrow2Lstart">
      <path
         id="path2615-3"
         style="stroke-linejoin:round;stroke-width:.625;fill-rule:evenodd"
         sodipodi:nodetypes="cccc"
         transform="matrix(1.1,0,0,1.1,-5.5,0)"
         d="m8.7186 4.0337l-10.926-4.0177 10.926-4.0177c-1.7455 2.3721-1.7355 5.6174 0 8.0354z" />
    </marker>
    <marker
       id="Arrow1Mstart-3"
       refY="0"
       refX="0"
       style="overflow:visible"
       orient="auto"
       inkscape:stockid="Arrow1Mstart">
      <path
         id="path2629-8"
         style="stroke:#000000;stroke-width:1pt;fill-rule:evenodd"
         sodipodi:nodetypes="ccccc"
         transform="scale(.4)"
         d="m0 0l5-5-17.5 5 17.5 5-5-5z" />
    </marker>
    <marker
       id="Arrow2Lstart-43"
       refY="0"
       refX="0"
       style="overflow:visible"
       orient="auto"
       inkscape:stockid="Arrow2Lstart">
      <path
         id="path2615-0"
         style="stroke-linejoin:round;stroke-width:.625;fill-rule:evenodd"
         sodipodi:nodetypes="cccc"
         transform="matrix(1.1,0,0,1.1,-5.5,0)"
         d="m8.7186 4.0337l-10.926-4.0177 10.926-4.0177c-1.7455 2.3721-1.7355 5.6174 0 8.0354z" />
    </marker>
    <marker
       id="Arrow1Mstart-30"
       refY="0"
       refX="0"
       style="overflow:visible"
       orient="auto"
       inkscape:stockid="Arrow1Mstart">
      <path
         id="path2629-9"
         style="stroke:#000000;stroke-width:1pt;fill-rule:evenodd"
         sodipodi:nodetypes="ccccc"
         transform="scale(.4)"
         d="m0 0l5-5-17.5 5 17.5 5-5-5z" />
    </marker>
    <marker
       id="Arrow2Lstart-75"
       refY="0"
       refX="0"
       style="overflow:visible"
       orient="auto"
       inkscape:stockid="Arrow2Lstart">
      <path
         id="path2615-48"
         style="stroke-linejoin:round;stroke-width:.625;fill-rule:evenodd"
         sodipodi:nodetypes="cccc"
         transform="matrix(1.1,0,0,1.1,-5.5,0)"
         d="m8.7186 4.0337l-10.926-4.0177 10.926-4.0177c-1.7455 2.3721-1.7355 5.6174 0 8.0354z" />
    </marker>
    <marker
       id="Arrow1Mstart-12"
       refY="0"
       refX="0"
       style="overflow:visible"
       orient="auto"
       inkscape:stockid="Arrow1Mstart">
      <path
         id="path2629-89"
         style="stroke:#000000;stroke-width:1pt;fill-rule:evenodd"
         sodipodi:nodetypes="ccccc"
         transform="scale(.4)"
         d="m0 0l5-5-17.5 5 17.5 5-5-5z" />
    </marker>
    <marker
       id="Arrow2Lstart-0"
       refY="0"
       refX="0"
       style="overflow:visible"
       orient="auto"
       inkscape:stockid="Arrow2Lstart">
      <path
         id="path2615-64"
         style="stroke-linejoin:round;stroke-width:.625;fill-rule:evenodd"
         sodipodi:nodetypes="cccc"
         transform="matrix(1.1,0,0,1.1,-5.5,0)"
         d="m8.7186 4.0337l-10.926-4.0177 10.926-4.0177c-1.7455 2.3721-1.7355 5.6174 0 8.0354z" />
    </marker>
    <marker
       id="Arrow1Mstart-6"
       refY="0"
       refX="0"
       style="overflow:visible"
       orient="auto"
       inkscape:stockid="Arrow1Mstart">
      <path
         id="path2629-2"
         style="stroke:#000000;stroke-width:1pt;fill-rule:evenodd"
         sodipodi:nodetypes="ccccc"
         transform="scale(.4)"
         d="m0 0l5-5-17.5 5 17.5 5-5-5z" />
    </marker>
    <marker
       id="Arrow2Lstart-08"
       refY="0"
       refX="0"
       style="overflow:visible"
       orient="auto"
       inkscape:stockid="Arrow2Lstart">
      <path
         id="path2615-1"
         style="stroke-linejoin:round;stroke-width:.625;fill-rule:evenodd"
         sodipodi:nodetypes="cccc"
         transform="matrix(1.1,0,0,1.1,-5.5,0)"
         d="m8.7186 4.0337l-10.926-4.0177 10.926-4.0177c-1.7455 2.3721-1.7355 5.6174 0 8.0354z" />
    </marker>
    <marker
       id="Arrow1Mstart-31"
       refY="0"
       refX="0"
       style="overflow:visible"
       orient="auto"
       inkscape:stockid="Arrow1Mstart">
      <path
         id="path2629-1"
         style="stroke:#000000;stroke-width:1pt;fill-rule:evenodd"
         sodipodi:nodetypes="ccccc"
         transform="scale(.4)"
         d="m0 0l5-5-17.5 5 17.5 5-5-5z" />
    </marker>
    <marker
       id="Arrow2Lstart-05"
       refY="0"
       refX="0"
       style="overflow:visible"
       orient="auto"
       inkscape:stockid="Arrow2Lstart">
      <path
         id="path2615-66"
         style="stroke-linejoin:round;stroke-width:.625;fill-rule:evenodd"
         sodipodi:nodetypes="cccc"
         transform="matrix(1.1,0,0,1.1,-5.5,0)"
         d="m8.7186 4.0337l-10.926-4.0177 10.926-4.0177c-1.7455 2.3721-1.7355 5.6174 0 8.0354z" />
    </marker>
    <marker
       id="Arrow1Mstart-4"
       refY="0"
       refX="0"
       style="overflow:visible"
       orient="auto"
       inkscape:stockid="Arrow1Mstart">
      <path
         id="path2629-0"
         style="stroke:#000000;stroke-width:1pt;fill-rule:evenodd"
         sodipodi:nodetypes="ccccc"
         transform="scale(.4)"
         d="m0 0l5-5-17.5 5 17.5 5-5-5z" />
    </marker>
    <marker
       id="Arrow2Lstart-9"
       refY="0"
       refX="0"
       style="overflow:visible"
       orient="auto"
       inkscape:stockid="Arrow2Lstart">
      <path
         id="path2615-60"
         style="stroke-linejoin:round;stroke-width:.625;fill-rule:evenodd"
         sodipodi:nodetypes="cccc"
         transform="matrix(1.1,0,0,1.1,-5.5,0)"
         d="m8.7186 4.0337l-10.926-4.0177 10.926-4.0177c-1.7455 2.3721-1.7355 5.6174 0 8.0354z" />
    </marker>
    <marker
       id="Arrow1Mstart-2"
       refY="0"
       refX="0"
       style="overflow:visible"
       orient="auto"
       inkscape:stockid="Arrow1Mstart">
      <path
         id="path2629-76"
         style="stroke:#000000;stroke-width:1pt;fill-rule:evenodd"
         sodipodi:nodetypes="ccccc"
         transform="scale(.4)"
         d="m0 0l5-5-17.5 5 17.5 5-5-5z" />
    </marker>
    <marker
       id="Arrow2Lstart-58"
       refY="0"
       refX="0"
       style="overflow:visible"
       orient="auto"
       inkscape:stockid="Arrow2Lstart">
      <path
         id="path2615-70"
         style="stroke-linejoin:round;stroke-width:.625;fill-rule:evenodd"
         sodipodi:nodetypes="cccc"
         transform="matrix(1.1,0,0,1.1,-5.5,0)"
         d="m8.7186 4.0337l-10.926-4.0177 10.926-4.0177c-1.7455 2.3721-1.7355 5.6174 0 8.0354z" />
    </marker>
    <marker
       id="Arrow1Mstart-48"
       refY="0"
       refX="0"
       style="overflow:visible"
       orient="auto"
       inkscape:stockid="Arrow1Mstart">
      <path
         id="path2629-04"
         style="stroke:#000000;stroke-width:1pt;fill-rule:evenodd"
         sodipodi:nodetypes="ccccc"
         transform="scale(.4)"
         d="m0 0l5-5-17.5 5 17.5 5-5-5z" />
    </marker>
    <linearGradient
       id="linearGradient4009"
       y2="540.1"
       gradientUnits="userSpaceOnUse"
       x2="306.87"
       gradientTransform="translate(-202.75,-323.7)"
       y1="540.1"
       x1="212.74">
      <stop
         id="stop6741-1"
         offset="0" />
      <stop
         id="stop6743-0"
         stop-opacity="0"
         offset="1" />
    </linearGradient>
    <marker
       id="Arrow2Lstart-90"
       refY="0"
       refX="0"
       style="overflow:visible"
       orient="auto"
       inkscape:stockid="Arrow2Lstart">
      <path
         id="path2615-2"
         style="stroke-linejoin:round;stroke-width:.625;fill-rule:evenodd"
         sodipodi:nodetypes="cccc"
         transform="matrix(1.1,0,0,1.1,-5.5,0)"
         d="m8.7186 4.0337l-10.926-4.0177 10.926-4.0177c-1.7455 2.3721-1.7355 5.6174 0 8.0354z" />
    </marker>
    <marker
       id="Arrow1Mstart-83"
       refY="0"
       refX="0"
       style="overflow:visible"
       orient="auto"
       inkscape:stockid="Arrow1Mstart">
      <path
         id="path2629-80"
         style="stroke:#000000;stroke-width:1pt;fill-rule:evenodd"
         sodipodi:nodetypes="ccccc"
         transform="scale(.4)"
         d="m0 0l5-5-17.5 5 17.5 5-5-5z" />
    </marker>
    <marker
       id="Arrow2Lstart-50"
       refY="0"
       refX="0"
       style="overflow:visible"
       orient="auto"
       inkscape:stockid="Arrow2Lstart">
      <path
         id="path2615-29"
         style="stroke-linejoin:round;stroke-width:.625;fill-rule:evenodd"
         sodipodi:nodetypes="cccc"
         transform="matrix(1.1,0,0,1.1,-5.5,0)"
         d="m8.7186 4.0337l-10.926-4.0177 10.926-4.0177c-1.7455 2.3721-1.7355 5.6174 0 8.0354z" />
    </marker>
    <marker
       id="Arrow1Mstart-43"
       refY="0"
       refX="0"
       style="overflow:visible"
       orient="auto"
       inkscape:stockid="Arrow1Mstart">
      <path
         id="path2629-51"
         style="stroke:#000000;stroke-width:1pt;fill-rule:evenodd"
         sodipodi:nodetypes="ccccc"
         transform="scale(.4)"
         d="m0 0l5-5-17.5 5 17.5 5-5-5z" />
    </marker>
    <marker
       id="Arrow2Lstart-92"
       refY="0"
       refX="0"
       style="overflow:visible"
       orient="auto"
       inkscape:stockid="Arrow2Lstart">
      <path
         id="path2615-8"
         style="stroke-linejoin:round;stroke-width:.625;fill-rule:evenodd"
         sodipodi:nodetypes="cccc"
         transform="matrix(1.1,0,0,1.1,-5.5,0)"
         d="m8.7186 4.0337l-10.926-4.0177 10.926-4.0177c-1.7455 2.3721-1.7355 5.6174 0 8.0354z" />
    </marker>
    <marker
       id="Arrow1Mstart-88"
       refY="0"
       refX="0"
       style="overflow:visible"
       orient="auto"
       inkscape:stockid="Arrow1Mstart">
      <path
         id="path2629-68"
         style="stroke:#000000;stroke-width:1pt;fill-rule:evenodd"
         sodipodi:nodetypes="ccccc"
         transform="scale(.4)"
         d="m0 0l5-5-17.5 5 17.5 5-5-5z" />
    </marker>
    <marker
       id="Arrow2Lstart-903"
       refY="0"
       refX="0"
       style="overflow:visible"
       orient="auto"
       inkscape:stockid="Arrow2Lstart">
      <path
         id="path2615-33"
         style="stroke-linejoin:round;stroke-width:.625;fill-rule:evenodd"
         sodipodi:nodetypes="cccc"
         transform="matrix(1.1,0,0,1.1,-5.5,0)"
         d="m8.7186 4.0337l-10.926-4.0177 10.926-4.0177c-1.7455 2.3721-1.7355 5.6174 0 8.0354z" />
    </marker>
    <marker
       id="Arrow1Mstart-73"
       refY="0"
       refX="0"
       style="overflow:visible"
       orient="auto"
       inkscape:stockid="Arrow1Mstart">
      <path
         id="path2629-26"
         style="stroke:#000000;stroke-width:1pt;fill-rule:evenodd"
         sodipodi:nodetypes="ccccc"
         transform="scale(.4)"
         d="m0 0l5-5-17.5 5 17.5 5-5-5z" />
    </marker>
    <marker
       id="Arrow2Lstart-086"
       refY="0"
       refX="0"
       style="overflow:visible"
       orient="auto"
       inkscape:stockid="Arrow2Lstart">
      <path
         id="path2615-24"
         style="stroke-linejoin:round;stroke-width:.625;fill-rule:evenodd"
         sodipodi:nodetypes="cccc"
         transform="matrix(1.1,0,0,1.1,-5.5,0)"
         d="m8.7186 4.0337l-10.926-4.0177 10.926-4.0177c-1.7455 2.3721-1.7355 5.6174 0 8.0354z" />
    </marker>
    <marker
       id="Arrow1Mstart-79"
       refY="0"
       refX="0"
       style="overflow:visible"
       orient="auto"
       inkscape:stockid="Arrow1Mstart">
      <path
         id="path2629-3"
         style="stroke:#000000;stroke-width:1pt;fill-rule:evenodd"
         sodipodi:nodetypes="ccccc"
         transform="scale(.4)"
         d="m0 0l5-5-17.5 5 17.5 5-5-5z" />
    </marker>
    <marker
       id="Arrow2Lstart-49"
       refY="0"
       refX="0"
       style="overflow:visible"
       orient="auto"
       inkscape:stockid="Arrow2Lstart">
      <path
         id="path2615-9"
         style="stroke-linejoin:round;stroke-width:.625;fill-rule:evenodd"
         sodipodi:nodetypes="cccc"
         transform="matrix(1.1,0,0,1.1,-5.5,0)"
         d="m8.7186 4.0337l-10.926-4.0177 10.926-4.0177c-1.7455 2.3721-1.7355 5.6174 0 8.0354z" />
    </marker>
    <marker
       id="Arrow1Mstart-45"
       refY="0"
       refX="0"
       style="overflow:visible"
       orient="auto"
       inkscape:stockid="Arrow1Mstart">
      <path
         id="path2629-93"
         style="stroke:#000000;stroke-width:1pt;fill-rule:evenodd"
         sodipodi:nodetypes="ccccc"
         transform="scale(.4)"
         d="m0 0l5-5-17.5 5 17.5 5-5-5z" />
    </marker>
    <marker
       id="Arrow2Lstart-2"
       refY="0"
       refX="0"
       style="overflow:visible"
       orient="auto"
       inkscape:stockid="Arrow2Lstart">
      <path
         id="path2615-01"
         style="stroke-linejoin:round;stroke-width:.625;fill-rule:evenodd"
         sodipodi:nodetypes="cccc"
         transform="matrix(1.1,0,0,1.1,-5.5,0)"
         d="m8.7186 4.0337l-10.926-4.0177 10.926-4.0177c-1.7455 2.3721-1.7355 5.6174 0 8.0354z" />
    </marker>
    <marker
       id="Arrow1Mstart-9"
       refY="0"
       refX="0"
       style="overflow:visible"
       orient="auto"
       inkscape:stockid="Arrow1Mstart">
      <path
         id="path2629-62"
         style="stroke:#000000;stroke-width:1pt;fill-rule:evenodd"
         sodipodi:nodetypes="ccccc"
         transform="scale(.4)"
         d="m0 0l5-5-17.5 5 17.5 5-5-5z" />
    </marker>
    <marker
       id="Arrow2Lstart-06"
       refY="0"
       refX="0"
       style="overflow:visible"
       orient="auto"
       inkscape:stockid="Arrow2Lstart">
      <path
         id="path2615-47"
         style="stroke-linejoin:round;stroke-width:.625;fill-rule:evenodd"
         sodipodi:nodetypes="cccc"
         transform="matrix(1.1,0,0,1.1,-5.5,0)"
         d="m8.7186 4.0337l-10.926-4.0177 10.926-4.0177c-1.7455 2.3721-1.7355 5.6174 0 8.0354z" />
    </marker>
    <marker
       id="Arrow1Mstart-485"
       refY="0"
       refX="0"
       style="overflow:visible"
       orient="auto"
       inkscape:stockid="Arrow1Mstart">
      <path
         id="path2629-82"
         style="stroke:#000000;stroke-width:1pt;fill-rule:evenodd"
         sodipodi:nodetypes="ccccc"
         transform="scale(.4)"
         d="m0 0l5-5-17.5 5 17.5 5-5-5z" />
    </marker>
    <marker
       id="Arrow2Lstart-01"
       refY="0"
       refX="0"
       style="overflow:visible"
       orient="auto"
       inkscape:stockid="Arrow2Lstart">
      <path
         id="path2615-37"
         style="stroke-linejoin:round;stroke-width:.625;fill-rule:evenodd"
         sodipodi:nodetypes="cccc"
         transform="matrix(1.1,0,0,1.1,-5.5,0)"
         d="m8.7186 4.0337l-10.926-4.0177 10.926-4.0177c-1.7455 2.3721-1.7355 5.6174 0 8.0354z" />
    </marker>
    <marker
       id="Arrow1Mstart-72"
       refY="0"
       refX="0"
       style="overflow:visible"
       orient="auto"
       inkscape:stockid="Arrow1Mstart">
      <path
         id="path2629-64"
         style="stroke:#000000;stroke-width:1pt;fill-rule:evenodd"
         sodipodi:nodetypes="ccccc"
         transform="scale(.4)"
         d="m0 0l5-5-17.5 5 17.5 5-5-5z" />
    </marker>
    <marker
       id="Arrow2Lstart-86"
       refY="0"
       refX="0"
       style="overflow:visible"
       orient="auto"
       inkscape:stockid="Arrow2Lstart">
      <path
         id="path2615-04"
         style="stroke-linejoin:round;stroke-width:.625;fill-rule:evenodd"
         sodipodi:nodetypes="cccc"
         transform="matrix(1.1,0,0,1.1,-5.5,0)"
         d="m8.7186 4.0337l-10.926-4.0177 10.926-4.0177c-1.7455 2.3721-1.7355 5.6174 0 8.0354z" />
    </marker>
    <marker
       id="Arrow1Mstart-67"
       refY="0"
       refX="0"
       style="overflow:visible"
       orient="auto"
       inkscape:stockid="Arrow1Mstart">
      <path
         id="path2629-60"
         style="stroke:#000000;stroke-width:1pt;fill-rule:evenodd"
         sodipodi:nodetypes="ccccc"
         transform="scale(.4)"
         d="m0 0l5-5-17.5 5 17.5 5-5-5z" />
    </marker>
  </defs>
  <sodipodi:namedview
     id="base"
     pagecolor="#ffffff"
     bordercolor="#666666"
     borderopacity="1.0"
     inkscape:pageopacity="0.0"
     inkscape:pageshadow="2"
     inkscape:zoom="1.979899"
     inkscape:cx="46.961414"
     inkscape:cy="-7.6163491"
     inkscape:document-units="mm"
     inkscape:current-layer="layer1-7"
     showgrid="false"
     inkscape:window-width="1853"
     inkscape:window-height="1025"
     inkscape:window-x="67"
     inkscape:window-y="27"
     inkscape:window-maximized="1" />
  <metadata
     id="metadata5">
    <rdf:RDF>
      <cc:Work
         rdf:about="">
        <dc:format>image/svg+xml</dc:format>
        <dc:type
           rdf:resource="http://purl.org/dc/dcmitype/StillImage" />
        <dc:title></dc:title>
      </cc:Work>
    </rdf:RDF>
  </metadata>
  <g
     inkscape:label="Layer 1"
     inkscape:groupmode="layer"
     id="layer1"
     transform="translate(0,-246)">
    <g
       transform="matrix(1.9999999,0,0,1.9999999,-7.4294577,-322.09765)"
       id="layer1-4"
       inkscape:label="Layer 1">
      <g
         transform="matrix(0.21647508,0,0,0.21647508,1.3740558,248.01453)"
         id="layer1-37"
         inkscape:label="Layer 1">
        <g
           transform="matrix(0.25864891,0,0,0.25864891,-68.829959,167.07892)"
           id="layer1-7">
          <g
             id="_x23_000000ff"
             transform="matrix(1.2401963,0,0,1.2401963,309.80641,21.024909)">
	<path
   id="path11034"
   d="m 266.59,3.024 c 8.437,-1.598 17.306,-3.082 25.773,-1.002 6.592,2.037 5.901,10.08 7.006,15.492 1.44,6.623 -0.88,13.172 -3.858,19.032 -2.119,4.053 -1.473,9.495 2.545,12.17 8.604,8.137 21.205,7.479 32.037,10.08 3.274,1.754 4.811,5.379 6.569,8.419 4.959,10.081 10.651,19.806 15.166,30.084 3.03,7.093 3.485,14.854 4.97,22.324 0.869,4.951 1.803,9.902 2.301,14.906 0.783,7.656 3.137,15.418 1.069,23.075 0.021,7.834 0.297,15.7 -0.625,23.513 -0.636,0.281 -1.907,0.867 -2.543,1.148 0.487,-2.381 0.964,-4.771 1.229,-7.197 -1.603,2.611 -2.703,5.477 -4.039,8.223 -0.19,-2.988 -0.254,-5.986 -0.668,-8.963 -0.943,3.488 -1.949,7.02 -4.26,9.902 -0.563,-3.469 -0.604,-6.967 -0.754,-10.467 -1.08,2.643 -1.482,5.641 -3.306,7.918 l -0.976,-0.68 c 0.086,-5.045 1.887,-9.924 1.875,-14.99 -1.408,0.889 -2.775,1.809 -4.144,2.738 -0.562,-0.389 -1.705,-1.182 -2.269,-1.568 1.961,-4.053 4.906,-7.917 5.236,-12.534 0.211,-4.889 -1.07,-9.694 -1.009,-14.583 0.202,-7.762 -3.38,-14.917 -4.492,-22.5 -0.901,-6.79 -4.481,-12.734 -7.481,-18.772 -0.848,-1.703 -2.057,-3.196 -3.508,-4.429 -1.771,4.241 -1.676,8.89 -2.576,13.33 -1.748,8.711 -1.887,17.799 0.117,26.491 0.646,5.149 1.834,10.216 2.563,15.355 -0.285,5.588 -0.231,11.177 0.233,16.765 0.74,4.158 -4.334,6.299 -4.176,10.342 -0.563,12.816 -3.73,25.928 -0.254,38.586 0.529,3.764 2.141,7.23 4.121,10.459 3.286,5.473 3.297,12.168 6.518,17.684 4.24,7.438 6.031,15.838 8.554,23.912 -1.61,1.064 -3.211,2.131 -4.779,3.236 1.854,1.902 3.763,3.771 5.649,5.652 -1.104,3.594 -1.719,7.479 -4.02,10.561 -4.228,5.652 -6.695,12.566 -12.111,17.33 -2.448,2.33 -5.86,3.135 -9.114,3.709 -0.667,-1.285 -1.313,-2.568 -1.938,-3.865 2.066,-2.57 4.291,-5.035 6.02,-7.846 3.359,-6.414 3.635,-13.768 4.98,-20.723 -2.852,-0.535 -7.642,1.18 -8.5,-2.654 -1.621,-5.537 -1.557,-11.512 -4.186,-16.756 -3.465,-6.414 -6.508,-13.037 -9.739,-19.555 -2.937,-8.598 -6.157,-17.246 -11.679,-24.611 -0.87,4.932 -1.348,9.924 -1.729,14.908 -1.209,10.801 -0.201,21.684 -1.039,32.496 -0.688,7.416 1.051,14.74 2.09,22.029 0.4,4.221 1.006,8.422 1.685,12.609 -1.644,0.74 -3.274,1.492 -4.897,2.268 1.951,5.826 2.312,12.031 1.804,18.123 -0.614,2.717 -3.839,2.717 -6.073,2.799 -3.264,0.271 -6.188,-1.41 -8.85,-3.039 -5.521,-3.363 -11.582,-6.205 -16.065,-10.938 -0.742,-2.693 2.575,-3.99 4.779,-3.553 2.989,0.053 5.944,1.629 8.924,0.92 1.515,-1.086 2.798,-2.445 4.153,-3.709 -2.521,-1.879 -5.373,-3.342 -7.693,-5.484 0.54,-21.174 -5.448,-41.971 -5.034,-63.178 -5.149,1.129 -10.1,2.979 -14.879,5.143 -3.879,1.086 -7.875,1.807 -11.614,3.318 -1.08,6.646 -0.923,13.467 -2.767,19.984 -3.097,11.449 -7.747,22.502 -9.729,34.23 -0.646,5.068 -1.781,10.111 -1.875,15.23 0.752,4.49 5.924,5.295 9.687,5.838 -1.601,4.086 -5.257,7.242 -9.517,8.4 -2.852,0.188 -5.277,-1.59 -7.801,-2.623 -0.826,2.496 -1.578,5.035 -2.648,7.459 -2.564,-3.291 -2.873,-7.553 -4.176,-11.365 5.234,-4.951 8.765,-11.793 8.935,-19.01 0.126,-5.561 1.208,-11.055 1.048,-16.621 0.266,-9.609 -1.367,-19.209 -0.273,-28.799 0.435,-4.398 2.129,-8.535 2.936,-12.869 -2.703,0.113 -7.048,-1.066 -7.473,2.756 -1.45,10.416 -4.186,20.893 -2.775,31.482 0.551,4.297 3.825,8.047 2.999,12.537 -0.444,3.76 -0.224,7.637 -1.453,11.281 -0.508,-1.682 -0.976,-3.354 -1.42,-5.035 -0.487,0.072 -1.462,0.221 -1.949,0.293 -0.53,4.084 -0.604,9.234 -4.727,11.555 -2.312,1.963 -6.878,3.875 -8.001,-0.305 1.049,-5.619 5.287,-10.018 6.464,-15.617 2.014,-6.309 1.389,-12.953 0.509,-19.387 -1.548,-8.23 -4.833,-16.057 -6.02,-24.359 -0.424,-5.453 -6.625,-7.709 -11.256,-8.785 -1.451,-5.537 -1.801,-11.209 -1.397,-16.893 -1.092,1.422 -2.818,2.717 -2.713,4.701 -0.393,5.936 1.431,11.68 2.183,17.529 1.346,7.688 1.823,15.512 3.35,23.178 0.541,2.33 -0.116,4.66 -0.201,6.99 1.092,3.801 4.843,7.27 3.189,11.49 -2.691,3.236 -6.771,4.889 -10.905,5.4 -2.521,4.627 -3.91,10.455 -8.88,13.213 -3.434,2.539 -7.875,2.047 -11.88,1.975 0.562,-7.459 7.418,-11.783 10.206,-18.248 1.335,-2.779 2.353,-5.693 3.37,-8.6 -2.056,-0.572 -5.224,0.398 -6.22,-2.025 -0.201,-3.133 0.583,-6.32 -0.233,-9.4 -0.88,-3.342 -1.918,-6.645 -2.596,-10.039 -0.976,-4.646 -3.179,-8.941 -4.165,-13.59 -1.547,-6.414 -1.696,-13.078 -3.657,-19.408 -2.893,7.93 -3.349,16.41 -2.427,24.736 1.124,8.908 0.562,17.893 0.996,26.836 0.678,9.359 2.575,18.729 1.388,28.141 -0.583,2.006 -1.96,3.697 -2.564,5.703 -0.943,4.096 -0.795,8.473 -2.522,12.367 -2.279,1.996 -5.638,2.896 -8.637,2.268 -2.83,-1.014 -5.278,-2.883 -8.213,-3.645 -2.48,-0.941 -5.542,-1.369 -7.026,-3.805 -1.918,-2.799 -3.519,-5.838 -4.567,-9.045 -0.901,-2.287 1.303,-5.15 3.762,-5.182 3.052,0.793 5.638,2.717 8.648,3.637 1.897,-0.43 3.677,-1.213 5.489,-1.912 -2.755,-2.402 -7.344,-4.283 -7.015,-8.576 0.042,-5.965 -0.785,-11.867 -1.071,-17.801 -0.138,-14.363 -3.804,-28.371 -5.542,-42.566 -5.394,0.344 -10.704,2.309 -16.13,1.23 1.229,12.463 0.254,25.082 3.042,37.365 2.109,8.65 12.717,13.111 12.527,22.639 -1.06,2.684 -4.546,1.65 -6.316,0.293 -4.515,-2.445 -6.253,-7.471 -8.743,-11.586 -1.664,-3.029 -4.133,-5.852 -4.26,-9.453 -0.371,-4.115 -0.827,-8.293 -2.363,-12.182 -1.897,-5.41 -6.274,-9.535 -8.108,-14.979 -1.451,-3.541 -1.346,-7.406 -1.346,-11.156 -2.289,0.055 -4.578,0.074 -6.868,0.094 0.71,6.051 2.523,11.932 2.734,18.041 0.954,8.867 -1.685,17.592 -1.431,26.439 -0.19,9.838 2.173,19.48 4.461,28.986 2.141,5.484 -1.981,10.666 -3.009,15.963 -1.113,-2.299 -1.918,-4.713 -2.756,-7.115 -2.045,1.631 -3.974,3.5 -6.433,4.514 -1.854,-1.045 -3.709,-2.643 -3.953,-4.857 0.063,-2.611 1.007,-5.098 1.717,-7.584 1.6,0.262 3.211,0.545 4.812,0.826 1.006,-6.33 0.996,-12.859 -0.922,-19.021 -2.777,-8.859 -5.331,-17.791 -7.8,-26.73 -2.056,-8.064 -1.833,-16.4 -1.643,-24.645 -4.514,2.246 -9.082,4.43 -13.819,6.186 -3.275,1.422 -6.708,-0.188 -9.909,-0.992 -4.642,-1.432 -9.538,-0.555 -14.232,0.135 -5.257,0.867 -10.259,-2.066 -13.862,-5.576 -0.678,-9.213 6.698,-16.475 7.556,-25.488 -3.232,0.031 -6.475,0.041 -9.707,-0.053 -0.064,-6.289 1.271,-12.703 4.313,-18.25 6.051,-8.324 14.932,-13.955 22.351,-20.975 3.667,-2.256 3.794,-6.758 5.214,-10.341 1.897,-5.307 6.306,-9.088 9.74,-13.402 2.426,-2.873 4.26,-6.382 7.587,-8.378 2.48,-1.295 5.331,-1.473 8.033,-2.026 -0.254,-4.847 -1.303,-9.694 -3.444,-14.092 -3.635,-7.208 -7.736,-14.175 -12.061,-21.007 -3.974,3.28 -6.889,7.532 -10.291,11.334 -5.575,5.526 -12.219,9.882 -19.023,13.81 -2.798,1.661 -5.924,2.653 -9.083,3.395 -2.278,-5.714 -4.334,-11.553 -5.458,-17.601 -1.092,-6.174 1.526,-12.233 0.837,-18.396 -0.593,-1.891 -2.151,-3.3 -3.296,-4.878 1.494,-1.985 3.052,-3.917 4.652,-5.808 -2.406,-2.068 -5.076,-4.179 -8.319,-4.669 -2.448,-0.053 -4.875,0.365 -7.302,0.511 1.155,-1.191 2.353,-2.339 3.561,-3.468 0.095,-0.261 0.286,-0.794 0.371,-1.055 C 7.317,75.485 4.456,74.681 1.87,73.27 4.032,72.486 6.278,71.996 8.525,71.525 5.647,70.552 2.415,69.81 0.974,66.865 3.793,67.126 6.591,67.596 9.378,68.076 7.672,66.134 5.944,64.19 4.439,62.08 c 5.363,0.814 9.739,4.053 14,7.103 -0.317,-2.967 -1.282,-6.142 0.265,-8.942 0.424,0.178 1.272,0.543 1.707,0.731 1.356,3.322 2.162,6.905 4.122,9.976 1.918,3.312 4.812,6.383 4.918,10.415 0.688,4.627 0.985,9.296 -0.265,13.861 0.667,6.382 2.925,12.557 4.144,18.876 3.37,-2.225 6.995,-4.512 8.87,-8.2 1.675,-3.176 3.265,-6.571 6.211,-8.827 6.21,-4.69 9.686,-12.19 16.575,-16.097 4.356,-2.59 9.792,-2.978 13.841,-6.111 3.836,-3.51 5.479,-8.764 5.702,-13.809 -5.639,0.616 -11.849,1.796 -17.074,-1.066 -5.224,-2.946 -7.069,-9.297 -6.867,-14.896 1.145,-2.173 3.413,-3.458 5.289,-4.952 0.339,2.477 0.413,4.962 0.413,7.459 1.102,0.104 2.204,0.208 3.317,0.303 1.737,-7.72 0.498,-16.17 4.62,-23.274 3.73,-3.719 8.076,-7.458 13.555,-8.116 3.317,-0.459 6.264,-2.141 9.517,-2.778 4.652,0.407 8.542,3.259 12.665,5.16 3.783,1.724 7.556,4.398 8.955,8.451 -0.106,2.862 -3.095,3.896 -5.203,5.118 -0.87,6.278 -0.774,12.609 -1.028,18.918 -0.011,4.91 -3.402,8.796 -5.935,12.723 -1.685,-0.136 -3.359,-0.387 -5.044,-0.366 -2.299,0.878 -2.649,4.45 -0.795,5.892 3.201,2.684 7.037,4.972 11.318,5.317 4.949,0.522 9.92,0.074 14.869,-0.146 0.498,-2.611 0.72,-5.37 2.13,-7.688 6.359,-2.935 13.555,-3.666 19.903,-6.665 1.844,-1.065 3.052,-2.873 4.462,-4.408 -3.678,-0.491 -9.379,0.888 -10.884,-3.604 -1.293,-4.157 -3.773,-7.719 -7.111,-10.561 0.752,-2.476 1.96,-5.066 1.06,-7.688 -1.972,-5.713 0.71,-11.626 -0.265,-17.455 -0.71,-2.214 1.621,-3.562 3.402,-4.209 5.754,-1.933 11.785,-3.208 17.878,-3.28 4.886,0.272 10.28,2.047 12.887,6.424 2.173,3.896 4.44,8.117 3.593,12.723 0.339,7.438 -4.366,14.792 -1.685,22.114 4.08,5.327 9.93,9.192 15.939,12.19 3.188,1.65 6.973,1.87 10.035,3.771 2.034,2.079 2.66,5.203 4.938,7.072 3.105,-0.689 6.232,-1.525 9.125,-2.863 2.672,-1.17 3.519,-4.178 4.833,-6.497 -5.671,-0.491 -13.321,2.748 -17.358,-2.653 -0.414,-2.1 -0.34,-4.252 -0.383,-6.373 2.204,0.282 4.408,0.616 6.623,0.867 -0.23,-7.5 -5.16,-14.583 -2.925,-22.145 2.522,-6.529 8.573,-11.595 15.366,-13.423 4.58,-0.491 9.604,-1.232 13.873,0.93 3.297,2.758 6.053,6.236 7.918,10.091 1.758,4.878 1.42,10.175 2.469,15.209 1.855,0.564 3.71,1.097 5.564,1.64 -0.488,2.622 -0.839,5.338 -2.057,7.75 -1.357,3.771 -6.18,2.444 -9.167,3.854 -2.925,1.64 -6.899,5.255 -3.806,8.597 5.32,4.711 12.549,6.382 19.31,8.064 1.452,-3.291 2.058,-7.03 4.218,-9.976 4.907,-3.677 11.223,-5.254 15.728,-9.506 2.405,-2.121 2.184,-5.484 2.354,-8.367 -4.366,-0.334 -8.954,0.502 -13.142,-1.034 -1.399,-2.486 -0.837,-5.452 -0.053,-8.033 -1.973,-2.538 -3.953,-5.139 -5.332,-8.043 0.955,-1.995 2.438,-3.698 3.297,-5.735 0.699,-6.309 -1.939,-12.755 0.128,-18.949 1.27,-2.321 4.13,-3.314 6.6,-3.9 z"
   inkscape:connector-curvature="0" />

</g>
        </g>
      </g>
    </g>
  </g>
</svg>
