<?xml version="1.0" encoding="UTF-8" standalone="no"?>
<!-- Created with Inkscape (http://www.inkscape.org/) -->

<svg
   xmlns:dc="http://purl.org/dc/elements/1.1/"
   xmlns:cc="http://creativecommons.org/ns#"
   xmlns:rdf="http://www.w3.org/1999/02/22-rdf-syntax-ns#"
   xmlns:svg="http://www.w3.org/2000/svg"
   xmlns="http://www.w3.org/2000/svg"
   xmlns:sodipodi="http://sodipodi.sourceforge.net/DTD/sodipodi-0.dtd"
   xmlns:inkscape="http://www.inkscape.org/namespaces/inkscape"
   width="51mm"
   height="51mm"
   viewBox="0 0 51 51"
   version="1.1"
   id="svg8"
   inkscape:version="0.92.3 (2405546, 2018-03-11)"
   sodipodi:docname="o1.svg">
  <defs
     id="defs2">
    <linearGradient
       id="linearGradient3144"
       y2="539.27"
       gradientUnits="userSpaceOnUse"
       x2="247.31"
       gradientTransform="matrix(1.8854,0,0,1,38.598,128.35)"
       y1="498.13"
       x1="200.38">
      <stop
         id="stop6741"
         offset="0" />
      <stop
         id="stop6743"
         stop-opacity="0"
         offset="1" />
    </linearGradient>
    <linearGradient
       id="linearGradient3144-2"
       y2="539.27"
       gradientUnits="userSpaceOnUse"
       x2="247.31"
       gradientTransform="matrix(1.8854,0,0,1,38.598,128.35)"
       y1="498.13"
       x1="200.38">
      <stop
         id="stop6741-8"
         offset="0" />
      <stop
         id="stop6743-9"
         stop-opacity="0"
         offset="1" />
    </linearGradient>
    <linearGradient
       id="linearGradient4219"
       y2="539.27"
       gradientUnits="userSpaceOnUse"
       x2="247.31"
       gradientTransform="matrix(1.21,0,0,1,169.55,-481.7)"
       y1="498.13"
       x1="200.38">
      <stop
         id="stop6741-2"
         offset="0" />
      <stop
         id="stop6743-2"
         stop-opacity="0"
         offset="1" />
    </linearGradient>
    <marker
       id="Arrow2Lstart"
       refY="0"
       refX="0"
       style="overflow:visible"
       orient="auto"
       inkscape:stockid="Arrow2Lstart">
      <path
         id="path2615"
         style="stroke-linejoin:round;stroke-width:.625;fill-rule:evenodd"
         sodipodi:nodetypes="cccc"
         transform="matrix(1.1,0,0,1.1,-5.5,0)"
         d="m8.7186 4.0337l-10.926-4.0177 10.926-4.0177c-1.7455 2.3721-1.7355 5.6174 0 8.0354z" />
    </marker>
    <marker
       id="Arrow1Mstart"
       refY="0"
       refX="0"
       style="overflow:visible"
       orient="auto"
       inkscape:stockid="Arrow1Mstart">
      <path
         id="path2629"
         style="stroke:#000000;stroke-width:1pt;fill-rule:evenodd"
         sodipodi:nodetypes="ccccc"
         transform="scale(.4)"
         d="m0 0l5-5-17.5 5 17.5 5-5-5z" />
    </marker>
    <marker
       id="Arrow2Lstart-8"
       refY="0"
       refX="0"
       style="overflow:visible"
       orient="auto"
       inkscape:stockid="Arrow2Lstart">
      <path
         id="path2615-7"
         style="stroke-linejoin:round;stroke-width:.625;fill-rule:evenodd"
         sodipodi:nodetypes="cccc"
         transform="matrix(1.1,0,0,1.1,-5.5,0)"
         d="m8.7186 4.0337l-10.926-4.0177 10.926-4.0177c-1.7455 2.3721-1.7355 5.6174 0 8.0354z" />
    </marker>
    <marker
       id="Arrow1Mstart-1"
       refY="0"
       refX="0"
       style="overflow:visible"
       orient="auto"
       inkscape:stockid="Arrow1Mstart">
      <path
         id="path2629-7"
         style="stroke:#000000;stroke-width:1pt;fill-rule:evenodd"
         sodipodi:nodetypes="ccccc"
         transform="scale(.4)"
         d="m0 0l5-5-17.5 5 17.5 5-5-5z" />
    </marker>
    <linearGradient
       id="linearGradient2855"
       y2="539.27"
       gradientUnits="userSpaceOnUse"
       x2="247.31"
       gradientTransform="translate(-160.12,-300.58)"
       y1="498.13"
       x1="200.38">
      <stop
         id="stop6741-26"
         offset="0" />
      <stop
         id="stop6743-6"
         stop-opacity="0"
         offset="1" />
    </linearGradient>
    <marker
       id="Arrow2Lstart-5"
       refY="0"
       refX="0"
       style="overflow:visible"
       orient="auto"
       inkscape:stockid="Arrow2Lstart">
      <path
         id="path2615-6"
         style="stroke-linejoin:round;stroke-width:.625;fill-rule:evenodd"
         sodipodi:nodetypes="cccc"
         transform="matrix(1.1,0,0,1.1,-5.5,0)"
         d="m8.7186 4.0337l-10.926-4.0177 10.926-4.0177c-1.7455 2.3721-1.7355 5.6174 0 8.0354z" />
    </marker>
    <marker
       id="Arrow1Mstart-11"
       refY="0"
       refX="0"
       style="overflow:visible"
       orient="auto"
       inkscape:stockid="Arrow1Mstart">
      <path
         id="path2629-5"
         style="stroke:#000000;stroke-width:1pt;fill-rule:evenodd"
         sodipodi:nodetypes="ccccc"
         transform="scale(.4)"
         d="m0 0l5-5-17.5 5 17.5 5-5-5z" />
    </marker>
    <marker
       id="Arrow2Lstart-4"
       refY="0"
       refX="0"
       style="overflow:visible"
       orient="auto"
       inkscape:stockid="Arrow2Lstart">
      <path
         id="path2615-4"
         style="stroke-linejoin:round;stroke-width:.625;fill-rule:evenodd"
         sodipodi:nodetypes="cccc"
         transform="matrix(1.1,0,0,1.1,-5.5,0)"
         d="m8.7186 4.0337l-10.926-4.0177 10.926-4.0177c-1.7455 2.3721-1.7355 5.6174 0 8.0354z" />
    </marker>
    <marker
       id="Arrow1Mstart-7"
       refY="0"
       refX="0"
       style="overflow:visible"
       orient="auto"
       inkscape:stockid="Arrow1Mstart">
      <path
         id="path2629-6"
         style="stroke:#000000;stroke-width:1pt;fill-rule:evenodd"
         sodipodi:nodetypes="ccccc"
         transform="scale(.4)"
         d="m0 0l5-5-17.5 5 17.5 5-5-5z" />
    </marker>
    <marker
       id="Arrow2Lstart-7"
       refY="0"
       refX="0"
       style="overflow:visible"
       orient="auto"
       inkscape:stockid="Arrow2Lstart">
      <path
         id="path2615-41"
         style="stroke-linejoin:round;stroke-width:.625;fill-rule:evenodd"
         sodipodi:nodetypes="cccc"
         transform="matrix(1.1,0,0,1.1,-5.5,0)"
         d="m8.7186 4.0337l-10.926-4.0177 10.926-4.0177c-1.7455 2.3721-1.7355 5.6174 0 8.0354z" />
    </marker>
    <marker
       id="Arrow1Mstart-8"
       refY="0"
       refX="0"
       style="overflow:visible"
       orient="auto"
       inkscape:stockid="Arrow1Mstart">
      <path
         id="path2629-59"
         style="stroke:#000000;stroke-width:1pt;fill-rule:evenodd"
         sodipodi:nodetypes="ccccc"
         transform="scale(.4)"
         d="m0 0l5-5-17.5 5 17.5 5-5-5z" />
    </marker>
    <marker
       id="Arrow2Lstart-3"
       refY="0"
       refX="0"
       style="overflow:visible"
       orient="auto"
       inkscape:stockid="Arrow2Lstart">
      <path
         id="path2615-3"
         style="stroke-linejoin:round;stroke-width:.625;fill-rule:evenodd"
         sodipodi:nodetypes="cccc"
         transform="matrix(1.1,0,0,1.1,-5.5,0)"
         d="m8.7186 4.0337l-10.926-4.0177 10.926-4.0177c-1.7455 2.3721-1.7355 5.6174 0 8.0354z" />
    </marker>
    <marker
       id="Arrow1Mstart-3"
       refY="0"
       refX="0"
       style="overflow:visible"
       orient="auto"
       inkscape:stockid="Arrow1Mstart">
      <path
         id="path2629-8"
         style="stroke:#000000;stroke-width:1pt;fill-rule:evenodd"
         sodipodi:nodetypes="ccccc"
         transform="scale(.4)"
         d="m0 0l5-5-17.5 5 17.5 5-5-5z" />
    </marker>
    <marker
       id="Arrow2Lstart-43"
       refY="0"
       refX="0"
       style="overflow:visible"
       orient="auto"
       inkscape:stockid="Arrow2Lstart">
      <path
         id="path2615-0"
         style="stroke-linejoin:round;stroke-width:.625;fill-rule:evenodd"
         sodipodi:nodetypes="cccc"
         transform="matrix(1.1,0,0,1.1,-5.5,0)"
         d="m8.7186 4.0337l-10.926-4.0177 10.926-4.0177c-1.7455 2.3721-1.7355 5.6174 0 8.0354z" />
    </marker>
    <marker
       id="Arrow1Mstart-30"
       refY="0"
       refX="0"
       style="overflow:visible"
       orient="auto"
       inkscape:stockid="Arrow1Mstart">
      <path
         id="path2629-9"
         style="stroke:#000000;stroke-width:1pt;fill-rule:evenodd"
         sodipodi:nodetypes="ccccc"
         transform="scale(.4)"
         d="m0 0l5-5-17.5 5 17.5 5-5-5z" />
    </marker>
    <marker
       id="Arrow2Lstart-75"
       refY="0"
       refX="0"
       style="overflow:visible"
       orient="auto"
       inkscape:stockid="Arrow2Lstart">
      <path
         id="path2615-48"
         style="stroke-linejoin:round;stroke-width:.625;fill-rule:evenodd"
         sodipodi:nodetypes="cccc"
         transform="matrix(1.1,0,0,1.1,-5.5,0)"
         d="m8.7186 4.0337l-10.926-4.0177 10.926-4.0177c-1.7455 2.3721-1.7355 5.6174 0 8.0354z" />
    </marker>
    <marker
       id="Arrow1Mstart-12"
       refY="0"
       refX="0"
       style="overflow:visible"
       orient="auto"
       inkscape:stockid="Arrow1Mstart">
      <path
         id="path2629-89"
         style="stroke:#000000;stroke-width:1pt;fill-rule:evenodd"
         sodipodi:nodetypes="ccccc"
         transform="scale(.4)"
         d="m0 0l5-5-17.5 5 17.5 5-5-5z" />
    </marker>
    <marker
       id="Arrow2Lstart-0"
       refY="0"
       refX="0"
       style="overflow:visible"
       orient="auto"
       inkscape:stockid="Arrow2Lstart">
      <path
         id="path2615-64"
         style="stroke-linejoin:round;stroke-width:.625;fill-rule:evenodd"
         sodipodi:nodetypes="cccc"
         transform="matrix(1.1,0,0,1.1,-5.5,0)"
         d="m8.7186 4.0337l-10.926-4.0177 10.926-4.0177c-1.7455 2.3721-1.7355 5.6174 0 8.0354z" />
    </marker>
    <marker
       id="Arrow1Mstart-6"
       refY="0"
       refX="0"
       style="overflow:visible"
       orient="auto"
       inkscape:stockid="Arrow1Mstart">
      <path
         id="path2629-2"
         style="stroke:#000000;stroke-width:1pt;fill-rule:evenodd"
         sodipodi:nodetypes="ccccc"
         transform="scale(.4)"
         d="m0 0l5-5-17.5 5 17.5 5-5-5z" />
    </marker>
    <marker
       id="Arrow2Lstart-08"
       refY="0"
       refX="0"
       style="overflow:visible"
       orient="auto"
       inkscape:stockid="Arrow2Lstart">
      <path
         id="path2615-1"
         style="stroke-linejoin:round;stroke-width:.625;fill-rule:evenodd"
         sodipodi:nodetypes="cccc"
         transform="matrix(1.1,0,0,1.1,-5.5,0)"
         d="m8.7186 4.0337l-10.926-4.0177 10.926-4.0177c-1.7455 2.3721-1.7355 5.6174 0 8.0354z" />
    </marker>
    <marker
       id="Arrow1Mstart-31"
       refY="0"
       refX="0"
       style="overflow:visible"
       orient="auto"
       inkscape:stockid="Arrow1Mstart">
      <path
         id="path2629-1"
         style="stroke:#000000;stroke-width:1pt;fill-rule:evenodd"
         sodipodi:nodetypes="ccccc"
         transform="scale(.4)"
         d="m0 0l5-5-17.5 5 17.5 5-5-5z" />
    </marker>
    <marker
       id="Arrow2Lstart-05"
       refY="0"
       refX="0"
       style="overflow:visible"
       orient="auto"
       inkscape:stockid="Arrow2Lstart">
      <path
         id="path2615-66"
         style="stroke-linejoin:round;stroke-width:.625;fill-rule:evenodd"
         sodipodi:nodetypes="cccc"
         transform="matrix(1.1,0,0,1.1,-5.5,0)"
         d="m8.7186 4.0337l-10.926-4.0177 10.926-4.0177c-1.7455 2.3721-1.7355 5.6174 0 8.0354z" />
    </marker>
    <marker
       id="Arrow1Mstart-4"
       refY="0"
       refX="0"
       style="overflow:visible"
       orient="auto"
       inkscape:stockid="Arrow1Mstart">
      <path
         id="path2629-0"
         style="stroke:#000000;stroke-width:1pt;fill-rule:evenodd"
         sodipodi:nodetypes="ccccc"
         transform="scale(.4)"
         d="m0 0l5-5-17.5 5 17.5 5-5-5z" />
    </marker>
    <marker
       id="Arrow2Lstart-9"
       refY="0"
       refX="0"
       style="overflow:visible"
       orient="auto"
       inkscape:stockid="Arrow2Lstart">
      <path
         id="path2615-60"
         style="stroke-linejoin:round;stroke-width:.625;fill-rule:evenodd"
         sodipodi:nodetypes="cccc"
         transform="matrix(1.1,0,0,1.1,-5.5,0)"
         d="m8.7186 4.0337l-10.926-4.0177 10.926-4.0177c-1.7455 2.3721-1.7355 5.6174 0 8.0354z" />
    </marker>
    <marker
       id="Arrow1Mstart-2"
       refY="0"
       refX="0"
       style="overflow:visible"
       orient="auto"
       inkscape:stockid="Arrow1Mstart">
      <path
         id="path2629-76"
         style="stroke:#000000;stroke-width:1pt;fill-rule:evenodd"
         sodipodi:nodetypes="ccccc"
         transform="scale(.4)"
         d="m0 0l5-5-17.5 5 17.5 5-5-5z" />
    </marker>
    <marker
       id="Arrow2Lstart-58"
       refY="0"
       refX="0"
       style="overflow:visible"
       orient="auto"
       inkscape:stockid="Arrow2Lstart">
      <path
         id="path2615-70"
         style="stroke-linejoin:round;stroke-width:.625;fill-rule:evenodd"
         sodipodi:nodetypes="cccc"
         transform="matrix(1.1,0,0,1.1,-5.5,0)"
         d="m8.7186 4.0337l-10.926-4.0177 10.926-4.0177c-1.7455 2.3721-1.7355 5.6174 0 8.0354z" />
    </marker>
    <marker
       id="Arrow1Mstart-48"
       refY="0"
       refX="0"
       style="overflow:visible"
       orient="auto"
       inkscape:stockid="Arrow1Mstart">
      <path
         id="path2629-04"
         style="stroke:#000000;stroke-width:1pt;fill-rule:evenodd"
         sodipodi:nodetypes="ccccc"
         transform="scale(.4)"
         d="m0 0l5-5-17.5 5 17.5 5-5-5z" />
    </marker>
    <linearGradient
       id="linearGradient4009"
       y2="540.1"
       gradientUnits="userSpaceOnUse"
       x2="306.87"
       gradientTransform="translate(-202.75,-323.7)"
       y1="540.1"
       x1="212.74">
      <stop
         id="stop6741-1"
         offset="0" />
      <stop
         id="stop6743-0"
         stop-opacity="0"
         offset="1" />
    </linearGradient>
    <marker
       id="Arrow2Lstart-90"
       refY="0"
       refX="0"
       style="overflow:visible"
       orient="auto"
       inkscape:stockid="Arrow2Lstart">
      <path
         id="path2615-2"
         style="stroke-linejoin:round;stroke-width:.625;fill-rule:evenodd"
         sodipodi:nodetypes="cccc"
         transform="matrix(1.1,0,0,1.1,-5.5,0)"
         d="m8.7186 4.0337l-10.926-4.0177 10.926-4.0177c-1.7455 2.3721-1.7355 5.6174 0 8.0354z" />
    </marker>
    <marker
       id="Arrow1Mstart-83"
       refY="0"
       refX="0"
       style="overflow:visible"
       orient="auto"
       inkscape:stockid="Arrow1Mstart">
      <path
         id="path2629-80"
         style="stroke:#000000;stroke-width:1pt;fill-rule:evenodd"
         sodipodi:nodetypes="ccccc"
         transform="scale(.4)"
         d="m0 0l5-5-17.5 5 17.5 5-5-5z" />
    </marker>
    <marker
       id="Arrow2Lstart-50"
       refY="0"
       refX="0"
       style="overflow:visible"
       orient="auto"
       inkscape:stockid="Arrow2Lstart">
      <path
         id="path2615-29"
         style="stroke-linejoin:round;stroke-width:.625;fill-rule:evenodd"
         sodipodi:nodetypes="cccc"
         transform="matrix(1.1,0,0,1.1,-5.5,0)"
         d="m8.7186 4.0337l-10.926-4.0177 10.926-4.0177c-1.7455 2.3721-1.7355 5.6174 0 8.0354z" />
    </marker>
    <marker
       id="Arrow1Mstart-43"
       refY="0"
       refX="0"
       style="overflow:visible"
       orient="auto"
       inkscape:stockid="Arrow1Mstart">
      <path
         id="path2629-51"
         style="stroke:#000000;stroke-width:1pt;fill-rule:evenodd"
         sodipodi:nodetypes="ccccc"
         transform="scale(.4)"
         d="m0 0l5-5-17.5 5 17.5 5-5-5z" />
    </marker>
    <marker
       id="Arrow2Lstart-92"
       refY="0"
       refX="0"
       style="overflow:visible"
       orient="auto"
       inkscape:stockid="Arrow2Lstart">
      <path
         id="path2615-8"
         style="stroke-linejoin:round;stroke-width:.625;fill-rule:evenodd"
         sodipodi:nodetypes="cccc"
         transform="matrix(1.1,0,0,1.1,-5.5,0)"
         d="m8.7186 4.0337l-10.926-4.0177 10.926-4.0177c-1.7455 2.3721-1.7355 5.6174 0 8.0354z" />
    </marker>
    <marker
       id="Arrow1Mstart-88"
       refY="0"
       refX="0"
       style="overflow:visible"
       orient="auto"
       inkscape:stockid="Arrow1Mstart">
      <path
         id="path2629-68"
         style="stroke:#000000;stroke-width:1pt;fill-rule:evenodd"
         sodipodi:nodetypes="ccccc"
         transform="scale(.4)"
         d="m0 0l5-5-17.5 5 17.5 5-5-5z" />
    </marker>
    <marker
       id="Arrow2Lstart-903"
       refY="0"
       refX="0"
       style="overflow:visible"
       orient="auto"
       inkscape:stockid="Arrow2Lstart">
      <path
         id="path2615-33"
         style="stroke-linejoin:round;stroke-width:.625;fill-rule:evenodd"
         sodipodi:nodetypes="cccc"
         transform="matrix(1.1,0,0,1.1,-5.5,0)"
         d="m8.7186 4.0337l-10.926-4.0177 10.926-4.0177c-1.7455 2.3721-1.7355 5.6174 0 8.0354z" />
    </marker>
    <marker
       id="Arrow1Mstart-73"
       refY="0"
       refX="0"
       style="overflow:visible"
       orient="auto"
       inkscape:stockid="Arrow1Mstart">
      <path
         id="path2629-26"
         style="stroke:#000000;stroke-width:1pt;fill-rule:evenodd"
         sodipodi:nodetypes="ccccc"
         transform="scale(.4)"
         d="m0 0l5-5-17.5 5 17.5 5-5-5z" />
    </marker>
    <marker
       id="Arrow2Lstart-086"
       refY="0"
       refX="0"
       style="overflow:visible"
       orient="auto"
       inkscape:stockid="Arrow2Lstart">
      <path
         id="path2615-24"
         style="stroke-linejoin:round;stroke-width:.625;fill-rule:evenodd"
         sodipodi:nodetypes="cccc"
         transform="matrix(1.1,0,0,1.1,-5.5,0)"
         d="m8.7186 4.0337l-10.926-4.0177 10.926-4.0177c-1.7455 2.3721-1.7355 5.6174 0 8.0354z" />
    </marker>
    <marker
       id="Arrow1Mstart-79"
       refY="0"
       refX="0"
       style="overflow:visible"
       orient="auto"
       inkscape:stockid="Arrow1Mstart">
      <path
         id="path2629-3"
         style="stroke:#000000;stroke-width:1pt;fill-rule:evenodd"
         sodipodi:nodetypes="ccccc"
         transform="scale(.4)"
         d="m0 0l5-5-17.5 5 17.5 5-5-5z" />
    </marker>
    <marker
       id="Arrow2Lstart-49"
       refY="0"
       refX="0"
       style="overflow:visible"
       orient="auto"
       inkscape:stockid="Arrow2Lstart">
      <path
         id="path2615-9"
         style="stroke-linejoin:round;stroke-width:.625;fill-rule:evenodd"
         sodipodi:nodetypes="cccc"
         transform="matrix(1.1,0,0,1.1,-5.5,0)"
         d="m8.7186 4.0337l-10.926-4.0177 10.926-4.0177c-1.7455 2.3721-1.7355 5.6174 0 8.0354z" />
    </marker>
    <marker
       id="Arrow1Mstart-45"
       refY="0"
       refX="0"
       style="overflow:visible"
       orient="auto"
       inkscape:stockid="Arrow1Mstart">
      <path
         id="path2629-93"
         style="stroke:#000000;stroke-width:1pt;fill-rule:evenodd"
         sodipodi:nodetypes="ccccc"
         transform="scale(.4)"
         d="m0 0l5-5-17.5 5 17.5 5-5-5z" />
    </marker>
    <marker
       id="Arrow2Lstart-2"
       refY="0"
       refX="0"
       style="overflow:visible"
       orient="auto"
       inkscape:stockid="Arrow2Lstart">
      <path
         id="path2615-01"
         style="stroke-linejoin:round;stroke-width:.625;fill-rule:evenodd"
         sodipodi:nodetypes="cccc"
         transform="matrix(1.1,0,0,1.1,-5.5,0)"
         d="m8.7186 4.0337l-10.926-4.0177 10.926-4.0177c-1.7455 2.3721-1.7355 5.6174 0 8.0354z" />
    </marker>
    <marker
       id="Arrow1Mstart-9"
       refY="0"
       refX="0"
       style="overflow:visible"
       orient="auto"
       inkscape:stockid="Arrow1Mstart">
      <path
         id="path2629-62"
         style="stroke:#000000;stroke-width:1pt;fill-rule:evenodd"
         sodipodi:nodetypes="ccccc"
         transform="scale(.4)"
         d="m0 0l5-5-17.5 5 17.5 5-5-5z" />
    </marker>
    <marker
       id="Arrow2Lstart-06"
       refY="0"
       refX="0"
       style="overflow:visible"
       orient="auto"
       inkscape:stockid="Arrow2Lstart">
      <path
         id="path2615-47"
         style="stroke-linejoin:round;stroke-width:.625;fill-rule:evenodd"
         sodipodi:nodetypes="cccc"
         transform="matrix(1.1,0,0,1.1,-5.5,0)"
         d="m8.7186 4.0337l-10.926-4.0177 10.926-4.0177c-1.7455 2.3721-1.7355 5.6174 0 8.0354z" />
    </marker>
    <marker
       id="Arrow1Mstart-485"
       refY="0"
       refX="0"
       style="overflow:visible"
       orient="auto"
       inkscape:stockid="Arrow1Mstart">
      <path
         id="path2629-82"
         style="stroke:#000000;stroke-width:1pt;fill-rule:evenodd"
         sodipodi:nodetypes="ccccc"
         transform="scale(.4)"
         d="m0 0l5-5-17.5 5 17.5 5-5-5z" />
    </marker>
    <marker
       id="Arrow2Lstart-01"
       refY="0"
       refX="0"
       style="overflow:visible"
       orient="auto"
       inkscape:stockid="Arrow2Lstart">
      <path
         id="path2615-37"
         style="stroke-linejoin:round;stroke-width:.625;fill-rule:evenodd"
         sodipodi:nodetypes="cccc"
         transform="matrix(1.1,0,0,1.1,-5.5,0)"
         d="m8.7186 4.0337l-10.926-4.0177 10.926-4.0177c-1.7455 2.3721-1.7355 5.6174 0 8.0354z" />
    </marker>
    <marker
       id="Arrow1Mstart-72"
       refY="0"
       refX="0"
       style="overflow:visible"
       orient="auto"
       inkscape:stockid="Arrow1Mstart">
      <path
         id="path2629-64"
         style="stroke:#000000;stroke-width:1pt;fill-rule:evenodd"
         sodipodi:nodetypes="ccccc"
         transform="scale(.4)"
         d="m0 0l5-5-17.5 5 17.5 5-5-5z" />
    </marker>
    <marker
       id="Arrow2Lstart-86"
       refY="0"
       refX="0"
       style="overflow:visible"
       orient="auto"
       inkscape:stockid="Arrow2Lstart">
      <path
         id="path2615-04"
         style="stroke-linejoin:round;stroke-width:.625;fill-rule:evenodd"
         sodipodi:nodetypes="cccc"
         transform="matrix(1.1,0,0,1.1,-5.5,0)"
         d="m8.7186 4.0337l-10.926-4.0177 10.926-4.0177c-1.7455 2.3721-1.7355 5.6174 0 8.0354z" />
    </marker>
    <marker
       id="Arrow1Mstart-67"
       refY="0"
       refX="0"
       style="overflow:visible"
       orient="auto"
       inkscape:stockid="Arrow1Mstart">
      <path
         id="path2629-60"
         style="stroke:#000000;stroke-width:1pt;fill-rule:evenodd"
         sodipodi:nodetypes="ccccc"
         transform="scale(.4)"
         d="m0 0l5-5-17.5 5 17.5 5-5-5z" />
    </marker>
  </defs>
  <sodipodi:namedview
     id="base"
     pagecolor="#ffffff"
     bordercolor="#666666"
     borderopacity="1.0"
     inkscape:pageopacity="0.0"
     inkscape:pageshadow="2"
     inkscape:zoom="1.979899"
     inkscape:cx="46.961414"
     inkscape:cy="-7.6163491"
     inkscape:document-units="mm"
     inkscape:current-layer="layer1-7"
     showgrid="false"
     inkscape:window-width="1853"
     inkscape:window-height="1025"
     inkscape:window-x="67"
     inkscape:window-y="27"
     inkscape:window-maximized="1" />
  <metadata
     id="metadata5">
    <rdf:RDF>
      <cc:Work
         rdf:about="">
        <dc:format>image/svg+xml</dc:format>
        <dc:type
           rdf:resource="http://purl.org/dc/dcmitype/StillImage" />
        <dc:title></dc:title>
      </cc:Work>
    </rdf:RDF>
  </metadata>
  <g
     inkscape:label="Layer 1"
     inkscape:groupmode="layer"
     id="layer1"
     transform="translate(0,-246)">
    <g
       transform="matrix(1.9999999,0,0,1.9999999,-7.4294577,-322.09765)"
       id="layer1-4"
       inkscape:label="Layer 1">
      <g
         transform="matrix(0.21647508,0,0,0.21647508,1.3740558,248.01453)"
         id="layer1-37"
         inkscape:label="Layer 1">
        <g
           transform="matrix(0.25864891,0,0,0.25864891,-68.829959,167.07892)"
           id="layer1-7">
          <g
             transform="matrix(1.7563265,0,0,1.7563265,-751.65083,-304.86324)"
             id="layer1-8">
            <path
               d="m 719.72,218.84 c -0.0637,5e-4 -0.14881,0.0234 -0.1875,0.0937 -0.0774,0.14061 0.0313,0.25 0.0313,0.25 l 12.969,12.875 v 3.2188 h -4.2188 l -13.531,-8.5938 c -0.25434,-0.11665 -0.22203,0.10118 -0.1875,0.15625 l 3.8125,10.531 -3.9375,10.312 14.188,-8.25 h 3.0312 v 7.9687 c -5.343,0.87271 -10.12,4.4007 -12.312,9.7812 l -0.0313,0.125 c -3.2583,8.2003 0.70361,17.514 8.875,20.844 8.2223,3.3508 17.587,-0.62145 20.938,-8.8438 3.3508,-8.2223 -0.5902,-17.587 -8.8125,-20.938 -1.1383,-0.46386 -2.3051,-0.77663 -3.4688,-0.96875 v -7.9687 h 3.0312 l 14.188,8.25 -3.9375,-10.312 3.9375,-10.875 -13.844,8.7812 h -4.2188 v -3.2188 l 12.625,-12.656 c 0.75288,-0.68685 0.22329,-0.54439 -0.3125,-0.5 l -14.062,5.5625 -14.438,-5.5938 c 0,0 -0.0613,-0.0318 -0.125,-0.0313 z m -8.3125,36.906 c -1.8142,0.0294 -3.4887,1.0459 -4.4688,2.625 -0.0203,0.0328 -0.0428,0.0291 -0.0625,0.0625 -0.0142,0.0204 -0.0179,0.0415 -0.0313,0.0625 -0.13445,0.14761 -0.25921,0.31912 -0.34375,0.5 -0.0125,0.0291 -0.0192,0.0642 -0.0313,0.0937 -0.007,0.0137 -0.0245,0.0171 -0.0313,0.0313 -0.005,0.0131 0.005,0.0494 0,0.0625 -0.0954,0.23592 -0.15628,0.46428 -0.15625,0.71875 -0.57761,2.5266 0.65878,5.2137 3.125,6.2188 2.7391,1.1162 5.915,-0.22968 7.0312,-2.9688 1.1162,-2.73912 -0.19843,-5.915 -2.9375,-7.0312 -0.68477,-0.27906 -1.3929,-0.38636 -2.0938,-0.375 z m 45.25,0 c -0.52573,0.0436 -1.0489,0.16571 -1.5625,0.375 -2.7391,1.1162 -4.085,4.2922 -2.9688,7.0312 1.1162,2.7391 4.2922,4.085 7.0312,2.9688 2.4662,-1.005 3.7026,-3.6922 3.125,-6.2188 3e-5,-0.25447 -0.0609,-0.48283 -0.15625,-0.71875 -0.005,-0.0131 0.005,-0.0494 0,-0.0625 -0.007,-0.0139 0.007,-0.0173 0,-0.0313 -0.012,-0.0295 -0.05,-0.0649 -0.0625,-0.0937 -0.0845,-0.18088 -0.17805,-0.35239 -0.3125,-0.5 -0.0134,-0.021 -0.0483,-0.0421 -0.0625,-0.0625 -0.0197,-0.0334 -0.0422,-0.0297 -0.0625,-0.0625 -0.98002,-1.5791 -2.6545,-2.5956 -4.4688,-2.625 -0.17521,-0.003 -0.32476,-0.0145 -0.5,0 z m -57.531,0.28125 c -1.8588,0.0301 -3.5576,1.0758 -4.5312,2.7188 -0.16189,0.1617 -0.27745,0.35552 -0.375,0.5625 -0.0125,0.0291 -0.0505,0.0642 -0.0625,0.0937 -0.007,0.0137 0.007,0.0171 0,0.0313 -0.005,0.0132 0.005,0.0493 0,0.0625 -0.0786,0.21148 -0.12162,0.43067 -0.125,0.65625 -0.61809,2.5579 0.62549,5.2939 3.125,6.3125 2.7529,1.1218 5.9406,-0.21587 7.0625,-2.9688 1.1219,-2.75293 -0.21588,-5.9406 -2.9688,-7.0625 -0.68822,-0.28046 -1.4207,-0.41765 -2.125,-0.40625 z m 70.312,0 c -0.70433,-0.0114 -1.4368,0.12579 -2.125,0.40625 -2.7529,1.1218 -4.0906,4.3096 -2.9688,7.0625 1.1218,2.7529 4.3096,4.0906 7.0625,2.9688 2.4995,-1.0186 3.7431,-3.7546 3.125,-6.3125 -0.003,-0.22558 -0.0464,-0.44477 -0.125,-0.65625 -0.005,-0.0132 0.005,-0.0493 0,-0.0625 -0.007,-0.0139 0.007,-0.0173 0,-0.0313 -0.012,-0.0295 -0.0188,-0.0649 -0.0313,-0.0937 -0.0976,-0.20698 -0.24436,-0.4008 -0.40625,-0.5625 -0.97367,-1.643 -2.6725,-2.6886 -4.5312,-2.7188 z m -82.562,2.6562 c -1.9296,0.031 -3.68,1.1038 -4.6875,2.8125 -0.18715,0.18864 -0.33892,0.44074 -0.4375,0.6875 -0.007,0.0137 0.007,0.0171 0,0.0313 -0.10347,0.25503 -0.16457,0.53741 -0.15625,0.8125 -0.60845,2.6345 0.67763,5.4205 3.25,6.4688 2.8528,1.1626 6.1499,-0.24092 7.3125,-3.0938 1.1626,-2.8528 -0.20968,-6.1499 -3.0625,-7.3125 -0.7132,-0.29064 -1.489,-0.41798 -2.2188,-0.40625 z m 94.25,0 c -0.55222,0.0466 -1.0901,0.18827 -1.625,0.40625 -2.8528,1.1626 -4.2563,4.4597 -3.0938,7.3125 1.1626,2.8528 4.4597,4.2563 7.3125,3.0938 2.5724,-1.0483 3.8584,-3.8343 3.25,-6.4688 0.008,-0.27509 -0.0215,-0.55747 -0.125,-0.8125 -0.007,-0.0139 -0.0242,-0.0173 -0.0313,-0.0313 -0.0986,-0.24676 -0.25035,-0.49886 -0.4375,-0.6875 -1.0075,-1.7087 -2.7579,-2.7815 -4.6875,-2.8125 -0.18243,-0.003 -0.37843,-0.0155 -0.5625,0 z m -105.78,6.4062 c -2.0701,0.033 -3.9757,1.2085 -5.0312,3.0625 -0.17535,0.17836 -0.30905,0.39453 -0.40625,0.625 -0.007,0.0206 -0.0247,0.0417 -0.0313,0.0625 -0.098,0.2423 -0.12772,0.48864 -0.125,0.75 -0.69502,2.8129 0.65556,5.8165 3.4062,6.9375 3.0194,1.2305 6.5195,-0.26183 7.75,-3.2812 1.2305,-3.01937 -0.26183,-6.4883 -3.2812,-7.7188 -0.75485,-0.30762 -1.5092,-0.44979 -2.2812,-0.4375 z m 117.88,0 c -0.77202,-0.0123 -1.5264,0.12988 -2.2812,0.4375 -3.0194,1.2305 -4.5117,4.6993 -3.2812,7.7188 1.2305,3.0194 4.7306,4.5117 7.75,3.2812 2.7507,-1.121 4.1325,-4.1246 3.4375,-6.9375 0.003,-0.26136 -0.0582,-0.5077 -0.15625,-0.75 -0.007,-0.0208 -0.024,-0.0419 -0.0313,-0.0625 -0.0972,-0.23047 -0.2309,-0.44664 -0.40625,-0.625 -1.0556,-1.854 -2.9612,-3.0295 -5.0312,-3.0625 z m -127.5,0.65625 c -0.26121,0.0224 -0.5542,0.10851 -0.8125,0.25 -10.496,5.7492 -21.608,20.45 -24.344,36.844 -1.701,10.192 -1.4258,25.434 13.188,36.25 2.6145,1.9352 7.2253,3.4193 11.062,5.1562 0.55349,0.24557 1.28,0.36017 2.0625,0.34375 -0.7038,1.0519 -0.81585,2.9414 -0.15625,3.6562 0,0 5.2802,4.8319 6.5,5.7812 0.0808,0.0673 0.21636,0.0469 0.28125,0 0.18204,-0.16044 0.59855,-0.33692 1.0312,-0.46875 -4.3452,-6.368 -0.88307,-4.6439 -0.53125,-4.4688 0.0842,0.0419 0.24054,0.26673 0.9375,0.1875 0.69693,-0.0792 0.80051,-0.31502 0.875,-0.375 0.31101,-0.25046 3.3885,-2.7393 0.34375,4.4688 0.44835,0.0317 0.88526,0.10267 1.0938,0.21875 0.0725,0.0316 0.24623,0.0215 0.3125,-0.0625 1.0136,-1.2032 5.2188,-7.0938 5.2188,-7.0938 0.61642,-1.0248 -0.1696,-3.5014 -1.4375,-3.9688 l -5.7188,-2.125 c -0.29448,-0.11336 -0.51815,-0.24131 -0.9375,-0.28125 l 12.781,-9.9688 h 0.0313 v -0.0313 c 1.8933,-1.6885 2.6905,-4.329 2.7812,-6.7812 0.0907,-2.4522 -0.43942,-4.7436 -1.7188,-5.8125 h -0.0313 c -8.5394,-6.6062 -11.685,-22.104 -3.4062,-32.875 5.0663,-6.5912 15.107,-11.463 28.844,-11.594 h 0.0313 c 0.90129,-0.0427 1.7751,0.10982 2.5,-0.125 0.18122,-0.0587 0.3502,-0.17654 0.5,-0.34375 0.1498,-0.16721 0.24457,-0.39967 0.25,-0.625 0.0109,-0.45066 -0.17656,-0.87207 -0.53125,-1.4375 l -0.0313,-0.0313 -0.0313,-0.0313 c -1.9452,-2.0668 -4.5828,-3.3386 -8.375,-3.1562 h -0.0313 c -12.247,1.0086 -20.722,4.5202 -26.406,9.375 -5.6838,4.8548 -8.5348,11.037 -9.5,17.312 -0.96524,6.2756 -0.0728,12.648 1.6875,17.938 1.7603,5.2899 4.3448,9.4831 6.9688,11.5 l 0.0313,0.0313 h 0.0313 c 0.223,0.14387 0.42012,0.58068 0.4375,1.0312 0.0174,0.45057 -0.14061,0.84895 -0.46875,1.0625 -3.8141,2.7574 -6.063,4.9791 -12.938,10.031 -0.0104,0.008 -0.0208,-0.008 -0.0313,0 -0.98679,0.6854 -1.6626,1.2763 -2.25,1.4375 -0.58839,0.16148 -1.2167,0.0319 -2.4062,-0.84375 -0.005,-0.004 -0.0263,0.004 -0.0313,0 -3.3076,-2.7739 -9.4977,-8.7994 -12.125,-16.562 -2.2232,-6.5692 -3.4265,-15.442 -1.4375,-24.562 1.989,-9.1202 7.1689,-18.516 17.781,-26.281 l -0.0313,-0.0313 c 0.16858,-0.10137 0.34338,-0.21041 0.40625,-0.375 0.0779,-0.20405 0.0589,-0.40481 0.0313,-0.59375 -0.0556,-0.37788 -0.23514,-0.76038 -0.5,-1.0938 -0.26486,-0.33337 -0.60632,-0.63117 -1.0625,-0.78125 -0.22809,-0.075 -0.45754,-0.1163 -0.71875,-0.0937 z m 136.75,0 c -0.12458,0.0145 -0.2297,0.0564 -0.34375,0.0937 -0.45618,0.15008 -0.79764,0.44788 -1.0625,0.78125 -0.26486,0.33337 -0.4444,0.71587 -0.5,1.0938 -0.0278,0.18894 -0.0466,0.3897 0.0313,0.59375 0.0629,0.16459 0.23767,0.27363 0.40625,0.375 l -0.0313,0.0313 c 10.612,7.765 15.792,17.161 17.781,26.281 1.989,9.1202 0.78574,17.993 -1.4375,24.562 -2.6273,7.7631 -8.8174,13.789 -12.125,16.562 -0.005,0.004 -0.0263,-0.004 -0.0313,0 -1.1896,0.87565 -1.8179,1.0052 -2.4062,0.84375 -0.58741,-0.16121 -1.2632,-0.7521 -2.25,-1.4375 -0.0105,-0.008 -0.0206,0.008 -0.0313,0 -6.8745,-5.0521 -9.1234,-7.2738 -12.938,-10.031 -0.32814,-0.21355 -0.48615,-0.61193 -0.46875,-1.0625 0.0174,-0.45057 0.2145,-0.88738 0.4375,-1.0312 h 0.0313 l 0.0313,-0.0313 c 2.624,-2.0169 5.2084,-6.2101 6.9688,-11.5 1.7603,-5.2899 2.6527,-11.662 1.6875,-17.938 -0.96524,-6.2756 -3.8162,-12.458 -9.5,-17.312 -5.6838,-4.8548 -14.159,-8.3664 -26.406,-9.375 h -0.0313 c -3.7922,-0.18231 -6.4298,1.0895 -8.375,3.1562 l -0.0313,0.0313 -0.0313,0.0313 c -0.35469,0.56543 -0.54215,0.98684 -0.53125,1.4375 0.005,0.22533 0.1002,0.45779 0.25,0.625 0.1498,0.16721 0.31878,0.28505 0.5,0.34375 0.72489,0.23482 1.5987,0.0823 2.5,0.125 h 0.0313 c 13.737,0.13054 23.777,5.0025 28.844,11.594 8.279,10.771 5.1331,26.269 -3.4062,32.875 h -0.0313 c -1.2793,1.0689 -1.8094,3.3603 -1.7188,5.8125 0.0907,2.4522 0.88795,5.0928 2.7812,6.7812 v 0.0313 h 0.0313 l 12.875,10.062 c -0.009,3.1e-4 -0.0223,-5.2e-4 -0.0313,0 -0.4603,0.0265 -0.72123,0.16191 -1.0312,0.28125 l -5.6875,2.1562 c -1.2679,0.46736 -2.0852,2.9127 -1.4688,3.9375 0,0 4.2364,5.9218 5.25,7.125 0.0663,0.084 0.24,0.0941 0.3125,0.0625 0.20849,-0.11608 0.61414,-0.18705 1.0625,-0.21875 -3.0447,-7.208 0.0327,-4.7505 0.34375,-4.5 0.0745,0.06 0.17807,0.2958 0.875,0.375 0.69696,0.0792 0.8533,-0.11435 0.9375,-0.15625 0.35182,-0.17513 3.8452,-1.8993 -0.5,4.4688 0.43271,0.13183 0.81795,0.27706 1,0.4375 0.0649,0.0469 0.20045,0.0673 0.28125,0 1.2198,-0.94931 6.5,-5.75 6.5,-5.75 0.68591,-0.74338 0.56363,-2.7603 -0.21875,-3.7812 0.8179,0.0275 1.581,-0.0885 2.1562,-0.34375 3.8372,-1.737 8.448,-3.2211 11.062,-5.1562 14.613,-10.816 14.889,-26.058 13.188,-36.25 -2.7361,-16.394 -13.848,-31.095 -24.344,-36.844 -0.38745,-0.21224 -0.81376,-0.29348 -1.1875,-0.25 z m -156.09,6.2812 c -0.68953,-0.0376 -1.3988,0.0146 -2.125,0.21875 -2.9047,0.81678 -4.7208,3.3778 -4.0625,5.7188 0.65829,2.341 3.5328,3.598 6.4375,2.7812 2.9047,-0.81679 4.7208,-3.3778 4.0625,-5.7188 -0.49371,-1.7557 -2.2439,-2.8874 -4.3125,-3 z m 175.81,0 c -2.0686,0.11265 -3.8188,1.2443 -4.3125,3 -0.65829,2.341 1.1578,4.902 4.0625,5.7188 2.9047,0.8168 5.8105,-0.44029 6.4688,-2.7812 0.65828,-2.341 -1.1891,-4.902 -4.0938,-5.7188 -0.72616,-0.2042 -1.4355,-0.2563 -2.125,-0.21875 z m -156.03,3.5938 c -2.1666,0.0342 -4.1503,1.2425 -5.25,3.1875 -0.17753,0.18444 -0.31138,0.41848 -0.40625,0.65625 -0.007,0.0206 -0.0247,0.0417 -0.0313,0.0625 -0.10347,0.25503 -0.16457,0.53741 -0.15625,0.8125 -0.7226,2.9351 0.69219,6.049 3.5625,7.2188 3.1527,1.2848 6.809,-0.25355 8.0938,-3.4062 1.2848,-3.1527 -0.25355,-6.809 -3.4062,-8.0938 -0.78817,-0.3212 -1.6004,-0.45024 -2.4062,-0.4375 z m 135.66,0 c -0.60936,0.0451 -1.2214,0.1966 -1.8125,0.4375 -3.1527,1.2848 -4.691,4.9411 -3.4062,8.0938 1.2848,3.1527 4.9411,4.691 8.0938,3.4062 2.8703,-1.1697 4.2851,-4.2836 3.5625,-7.2188 0.008,-0.27509 -0.0528,-0.55747 -0.15625,-0.8125 -0.007,-0.0208 0.007,-0.0419 0,-0.0625 -0.0949,-0.23777 -0.25997,-0.47181 -0.4375,-0.65625 -1.0997,-1.945 -3.0834,-3.1533 -5.25,-3.1875 -0.20147,-0.003 -0.39063,-0.015 -0.59375,0 z m -167.81,0.0625 c -1.2988,-0.0836 -2.7336,0.29947 -3.9688,1.125 -2.4704,1.6511 -3.2435,4.5314 -1.75,6.4375 1.4935,1.9062 4.7171,2.1198 7.1875,0.46875 2.4704,-1.6511 3.2435,-4.5626 1.75,-6.4688 -0.74676,-0.95307 -1.9199,-1.4789 -3.2188,-1.5625 z m 200.56,0 c -1.2988,0.0836 -2.472,0.60943 -3.2188,1.5625 -1.4935,1.9062 -0.68916,4.8177 1.7812,6.4688 2.47036,1.6511 5.6627,1.4374 7.1562,-0.46875 1.4935,-1.9061 0.72041,-4.7864 -1.75,-6.4375 -1.2352,-0.82553 -2.6699,-1.2086 -3.9688,-1.125 z m -100.16,5.25 c -2.8217,0 -5.0938,2.3033 -5.0938,5.125 0,2.8217 2.272,5.0938 5.0938,5.0938 2.8217,0 5.125,-2.272 5.125,-5.0938 0,-2.8217 -2.3033,-5.125 -5.125,-5.125 z m -11.031,0.21875 c -1.2497,0.0796 -2.5579,1.0327 -3.0312,2.625 -0.77643,1.9508 -13.197,44.521 -12.469,44.625 -1.4064,5.7255 2.9432,7.8192 5.6875,9.3125 0.37981,0.20667 7.2502,3.9394 11.562,6.2812 -0.0484,0.5767 0.007,1.1016 0.28125,1.4375 0,0 5.1831,5.3866 6.4062,6.4688 0.0805,0.0761 0.26855,0.0709 0.34375,0.0313 0.21388,-0.13904 0.67375,-0.26155 1.1562,-0.34375 -0.0209,-0.0353 -0.042,-0.059 -0.0625,-0.0937 0.0636,-0.0125 0.12259,-0.02 0.1875,-0.0313 -1.7706,-2.9859 -2.087,-4.2465 -1.8438,-4.7188 0.0139,-0.027 0.0452,-0.0406 0.0625,-0.0625 0.4487,-0.26113 1.3844,0.30126 1.5625,0.40625 0.0869,0.0512 0.20542,0.28125 0.96875,0.28125 0.76331,-2e-5 0.9131,-0.23005 1,-0.28125 0.36301,-0.21395 3.9532,-2.3249 -0.0937,4.5 0.48231,0.0825 0.9424,0.20468 1.1562,0.34375 0.0752,0.0396 0.232,0.0448 0.3125,-0.0313 0.0255,-0.0225 0.0961,-0.0988 0.125,-0.125 0.004,-0.003 0.0274,0.003 0.0313,0 0.27707,-0.24512 0.79783,-0.76953 1.375,-1.3438 1.9139,-1.9041 4.7357,-4.8228 4.9062,-5 l 0.125,-0.125 c 0.25468,-0.31238 0.36413,-0.81316 0.34375,-1.3438 4.3321,-2.3526 11.122,-6.0444 11.5,-6.25 2.7443,-1.4933 7.0939,-3.587 5.6875,-9.3125 0.72848,-0.10407 -11.692,-42.674 -12.469,-44.625 -0.52073,-1.7516 -2.0561,-2.7269 -3.4062,-2.625 -0.6137,0.0463 -1.1722,0.33822 -1.5938,0.84375 -0.68702,0.8238 -1.1002,2.9371 -0.6875,4.8438 0.0578,0.26701 2.5577,15.505 3.3438,19.281 2.2762,10.935 4.2807,15.435 5.1875,18.188 1.3674,4.4231 0.32001,5.7249 -0.875,6.8438 l -10.094,9.1562 -4.0625,-1.875 c -0.43135,-0.20498 -0.72286,-0.41352 -1.6562,-0.4375 -0.93339,0.024 -1.2562,0.23251 -1.6875,0.4375 l -4.125,1.9375 -10.156,-9.2188 c -1.195,-1.1189 -2.2424,-2.4206 -0.875,-6.8438 0.90681,-2.7526 2.9113,-7.2528 5.1875,-18.188 0.78604,-3.7761 3.286,-19.014 3.3438,-19.281 0.41267,-1.9066 0.0308,-4.02 -0.65625,-4.8438 -0.50591,-0.60663 -1.2502,-0.8915 -2,-0.84375 z m -81.906,1.2188 c -0.47889,0.0452 -1.0143,0.16516 -1.625,0.40625 -38.992,14.753 -17.286,52.093 -17.594,50.188 1.7365,2.5903 4.8931,4.6142 1.4375,9.2812 0,0 -2.4243,3.3518 -4.5312,5.9375 -0.45749,-0.25935 -0.88129,-0.38347 -1.2188,-0.34375 -0.82167,0.0967 -1.2654,1.1286 -1.3438,3.125 -0.13898,0.0984 -0.26386,0.15625 -0.34375,0.15625 -0.22596,0 -0.0297,0.16003 0.34375,0.40625 -0.009,1.7896 0.21448,4.2177 0.75,7.4062 2.0456,6.7271 3.6133,7.508 5.125,7.4688 0.92117,-0.0319 1.9332,0.43008 0.46875,-1.9375 -1.2003,-3.8476 0.47735,-1.3588 1.6875,-0.15625 0.68634,0.68203 1.3788,2.0645 1.1563,0.53125 -0.0243,-1.6595 -0.14339,-8.6509 -1.9063,-11.688 -0.098,-0.13155 -0.18505,-0.24813 -0.28125,-0.375 l 10.188,-10.75 c 2.4866,-3.0842 2.4476,-5.6635 0.625,-8.25 -23.614,-22.956 -7.5172,-38.649 9.125,-47.281 1.4972,-0.5107 1.2897,-4.4414 -2.0625,-4.125 z m 184.97,0 c -2.7044,0.2338 -2.7965,3.6508 -1.4062,4.125 16.642,8.6327 32.739,24.325 9.125,47.281 -1.8226,2.5865 -1.8616,5.1658 0.625,8.25 l 10.25,10.812 c -0.11901,0.15657 -0.22186,0.2738 -0.34375,0.4375 -1.7628,3.0366 -1.9132,9.9967 -1.9375,11.656 -0.2225,1.5333 0.50117,0.15078 1.1875,-0.53125 1.2102,-1.2026 2.8878,-3.6914 1.6875,0.15625 -1.4645,2.3676 -0.48367,1.9056 0.4375,1.9375 1.5117,0.0393 3.0794,-0.74166 5.125,-7.4688 0.54184,-3.2261 0.79787,-5.6744 0.78125,-7.4688 0.38599,-0.25272 0.57317,-0.4375 0.34375,-0.4375 -0.0859,0 -0.22125,-0.0745 -0.375,-0.1875 -0.10774,-2.1051 -0.65553,-3.1031 -1.625,-3 -0.25797,0.0274 -0.52941,0.13698 -0.84375,0.3125 -2.1193,-2.5941 -4.5938,-6 -4.5938,-6 -3.4556,-4.6671 -0.26776,-6.691 1.4688,-9.2812 -0.30741,1.9054 21.367,-35.434 -17.625,-50.188 -0.91603,-0.36164 -1.6572,-0.4602 -2.2812,-0.40625 z m -203.56,0.34375 c -1.6318,0.10452 -3.3583,1.0443 -4.5,2.625 -1.7398,2.4087 -1.4706,5.3904 0.59375,6.6562 2.0644,1.2659 5.1352,0.34624 6.875,-2.0625 1.7398,-2.40874 1.4706,-5.3904 -0.59375,-6.6562 -0.5161,-0.31647 -1.0809,-0.50898 -1.6875,-0.5625 -0.22747,-0.0201 -0.45439,-0.0149 -0.6875,0 z m 222.13,0 c -0.6066,0.0535 -1.1714,0.24603 -1.6875,0.5625 -2.0643,1.2659 -2.3336,4.2475 -0.59375,6.6562 1.73985,2.4087 4.8106,3.3284 6.875,2.0625 2.0644,-1.2659 2.3336,-4.2475 0.59375,-6.6562 -1.3048,-1.8066 -3.3677,-2.7856 -5.1875,-2.625 z m -184.25,6.2188 c -2.1868,0.0346 -4.2208,1.2723 -5.3125,3.25 -0.007,0.007 -0.0244,0.024 -0.0313,0.0313 -0.13445,0.14761 -0.22796,0.31912 -0.3125,0.5 -0.0101,0.0239 -0.0215,0.0384 -0.0313,0.0625 -0.007,0.0206 -0.0247,0.0417 -0.0313,0.0625 -0.098,0.2423 -0.15897,0.48864 -0.15625,0.75 -0.74658,2.9466 0.71035,6.1062 3.5938,7.2812 3.1527,1.2848 6.809,-0.25356 8.0938,-3.4062 1.2848,-3.1527 -0.28481,-6.809 -3.4375,-8.0938 -0.78817,-0.32119 -1.5691,-0.45024 -2.375,-0.4375 z m 146.47,0 c -0.60355,0.0509 -1.1901,0.19661 -1.7812,0.4375 -3.1527,1.2848 -4.691,4.9411 -3.4062,8.0938 1.2848,3.1527 4.9098,4.691 8.0625,3.4062 2.8834,-1.175 4.3403,-4.3346 3.5938,-7.2812 0.003,-0.26136 -0.0582,-0.5077 -0.15625,-0.75 -0.007,-0.0208 0.007,-0.0419 0,-0.0625 -0.01,-0.0241 -0.0524,-0.0386 -0.0625,-0.0625 -0.0845,-0.18088 -0.17805,-0.35239 -0.3125,-0.5 l -0.0313,-0.0313 c -1.0917,-1.9777 -3.0944,-3.2154 -5.2812,-3.25 -0.20147,-0.003 -0.42382,-0.017 -0.625,0 z m -72.906,3.5 c -3.3048,0 -6,2.664 -6,5.9688 0,3.3048 2.6952,6 6,6 3.3048,0 5.9688,-2.6952 5.9688,-6 0,-3.3048 -2.6639,-5.9688 -5.9688,-5.9688 z m -119.31,0.96875 c -2.0934,0.11176 -4.1364,1.927 -4.8125,4.4375 -0.77268,2.8691 0.52717,5.5483 2.9062,6 2.379,0.45164 4.9148,-1.5059 5.6875,-4.375 0.77269,-2.8691 -0.52717,-5.5483 -2.9062,-6 -0.29738,-0.0565 -0.57594,-0.0785 -0.875,-0.0625 z m 238.13,0 c -0.14959,0.01 -0.28881,0.0343 -0.4375,0.0625 -2.3791,0.45166 -3.6789,3.1309 -2.9062,6 0.77268,2.8691 3.3085,4.8266 5.6875,4.375 2.3791,-0.45166 3.6789,-3.1309 2.9062,-6 -0.7244,-2.6898 -3.0062,-4.5838 -5.25,-4.4375 z m -192.06,10.25 c -2.2912,0.0359 -4.378,1.341 -5.5312,3.4062 -0.16189,0.1617 -0.30871,0.35552 -0.40625,0.5625 -0.0123,0.0291 -0.0192,0.0643 -0.0313,0.0937 -0.007,0.0137 -0.0245,0.0171 -0.0313,0.0313 -0.005,0.013 0.005,0.018 0,0.0313 -0.0786,0.21148 -0.12163,0.46192 -0.125,0.6875 -0.84024,3.1272 0.65397,6.501 3.7188,7.75 3.3193,1.3527 7.1786,-0.27446 8.5312,-3.5938 1.3527,-3.3193 -0.24321,-7.1473 -3.5625,-8.5 -0.82981,-0.33817 -1.7143,-0.48205 -2.5625,-0.46875 z m 146.44,0 c -0.84818,-0.0133 -1.7014,0.13058 -2.5312,0.46875 -3.3193,1.3527 -4.9464,5.1807 -3.5938,8.5 1.3527,3.3193 5.212,4.9464 8.5312,3.5938 3.0648,-1.249 4.559,-4.6228 3.7188,-7.75 -0.003,-0.22558 -0.0464,-0.47602 -0.125,-0.6875 -0.005,-0.0131 0.005,-0.018 0,-0.0313 -0.007,-0.0139 -0.024,-0.0173 -0.0313,-0.0313 -0.012,-0.0294 -0.0188,-0.0649 -0.0313,-0.0937 -0.0975,-0.20698 -0.24436,-0.4008 -0.40625,-0.5625 -1.1533,-2.0652 -3.24,-3.3704 -5.5312,-3.4062 z m -73.094,2.3438 c -3.6671,0 -6.625,2.9891 -6.625,6.6562 0,3.6671 2.9579,6.625 6.625,6.625 3.6671,0 6.6562,-2.9579 6.6562,-6.625 0,-3.6671 -2.9891,-6.6562 -6.6562,-6.6562 z m -122.84,0.1875 c -0.14712,0.004 -0.28782,0.009 -0.4375,0.0313 -2.3948,0.35876 -4.1549,3.0366 -3.9375,6 0.21744,2.9634 2.3239,5.0775 4.7188,4.7188 2.3948,-0.35876 4.1549,-3.0366 3.9375,-6 -0.20385,-2.7782 -2.0745,-4.8028 -4.2812,-4.75 z m 245,0 c -2.0127,0.20432 -3.6535,2.157 -3.8438,4.75 -0.21742,2.9634 1.5427,5.6412 3.9375,6 2.3948,0.35876 4.5013,-1.7554 4.7188,-4.7188 0.21742,-2.9634 -1.5427,-5.6412 -3.9375,-6 -0.29935,-0.0448 -0.58748,-0.0602 -0.875,-0.0313 z m -188.88,11.312 c -2.5348,0.0392 -4.8455,1.5047 -6.0938,3.8125 -0.17535,0.17836 -0.3403,0.39453 -0.4375,0.625 -0.0142,0.0204 -0.0179,0.0415 -0.0313,0.0625 -0.008,0.0196 0.008,0.0428 0,0.0625 -0.0741,0.19849 -0.11708,0.41327 -0.125,0.625 -1.4e-4,0.0138 -1.4e-4,0.0172 0,0.0313 -0.95891,3.4373 0.72105,7.1568 4.0938,8.5312 3.63,1.4793 7.802,-0.27624 9.2812,-3.9062 1.4793,-3.63 -0.27625,-7.8332 -3.9062,-9.3125 -0.9075,-0.36983 -1.8542,-0.54558 -2.7812,-0.53125 z m 133.19,0 c -0.92709,-0.0143 -1.8738,0.16142 -2.7812,0.53125 -3.63,1.4793 -5.3856,5.6825 -3.9062,9.3125 1.4793,3.63 5.6825,5.3856 9.3125,3.9062 3.3727,-1.3744 5.0214,-5.094 4.0625,-8.5312 1.4e-4,-0.0138 1.4e-4,-0.0172 0,-0.0313 -0.008,-0.21173 -0.0509,-0.42651 -0.125,-0.625 -0.008,-0.0197 0.008,-0.0429 0,-0.0625 -0.0134,-0.021 -0.017,-0.0421 -0.0313,-0.0625 -0.0972,-0.23047 -0.2309,-0.44664 -0.40625,-0.625 -1.2482,-2.3078 -3.5902,-3.7733 -6.125,-3.8125 z m -188.88,1.1562 c -0.47499,-0.006 -0.96791,0.0726 -1.4375,0.25 -2.5044,0.94632 -3.8012,4.2856 -2.875,7.4375 0.92622,3.1519 3.7143,4.9463 6.2188,4 2.5044,-0.94634 3.8012,-4.2856 2.875,-7.4375 -0.75255,-2.5609 -2.723,-4.225 -4.7812,-4.25 z m 244.59,0 c -2.0583,0.025 -4.06,1.6891 -4.8125,4.25 -0.92622,3.1519 0.37056,6.4912 2.875,7.4375 2.5045,0.94632 5.2925,-0.84813 6.2188,-4 0.92622,-3.1518 -0.37057,-6.4912 -2.875,-7.4375 -0.46959,-0.17744 -0.93126,-0.25578 -1.4062,-0.25 z m -122.19,2.1562 c -4.6085,0 -8.3438,3.7353 -8.3438,8.3438 0,4.6085 3.7353,8.3438 8.3438,8.3438 4.6085,0 8.3438,-3.7353 8.3438,-8.3438 0,-4.6085 -3.7353,-8.3438 -8.3438,-8.3438 z m -118.28,10.594 c -1.2246,0.0675 -2.3316,0.56175 -3.125,1.5312 -1.8134,2.216 -1.2312,5.9824 1.3125,8.4062 2.5436,2.4238 6.0928,2.591 7.9062,0.375 1.8134,-2.216 1.1999,-5.9824 -1.3438,-8.4062 -1.4308,-1.3634 -3.1755,-1.993 -4.75,-1.9062 z m 235.78,0 c -1.4277,0.0681 -2.9469,0.69436 -4.2188,1.9062 -2.5436,2.4238 -3.126,6.1902 -1.3125,8.4062 1.8134,2.216 5.3314,2.0488 7.875,-0.375 2.5436,-2.4238 3.1259,-6.1902 1.3125,-8.4062 -0.90672,-1.108 -2.2286,-1.5993 -3.6562,-1.5312 z m -147.44,8.7188 c -2.7277,0.0359 -5.312,1.6587 -6.4062,4.3438 l -0.0313,0.0625 c -1.4187,3.5705 0.31704,7.6126 3.875,9.0625 1.2747,0.21597 1.6376,0.5274 1.6875,1.125 -0.0866,2.316 0.13543,4.7287 -0.9375,6.7812 -8.9683,14.467 -16.887,10.153 -24.031,3.1562 -2.6845,-2.4611 -3.0937,-0.61139 -4.1562,0.59375 -3.9001,5.3776 -9.8293,15.537 -22.562,0.28125 -0.0126,-0.007 -0.0186,-0.0239 -0.0313,-0.0313 -0.85024,-1.0204 -1.744,-2.1818 -2.6562,-3.4375 -0.74228,-0.92215 -1.4684,-1.7417 -1.9375,-2.7188 -0.2974,-0.59919 -0.14615,-0.64238 0.3125,-1.0625 1.376,-1.3985 2.178,-3.3916 2,-5.5 -0.30492,-3.6115 -3.3272,-6.3461 -6.875,-6.4062 -0.23652,-0.004 -0.44673,0.0109 -0.6875,0.0313 -0.96307,0.0813 -1.8828,0.32657 -2.6875,0.75 -2.4141,1.2702 -3.9627,3.892 -3.7188,6.7812 v 0.0937 c 0.35678,3.8255 3.734,6.6358 7.5625,6.3125 2.2744,-0.36845 2.1028,0.0415 1.3125,1.5312 -6.0591,14.935 -10.688,12.088 -16.906,10.531 -1.3412,-0.20341 -1.3503,-0.0155 -0.8125,0.96875 2.6189,3.6375 14.818,9.2684 21.156,-2.1562 0.506,-1.1865 0.65417,-1.0234 1.4375,-0.25 14.988,14.522 24.279,5.8464 27.094,1.1562 0.84408,-2.0356 0.98105,-1.3394 2.0312,-0.0313 4.9582,5.5322 18.177,9.0569 25.531,-3.2188 0.76925,-1.6383 1.1457,-1.1793 2.2812,-0.0937 14.976,14.074 21.673,8.053 27.875,1.6562 0.005,-0.005 0.026,0.005 0.0313,0 6.2369,6.4435 12.924,12.636 28,-1.5312 1.1355,-1.0855 1.512,-1.5445 2.2812,0.0937 7.3543,12.276 20.573,8.751 25.531,3.2188 1.0502,-1.3082 1.1872,-2.0044 2.0312,0.0313 2.8152,4.6902 12.106,13.365 27.094,-1.1562 0.78333,-0.77337 0.9315,-0.93651 1.4375,0.25 6.3381,11.425 18.537,5.7938 21.156,2.1562 0.53779,-0.98425 0.52869,-1.1722 -0.8125,-0.96875 -6.2185,1.5565 -10.847,4.4035 -16.906,-10.531 -0.79029,-1.4897 -0.96192,-1.8997 1.3125,-1.5312 3.8285,0.32326 7.2057,-2.487 7.5625,-6.3125 v -0.0937 c 0.24394,-2.8892 -1.3046,-5.511 -3.7188,-6.7812 -0.8047,-0.42343 -1.7244,-0.6687 -2.6875,-0.75 -0.24076,-0.0204 -0.45098,-0.0351 -0.6875,-0.0313 -3.5478,0.0602 -6.5701,2.7947 -6.875,6.4062 -0.17802,2.1084 0.62402,4.1015 2,5.5 0.45865,0.42012 0.6099,0.46331 0.3125,1.0625 -0.46906,0.97708 -1.1952,1.7966 -1.9375,2.7188 -0.91221,1.2557 -1.806,2.4171 -2.6562,3.4375 -0.0126,0.007 -0.0187,0.0241 -0.0313,0.0313 -12.733,15.255 -18.662,5.0964 -22.562,-0.28125 -1.0626,-1.2051 -1.4718,-3.0548 -4.1562,-0.59375 -7.1482,6.9999 -15.057,11.306 -24.031,-3.1875 -1.0729,-2.0525 -0.85088,-4.434 -0.9375,-6.75 0.0499,-0.5976 0.41281,-0.90903 1.6875,-1.125 3.558,-1.45 5.2937,-5.492 3.875,-9.0625 l -0.0313,-0.0625 c -1.0942,-2.6851 -3.6786,-4.3078 -6.4062,-4.3438 -0.90923,-0.012 -1.8237,0.16651 -2.7188,0.53125 -3.5801,1.459 -5.3027,5.5449 -3.8438,9.125 0.79852,1.9594 2.4203,3.3473 4.2812,3.9688 0.59939,0.16613 0.743,0.14359 0.75,0.8125 0.0115,2.7426 0.0171,5.5064 -1.4062,7.7188 -15.814,17.049 -21.748,5.5588 -25.438,1.0312 -0.42027,-0.51566 -0.87861,-1.485 -1.3438,-1.6562 v -0.15625 c -0.50782,-10e-6 -1.0382,1.1208 -1.5,1.6875 -3.6923,4.5305 -9.6321,16.066 -25.469,-1.0312 h 0.0313 c -1.4234,-2.2124 -1.4178,-4.9762 -1.4062,-7.7188 0.007,-0.66891 0.18186,-0.64637 0.78125,-0.8125 1.8609,-0.62148 3.4515,-2.0093 4.25,-3.9688 1.459,-3.5801 -0.26362,-7.666 -3.8438,-9.125 -0.89503,-0.36474 -1.8095,-0.54324 -2.7188,-0.53125 z m 17.719,7.0938 c -0.14758,-0.004 -0.31451,0.0155 -0.46875,0.0313 -0.8226,0.0838 -1.7011,0.43253 -2.2188,1 -0.0159,0.0175 -0.0159,0.0447 -0.0313,0.0625 -0.16364,0.16278 -0.31601,0.33462 -0.40625,0.53125 l -2.7812,5.9687 c -0.20499,0.43135 -0.4135,0.75411 -0.4375,1.6875 0.024,0.93339 0.23251,1.2249 0.4375,1.6562 l 2.7812,5.9688 c 0.60818,1.3252 3.1441,1.9305 4.0938,1.1562 0,0 0.11973,-0.11993 0.125,-0.125 0.11564,-0.11132 1.3532,-1.3224 2.8125,-2.75 0.69832,-0.68633 1.4309,-1.3974 2.0625,-2.0312 0.0553,-0.0554 0.0714,-0.0712 0.125,-0.125 0.59544,-0.59878 1.054,-1.0566 1.3438,-1.375 0.006,-0.006 -0.005,-0.024 0,-0.0313 0.0262,-0.0289 0.10247,-0.0995 0.125,-0.125 0.0761,-0.0805 0.0707,-0.2373 0.0313,-0.3125 -0.13907,-0.21386 -0.26155,-0.67375 -0.34375,-1.1562 -6.8249,4.047 -4.714,0.45681 -4.5,0.0937 0.0512,-0.0869 0.28125,-0.23666 0.28125,-1 0,-0.76334 -0.23001,-0.88183 -0.28125,-0.96875 -0.10496,-0.17808 -0.66737,-1.1138 -0.40625,-1.5625 0.015,-0.0257 0.0419,-0.0403 0.0625,-0.0625 0.47228,-0.24329 1.7329,0.0732 4.7188,1.8438 0.0111,-0.0649 0.0188,-0.12393 0.0313,-0.1875 0.0348,0.0205 0.0584,0.0416 0.0937,0.0625 0.0822,-0.4825 0.20471,-0.94238 0.34375,-1.1562 0.0396,-0.0752 0.0448,-0.26323 -0.0313,-0.34375 -1.0821,-1.223 -6.4688,-6.4062 -6.4688,-6.4062 -0.26708,-0.21775 -0.651,-0.33275 -1.0938,-0.34375 z m 24.156,0.0313 c -0.38079,0.0314 -0.73135,0.11894 -0.96875,0.3125 0,0 -0.93316,0.94946 -1.5625,1.5625 -1.0605,1.033 -2.2002,2.1308 -3.4375,3.375 -0.64831,0.64813 -1.1731,1.1726 -1.4688,1.5 -0.019,0.021 -0.077,0.0746 -0.0937,0.0937 -0.0761,0.0805 -0.0709,0.26855 -0.0313,0.34375 0.13904,0.21387 0.26155,0.67375 0.34375,1.1562 6.8249,-4.0469 4.7139,-0.45676 4.5,-0.0937 -0.0512,0.0869 -0.28125,0.20541 -0.28125,0.96875 0,0.76334 0.23005,0.9131 0.28125,1 0.10698,0.1815 0.67363,1.1567 0.375,1.5938 -0.0133,0.009 -0.0163,0.0236 -0.0313,0.0313 -0.47228,0.24329 -1.7641,-0.0732 -4.75,-1.8438 -0.009,0.0545 -0.021,0.10264 -0.0313,0.15625 -0.0222,-0.0131 -0.0401,-0.018 -0.0625,-0.0313 -0.0822,0.4825 -0.20468,0.94239 -0.34375,1.1562 -0.0396,0.0752 -0.0448,0.232 0.0313,0.3125 1.0821,1.2232 6.4688,6.4375 6.4688,6.4375 0.74697,0.60899 2.4378,0.33956 3.4375,-0.4375 0.14414,-0.11204 0.29753,-0.21053 0.40625,-0.34375 0.009,-0.0113 0.0222,-0.0197 0.0313,-0.0313 0.0936,-0.10258 0.1521,-0.22854 0.21875,-0.34375 0.0255,-0.0441 0.0727,-0.0791 0.0937,-0.125 l 2.7812,-5.9688 c 0.20499,-0.43135 0.41352,-0.72286 0.4375,-1.6562 -0.024,-0.93339 -0.2325,-1.2562 -0.4375,-1.6875 l -2.7812,-5.9688 c -0.45613,-0.99394 -1.9826,-1.563 -3.125,-1.4688 z m -59.906,0.71875 c -0.56927,0.002 -1.0775,0.14303 -1.375,0.46875 0,0 -4.4098,5.7649 -5.2812,7.0938 -0.0618,0.088 -0.043,0.24182 0,0.3125 0.14731,0.19829 0.28526,0.62238 0.40625,1.0938 5.8456,-4.7334 4.2545,-0.94575 4.0938,-0.5625 -0.0385,0.0917 -0.22897,0.27204 -0.15625,1.0312 0.0727,0.75922 0.28869,0.85637 0.34375,0.9375 0.2299,0.3388 2.523,3.6918 -4.0938,0.375 -0.0291,0.48843 -0.11216,0.96035 -0.21875,1.1875 -0.029,0.0789 -0.0146,0.27156 0.0625,0.34375 1.1045,1.1042 6.5312,5.6875 6.5312,5.6875 0.94078,0.67148 3.196,-0.18129 3.625,-1.5625 l 1.9688,-6.2188 c 0.14607,-0.4503 0.28578,-0.78791 0.21875,-1.7188 -0.11083,-0.92586 -0.303,-1.2173 -0.53125,-1.625 l -3.125,-5.6562 c -0.42595,-0.78436 -1.52,-1.19 -2.4688,-1.1875 z m 95.656,0.0937 c -0.94879,-0.003 -2.0428,0.43439 -2.4688,1.2188 l -3.0938,5.6562 c -0.22824,0.40774 -0.45167,0.69914 -0.5625,1.625 -0.067,0.93084 0.10394,1.2372 0.25,1.6875 l 1.9688,6.2188 c 0.42902,1.3812 2.6842,2.2652 3.625,1.5938 0,0 5.3955,-4.6145 6.5,-5.7188 0.0771,-0.0722 0.0915,-0.26485 0.0625,-0.34375 -0.10659,-0.22715 -0.1584,-0.66782 -0.1875,-1.1562 -6.6167,3.3168 -4.3549,-0.0362 -4.125,-0.375 0.0551,-0.0811 0.27105,-0.17828 0.34375,-0.9375 0.0727,-0.75921 -0.11775,-0.93955 -0.15625,-1.0312 -0.16077,-0.38325 -1.7519,-4.1709 4.0938,0.5625 0.12099,-0.47137 0.29019,-0.92671 0.4375,-1.125 0.043,-0.0707 0.0618,-0.2245 0,-0.3125 -0.87146,-1.3288 -5.3125,-7.0625 -5.3125,-7.0625 -0.29747,-0.32572 -0.80573,-0.49849 -1.375,-0.5 z m -118.12,2.4375 c -1.052,0.0248 -2.397,0.77659 -2.7188,1.8125 l -1.9688,6.2188 c -0.14606,0.4503 -0.31703,0.75667 -0.25,1.6875 0.11083,0.92587 0.33425,1.2485 0.5625,1.6562 l 3.125,5.625 c 0.68152,1.255 3.0505,1.6186 3.8438,0.75 0,0 4.4098,-5.7649 5.2812,-7.0938 0.0618,-0.088 0.043,-0.24181 0,-0.3125 -0.14732,-0.19829 -0.31651,-0.62238 -0.4375,-1.0938 -5.8456,4.7334 -4.2545,0.9145 -4.0938,0.53125 0.0385,-0.0917 0.22897,-0.24079 0.15625,-1 -0.0727,-0.75922 -0.28869,-0.85636 -0.34375,-0.9375 -0.2299,-0.3388 -2.4917,-3.6918 4.125,-0.375 0.0291,-0.48844 0.11216,-0.96035 0.21875,-1.1875 0.029,-0.0789 0.0146,-0.27155 -0.0625,-0.34375 -1.1045,-1.1042 -6.5312,-5.6875 -6.5312,-5.6875 -0.23519,-0.16787 -0.55559,-0.25826 -0.90625,-0.25 z m 140.59,0.125 c -0.35066,-0.008 -0.67106,0.0509 -0.90625,0.21875 0,0 -5.3955,4.6145 -6.5,5.7188 -0.0771,0.0722 -0.0915,0.2336 -0.0625,0.3125 0.10658,0.22715 0.1584,0.69906 0.1875,1.1875 6.6167,-3.3168 4.3549,0.0362 4.125,0.375 -0.0551,0.0811 -0.27105,0.17828 -0.34375,0.9375 -0.0727,0.75921 0.11775,0.93955 0.15625,1.0312 0.16076,0.38325 1.7519,4.1709 -4.0938,-0.5625 -0.12098,0.47137 -0.29018,0.92671 -0.4375,1.125 -0.043,0.0707 -0.0618,0.2245 0,0.3125 0.87143,1.3288 5.3125,7.0625 5.3125,7.0625 0.79324,0.86859 3.1622,0.53622 3.8438,-0.71875 l 3.0938,-5.6562 c 0.22825,-0.40775 0.45168,-0.69913 0.5625,-1.625 0.067,-0.93083 -0.10394,-1.2372 -0.25,-1.6875 l -1.9688,-6.2188 c -0.32176,-1.0359 -1.6668,-1.7877 -2.7188,-1.8125 z m -70.281,1.25 c -0.92542,0.0122 -1.8192,0.33949 -2.5625,0.875 -0.0245,0.0164 -0.0384,0.0457 -0.0625,0.0625 -0.18918,0.14196 -0.3965,0.26538 -0.5625,0.4375 -1.2794,1.2349 -1.7433,3.159 -1.0312,4.9062 0.93399,2.2919 3.5518,3.4028 5.8438,2.4688 0.34885,-0.14216 0.64673,-0.31817 0.9375,-0.53125 0.0235,-0.0172 0.0394,-0.0449 0.0625,-0.0625 0.16389,-0.11438 0.32054,-0.23864 0.46875,-0.375 0.0405,-0.0405 0.0861,-0.0831 0.125,-0.125 0.41232,-0.41091 0.73525,-0.89577 0.96875,-1.4688 0.93401,-2.2919 -0.1456,-4.9098 -2.4375,-5.8438 -0.57298,-0.2335 -1.1679,-0.35142 -1.75,-0.34375 z m -58.938,2 c -1.5921,0.2041 -2.993,1.4364 -3.4688,3.2188 l -0.0313,0.0313 c -0.61146,2.3677 0.64449,4.8444 2.8125,5.5312 2.1815,0.6911 4.4593,-0.68603 5.0938,-3.0625 0.63441,-2.3764 -0.59973,-4.8714 -2.7812,-5.5625 -0.54538,-0.17278 -1.0943,-0.22428 -1.625,-0.15625 z m 117.06,0.0937 c -0.27244,0.0241 -0.53981,0.10111 -0.8125,0.1875 -2.1815,0.69109 -3.4469,3.1548 -2.8125,5.5312 0.63442,2.3765 2.9122,3.7536 5.0938,3.0625 2.168,-0.68682 3.424,-3.1323 2.8125,-5.5 v -0.0625 c -0.5551,-2.0794 -2.3742,-3.3877 -4.2812,-3.2188 z m -162,2.75 c -5.6045,0.43282 -3.1106,6.1659 -3.7188,9.875 0,0 0.63731,0.60151 1.0625,0.96875 0.18538,0.10388 0.37573,0.22405 0.59375,-0.0937 0.58156,-0.60672 1.9861,-1.7023 2.75,-1.5625 1.5345,0.28083 2.1762,2.6028 1.25,3.3125 -0.1198,0.11446 -2.0154,1.269 -2.9062,1.8438 -0.22026,0.0989 -0.57451,0.31415 -0.0625,0.8125 1.1452,0.94745 4.4004,1.9086 6.4375,0.4375 5.4838,-6.5153 4.817,-11.847 -4.1875,-15.594 -0.44895,-0.0205 -0.84512,-0.0289 -1.2188,0 z m 206.5,0.0937 c -9.0045,3.7472 -9.6713,9.0785 -4.1875,15.594 2.037,1.4711 5.3236,0.5412 6.4688,-0.40625 0.512,-0.49835 0.12645,-0.74489 -0.0937,-0.84375 -0.89088,-0.57476 -2.7552,-1.7293 -2.875,-1.8438 -0.92623,-0.7097 -0.31579,-3.0317 1.2188,-3.3125 0.76392,-0.1398 2.1997,0.95578 2.7812,1.5625 0.21803,0.31785 0.40837,0.19768 0.59375,0.0937 0.42519,-0.36724 1.0625,-0.9375 1.0625,-0.9375 -0.64875,-3.9563 2.2144,-10.235 -4.9688,-9.9062 z m -212.41,9.6562 c -1.0029,0.10971 -1.5621,1.1071 -1.25,2.4375 v 0.0313 c 0.36567,1.5125 1.7195,2.8854 3,3.0625 1.2885,0.17814 2.0442,-0.91708 1.6875,-2.4375 -0.35669,-1.5204 -1.7115,-2.8844 -3,-3.0625 -0.16107,-0.0223 -0.29424,-0.0469 -0.43751,-0.0313 z m 219.09,0.125 c -1.2885,0.17814 -2.6121,1.5733 -2.9688,3.0938 -0.35668,1.5204 0.39898,2.5844 1.6875,2.4062 1.2805,-0.17705 2.6031,-1.5188 2.9688,-3.0312 v -0.0313 c 0.35667,-1.5204 -0.39899,-2.6156 -1.6875,-2.4375 z m -202.62,14.031 c -1.2445,0 -2.25,0.89165 -2.25,2 0,1.10835 1.0055,2 2.25,2 h 186.62 c 1.2445,0 2.25,-0.89165 2.25,-2 0,-1.10835 -1.0055,-2 -2.25,-2 z m 3,4.6562 c -1.896,0 -3.4062,1.374 -3.4062,3.0625 0,1.6886 1.5103,3.0312 3.4062,3.0312 h 180.62 c 1.896,0 3.4062,-1.3427 3.4062,-3.0312 0,-1.6885 -1.5103,-3.0625 -3.4062,-3.0625 z m 0.6875,6.875 c -1.1955,0 -2.1562,0.8416 -2.1562,1.9062 0,1.0647 0.96079,1.9375 2.1562,1.9375 h 179.25 c 1.1955,0 2.1562,-0.87283 2.1562,-1.9375 0,-1.0646 -0.96078,-1.9062 -2.1562,-1.9062 z m 12.781,4.8438 c -2.3456,0.0275 -4.559,1.2562 -5.5,3.3125 l -0.0313,0.0625 c -1.22,2.7344 0.25295,5.8271 3.3125,6.9375 3.0786,1.1173 6.5891,-0.19571 7.8438,-2.9375 1.2546,-2.7418 -0.20263,-5.8827 -3.2812,-7 -0.76965,-0.27934 -1.5619,-0.38417 -2.3438,-0.375 z m 12.781,0 c -2.3456,0.0275 -4.559,1.2562 -5.5,3.3125 v 0.0625 c -1.22,2.7344 0.25293,5.8271 3.3125,6.9375 3.0786,1.1173 6.5892,-0.19573 7.8438,-2.9375 1.2546,-2.74177 -0.23389,-5.8827 -3.3125,-7 -0.76966,-0.27934 -1.5619,-0.38417 -2.3438,-0.375 z m 12.812,0 c -2.3456,0.0275 -4.5591,1.2562 -5.5,3.3125 l -0.0313,0.0625 c -1.22,2.7344 0.25294,5.8271 3.3125,6.9375 3.0786,1.1173 6.5892,-0.1957 7.8438,-2.9375 1.2546,-2.7418 -0.20263,-5.8827 -3.2812,-7 -0.76966,-0.27934 -1.5619,-0.38417 -2.3438,-0.375 z m 12.781,0 c -2.3456,0.0275 -4.559,1.2562 -5.5,3.3125 l -0.0313,0.0625 c -1.22,2.7344 0.28419,5.8271 3.3438,6.9375 3.0786,1.1173 6.5892,-0.19571 7.8438,-2.9375 1.2546,-2.74179 -0.23388,-5.8827 -3.3125,-7 -0.76966,-0.27934 -1.5619,-0.38417 -2.3438,-0.375 z m 12.812,0 c -2.3456,0.0275 -4.559,1.2562 -5.5,3.3125 l -0.0313,0.0625 c -1.22,2.7344 0.25294,5.8271 3.3125,6.9375 3.0786,1.1173 6.5892,-0.19571 7.8438,-2.9375 1.2546,-2.74179 -0.20264,-5.8827 -3.2812,-7 -0.76966,-0.27934 -1.5619,-0.38417 -2.3438,-0.375 z m 12.781,0 c -2.3456,0.0275 -4.5591,1.2562 -5.5,3.3125 l -0.0313,0.0625 c -1.22,2.7344 0.2842,5.8271 3.3438,6.9375 3.0786,1.1173 6.5891,-0.19572 7.8438,-2.9375 1.2546,-2.7418 -0.23388,-5.8827 -3.3125,-7 -0.76965,-0.27934 -1.5619,-0.38417 -2.3438,-0.375 z m 12.781,0 c -2.3456,0.0275 -4.5278,1.2562 -5.4688,3.3125 l -0.0313,0.0625 c -1.22,2.7344 0.25295,5.8271 3.3125,6.9375 3.0786,1.1173 6.5892,-0.19572 7.8438,-2.9375 1.2546,-2.74178 -0.20262,-5.8827 -3.2812,-7 -0.76966,-0.27934 -1.5932,-0.38417 -2.375,-0.375 z m 12.281,0 c -0.59002,0.045 -1.204,0.1655 -1.7812,0.375 -3.0786,1.1173 -4.5359,4.2582 -3.2812,7 1.2546,2.7418 4.7652,4.0548 7.8438,2.9375 3.0596,-1.1104 4.5325,-4.2031 3.3125,-6.9375 l -0.0313,-0.0624 c -1.0194,-2.2277 -3.5058,-3.5075 -6.0625,-3.3125 z m 12.781,0 c -0.59002,0.045 -1.1728,0.1655 -1.75,0.375 -3.0786,1.1173 -4.5671,4.2582 -3.3125,7 1.2546,2.7418 4.7651,4.0548 7.8438,2.9375 3.0596,-1.1104 4.5325,-4.203 3.3125,-6.9375 v -0.0625 c -1.0194,-2.2277 -3.537,-3.5075 -6.0938,-3.3125 z m 12.781,0 c -0.59002,0.045 -1.1728,0.1655 -1.75,0.375 -3.0786,1.1173 -4.5671,4.2582 -3.3125,7 1.2546,2.7418 4.7964,4.0548 7.875,2.9375 3.0596,-1.1104 4.5325,-4.2031 3.3125,-6.9375 l -0.0313,-0.0625 c -1.0194,-2.2277 -3.537,-3.5075 -6.0938,-3.3125 z m 12.812,0 c -0.59002,0.045 -1.1728,0.1655 -1.75,0.375 -3.0786,1.1173 -4.5671,4.2582 -3.3125,7 1.2546,2.7418 4.7651,4.0548 7.8438,2.9375 3.0596,-1.1104 4.5325,-4.2031 3.3125,-6.9375 v -0.0625 c -1.0194,-2.2277 -3.537,-3.5075 -6.0938,-3.3125 z m 12.781,0 c -0.59002,0.045 -1.1728,0.1655 -1.75,0.375 -3.0786,1.1173 -4.5671,4.2582 -3.3125,7 1.2546,2.7418 4.7651,4.0548 7.8438,2.9375 3.0596,-1.1104 4.5637,-4.2031 3.3438,-6.9375 l -0.0313,-0.0625 c -1.0194,-2.2277 -3.537,-3.5075 -6.0938,-3.3125 z m 12.812,0 c -0.59002,0.045 -1.1728,0.1655 -1.75,0.375 -3.0786,1.1173 -4.5671,4.2582 -3.3125,7 1.2546,2.7418 4.7651,4.0548 7.8438,2.9375 3.0596,-1.1104 4.5325,-4.2031 3.3125,-6.9375 v -0.0625 c -1.0194,-2.2277 -3.537,-3.5075 -6.0938,-3.3125 z m -164,0.0313 c -1.5019,0.0447 -2.6763,1.5576 -2.8125,3.8438 v 0.0313 c -0.14931,2.8033 1.3393,5.7218 3.3125,6.5312 1.9855,0.81448 3.7074,-0.81124 3.875,-3.625 0.16766,-2.8137 -1.2958,-5.748 -3.2812,-6.5625 -0.37228,-0.15272 -0.74716,-0.22907 -1.0938,-0.21875 z m 175.56,0 c -0.34659,-0.0103 -0.72147,0.066 -1.0938,0.21875 -1.9855,0.81446 -3.4489,3.7488 -3.2812,6.5625 0.16765,2.8138 1.9208,4.4395 3.9062,3.625 1.9732,-0.80943 3.4306,-3.7279 3.2812,-6.5312 v -0.0313 c -0.13622,-2.2862 -1.3106,-3.799 -2.8125,-3.8438 z m -172.84,11.688 c -1.1351,0 -2.0312,0.80161 -2.0312,1.8125 0,1.01089 0.89617,1.8125 2.0312,1.8125 h 170.22 c 1.1351,0 2.0625,-0.8016 2.0625,-1.8125 0,-1.0109 -0.92742,-1.8125 -2.0625,-1.8125 z m 1.7812,4.2812 c -1.3352,0 -2.4062,0.96715 -2.4062,2.1562 0,1.1891 1.0711,2.1562 2.4062,2.1562 h 166.69 c 1.3352,0 2.4062,-0.96715 2.4062,-2.1562 0,-1.1891 -1.0711,-2.1562 -2.4062,-2.1562 z"
               style="color:#000000"
               id="use3107"
               inkscape:connector-curvature="0" />
          </g>
        </g>
      </g>
    </g>
  </g>
</svg>
