<?xml version="1.0" encoding="UTF-8" standalone="no"?>
<!-- Created with Inkscape (http://www.inkscape.org/) -->

<svg
   xmlns:dc="http://purl.org/dc/elements/1.1/"
   xmlns:cc="http://creativecommons.org/ns#"
   xmlns:rdf="http://www.w3.org/1999/02/22-rdf-syntax-ns#"
   xmlns:svg="http://www.w3.org/2000/svg"
   xmlns="http://www.w3.org/2000/svg"
   xmlns:sodipodi="http://sodipodi.sourceforge.net/DTD/sodipodi-0.dtd"
   xmlns:inkscape="http://www.inkscape.org/namespaces/inkscape"
   width="51mm"
   height="51mm"
   viewBox="0 0 51 51"
   version="1.1"
   id="svg8"
   inkscape:version="0.92.3 (2405546, 2018-03-11)"
   sodipodi:docname="o15.svg">
  <defs
     id="defs2">
    <linearGradient
       id="linearGradient3144"
       y2="539.27"
       gradientUnits="userSpaceOnUse"
       x2="247.31"
       gradientTransform="matrix(1.8854,0,0,1,38.598,128.35)"
       y1="498.13"
       x1="200.38">
      <stop
         id="stop6741"
         offset="0" />
      <stop
         id="stop6743"
         stop-opacity="0"
         offset="1" />
    </linearGradient>
    <linearGradient
       id="linearGradient3144-2"
       y2="539.27"
       gradientUnits="userSpaceOnUse"
       x2="247.31"
       gradientTransform="matrix(1.8854,0,0,1,38.598,128.35)"
       y1="498.13"
       x1="200.38">
      <stop
         id="stop6741-8"
         offset="0" />
      <stop
         id="stop6743-9"
         stop-opacity="0"
         offset="1" />
    </linearGradient>
    <linearGradient
       id="linearGradient4219"
       y2="539.27"
       gradientUnits="userSpaceOnUse"
       x2="247.31"
       gradientTransform="matrix(1.21,0,0,1,169.55,-481.7)"
       y1="498.13"
       x1="200.38">
      <stop
         id="stop6741-2"
         offset="0" />
      <stop
         id="stop6743-2"
         stop-opacity="0"
         offset="1" />
    </linearGradient>
    <marker
       id="Arrow2Lstart"
       refY="0"
       refX="0"
       style="overflow:visible"
       orient="auto"
       inkscape:stockid="Arrow2Lstart">
      <path
         id="path2615"
         style="stroke-linejoin:round;stroke-width:.625;fill-rule:evenodd"
         sodipodi:nodetypes="cccc"
         transform="matrix(1.1,0,0,1.1,-5.5,0)"
         d="m8.7186 4.0337l-10.926-4.0177 10.926-4.0177c-1.7455 2.3721-1.7355 5.6174 0 8.0354z" />
    </marker>
    <marker
       id="Arrow1Mstart"
       refY="0"
       refX="0"
       style="overflow:visible"
       orient="auto"
       inkscape:stockid="Arrow1Mstart">
      <path
         id="path2629"
         style="stroke:#000000;stroke-width:1pt;fill-rule:evenodd"
         sodipodi:nodetypes="ccccc"
         transform="scale(.4)"
         d="m0 0l5-5-17.5 5 17.5 5-5-5z" />
    </marker>
    <marker
       id="Arrow2Lstart-8"
       refY="0"
       refX="0"
       style="overflow:visible"
       orient="auto"
       inkscape:stockid="Arrow2Lstart">
      <path
         id="path2615-7"
         style="stroke-linejoin:round;stroke-width:.625;fill-rule:evenodd"
         sodipodi:nodetypes="cccc"
         transform="matrix(1.1,0,0,1.1,-5.5,0)"
         d="m8.7186 4.0337l-10.926-4.0177 10.926-4.0177c-1.7455 2.3721-1.7355 5.6174 0 8.0354z" />
    </marker>
    <marker
       id="Arrow1Mstart-1"
       refY="0"
       refX="0"
       style="overflow:visible"
       orient="auto"
       inkscape:stockid="Arrow1Mstart">
      <path
         id="path2629-7"
         style="stroke:#000000;stroke-width:1pt;fill-rule:evenodd"
         sodipodi:nodetypes="ccccc"
         transform="scale(.4)"
         d="m0 0l5-5-17.5 5 17.5 5-5-5z" />
    </marker>
    <linearGradient
       id="linearGradient2855"
       y2="539.27"
       gradientUnits="userSpaceOnUse"
       x2="247.31"
       gradientTransform="translate(-160.12,-300.58)"
       y1="498.13"
       x1="200.38">
      <stop
         id="stop6741-26"
         offset="0" />
      <stop
         id="stop6743-6"
         stop-opacity="0"
         offset="1" />
    </linearGradient>
    <marker
       id="Arrow2Lstart-5"
       refY="0"
       refX="0"
       style="overflow:visible"
       orient="auto"
       inkscape:stockid="Arrow2Lstart">
      <path
         id="path2615-6"
         style="stroke-linejoin:round;stroke-width:.625;fill-rule:evenodd"
         sodipodi:nodetypes="cccc"
         transform="matrix(1.1,0,0,1.1,-5.5,0)"
         d="m8.7186 4.0337l-10.926-4.0177 10.926-4.0177c-1.7455 2.3721-1.7355 5.6174 0 8.0354z" />
    </marker>
    <marker
       id="Arrow1Mstart-11"
       refY="0"
       refX="0"
       style="overflow:visible"
       orient="auto"
       inkscape:stockid="Arrow1Mstart">
      <path
         id="path2629-5"
         style="stroke:#000000;stroke-width:1pt;fill-rule:evenodd"
         sodipodi:nodetypes="ccccc"
         transform="scale(.4)"
         d="m0 0l5-5-17.5 5 17.5 5-5-5z" />
    </marker>
    <marker
       id="Arrow2Lstart-4"
       refY="0"
       refX="0"
       style="overflow:visible"
       orient="auto"
       inkscape:stockid="Arrow2Lstart">
      <path
         id="path2615-4"
         style="stroke-linejoin:round;stroke-width:.625;fill-rule:evenodd"
         sodipodi:nodetypes="cccc"
         transform="matrix(1.1,0,0,1.1,-5.5,0)"
         d="m8.7186 4.0337l-10.926-4.0177 10.926-4.0177c-1.7455 2.3721-1.7355 5.6174 0 8.0354z" />
    </marker>
    <marker
       id="Arrow1Mstart-7"
       refY="0"
       refX="0"
       style="overflow:visible"
       orient="auto"
       inkscape:stockid="Arrow1Mstart">
      <path
         id="path2629-6"
         style="stroke:#000000;stroke-width:1pt;fill-rule:evenodd"
         sodipodi:nodetypes="ccccc"
         transform="scale(.4)"
         d="m0 0l5-5-17.5 5 17.5 5-5-5z" />
    </marker>
    <marker
       id="Arrow2Lstart-7"
       refY="0"
       refX="0"
       style="overflow:visible"
       orient="auto"
       inkscape:stockid="Arrow2Lstart">
      <path
         id="path2615-41"
         style="stroke-linejoin:round;stroke-width:.625;fill-rule:evenodd"
         sodipodi:nodetypes="cccc"
         transform="matrix(1.1,0,0,1.1,-5.5,0)"
         d="m8.7186 4.0337l-10.926-4.0177 10.926-4.0177c-1.7455 2.3721-1.7355 5.6174 0 8.0354z" />
    </marker>
    <marker
       id="Arrow1Mstart-8"
       refY="0"
       refX="0"
       style="overflow:visible"
       orient="auto"
       inkscape:stockid="Arrow1Mstart">
      <path
         id="path2629-59"
         style="stroke:#000000;stroke-width:1pt;fill-rule:evenodd"
         sodipodi:nodetypes="ccccc"
         transform="scale(.4)"
         d="m0 0l5-5-17.5 5 17.5 5-5-5z" />
    </marker>
    <marker
       id="Arrow2Lstart-3"
       refY="0"
       refX="0"
       style="overflow:visible"
       orient="auto"
       inkscape:stockid="Arrow2Lstart">
      <path
         id="path2615-3"
         style="stroke-linejoin:round;stroke-width:.625;fill-rule:evenodd"
         sodipodi:nodetypes="cccc"
         transform="matrix(1.1,0,0,1.1,-5.5,0)"
         d="m8.7186 4.0337l-10.926-4.0177 10.926-4.0177c-1.7455 2.3721-1.7355 5.6174 0 8.0354z" />
    </marker>
    <marker
       id="Arrow1Mstart-3"
       refY="0"
       refX="0"
       style="overflow:visible"
       orient="auto"
       inkscape:stockid="Arrow1Mstart">
      <path
         id="path2629-8"
         style="stroke:#000000;stroke-width:1pt;fill-rule:evenodd"
         sodipodi:nodetypes="ccccc"
         transform="scale(.4)"
         d="m0 0l5-5-17.5 5 17.5 5-5-5z" />
    </marker>
    <marker
       id="Arrow2Lstart-43"
       refY="0"
       refX="0"
       style="overflow:visible"
       orient="auto"
       inkscape:stockid="Arrow2Lstart">
      <path
         id="path2615-0"
         style="stroke-linejoin:round;stroke-width:.625;fill-rule:evenodd"
         sodipodi:nodetypes="cccc"
         transform="matrix(1.1,0,0,1.1,-5.5,0)"
         d="m8.7186 4.0337l-10.926-4.0177 10.926-4.0177c-1.7455 2.3721-1.7355 5.6174 0 8.0354z" />
    </marker>
    <marker
       id="Arrow1Mstart-30"
       refY="0"
       refX="0"
       style="overflow:visible"
       orient="auto"
       inkscape:stockid="Arrow1Mstart">
      <path
         id="path2629-9"
         style="stroke:#000000;stroke-width:1pt;fill-rule:evenodd"
         sodipodi:nodetypes="ccccc"
         transform="scale(.4)"
         d="m0 0l5-5-17.5 5 17.5 5-5-5z" />
    </marker>
    <marker
       id="Arrow2Lstart-75"
       refY="0"
       refX="0"
       style="overflow:visible"
       orient="auto"
       inkscape:stockid="Arrow2Lstart">
      <path
         id="path2615-48"
         style="stroke-linejoin:round;stroke-width:.625;fill-rule:evenodd"
         sodipodi:nodetypes="cccc"
         transform="matrix(1.1,0,0,1.1,-5.5,0)"
         d="m8.7186 4.0337l-10.926-4.0177 10.926-4.0177c-1.7455 2.3721-1.7355 5.6174 0 8.0354z" />
    </marker>
    <marker
       id="Arrow1Mstart-12"
       refY="0"
       refX="0"
       style="overflow:visible"
       orient="auto"
       inkscape:stockid="Arrow1Mstart">
      <path
         id="path2629-89"
         style="stroke:#000000;stroke-width:1pt;fill-rule:evenodd"
         sodipodi:nodetypes="ccccc"
         transform="scale(.4)"
         d="m0 0l5-5-17.5 5 17.5 5-5-5z" />
    </marker>
    <marker
       id="Arrow2Lstart-0"
       refY="0"
       refX="0"
       style="overflow:visible"
       orient="auto"
       inkscape:stockid="Arrow2Lstart">
      <path
         id="path2615-64"
         style="stroke-linejoin:round;stroke-width:.625;fill-rule:evenodd"
         sodipodi:nodetypes="cccc"
         transform="matrix(1.1,0,0,1.1,-5.5,0)"
         d="m8.7186 4.0337l-10.926-4.0177 10.926-4.0177c-1.7455 2.3721-1.7355 5.6174 0 8.0354z" />
    </marker>
    <marker
       id="Arrow1Mstart-6"
       refY="0"
       refX="0"
       style="overflow:visible"
       orient="auto"
       inkscape:stockid="Arrow1Mstart">
      <path
         id="path2629-2"
         style="stroke:#000000;stroke-width:1pt;fill-rule:evenodd"
         sodipodi:nodetypes="ccccc"
         transform="scale(.4)"
         d="m0 0l5-5-17.5 5 17.5 5-5-5z" />
    </marker>
    <marker
       id="Arrow2Lstart-08"
       refY="0"
       refX="0"
       style="overflow:visible"
       orient="auto"
       inkscape:stockid="Arrow2Lstart">
      <path
         id="path2615-1"
         style="stroke-linejoin:round;stroke-width:.625;fill-rule:evenodd"
         sodipodi:nodetypes="cccc"
         transform="matrix(1.1,0,0,1.1,-5.5,0)"
         d="m8.7186 4.0337l-10.926-4.0177 10.926-4.0177c-1.7455 2.3721-1.7355 5.6174 0 8.0354z" />
    </marker>
    <marker
       id="Arrow1Mstart-31"
       refY="0"
       refX="0"
       style="overflow:visible"
       orient="auto"
       inkscape:stockid="Arrow1Mstart">
      <path
         id="path2629-1"
         style="stroke:#000000;stroke-width:1pt;fill-rule:evenodd"
         sodipodi:nodetypes="ccccc"
         transform="scale(.4)"
         d="m0 0l5-5-17.5 5 17.5 5-5-5z" />
    </marker>
    <marker
       id="Arrow2Lstart-05"
       refY="0"
       refX="0"
       style="overflow:visible"
       orient="auto"
       inkscape:stockid="Arrow2Lstart">
      <path
         id="path2615-66"
         style="stroke-linejoin:round;stroke-width:.625;fill-rule:evenodd"
         sodipodi:nodetypes="cccc"
         transform="matrix(1.1,0,0,1.1,-5.5,0)"
         d="m8.7186 4.0337l-10.926-4.0177 10.926-4.0177c-1.7455 2.3721-1.7355 5.6174 0 8.0354z" />
    </marker>
    <marker
       id="Arrow1Mstart-4"
       refY="0"
       refX="0"
       style="overflow:visible"
       orient="auto"
       inkscape:stockid="Arrow1Mstart">
      <path
         id="path2629-0"
         style="stroke:#000000;stroke-width:1pt;fill-rule:evenodd"
         sodipodi:nodetypes="ccccc"
         transform="scale(.4)"
         d="m0 0l5-5-17.5 5 17.5 5-5-5z" />
    </marker>
    <marker
       id="Arrow2Lstart-9"
       refY="0"
       refX="0"
       style="overflow:visible"
       orient="auto"
       inkscape:stockid="Arrow2Lstart">
      <path
         id="path2615-60"
         style="stroke-linejoin:round;stroke-width:.625;fill-rule:evenodd"
         sodipodi:nodetypes="cccc"
         transform="matrix(1.1,0,0,1.1,-5.5,0)"
         d="m8.7186 4.0337l-10.926-4.0177 10.926-4.0177c-1.7455 2.3721-1.7355 5.6174 0 8.0354z" />
    </marker>
    <marker
       id="Arrow1Mstart-2"
       refY="0"
       refX="0"
       style="overflow:visible"
       orient="auto"
       inkscape:stockid="Arrow1Mstart">
      <path
         id="path2629-76"
         style="stroke:#000000;stroke-width:1pt;fill-rule:evenodd"
         sodipodi:nodetypes="ccccc"
         transform="scale(.4)"
         d="m0 0l5-5-17.5 5 17.5 5-5-5z" />
    </marker>
    <marker
       id="Arrow2Lstart-58"
       refY="0"
       refX="0"
       style="overflow:visible"
       orient="auto"
       inkscape:stockid="Arrow2Lstart">
      <path
         id="path2615-70"
         style="stroke-linejoin:round;stroke-width:.625;fill-rule:evenodd"
         sodipodi:nodetypes="cccc"
         transform="matrix(1.1,0,0,1.1,-5.5,0)"
         d="m8.7186 4.0337l-10.926-4.0177 10.926-4.0177c-1.7455 2.3721-1.7355 5.6174 0 8.0354z" />
    </marker>
    <marker
       id="Arrow1Mstart-48"
       refY="0"
       refX="0"
       style="overflow:visible"
       orient="auto"
       inkscape:stockid="Arrow1Mstart">
      <path
         id="path2629-04"
         style="stroke:#000000;stroke-width:1pt;fill-rule:evenodd"
         sodipodi:nodetypes="ccccc"
         transform="scale(.4)"
         d="m0 0l5-5-17.5 5 17.5 5-5-5z" />
    </marker>
    <linearGradient
       id="linearGradient4009"
       y2="540.1"
       gradientUnits="userSpaceOnUse"
       x2="306.87"
       gradientTransform="translate(-202.75,-323.7)"
       y1="540.1"
       x1="212.74">
      <stop
         id="stop6741-1"
         offset="0" />
      <stop
         id="stop6743-0"
         stop-opacity="0"
         offset="1" />
    </linearGradient>
    <marker
       id="Arrow2Lstart-90"
       refY="0"
       refX="0"
       style="overflow:visible"
       orient="auto"
       inkscape:stockid="Arrow2Lstart">
      <path
         id="path2615-2"
         style="stroke-linejoin:round;stroke-width:.625;fill-rule:evenodd"
         sodipodi:nodetypes="cccc"
         transform="matrix(1.1,0,0,1.1,-5.5,0)"
         d="m8.7186 4.0337l-10.926-4.0177 10.926-4.0177c-1.7455 2.3721-1.7355 5.6174 0 8.0354z" />
    </marker>
    <marker
       id="Arrow1Mstart-83"
       refY="0"
       refX="0"
       style="overflow:visible"
       orient="auto"
       inkscape:stockid="Arrow1Mstart">
      <path
         id="path2629-80"
         style="stroke:#000000;stroke-width:1pt;fill-rule:evenodd"
         sodipodi:nodetypes="ccccc"
         transform="scale(.4)"
         d="m0 0l5-5-17.5 5 17.5 5-5-5z" />
    </marker>
    <marker
       id="Arrow2Lstart-50"
       refY="0"
       refX="0"
       style="overflow:visible"
       orient="auto"
       inkscape:stockid="Arrow2Lstart">
      <path
         id="path2615-29"
         style="stroke-linejoin:round;stroke-width:.625;fill-rule:evenodd"
         sodipodi:nodetypes="cccc"
         transform="matrix(1.1,0,0,1.1,-5.5,0)"
         d="m8.7186 4.0337l-10.926-4.0177 10.926-4.0177c-1.7455 2.3721-1.7355 5.6174 0 8.0354z" />
    </marker>
    <marker
       id="Arrow1Mstart-43"
       refY="0"
       refX="0"
       style="overflow:visible"
       orient="auto"
       inkscape:stockid="Arrow1Mstart">
      <path
         id="path2629-51"
         style="stroke:#000000;stroke-width:1pt;fill-rule:evenodd"
         sodipodi:nodetypes="ccccc"
         transform="scale(.4)"
         d="m0 0l5-5-17.5 5 17.5 5-5-5z" />
    </marker>
    <marker
       id="Arrow2Lstart-92"
       refY="0"
       refX="0"
       style="overflow:visible"
       orient="auto"
       inkscape:stockid="Arrow2Lstart">
      <path
         id="path2615-8"
         style="stroke-linejoin:round;stroke-width:.625;fill-rule:evenodd"
         sodipodi:nodetypes="cccc"
         transform="matrix(1.1,0,0,1.1,-5.5,0)"
         d="m8.7186 4.0337l-10.926-4.0177 10.926-4.0177c-1.7455 2.3721-1.7355 5.6174 0 8.0354z" />
    </marker>
    <marker
       id="Arrow1Mstart-88"
       refY="0"
       refX="0"
       style="overflow:visible"
       orient="auto"
       inkscape:stockid="Arrow1Mstart">
      <path
         id="path2629-68"
         style="stroke:#000000;stroke-width:1pt;fill-rule:evenodd"
         sodipodi:nodetypes="ccccc"
         transform="scale(.4)"
         d="m0 0l5-5-17.5 5 17.5 5-5-5z" />
    </marker>
    <marker
       id="Arrow2Lstart-903"
       refY="0"
       refX="0"
       style="overflow:visible"
       orient="auto"
       inkscape:stockid="Arrow2Lstart">
      <path
         id="path2615-33"
         style="stroke-linejoin:round;stroke-width:.625;fill-rule:evenodd"
         sodipodi:nodetypes="cccc"
         transform="matrix(1.1,0,0,1.1,-5.5,0)"
         d="m8.7186 4.0337l-10.926-4.0177 10.926-4.0177c-1.7455 2.3721-1.7355 5.6174 0 8.0354z" />
    </marker>
    <marker
       id="Arrow1Mstart-73"
       refY="0"
       refX="0"
       style="overflow:visible"
       orient="auto"
       inkscape:stockid="Arrow1Mstart">
      <path
         id="path2629-26"
         style="stroke:#000000;stroke-width:1pt;fill-rule:evenodd"
         sodipodi:nodetypes="ccccc"
         transform="scale(.4)"
         d="m0 0l5-5-17.5 5 17.5 5-5-5z" />
    </marker>
    <marker
       id="Arrow2Lstart-086"
       refY="0"
       refX="0"
       style="overflow:visible"
       orient="auto"
       inkscape:stockid="Arrow2Lstart">
      <path
         id="path2615-24"
         style="stroke-linejoin:round;stroke-width:.625;fill-rule:evenodd"
         sodipodi:nodetypes="cccc"
         transform="matrix(1.1,0,0,1.1,-5.5,0)"
         d="m8.7186 4.0337l-10.926-4.0177 10.926-4.0177c-1.7455 2.3721-1.7355 5.6174 0 8.0354z" />
    </marker>
    <marker
       id="Arrow1Mstart-79"
       refY="0"
       refX="0"
       style="overflow:visible"
       orient="auto"
       inkscape:stockid="Arrow1Mstart">
      <path
         id="path2629-3"
         style="stroke:#000000;stroke-width:1pt;fill-rule:evenodd"
         sodipodi:nodetypes="ccccc"
         transform="scale(.4)"
         d="m0 0l5-5-17.5 5 17.5 5-5-5z" />
    </marker>
    <marker
       id="Arrow2Lstart-49"
       refY="0"
       refX="0"
       style="overflow:visible"
       orient="auto"
       inkscape:stockid="Arrow2Lstart">
      <path
         id="path2615-9"
         style="stroke-linejoin:round;stroke-width:.625;fill-rule:evenodd"
         sodipodi:nodetypes="cccc"
         transform="matrix(1.1,0,0,1.1,-5.5,0)"
         d="m8.7186 4.0337l-10.926-4.0177 10.926-4.0177c-1.7455 2.3721-1.7355 5.6174 0 8.0354z" />
    </marker>
    <marker
       id="Arrow1Mstart-45"
       refY="0"
       refX="0"
       style="overflow:visible"
       orient="auto"
       inkscape:stockid="Arrow1Mstart">
      <path
         id="path2629-93"
         style="stroke:#000000;stroke-width:1pt;fill-rule:evenodd"
         sodipodi:nodetypes="ccccc"
         transform="scale(.4)"
         d="m0 0l5-5-17.5 5 17.5 5-5-5z" />
    </marker>
    <marker
       id="Arrow2Lstart-2"
       refY="0"
       refX="0"
       style="overflow:visible"
       orient="auto"
       inkscape:stockid="Arrow2Lstart">
      <path
         id="path2615-01"
         style="stroke-linejoin:round;stroke-width:.625;fill-rule:evenodd"
         sodipodi:nodetypes="cccc"
         transform="matrix(1.1,0,0,1.1,-5.5,0)"
         d="m8.7186 4.0337l-10.926-4.0177 10.926-4.0177c-1.7455 2.3721-1.7355 5.6174 0 8.0354z" />
    </marker>
    <marker
       id="Arrow1Mstart-9"
       refY="0"
       refX="0"
       style="overflow:visible"
       orient="auto"
       inkscape:stockid="Arrow1Mstart">
      <path
         id="path2629-62"
         style="stroke:#000000;stroke-width:1pt;fill-rule:evenodd"
         sodipodi:nodetypes="ccccc"
         transform="scale(.4)"
         d="m0 0l5-5-17.5 5 17.5 5-5-5z" />
    </marker>
    <marker
       id="Arrow2Lstart-06"
       refY="0"
       refX="0"
       style="overflow:visible"
       orient="auto"
       inkscape:stockid="Arrow2Lstart">
      <path
         id="path2615-47"
         style="stroke-linejoin:round;stroke-width:.625;fill-rule:evenodd"
         sodipodi:nodetypes="cccc"
         transform="matrix(1.1,0,0,1.1,-5.5,0)"
         d="m8.7186 4.0337l-10.926-4.0177 10.926-4.0177c-1.7455 2.3721-1.7355 5.6174 0 8.0354z" />
    </marker>
    <marker
       id="Arrow1Mstart-485"
       refY="0"
       refX="0"
       style="overflow:visible"
       orient="auto"
       inkscape:stockid="Arrow1Mstart">
      <path
         id="path2629-82"
         style="stroke:#000000;stroke-width:1pt;fill-rule:evenodd"
         sodipodi:nodetypes="ccccc"
         transform="scale(.4)"
         d="m0 0l5-5-17.5 5 17.5 5-5-5z" />
    </marker>
    <marker
       id="Arrow2Lstart-01"
       refY="0"
       refX="0"
       style="overflow:visible"
       orient="auto"
       inkscape:stockid="Arrow2Lstart">
      <path
         id="path2615-37"
         style="stroke-linejoin:round;stroke-width:.625;fill-rule:evenodd"
         sodipodi:nodetypes="cccc"
         transform="matrix(1.1,0,0,1.1,-5.5,0)"
         d="m8.7186 4.0337l-10.926-4.0177 10.926-4.0177c-1.7455 2.3721-1.7355 5.6174 0 8.0354z" />
    </marker>
    <marker
       id="Arrow1Mstart-72"
       refY="0"
       refX="0"
       style="overflow:visible"
       orient="auto"
       inkscape:stockid="Arrow1Mstart">
      <path
         id="path2629-64"
         style="stroke:#000000;stroke-width:1pt;fill-rule:evenodd"
         sodipodi:nodetypes="ccccc"
         transform="scale(.4)"
         d="m0 0l5-5-17.5 5 17.5 5-5-5z" />
    </marker>
    <marker
       id="Arrow2Lstart-86"
       refY="0"
       refX="0"
       style="overflow:visible"
       orient="auto"
       inkscape:stockid="Arrow2Lstart">
      <path
         id="path2615-04"
         style="stroke-linejoin:round;stroke-width:.625;fill-rule:evenodd"
         sodipodi:nodetypes="cccc"
         transform="matrix(1.1,0,0,1.1,-5.5,0)"
         d="m8.7186 4.0337l-10.926-4.0177 10.926-4.0177c-1.7455 2.3721-1.7355 5.6174 0 8.0354z" />
    </marker>
    <marker
       id="Arrow1Mstart-67"
       refY="0"
       refX="0"
       style="overflow:visible"
       orient="auto"
       inkscape:stockid="Arrow1Mstart">
      <path
         id="path2629-60"
         style="stroke:#000000;stroke-width:1pt;fill-rule:evenodd"
         sodipodi:nodetypes="ccccc"
         transform="scale(.4)"
         d="m0 0l5-5-17.5 5 17.5 5-5-5z" />
    </marker>
    <clipPath
       id="clipPath4554"
       clipPathUnits="userSpaceOnUse">
      <path
         inkscape:connector-curvature="0"
         id="path4552"
         d="M 0,600 H 600 V 0 H 0 Z" />
    </clipPath>
    <marker
       inkscape:stockid="Arrow2Lstart"
       orient="auto"
       style="overflow:visible"
       refX="0"
       refY="0"
       id="Arrow2Lstart-97">
      <path
         d="m8.7186 4.0337l-10.926-4.0177 10.926-4.0177c-1.7455 2.3721-1.7355 5.6174 0 8.0354z"
         transform="matrix(1.1,0,0,1.1,-5.5,0)"
         sodipodi:nodetypes="cccc"
         style="stroke-linejoin:round;stroke-width:.625;fill-rule:evenodd"
         id="path2615-99" />
    </marker>
    <marker
       inkscape:stockid="Arrow1Mstart"
       orient="auto"
       style="overflow:visible"
       refX="0"
       refY="0"
       id="Arrow1Mstart-32">
      <path
         d="m0 0l5-5-17.5 5 17.5 5-5-5z"
         transform="scale(.4)"
         sodipodi:nodetypes="ccccc"
         style="stroke:#000000;stroke-width:1pt;fill-rule:evenodd"
         id="path2629-4" />
    </marker>
    <marker
       inkscape:stockid="Arrow2Lstart"
       orient="auto"
       style="overflow:visible"
       refX="0"
       refY="0"
       id="Arrow2Lstart-8-3">
      <path
         d="m8.7186 4.0337l-10.926-4.0177 10.926-4.0177c-1.7455 2.3721-1.7355 5.6174 0 8.0354z"
         transform="matrix(1.1,0,0,1.1,-5.5,0)"
         sodipodi:nodetypes="cccc"
         style="stroke-linejoin:round;stroke-width:.625;fill-rule:evenodd"
         id="path2615-7-7" />
    </marker>
    <marker
       inkscape:stockid="Arrow1Mstart"
       orient="auto"
       style="overflow:visible"
       refX="0"
       refY="0"
       id="Arrow1Mstart-1-1">
      <path
         d="m0 0l5-5-17.5 5 17.5 5-5-5z"
         transform="scale(.4)"
         sodipodi:nodetypes="ccccc"
         style="stroke:#000000;stroke-width:1pt;fill-rule:evenodd"
         id="path2629-7-2" />
    </marker>
    <marker
       inkscape:stockid="Arrow2Lstart"
       orient="auto"
       style="overflow:visible"
       refX="0"
       refY="0"
       id="Arrow2Lstart-5-2">
      <path
         d="m8.7186 4.0337l-10.926-4.0177 10.926-4.0177c-1.7455 2.3721-1.7355 5.6174 0 8.0354z"
         transform="matrix(1.1,0,0,1.1,-5.5,0)"
         sodipodi:nodetypes="cccc"
         style="stroke-linejoin:round;stroke-width:.625;fill-rule:evenodd"
         id="path2615-6-1" />
    </marker>
    <marker
       inkscape:stockid="Arrow1Mstart"
       orient="auto"
       style="overflow:visible"
       refX="0"
       refY="0"
       id="Arrow1Mstart-11-7">
      <path
         d="m0 0l5-5-17.5 5 17.5 5-5-5z"
         transform="scale(.4)"
         sodipodi:nodetypes="ccccc"
         style="stroke:#000000;stroke-width:1pt;fill-rule:evenodd"
         id="path2629-5-5" />
    </marker>
    <marker
       inkscape:stockid="Arrow2Lstart"
       orient="auto"
       style="overflow:visible"
       refX="0"
       refY="0"
       id="Arrow2Lstart-4-1">
      <path
         d="m8.7186 4.0337l-10.926-4.0177 10.926-4.0177c-1.7455 2.3721-1.7355 5.6174 0 8.0354z"
         transform="matrix(1.1,0,0,1.1,-5.5,0)"
         sodipodi:nodetypes="cccc"
         style="stroke-linejoin:round;stroke-width:.625;fill-rule:evenodd"
         id="path2615-4-7" />
    </marker>
    <marker
       inkscape:stockid="Arrow1Mstart"
       orient="auto"
       style="overflow:visible"
       refX="0"
       refY="0"
       id="Arrow1Mstart-7-4">
      <path
         d="m0 0l5-5-17.5 5 17.5 5-5-5z"
         transform="scale(.4)"
         sodipodi:nodetypes="ccccc"
         style="stroke:#000000;stroke-width:1pt;fill-rule:evenodd"
         id="path2629-6-1" />
    </marker>
    <marker
       inkscape:stockid="Arrow2Lstart"
       orient="auto"
       style="overflow:visible"
       refX="0"
       refY="0"
       id="Arrow2Lstart-7-7">
      <path
         d="m8.7186 4.0337l-10.926-4.0177 10.926-4.0177c-1.7455 2.3721-1.7355 5.6174 0 8.0354z"
         transform="matrix(1.1,0,0,1.1,-5.5,0)"
         sodipodi:nodetypes="cccc"
         style="stroke-linejoin:round;stroke-width:.625;fill-rule:evenodd"
         id="path2615-41-1" />
    </marker>
    <marker
       inkscape:stockid="Arrow1Mstart"
       orient="auto"
       style="overflow:visible"
       refX="0"
       refY="0"
       id="Arrow1Mstart-8-1">
      <path
         d="m0 0l5-5-17.5 5 17.5 5-5-5z"
         transform="scale(.4)"
         sodipodi:nodetypes="ccccc"
         style="stroke:#000000;stroke-width:1pt;fill-rule:evenodd"
         id="path2629-59-1" />
    </marker>
    <marker
       inkscape:stockid="Arrow2Lstart"
       orient="auto"
       style="overflow:visible"
       refX="0"
       refY="0"
       id="Arrow2Lstart-3-7">
      <path
         d="m8.7186 4.0337l-10.926-4.0177 10.926-4.0177c-1.7455 2.3721-1.7355 5.6174 0 8.0354z"
         transform="matrix(1.1,0,0,1.1,-5.5,0)"
         sodipodi:nodetypes="cccc"
         style="stroke-linejoin:round;stroke-width:.625;fill-rule:evenodd"
         id="path2615-3-0" />
    </marker>
    <marker
       inkscape:stockid="Arrow1Mstart"
       orient="auto"
       style="overflow:visible"
       refX="0"
       refY="0"
       id="Arrow1Mstart-3-4">
      <path
         d="m0 0l5-5-17.5 5 17.5 5-5-5z"
         transform="scale(.4)"
         sodipodi:nodetypes="ccccc"
         style="stroke:#000000;stroke-width:1pt;fill-rule:evenodd"
         id="path2629-8-0" />
    </marker>
    <marker
       inkscape:stockid="Arrow2Lstart"
       orient="auto"
       style="overflow:visible"
       refX="0"
       refY="0"
       id="Arrow2Lstart-43-8">
      <path
         d="m8.7186 4.0337l-10.926-4.0177 10.926-4.0177c-1.7455 2.3721-1.7355 5.6174 0 8.0354z"
         transform="matrix(1.1,0,0,1.1,-5.5,0)"
         sodipodi:nodetypes="cccc"
         style="stroke-linejoin:round;stroke-width:.625;fill-rule:evenodd"
         id="path2615-0-5" />
    </marker>
    <marker
       inkscape:stockid="Arrow1Mstart"
       orient="auto"
       style="overflow:visible"
       refX="0"
       refY="0"
       id="Arrow1Mstart-30-1">
      <path
         d="m0 0l5-5-17.5 5 17.5 5-5-5z"
         transform="scale(.4)"
         sodipodi:nodetypes="ccccc"
         style="stroke:#000000;stroke-width:1pt;fill-rule:evenodd"
         id="path2629-9-6" />
    </marker>
    <marker
       inkscape:stockid="Arrow2Lstart"
       orient="auto"
       style="overflow:visible"
       refX="0"
       refY="0"
       id="Arrow2Lstart-75-6">
      <path
         d="m8.7186 4.0337l-10.926-4.0177 10.926-4.0177c-1.7455 2.3721-1.7355 5.6174 0 8.0354z"
         transform="matrix(1.1,0,0,1.1,-5.5,0)"
         sodipodi:nodetypes="cccc"
         style="stroke-linejoin:round;stroke-width:.625;fill-rule:evenodd"
         id="path2615-48-2" />
    </marker>
    <marker
       inkscape:stockid="Arrow1Mstart"
       orient="auto"
       style="overflow:visible"
       refX="0"
       refY="0"
       id="Arrow1Mstart-12-1">
      <path
         d="m0 0l5-5-17.5 5 17.5 5-5-5z"
         transform="scale(.4)"
         sodipodi:nodetypes="ccccc"
         style="stroke:#000000;stroke-width:1pt;fill-rule:evenodd"
         id="path2629-89-9" />
    </marker>
    <marker
       inkscape:stockid="Arrow2Lstart"
       orient="auto"
       style="overflow:visible"
       refX="0"
       refY="0"
       id="Arrow2Lstart-0-6">
      <path
         d="m8.7186 4.0337l-10.926-4.0177 10.926-4.0177c-1.7455 2.3721-1.7355 5.6174 0 8.0354z"
         transform="matrix(1.1,0,0,1.1,-5.5,0)"
         sodipodi:nodetypes="cccc"
         style="stroke-linejoin:round;stroke-width:.625;fill-rule:evenodd"
         id="path2615-64-4" />
    </marker>
    <marker
       inkscape:stockid="Arrow1Mstart"
       orient="auto"
       style="overflow:visible"
       refX="0"
       refY="0"
       id="Arrow1Mstart-6-8">
      <path
         d="m0 0l5-5-17.5 5 17.5 5-5-5z"
         transform="scale(.4)"
         sodipodi:nodetypes="ccccc"
         style="stroke:#000000;stroke-width:1pt;fill-rule:evenodd"
         id="path2629-2-0" />
    </marker>
    <marker
       inkscape:stockid="Arrow2Lstart"
       orient="auto"
       style="overflow:visible"
       refX="0"
       refY="0"
       id="Arrow2Lstart-08-8">
      <path
         d="m8.7186 4.0337l-10.926-4.0177 10.926-4.0177c-1.7455 2.3721-1.7355 5.6174 0 8.0354z"
         transform="matrix(1.1,0,0,1.1,-5.5,0)"
         sodipodi:nodetypes="cccc"
         style="stroke-linejoin:round;stroke-width:.625;fill-rule:evenodd"
         id="path2615-1-1" />
    </marker>
    <marker
       inkscape:stockid="Arrow1Mstart"
       orient="auto"
       style="overflow:visible"
       refX="0"
       refY="0"
       id="Arrow1Mstart-31-0">
      <path
         d="m0 0l5-5-17.5 5 17.5 5-5-5z"
         transform="scale(.4)"
         sodipodi:nodetypes="ccccc"
         style="stroke:#000000;stroke-width:1pt;fill-rule:evenodd"
         id="path2629-1-2" />
    </marker>
    <marker
       inkscape:stockid="Arrow2Lstart"
       orient="auto"
       style="overflow:visible"
       refX="0"
       refY="0"
       id="Arrow2Lstart-05-2">
      <path
         d="m8.7186 4.0337l-10.926-4.0177 10.926-4.0177c-1.7455 2.3721-1.7355 5.6174 0 8.0354z"
         transform="matrix(1.1,0,0,1.1,-5.5,0)"
         sodipodi:nodetypes="cccc"
         style="stroke-linejoin:round;stroke-width:.625;fill-rule:evenodd"
         id="path2615-66-9" />
    </marker>
    <marker
       inkscape:stockid="Arrow1Mstart"
       orient="auto"
       style="overflow:visible"
       refX="0"
       refY="0"
       id="Arrow1Mstart-4-7">
      <path
         d="m0 0l5-5-17.5 5 17.5 5-5-5z"
         transform="scale(.4)"
         sodipodi:nodetypes="ccccc"
         style="stroke:#000000;stroke-width:1pt;fill-rule:evenodd"
         id="path2629-0-5" />
    </marker>
    <marker
       inkscape:stockid="Arrow2Lstart"
       orient="auto"
       style="overflow:visible"
       refX="0"
       refY="0"
       id="Arrow2Lstart-9-6">
      <path
         d="m8.7186 4.0337l-10.926-4.0177 10.926-4.0177c-1.7455 2.3721-1.7355 5.6174 0 8.0354z"
         transform="matrix(1.1,0,0,1.1,-5.5,0)"
         sodipodi:nodetypes="cccc"
         style="stroke-linejoin:round;stroke-width:.625;fill-rule:evenodd"
         id="path2615-60-4" />
    </marker>
    <marker
       inkscape:stockid="Arrow1Mstart"
       orient="auto"
       style="overflow:visible"
       refX="0"
       refY="0"
       id="Arrow1Mstart-2-6">
      <path
         d="m0 0l5-5-17.5 5 17.5 5-5-5z"
         transform="scale(.4)"
         sodipodi:nodetypes="ccccc"
         style="stroke:#000000;stroke-width:1pt;fill-rule:evenodd"
         id="path2629-76-3" />
    </marker>
    <marker
       inkscape:stockid="Arrow2Lstart"
       orient="auto"
       style="overflow:visible"
       refX="0"
       refY="0"
       id="Arrow2Lstart-58-7">
      <path
         d="m8.7186 4.0337l-10.926-4.0177 10.926-4.0177c-1.7455 2.3721-1.7355 5.6174 0 8.0354z"
         transform="matrix(1.1,0,0,1.1,-5.5,0)"
         sodipodi:nodetypes="cccc"
         style="stroke-linejoin:round;stroke-width:.625;fill-rule:evenodd"
         id="path2615-70-9" />
    </marker>
    <marker
       inkscape:stockid="Arrow1Mstart"
       orient="auto"
       style="overflow:visible"
       refX="0"
       refY="0"
       id="Arrow1Mstart-48-7">
      <path
         d="m0 0l5-5-17.5 5 17.5 5-5-5z"
         transform="scale(.4)"
         sodipodi:nodetypes="ccccc"
         style="stroke:#000000;stroke-width:1pt;fill-rule:evenodd"
         id="path2629-04-4" />
    </marker>
    <marker
       inkscape:stockid="Arrow2Lstart"
       orient="auto"
       style="overflow:visible"
       refX="0"
       refY="0"
       id="Arrow2Lstart-90-7">
      <path
         d="m8.7186 4.0337l-10.926-4.0177 10.926-4.0177c-1.7455 2.3721-1.7355 5.6174 0 8.0354z"
         transform="matrix(1.1,0,0,1.1,-5.5,0)"
         sodipodi:nodetypes="cccc"
         style="stroke-linejoin:round;stroke-width:.625;fill-rule:evenodd"
         id="path2615-2-0" />
    </marker>
    <marker
       inkscape:stockid="Arrow1Mstart"
       orient="auto"
       style="overflow:visible"
       refX="0"
       refY="0"
       id="Arrow1Mstart-83-6">
      <path
         d="m0 0l5-5-17.5 5 17.5 5-5-5z"
         transform="scale(.4)"
         sodipodi:nodetypes="ccccc"
         style="stroke:#000000;stroke-width:1pt;fill-rule:evenodd"
         id="path2629-80-0" />
    </marker>
    <marker
       inkscape:stockid="Arrow2Lstart"
       orient="auto"
       style="overflow:visible"
       refX="0"
       refY="0"
       id="Arrow2Lstart-50-8">
      <path
         d="m8.7186 4.0337l-10.926-4.0177 10.926-4.0177c-1.7455 2.3721-1.7355 5.6174 0 8.0354z"
         transform="matrix(1.1,0,0,1.1,-5.5,0)"
         sodipodi:nodetypes="cccc"
         style="stroke-linejoin:round;stroke-width:.625;fill-rule:evenodd"
         id="path2615-29-5" />
    </marker>
    <marker
       inkscape:stockid="Arrow1Mstart"
       orient="auto"
       style="overflow:visible"
       refX="0"
       refY="0"
       id="Arrow1Mstart-43-3">
      <path
         d="m0 0l5-5-17.5 5 17.5 5-5-5z"
         transform="scale(.4)"
         sodipodi:nodetypes="ccccc"
         style="stroke:#000000;stroke-width:1pt;fill-rule:evenodd"
         id="path2629-51-9" />
    </marker>
    <marker
       inkscape:stockid="Arrow2Lstart"
       orient="auto"
       style="overflow:visible"
       refX="0"
       refY="0"
       id="Arrow2Lstart-92-4">
      <path
         d="m8.7186 4.0337l-10.926-4.0177 10.926-4.0177c-1.7455 2.3721-1.7355 5.6174 0 8.0354z"
         transform="matrix(1.1,0,0,1.1,-5.5,0)"
         sodipodi:nodetypes="cccc"
         style="stroke-linejoin:round;stroke-width:.625;fill-rule:evenodd"
         id="path2615-8-1" />
    </marker>
    <marker
       inkscape:stockid="Arrow1Mstart"
       orient="auto"
       style="overflow:visible"
       refX="0"
       refY="0"
       id="Arrow1Mstart-88-5">
      <path
         d="m0 0l5-5-17.5 5 17.5 5-5-5z"
         transform="scale(.4)"
         sodipodi:nodetypes="ccccc"
         style="stroke:#000000;stroke-width:1pt;fill-rule:evenodd"
         id="path2629-68-4" />
    </marker>
    <marker
       inkscape:stockid="Arrow2Lstart"
       orient="auto"
       style="overflow:visible"
       refX="0"
       refY="0"
       id="Arrow2Lstart-903-1">
      <path
         d="m8.7186 4.0337l-10.926-4.0177 10.926-4.0177c-1.7455 2.3721-1.7355 5.6174 0 8.0354z"
         transform="matrix(1.1,0,0,1.1,-5.5,0)"
         sodipodi:nodetypes="cccc"
         style="stroke-linejoin:round;stroke-width:.625;fill-rule:evenodd"
         id="path2615-33-5" />
    </marker>
    <marker
       inkscape:stockid="Arrow1Mstart"
       orient="auto"
       style="overflow:visible"
       refX="0"
       refY="0"
       id="Arrow1Mstart-73-5">
      <path
         d="m0 0l5-5-17.5 5 17.5 5-5-5z"
         transform="scale(.4)"
         sodipodi:nodetypes="ccccc"
         style="stroke:#000000;stroke-width:1pt;fill-rule:evenodd"
         id="path2629-26-4" />
    </marker>
    <marker
       inkscape:stockid="Arrow2Lstart"
       orient="auto"
       style="overflow:visible"
       refX="0"
       refY="0"
       id="Arrow2Lstart-086-9">
      <path
         d="m8.7186 4.0337l-10.926-4.0177 10.926-4.0177c-1.7455 2.3721-1.7355 5.6174 0 8.0354z"
         transform="matrix(1.1,0,0,1.1,-5.5,0)"
         sodipodi:nodetypes="cccc"
         style="stroke-linejoin:round;stroke-width:.625;fill-rule:evenodd"
         id="path2615-24-8" />
    </marker>
    <marker
       inkscape:stockid="Arrow1Mstart"
       orient="auto"
       style="overflow:visible"
       refX="0"
       refY="0"
       id="Arrow1Mstart-79-3">
      <path
         d="m0 0l5-5-17.5 5 17.5 5-5-5z"
         transform="scale(.4)"
         sodipodi:nodetypes="ccccc"
         style="stroke:#000000;stroke-width:1pt;fill-rule:evenodd"
         id="path2629-3-8" />
    </marker>
    <marker
       inkscape:stockid="Arrow2Lstart"
       orient="auto"
       style="overflow:visible"
       refX="0"
       refY="0"
       id="Arrow2Lstart-49-5">
      <path
         d="m8.7186 4.0337l-10.926-4.0177 10.926-4.0177c-1.7455 2.3721-1.7355 5.6174 0 8.0354z"
         transform="matrix(1.1,0,0,1.1,-5.5,0)"
         sodipodi:nodetypes="cccc"
         style="stroke-linejoin:round;stroke-width:.625;fill-rule:evenodd"
         id="path2615-9-2" />
    </marker>
    <marker
       inkscape:stockid="Arrow1Mstart"
       orient="auto"
       style="overflow:visible"
       refX="0"
       refY="0"
       id="Arrow1Mstart-45-2">
      <path
         d="m0 0l5-5-17.5 5 17.5 5-5-5z"
         transform="scale(.4)"
         sodipodi:nodetypes="ccccc"
         style="stroke:#000000;stroke-width:1pt;fill-rule:evenodd"
         id="path2629-93-2" />
    </marker>
    <marker
       inkscape:stockid="Arrow2Lstart"
       orient="auto"
       style="overflow:visible"
       refX="0"
       refY="0"
       id="Arrow2Lstart-2-7">
      <path
         d="m8.7186 4.0337l-10.926-4.0177 10.926-4.0177c-1.7455 2.3721-1.7355 5.6174 0 8.0354z"
         transform="matrix(1.1,0,0,1.1,-5.5,0)"
         sodipodi:nodetypes="cccc"
         style="stroke-linejoin:round;stroke-width:.625;fill-rule:evenodd"
         id="path2615-01-0" />
    </marker>
    <marker
       inkscape:stockid="Arrow1Mstart"
       orient="auto"
       style="overflow:visible"
       refX="0"
       refY="0"
       id="Arrow1Mstart-9-3">
      <path
         d="m0 0l5-5-17.5 5 17.5 5-5-5z"
         transform="scale(.4)"
         sodipodi:nodetypes="ccccc"
         style="stroke:#000000;stroke-width:1pt;fill-rule:evenodd"
         id="path2629-62-4" />
    </marker>
    <marker
       inkscape:stockid="Arrow2Lstart"
       orient="auto"
       style="overflow:visible"
       refX="0"
       refY="0"
       id="Arrow2Lstart-06-6">
      <path
         d="m8.7186 4.0337l-10.926-4.0177 10.926-4.0177c-1.7455 2.3721-1.7355 5.6174 0 8.0354z"
         transform="matrix(1.1,0,0,1.1,-5.5,0)"
         sodipodi:nodetypes="cccc"
         style="stroke-linejoin:round;stroke-width:.625;fill-rule:evenodd"
         id="path2615-47-3" />
    </marker>
    <marker
       inkscape:stockid="Arrow1Mstart"
       orient="auto"
       style="overflow:visible"
       refX="0"
       refY="0"
       id="Arrow1Mstart-485-6">
      <path
         d="m0 0l5-5-17.5 5 17.5 5-5-5z"
         transform="scale(.4)"
         sodipodi:nodetypes="ccccc"
         style="stroke:#000000;stroke-width:1pt;fill-rule:evenodd"
         id="path2629-82-3" />
    </marker>
    <marker
       inkscape:stockid="Arrow2Lstart"
       orient="auto"
       style="overflow:visible"
       refX="0"
       refY="0"
       id="Arrow2Lstart-01-3">
      <path
         d="m8.7186 4.0337l-10.926-4.0177 10.926-4.0177c-1.7455 2.3721-1.7355 5.6174 0 8.0354z"
         transform="matrix(1.1,0,0,1.1,-5.5,0)"
         sodipodi:nodetypes="cccc"
         style="stroke-linejoin:round;stroke-width:.625;fill-rule:evenodd"
         id="path2615-37-4" />
    </marker>
    <marker
       inkscape:stockid="Arrow1Mstart"
       orient="auto"
       style="overflow:visible"
       refX="0"
       refY="0"
       id="Arrow1Mstart-72-4">
      <path
         d="m0 0l5-5-17.5 5 17.5 5-5-5z"
         transform="scale(.4)"
         sodipodi:nodetypes="ccccc"
         style="stroke:#000000;stroke-width:1pt;fill-rule:evenodd"
         id="path2629-64-3" />
    </marker>
    <marker
       inkscape:stockid="Arrow2Lstart"
       orient="auto"
       style="overflow:visible"
       refX="0"
       refY="0"
       id="Arrow2Lstart-86-9">
      <path
         d="m8.7186 4.0337l-10.926-4.0177 10.926-4.0177c-1.7455 2.3721-1.7355 5.6174 0 8.0354z"
         transform="matrix(1.1,0,0,1.1,-5.5,0)"
         sodipodi:nodetypes="cccc"
         style="stroke-linejoin:round;stroke-width:.625;fill-rule:evenodd"
         id="path2615-04-7" />
    </marker>
    <marker
       inkscape:stockid="Arrow1Mstart"
       orient="auto"
       style="overflow:visible"
       refX="0"
       refY="0"
       id="Arrow1Mstart-67-2">
      <path
         d="m0 0l5-5-17.5 5 17.5 5-5-5z"
         transform="scale(.4)"
         sodipodi:nodetypes="ccccc"
         style="stroke:#000000;stroke-width:1pt;fill-rule:evenodd"
         id="path2629-60-5" />
    </marker>
    <clipPath
       clipPathUnits="userSpaceOnUse"
       id="clipPath4554-8">
      <path
         d="M 0,600 H 600 V 0 H 0 Z"
         id="path4552-9"
         inkscape:connector-curvature="0" />
    </clipPath>
    <inkscape:path-effect
       is_visible="true"
       id="path-effect4248"
       effect="spiro" />
    <inkscape:path-effect
       fuse_tolerance="0"
       vertical_pattern="false"
       prop_units="false"
       tang_offset="0"
       normal_offset="0"
       spacing="0"
       scale_y_rel="false"
       prop_scale="1"
       copytype="single_stretched"
       pattern="M 0,5 C 0,2.24 2.24,0 5,0 7.76,0 10,2.24 10,5 10,7.76 7.76,10 5,10 2.24,10 0,7.76 0,5 Z"
       is_visible="true"
       id="path-effect4250"
       effect="skeletal" />
    <inkscape:path-effect
       is_visible="true"
       id="path-effect4254"
       effect="spiro" />
    <inkscape:path-effect
       fuse_tolerance="0"
       vertical_pattern="false"
       prop_units="false"
       tang_offset="0"
       normal_offset="0"
       spacing="0"
       scale_y_rel="false"
       prop_scale="1"
       copytype="single_stretched"
       pattern="M 0,5 C 0,2.24 2.24,0 5,0 7.76,0 10,2.24 10,5 10,7.76 7.76,10 5,10 2.24,10 0,7.76 0,5 Z"
       is_visible="true"
       id="path-effect4256"
       effect="skeletal" />
    <inkscape:path-effect
       is_visible="true"
       id="path-effect4300"
       effect="spiro" />
    <inkscape:path-effect
       fuse_tolerance="0"
       vertical_pattern="false"
       prop_units="false"
       tang_offset="0"
       normal_offset="0"
       spacing="0"
       scale_y_rel="false"
       prop_scale="1"
       copytype="single_stretched"
       pattern="M 0,5 C 0,2.24 2.24,0 5,0 7.76,0 10,2.24 10,5 10,7.76 7.76,10 5,10 2.24,10 0,7.76 0,5 Z"
       is_visible="true"
       id="path-effect4302"
       effect="skeletal" />
    <inkscape:path-effect
       is_visible="true"
       id="path-effect4224"
       effect="spiro" />
    <inkscape:path-effect
       fuse_tolerance="0"
       vertical_pattern="false"
       prop_units="false"
       tang_offset="0"
       normal_offset="0"
       spacing="0"
       scale_y_rel="false"
       prop_scale="1"
       copytype="single_stretched"
       pattern="M 0,5 C 0,2.24 2.24,0 5,0 7.76,0 10,2.24 10,5 10,7.76 7.76,10 5,10 2.24,10 0,7.76 0,5 Z"
       is_visible="true"
       id="path-effect4226"
       effect="skeletal" />
    <inkscape:path-effect
       is_visible="true"
       id="path-effect5035"
       effect="spiro" />
    <inkscape:path-effect
       fuse_tolerance="0"
       vertical_pattern="false"
       prop_units="false"
       tang_offset="0"
       normal_offset="0"
       spacing="0"
       scale_y_rel="false"
       prop_scale="1"
       copytype="single_stretched"
       pattern="m 1.4613957,16.457685 c 0,-2.76 2.24,-5 5,-5 2.76,0 5.0000003,2.24 5.0000003,5 0,2.76 -2.2400003,5.000001 -5.0000003,5.000001 -2.76,0 -5,-2.240001 -5,-5.000001 z"
       is_visible="true"
       id="path-effect5037"
       effect="skeletal" />
    <inkscape:path-effect
       is_visible="true"
       id="path-effect5041"
       effect="spiro" />
    <inkscape:path-effect
       fuse_tolerance="0"
       vertical_pattern="false"
       prop_units="false"
       tang_offset="0"
       normal_offset="0"
       spacing="0"
       scale_y_rel="false"
       prop_scale="1"
       copytype="single_stretched"
       pattern="m 0,15 c 0,-2.76 2.24,-5 5,-5 2.76,0 5,2.24 5,5 0,2.76 -2.24,5 -5,5 -2.76,0 -5,-2.24 -5,-5 z"
       is_visible="true"
       id="path-effect5043"
       effect="skeletal" />
  </defs>
  <sodipodi:namedview
     id="base"
     pagecolor="#ffffff"
     bordercolor="#666666"
     borderopacity="1.0"
     inkscape:pageopacity="0.0"
     inkscape:pageshadow="2"
     inkscape:zoom="1.979899"
     inkscape:cx="33.270004"
     inkscape:cy="52.491697"
     inkscape:document-units="mm"
     inkscape:current-layer="layer1-0"
     showgrid="false"
     inkscape:window-width="1853"
     inkscape:window-height="1025"
     inkscape:window-x="67"
     inkscape:window-y="27"
     inkscape:window-maximized="1" />
  <metadata
     id="metadata5">
    <rdf:RDF>
      <cc:Work
         rdf:about="">
        <dc:format>image/svg+xml</dc:format>
        <dc:type
           rdf:resource="http://purl.org/dc/dcmitype/StillImage" />
        <dc:title></dc:title>
      </cc:Work>
    </rdf:RDF>
  </metadata>
  <g
     inkscape:label="Layer 1"
     inkscape:groupmode="layer"
     id="layer1"
     transform="translate(0,-246)">
    <g
       transform="matrix(1.9999999,0,0,1.9999999,-7.4294577,-322.09765)"
       id="layer1-4"
       inkscape:label="Layer 1">
      <g
         transform="matrix(0.21647508,0,0,0.21647508,1.3740558,248.01453)"
         id="layer1-37"
         inkscape:label="Layer 1">
        <g
           transform="matrix(0.25864891,0,0,0.25864891,-68.829959,167.07892)"
           id="layer1-7">
          <g
             transform="matrix(0.5974787,0,0,0.5974787,517.48685,-124.83014)"
             id="layer1-8">
            <g
               transform="matrix(0.7312917,0,0,0.7312917,-349.41525,292.13304)"
               inkscape:label="Ebene 1"
               id="layer1-0">
              <g
                 transform="matrix(3.9932849,0,0,3.9932849,137.94165,323.13753)"
                 inkscape:label="Ebene 1"
                 id="layer1-1">
                <path
                   d="m 74.602,12.754 c -10.97,3.8879 -20.656,6.367 -34.571,10.792 5.4558,69.547 69.327,41.82 34.571,-10.792 z M 71.438,0.135 c 0.187,-9.6633 -0.311,-18.978 3.781,-28.164 4.6484,-9.8507 5.3912,-18.491 2.8197,-32.796 -4.6773,-26.019 -14.565,-42.241 -27.918,-45.803 -28.482,-4.2447 -32.01,24.309 -32.701,45.195 -1.5723,11.689 8.1067,61.712 19.811,70.185 11.503,-3.0034 22.796,-5.9503 34.207,-8.6173 z"
                   style="fill:#000000"
                   sodipodi:nodetypes="cccccscccc"
                   id="path2890"
                   inkscape:connector-curvature="0" />
                <path
                   d="m 109.68,96.545 c 10.97,3.8879 20.656,6.367 34.571,10.792 -5.46,69.54 -69.327,41.82 -34.57,-10.795 z m 3.1642,-12.619 c -0.18684,-9.6633 0.31101,-18.977 -3.781,-28.164 -4.6484,-9.8507 -5.3912,-18.491 -2.8197,-32.796 4.6773,-26.019 14.565,-42.241 27.918,-45.803 28.482,-4.2447 32.01,24.309 32.701,45.195 1.5723,11.689 -8.1067,61.712 -19.811,70.185 -11.502,-3.0035 -22.795,-5.9504 -34.207,-8.6174 z"
                   style="fill:#000000"
                   sodipodi:nodetypes="cccccscccc"
                   id="path2890-7"
                   inkscape:connector-curvature="0" />
              </g>
            </g>
          </g>
        </g>
      </g>
    </g>
  </g>
</svg>
