<?xml version="1.0" encoding="UTF-8" standalone="no"?>
<!-- Created with Inkscape (http://www.inkscape.org/) -->

<svg
   xmlns:dc="http://purl.org/dc/elements/1.1/"
   xmlns:cc="http://creativecommons.org/ns#"
   xmlns:rdf="http://www.w3.org/1999/02/22-rdf-syntax-ns#"
   xmlns:svg="http://www.w3.org/2000/svg"
   xmlns="http://www.w3.org/2000/svg"
   xmlns:sodipodi="http://sodipodi.sourceforge.net/DTD/sodipodi-0.dtd"
   xmlns:inkscape="http://www.inkscape.org/namespaces/inkscape"
   width="51mm"
   height="51mm"
   viewBox="0 0 51 51"
   version="1.1"
   id="svg8"
   inkscape:version="0.92.3 (2405546, 2018-03-11)"
   sodipodi:docname="o17.svg">
  <defs
     id="defs2">
    <linearGradient
       id="linearGradient3144"
       y2="539.27"
       gradientUnits="userSpaceOnUse"
       x2="247.31"
       gradientTransform="matrix(1.8854,0,0,1,38.598,128.35)"
       y1="498.13"
       x1="200.38">
      <stop
         id="stop6741"
         offset="0" />
      <stop
         id="stop6743"
         stop-opacity="0"
         offset="1" />
    </linearGradient>
    <linearGradient
       id="linearGradient3144-2"
       y2="539.27"
       gradientUnits="userSpaceOnUse"
       x2="247.31"
       gradientTransform="matrix(1.8854,0,0,1,38.598,128.35)"
       y1="498.13"
       x1="200.38">
      <stop
         id="stop6741-8"
         offset="0" />
      <stop
         id="stop6743-9"
         stop-opacity="0"
         offset="1" />
    </linearGradient>
    <linearGradient
       id="linearGradient4219"
       y2="539.27"
       gradientUnits="userSpaceOnUse"
       x2="247.31"
       gradientTransform="matrix(1.21,0,0,1,169.55,-481.7)"
       y1="498.13"
       x1="200.38">
      <stop
         id="stop6741-2"
         offset="0" />
      <stop
         id="stop6743-2"
         stop-opacity="0"
         offset="1" />
    </linearGradient>
    <marker
       id="Arrow2Lstart"
       refY="0"
       refX="0"
       style="overflow:visible"
       orient="auto"
       inkscape:stockid="Arrow2Lstart">
      <path
         id="path2615"
         style="stroke-linejoin:round;stroke-width:.625;fill-rule:evenodd"
         sodipodi:nodetypes="cccc"
         transform="matrix(1.1,0,0,1.1,-5.5,0)"
         d="m8.7186 4.0337l-10.926-4.0177 10.926-4.0177c-1.7455 2.3721-1.7355 5.6174 0 8.0354z" />
    </marker>
    <marker
       id="Arrow1Mstart"
       refY="0"
       refX="0"
       style="overflow:visible"
       orient="auto"
       inkscape:stockid="Arrow1Mstart">
      <path
         id="path2629"
         style="stroke:#000000;stroke-width:1pt;fill-rule:evenodd"
         sodipodi:nodetypes="ccccc"
         transform="scale(.4)"
         d="m0 0l5-5-17.5 5 17.5 5-5-5z" />
    </marker>
    <marker
       id="Arrow2Lstart-8"
       refY="0"
       refX="0"
       style="overflow:visible"
       orient="auto"
       inkscape:stockid="Arrow2Lstart">
      <path
         id="path2615-7"
         style="stroke-linejoin:round;stroke-width:.625;fill-rule:evenodd"
         sodipodi:nodetypes="cccc"
         transform="matrix(1.1,0,0,1.1,-5.5,0)"
         d="m8.7186 4.0337l-10.926-4.0177 10.926-4.0177c-1.7455 2.3721-1.7355 5.6174 0 8.0354z" />
    </marker>
    <marker
       id="Arrow1Mstart-1"
       refY="0"
       refX="0"
       style="overflow:visible"
       orient="auto"
       inkscape:stockid="Arrow1Mstart">
      <path
         id="path2629-7"
         style="stroke:#000000;stroke-width:1pt;fill-rule:evenodd"
         sodipodi:nodetypes="ccccc"
         transform="scale(.4)"
         d="m0 0l5-5-17.5 5 17.5 5-5-5z" />
    </marker>
    <linearGradient
       id="linearGradient2855"
       y2="539.27"
       gradientUnits="userSpaceOnUse"
       x2="247.31"
       gradientTransform="translate(-160.12,-300.58)"
       y1="498.13"
       x1="200.38">
      <stop
         id="stop6741-26"
         offset="0" />
      <stop
         id="stop6743-6"
         stop-opacity="0"
         offset="1" />
    </linearGradient>
    <marker
       id="Arrow2Lstart-5"
       refY="0"
       refX="0"
       style="overflow:visible"
       orient="auto"
       inkscape:stockid="Arrow2Lstart">
      <path
         id="path2615-6"
         style="stroke-linejoin:round;stroke-width:.625;fill-rule:evenodd"
         sodipodi:nodetypes="cccc"
         transform="matrix(1.1,0,0,1.1,-5.5,0)"
         d="m8.7186 4.0337l-10.926-4.0177 10.926-4.0177c-1.7455 2.3721-1.7355 5.6174 0 8.0354z" />
    </marker>
    <marker
       id="Arrow1Mstart-11"
       refY="0"
       refX="0"
       style="overflow:visible"
       orient="auto"
       inkscape:stockid="Arrow1Mstart">
      <path
         id="path2629-5"
         style="stroke:#000000;stroke-width:1pt;fill-rule:evenodd"
         sodipodi:nodetypes="ccccc"
         transform="scale(.4)"
         d="m0 0l5-5-17.5 5 17.5 5-5-5z" />
    </marker>
    <marker
       id="Arrow2Lstart-4"
       refY="0"
       refX="0"
       style="overflow:visible"
       orient="auto"
       inkscape:stockid="Arrow2Lstart">
      <path
         id="path2615-4"
         style="stroke-linejoin:round;stroke-width:.625;fill-rule:evenodd"
         sodipodi:nodetypes="cccc"
         transform="matrix(1.1,0,0,1.1,-5.5,0)"
         d="m8.7186 4.0337l-10.926-4.0177 10.926-4.0177c-1.7455 2.3721-1.7355 5.6174 0 8.0354z" />
    </marker>
    <marker
       id="Arrow1Mstart-7"
       refY="0"
       refX="0"
       style="overflow:visible"
       orient="auto"
       inkscape:stockid="Arrow1Mstart">
      <path
         id="path2629-6"
         style="stroke:#000000;stroke-width:1pt;fill-rule:evenodd"
         sodipodi:nodetypes="ccccc"
         transform="scale(.4)"
         d="m0 0l5-5-17.5 5 17.5 5-5-5z" />
    </marker>
    <marker
       id="Arrow2Lstart-7"
       refY="0"
       refX="0"
       style="overflow:visible"
       orient="auto"
       inkscape:stockid="Arrow2Lstart">
      <path
         id="path2615-41"
         style="stroke-linejoin:round;stroke-width:.625;fill-rule:evenodd"
         sodipodi:nodetypes="cccc"
         transform="matrix(1.1,0,0,1.1,-5.5,0)"
         d="m8.7186 4.0337l-10.926-4.0177 10.926-4.0177c-1.7455 2.3721-1.7355 5.6174 0 8.0354z" />
    </marker>
    <marker
       id="Arrow1Mstart-8"
       refY="0"
       refX="0"
       style="overflow:visible"
       orient="auto"
       inkscape:stockid="Arrow1Mstart">
      <path
         id="path2629-59"
         style="stroke:#000000;stroke-width:1pt;fill-rule:evenodd"
         sodipodi:nodetypes="ccccc"
         transform="scale(.4)"
         d="m0 0l5-5-17.5 5 17.5 5-5-5z" />
    </marker>
    <marker
       id="Arrow2Lstart-3"
       refY="0"
       refX="0"
       style="overflow:visible"
       orient="auto"
       inkscape:stockid="Arrow2Lstart">
      <path
         id="path2615-3"
         style="stroke-linejoin:round;stroke-width:.625;fill-rule:evenodd"
         sodipodi:nodetypes="cccc"
         transform="matrix(1.1,0,0,1.1,-5.5,0)"
         d="m8.7186 4.0337l-10.926-4.0177 10.926-4.0177c-1.7455 2.3721-1.7355 5.6174 0 8.0354z" />
    </marker>
    <marker
       id="Arrow1Mstart-3"
       refY="0"
       refX="0"
       style="overflow:visible"
       orient="auto"
       inkscape:stockid="Arrow1Mstart">
      <path
         id="path2629-8"
         style="stroke:#000000;stroke-width:1pt;fill-rule:evenodd"
         sodipodi:nodetypes="ccccc"
         transform="scale(.4)"
         d="m0 0l5-5-17.5 5 17.5 5-5-5z" />
    </marker>
    <marker
       id="Arrow2Lstart-43"
       refY="0"
       refX="0"
       style="overflow:visible"
       orient="auto"
       inkscape:stockid="Arrow2Lstart">
      <path
         id="path2615-0"
         style="stroke-linejoin:round;stroke-width:.625;fill-rule:evenodd"
         sodipodi:nodetypes="cccc"
         transform="matrix(1.1,0,0,1.1,-5.5,0)"
         d="m8.7186 4.0337l-10.926-4.0177 10.926-4.0177c-1.7455 2.3721-1.7355 5.6174 0 8.0354z" />
    </marker>
    <marker
       id="Arrow1Mstart-30"
       refY="0"
       refX="0"
       style="overflow:visible"
       orient="auto"
       inkscape:stockid="Arrow1Mstart">
      <path
         id="path2629-9"
         style="stroke:#000000;stroke-width:1pt;fill-rule:evenodd"
         sodipodi:nodetypes="ccccc"
         transform="scale(.4)"
         d="m0 0l5-5-17.5 5 17.5 5-5-5z" />
    </marker>
    <marker
       id="Arrow2Lstart-75"
       refY="0"
       refX="0"
       style="overflow:visible"
       orient="auto"
       inkscape:stockid="Arrow2Lstart">
      <path
         id="path2615-48"
         style="stroke-linejoin:round;stroke-width:.625;fill-rule:evenodd"
         sodipodi:nodetypes="cccc"
         transform="matrix(1.1,0,0,1.1,-5.5,0)"
         d="m8.7186 4.0337l-10.926-4.0177 10.926-4.0177c-1.7455 2.3721-1.7355 5.6174 0 8.0354z" />
    </marker>
    <marker
       id="Arrow1Mstart-12"
       refY="0"
       refX="0"
       style="overflow:visible"
       orient="auto"
       inkscape:stockid="Arrow1Mstart">
      <path
         id="path2629-89"
         style="stroke:#000000;stroke-width:1pt;fill-rule:evenodd"
         sodipodi:nodetypes="ccccc"
         transform="scale(.4)"
         d="m0 0l5-5-17.5 5 17.5 5-5-5z" />
    </marker>
    <marker
       id="Arrow2Lstart-0"
       refY="0"
       refX="0"
       style="overflow:visible"
       orient="auto"
       inkscape:stockid="Arrow2Lstart">
      <path
         id="path2615-64"
         style="stroke-linejoin:round;stroke-width:.625;fill-rule:evenodd"
         sodipodi:nodetypes="cccc"
         transform="matrix(1.1,0,0,1.1,-5.5,0)"
         d="m8.7186 4.0337l-10.926-4.0177 10.926-4.0177c-1.7455 2.3721-1.7355 5.6174 0 8.0354z" />
    </marker>
    <marker
       id="Arrow1Mstart-6"
       refY="0"
       refX="0"
       style="overflow:visible"
       orient="auto"
       inkscape:stockid="Arrow1Mstart">
      <path
         id="path2629-2"
         style="stroke:#000000;stroke-width:1pt;fill-rule:evenodd"
         sodipodi:nodetypes="ccccc"
         transform="scale(.4)"
         d="m0 0l5-5-17.5 5 17.5 5-5-5z" />
    </marker>
    <marker
       id="Arrow2Lstart-08"
       refY="0"
       refX="0"
       style="overflow:visible"
       orient="auto"
       inkscape:stockid="Arrow2Lstart">
      <path
         id="path2615-1"
         style="stroke-linejoin:round;stroke-width:.625;fill-rule:evenodd"
         sodipodi:nodetypes="cccc"
         transform="matrix(1.1,0,0,1.1,-5.5,0)"
         d="m8.7186 4.0337l-10.926-4.0177 10.926-4.0177c-1.7455 2.3721-1.7355 5.6174 0 8.0354z" />
    </marker>
    <marker
       id="Arrow1Mstart-31"
       refY="0"
       refX="0"
       style="overflow:visible"
       orient="auto"
       inkscape:stockid="Arrow1Mstart">
      <path
         id="path2629-1"
         style="stroke:#000000;stroke-width:1pt;fill-rule:evenodd"
         sodipodi:nodetypes="ccccc"
         transform="scale(.4)"
         d="m0 0l5-5-17.5 5 17.5 5-5-5z" />
    </marker>
    <marker
       id="Arrow2Lstart-05"
       refY="0"
       refX="0"
       style="overflow:visible"
       orient="auto"
       inkscape:stockid="Arrow2Lstart">
      <path
         id="path2615-66"
         style="stroke-linejoin:round;stroke-width:.625;fill-rule:evenodd"
         sodipodi:nodetypes="cccc"
         transform="matrix(1.1,0,0,1.1,-5.5,0)"
         d="m8.7186 4.0337l-10.926-4.0177 10.926-4.0177c-1.7455 2.3721-1.7355 5.6174 0 8.0354z" />
    </marker>
    <marker
       id="Arrow1Mstart-4"
       refY="0"
       refX="0"
       style="overflow:visible"
       orient="auto"
       inkscape:stockid="Arrow1Mstart">
      <path
         id="path2629-0"
         style="stroke:#000000;stroke-width:1pt;fill-rule:evenodd"
         sodipodi:nodetypes="ccccc"
         transform="scale(.4)"
         d="m0 0l5-5-17.5 5 17.5 5-5-5z" />
    </marker>
    <marker
       id="Arrow2Lstart-9"
       refY="0"
       refX="0"
       style="overflow:visible"
       orient="auto"
       inkscape:stockid="Arrow2Lstart">
      <path
         id="path2615-60"
         style="stroke-linejoin:round;stroke-width:.625;fill-rule:evenodd"
         sodipodi:nodetypes="cccc"
         transform="matrix(1.1,0,0,1.1,-5.5,0)"
         d="m8.7186 4.0337l-10.926-4.0177 10.926-4.0177c-1.7455 2.3721-1.7355 5.6174 0 8.0354z" />
    </marker>
    <marker
       id="Arrow1Mstart-2"
       refY="0"
       refX="0"
       style="overflow:visible"
       orient="auto"
       inkscape:stockid="Arrow1Mstart">
      <path
         id="path2629-76"
         style="stroke:#000000;stroke-width:1pt;fill-rule:evenodd"
         sodipodi:nodetypes="ccccc"
         transform="scale(.4)"
         d="m0 0l5-5-17.5 5 17.5 5-5-5z" />
    </marker>
    <marker
       id="Arrow2Lstart-58"
       refY="0"
       refX="0"
       style="overflow:visible"
       orient="auto"
       inkscape:stockid="Arrow2Lstart">
      <path
         id="path2615-70"
         style="stroke-linejoin:round;stroke-width:.625;fill-rule:evenodd"
         sodipodi:nodetypes="cccc"
         transform="matrix(1.1,0,0,1.1,-5.5,0)"
         d="m8.7186 4.0337l-10.926-4.0177 10.926-4.0177c-1.7455 2.3721-1.7355 5.6174 0 8.0354z" />
    </marker>
    <marker
       id="Arrow1Mstart-48"
       refY="0"
       refX="0"
       style="overflow:visible"
       orient="auto"
       inkscape:stockid="Arrow1Mstart">
      <path
         id="path2629-04"
         style="stroke:#000000;stroke-width:1pt;fill-rule:evenodd"
         sodipodi:nodetypes="ccccc"
         transform="scale(.4)"
         d="m0 0l5-5-17.5 5 17.5 5-5-5z" />
    </marker>
    <linearGradient
       id="linearGradient4009"
       y2="540.1"
       gradientUnits="userSpaceOnUse"
       x2="306.87"
       gradientTransform="translate(-202.75,-323.7)"
       y1="540.1"
       x1="212.74">
      <stop
         id="stop6741-1"
         offset="0" />
      <stop
         id="stop6743-0"
         stop-opacity="0"
         offset="1" />
    </linearGradient>
    <marker
       id="Arrow2Lstart-90"
       refY="0"
       refX="0"
       style="overflow:visible"
       orient="auto"
       inkscape:stockid="Arrow2Lstart">
      <path
         id="path2615-2"
         style="stroke-linejoin:round;stroke-width:.625;fill-rule:evenodd"
         sodipodi:nodetypes="cccc"
         transform="matrix(1.1,0,0,1.1,-5.5,0)"
         d="m8.7186 4.0337l-10.926-4.0177 10.926-4.0177c-1.7455 2.3721-1.7355 5.6174 0 8.0354z" />
    </marker>
    <marker
       id="Arrow1Mstart-83"
       refY="0"
       refX="0"
       style="overflow:visible"
       orient="auto"
       inkscape:stockid="Arrow1Mstart">
      <path
         id="path2629-80"
         style="stroke:#000000;stroke-width:1pt;fill-rule:evenodd"
         sodipodi:nodetypes="ccccc"
         transform="scale(.4)"
         d="m0 0l5-5-17.5 5 17.5 5-5-5z" />
    </marker>
    <marker
       id="Arrow2Lstart-50"
       refY="0"
       refX="0"
       style="overflow:visible"
       orient="auto"
       inkscape:stockid="Arrow2Lstart">
      <path
         id="path2615-29"
         style="stroke-linejoin:round;stroke-width:.625;fill-rule:evenodd"
         sodipodi:nodetypes="cccc"
         transform="matrix(1.1,0,0,1.1,-5.5,0)"
         d="m8.7186 4.0337l-10.926-4.0177 10.926-4.0177c-1.7455 2.3721-1.7355 5.6174 0 8.0354z" />
    </marker>
    <marker
       id="Arrow1Mstart-43"
       refY="0"
       refX="0"
       style="overflow:visible"
       orient="auto"
       inkscape:stockid="Arrow1Mstart">
      <path
         id="path2629-51"
         style="stroke:#000000;stroke-width:1pt;fill-rule:evenodd"
         sodipodi:nodetypes="ccccc"
         transform="scale(.4)"
         d="m0 0l5-5-17.5 5 17.5 5-5-5z" />
    </marker>
    <marker
       id="Arrow2Lstart-92"
       refY="0"
       refX="0"
       style="overflow:visible"
       orient="auto"
       inkscape:stockid="Arrow2Lstart">
      <path
         id="path2615-8"
         style="stroke-linejoin:round;stroke-width:.625;fill-rule:evenodd"
         sodipodi:nodetypes="cccc"
         transform="matrix(1.1,0,0,1.1,-5.5,0)"
         d="m8.7186 4.0337l-10.926-4.0177 10.926-4.0177c-1.7455 2.3721-1.7355 5.6174 0 8.0354z" />
    </marker>
    <marker
       id="Arrow1Mstart-88"
       refY="0"
       refX="0"
       style="overflow:visible"
       orient="auto"
       inkscape:stockid="Arrow1Mstart">
      <path
         id="path2629-68"
         style="stroke:#000000;stroke-width:1pt;fill-rule:evenodd"
         sodipodi:nodetypes="ccccc"
         transform="scale(.4)"
         d="m0 0l5-5-17.5 5 17.5 5-5-5z" />
    </marker>
    <marker
       id="Arrow2Lstart-903"
       refY="0"
       refX="0"
       style="overflow:visible"
       orient="auto"
       inkscape:stockid="Arrow2Lstart">
      <path
         id="path2615-33"
         style="stroke-linejoin:round;stroke-width:.625;fill-rule:evenodd"
         sodipodi:nodetypes="cccc"
         transform="matrix(1.1,0,0,1.1,-5.5,0)"
         d="m8.7186 4.0337l-10.926-4.0177 10.926-4.0177c-1.7455 2.3721-1.7355 5.6174 0 8.0354z" />
    </marker>
    <marker
       id="Arrow1Mstart-73"
       refY="0"
       refX="0"
       style="overflow:visible"
       orient="auto"
       inkscape:stockid="Arrow1Mstart">
      <path
         id="path2629-26"
         style="stroke:#000000;stroke-width:1pt;fill-rule:evenodd"
         sodipodi:nodetypes="ccccc"
         transform="scale(.4)"
         d="m0 0l5-5-17.5 5 17.5 5-5-5z" />
    </marker>
    <marker
       id="Arrow2Lstart-086"
       refY="0"
       refX="0"
       style="overflow:visible"
       orient="auto"
       inkscape:stockid="Arrow2Lstart">
      <path
         id="path2615-24"
         style="stroke-linejoin:round;stroke-width:.625;fill-rule:evenodd"
         sodipodi:nodetypes="cccc"
         transform="matrix(1.1,0,0,1.1,-5.5,0)"
         d="m8.7186 4.0337l-10.926-4.0177 10.926-4.0177c-1.7455 2.3721-1.7355 5.6174 0 8.0354z" />
    </marker>
    <marker
       id="Arrow1Mstart-79"
       refY="0"
       refX="0"
       style="overflow:visible"
       orient="auto"
       inkscape:stockid="Arrow1Mstart">
      <path
         id="path2629-3"
         style="stroke:#000000;stroke-width:1pt;fill-rule:evenodd"
         sodipodi:nodetypes="ccccc"
         transform="scale(.4)"
         d="m0 0l5-5-17.5 5 17.5 5-5-5z" />
    </marker>
    <marker
       id="Arrow2Lstart-49"
       refY="0"
       refX="0"
       style="overflow:visible"
       orient="auto"
       inkscape:stockid="Arrow2Lstart">
      <path
         id="path2615-9"
         style="stroke-linejoin:round;stroke-width:.625;fill-rule:evenodd"
         sodipodi:nodetypes="cccc"
         transform="matrix(1.1,0,0,1.1,-5.5,0)"
         d="m8.7186 4.0337l-10.926-4.0177 10.926-4.0177c-1.7455 2.3721-1.7355 5.6174 0 8.0354z" />
    </marker>
    <marker
       id="Arrow1Mstart-45"
       refY="0"
       refX="0"
       style="overflow:visible"
       orient="auto"
       inkscape:stockid="Arrow1Mstart">
      <path
         id="path2629-93"
         style="stroke:#000000;stroke-width:1pt;fill-rule:evenodd"
         sodipodi:nodetypes="ccccc"
         transform="scale(.4)"
         d="m0 0l5-5-17.5 5 17.5 5-5-5z" />
    </marker>
    <marker
       id="Arrow2Lstart-2"
       refY="0"
       refX="0"
       style="overflow:visible"
       orient="auto"
       inkscape:stockid="Arrow2Lstart">
      <path
         id="path2615-01"
         style="stroke-linejoin:round;stroke-width:.625;fill-rule:evenodd"
         sodipodi:nodetypes="cccc"
         transform="matrix(1.1,0,0,1.1,-5.5,0)"
         d="m8.7186 4.0337l-10.926-4.0177 10.926-4.0177c-1.7455 2.3721-1.7355 5.6174 0 8.0354z" />
    </marker>
    <marker
       id="Arrow1Mstart-9"
       refY="0"
       refX="0"
       style="overflow:visible"
       orient="auto"
       inkscape:stockid="Arrow1Mstart">
      <path
         id="path2629-62"
         style="stroke:#000000;stroke-width:1pt;fill-rule:evenodd"
         sodipodi:nodetypes="ccccc"
         transform="scale(.4)"
         d="m0 0l5-5-17.5 5 17.5 5-5-5z" />
    </marker>
    <marker
       id="Arrow2Lstart-06"
       refY="0"
       refX="0"
       style="overflow:visible"
       orient="auto"
       inkscape:stockid="Arrow2Lstart">
      <path
         id="path2615-47"
         style="stroke-linejoin:round;stroke-width:.625;fill-rule:evenodd"
         sodipodi:nodetypes="cccc"
         transform="matrix(1.1,0,0,1.1,-5.5,0)"
         d="m8.7186 4.0337l-10.926-4.0177 10.926-4.0177c-1.7455 2.3721-1.7355 5.6174 0 8.0354z" />
    </marker>
    <marker
       id="Arrow1Mstart-485"
       refY="0"
       refX="0"
       style="overflow:visible"
       orient="auto"
       inkscape:stockid="Arrow1Mstart">
      <path
         id="path2629-82"
         style="stroke:#000000;stroke-width:1pt;fill-rule:evenodd"
         sodipodi:nodetypes="ccccc"
         transform="scale(.4)"
         d="m0 0l5-5-17.5 5 17.5 5-5-5z" />
    </marker>
    <marker
       id="Arrow2Lstart-01"
       refY="0"
       refX="0"
       style="overflow:visible"
       orient="auto"
       inkscape:stockid="Arrow2Lstart">
      <path
         id="path2615-37"
         style="stroke-linejoin:round;stroke-width:.625;fill-rule:evenodd"
         sodipodi:nodetypes="cccc"
         transform="matrix(1.1,0,0,1.1,-5.5,0)"
         d="m8.7186 4.0337l-10.926-4.0177 10.926-4.0177c-1.7455 2.3721-1.7355 5.6174 0 8.0354z" />
    </marker>
    <marker
       id="Arrow1Mstart-72"
       refY="0"
       refX="0"
       style="overflow:visible"
       orient="auto"
       inkscape:stockid="Arrow1Mstart">
      <path
         id="path2629-64"
         style="stroke:#000000;stroke-width:1pt;fill-rule:evenodd"
         sodipodi:nodetypes="ccccc"
         transform="scale(.4)"
         d="m0 0l5-5-17.5 5 17.5 5-5-5z" />
    </marker>
    <marker
       id="Arrow2Lstart-86"
       refY="0"
       refX="0"
       style="overflow:visible"
       orient="auto"
       inkscape:stockid="Arrow2Lstart">
      <path
         id="path2615-04"
         style="stroke-linejoin:round;stroke-width:.625;fill-rule:evenodd"
         sodipodi:nodetypes="cccc"
         transform="matrix(1.1,0,0,1.1,-5.5,0)"
         d="m8.7186 4.0337l-10.926-4.0177 10.926-4.0177c-1.7455 2.3721-1.7355 5.6174 0 8.0354z" />
    </marker>
    <marker
       id="Arrow1Mstart-67"
       refY="0"
       refX="0"
       style="overflow:visible"
       orient="auto"
       inkscape:stockid="Arrow1Mstart">
      <path
         id="path2629-60"
         style="stroke:#000000;stroke-width:1pt;fill-rule:evenodd"
         sodipodi:nodetypes="ccccc"
         transform="scale(.4)"
         d="m0 0l5-5-17.5 5 17.5 5-5-5z" />
    </marker>
    <clipPath
       id="clipPath4554"
       clipPathUnits="userSpaceOnUse">
      <path
         inkscape:connector-curvature="0"
         id="path4552"
         d="M 0,600 H 600 V 0 H 0 Z" />
    </clipPath>
    <marker
       inkscape:stockid="Arrow2Lstart"
       orient="auto"
       style="overflow:visible"
       refX="0"
       refY="0"
       id="Arrow2Lstart-97">
      <path
         d="m8.7186 4.0337l-10.926-4.0177 10.926-4.0177c-1.7455 2.3721-1.7355 5.6174 0 8.0354z"
         transform="matrix(1.1,0,0,1.1,-5.5,0)"
         sodipodi:nodetypes="cccc"
         style="stroke-linejoin:round;stroke-width:.625;fill-rule:evenodd"
         id="path2615-99" />
    </marker>
    <marker
       inkscape:stockid="Arrow1Mstart"
       orient="auto"
       style="overflow:visible"
       refX="0"
       refY="0"
       id="Arrow1Mstart-32">
      <path
         d="m0 0l5-5-17.5 5 17.5 5-5-5z"
         transform="scale(.4)"
         sodipodi:nodetypes="ccccc"
         style="stroke:#000000;stroke-width:1pt;fill-rule:evenodd"
         id="path2629-4" />
    </marker>
    <marker
       inkscape:stockid="Arrow2Lstart"
       orient="auto"
       style="overflow:visible"
       refX="0"
       refY="0"
       id="Arrow2Lstart-8-3">
      <path
         d="m8.7186 4.0337l-10.926-4.0177 10.926-4.0177c-1.7455 2.3721-1.7355 5.6174 0 8.0354z"
         transform="matrix(1.1,0,0,1.1,-5.5,0)"
         sodipodi:nodetypes="cccc"
         style="stroke-linejoin:round;stroke-width:.625;fill-rule:evenodd"
         id="path2615-7-7" />
    </marker>
    <marker
       inkscape:stockid="Arrow1Mstart"
       orient="auto"
       style="overflow:visible"
       refX="0"
       refY="0"
       id="Arrow1Mstart-1-1">
      <path
         d="m0 0l5-5-17.5 5 17.5 5-5-5z"
         transform="scale(.4)"
         sodipodi:nodetypes="ccccc"
         style="stroke:#000000;stroke-width:1pt;fill-rule:evenodd"
         id="path2629-7-2" />
    </marker>
    <marker
       inkscape:stockid="Arrow2Lstart"
       orient="auto"
       style="overflow:visible"
       refX="0"
       refY="0"
       id="Arrow2Lstart-5-2">
      <path
         d="m8.7186 4.0337l-10.926-4.0177 10.926-4.0177c-1.7455 2.3721-1.7355 5.6174 0 8.0354z"
         transform="matrix(1.1,0,0,1.1,-5.5,0)"
         sodipodi:nodetypes="cccc"
         style="stroke-linejoin:round;stroke-width:.625;fill-rule:evenodd"
         id="path2615-6-1" />
    </marker>
    <marker
       inkscape:stockid="Arrow1Mstart"
       orient="auto"
       style="overflow:visible"
       refX="0"
       refY="0"
       id="Arrow1Mstart-11-7">
      <path
         d="m0 0l5-5-17.5 5 17.5 5-5-5z"
         transform="scale(.4)"
         sodipodi:nodetypes="ccccc"
         style="stroke:#000000;stroke-width:1pt;fill-rule:evenodd"
         id="path2629-5-5" />
    </marker>
    <marker
       inkscape:stockid="Arrow2Lstart"
       orient="auto"
       style="overflow:visible"
       refX="0"
       refY="0"
       id="Arrow2Lstart-4-1">
      <path
         d="m8.7186 4.0337l-10.926-4.0177 10.926-4.0177c-1.7455 2.3721-1.7355 5.6174 0 8.0354z"
         transform="matrix(1.1,0,0,1.1,-5.5,0)"
         sodipodi:nodetypes="cccc"
         style="stroke-linejoin:round;stroke-width:.625;fill-rule:evenodd"
         id="path2615-4-7" />
    </marker>
    <marker
       inkscape:stockid="Arrow1Mstart"
       orient="auto"
       style="overflow:visible"
       refX="0"
       refY="0"
       id="Arrow1Mstart-7-4">
      <path
         d="m0 0l5-5-17.5 5 17.5 5-5-5z"
         transform="scale(.4)"
         sodipodi:nodetypes="ccccc"
         style="stroke:#000000;stroke-width:1pt;fill-rule:evenodd"
         id="path2629-6-1" />
    </marker>
    <marker
       inkscape:stockid="Arrow2Lstart"
       orient="auto"
       style="overflow:visible"
       refX="0"
       refY="0"
       id="Arrow2Lstart-7-7">
      <path
         d="m8.7186 4.0337l-10.926-4.0177 10.926-4.0177c-1.7455 2.3721-1.7355 5.6174 0 8.0354z"
         transform="matrix(1.1,0,0,1.1,-5.5,0)"
         sodipodi:nodetypes="cccc"
         style="stroke-linejoin:round;stroke-width:.625;fill-rule:evenodd"
         id="path2615-41-1" />
    </marker>
    <marker
       inkscape:stockid="Arrow1Mstart"
       orient="auto"
       style="overflow:visible"
       refX="0"
       refY="0"
       id="Arrow1Mstart-8-1">
      <path
         d="m0 0l5-5-17.5 5 17.5 5-5-5z"
         transform="scale(.4)"
         sodipodi:nodetypes="ccccc"
         style="stroke:#000000;stroke-width:1pt;fill-rule:evenodd"
         id="path2629-59-1" />
    </marker>
    <marker
       inkscape:stockid="Arrow2Lstart"
       orient="auto"
       style="overflow:visible"
       refX="0"
       refY="0"
       id="Arrow2Lstart-3-7">
      <path
         d="m8.7186 4.0337l-10.926-4.0177 10.926-4.0177c-1.7455 2.3721-1.7355 5.6174 0 8.0354z"
         transform="matrix(1.1,0,0,1.1,-5.5,0)"
         sodipodi:nodetypes="cccc"
         style="stroke-linejoin:round;stroke-width:.625;fill-rule:evenodd"
         id="path2615-3-0" />
    </marker>
    <marker
       inkscape:stockid="Arrow1Mstart"
       orient="auto"
       style="overflow:visible"
       refX="0"
       refY="0"
       id="Arrow1Mstart-3-4">
      <path
         d="m0 0l5-5-17.5 5 17.5 5-5-5z"
         transform="scale(.4)"
         sodipodi:nodetypes="ccccc"
         style="stroke:#000000;stroke-width:1pt;fill-rule:evenodd"
         id="path2629-8-0" />
    </marker>
    <marker
       inkscape:stockid="Arrow2Lstart"
       orient="auto"
       style="overflow:visible"
       refX="0"
       refY="0"
       id="Arrow2Lstart-43-8">
      <path
         d="m8.7186 4.0337l-10.926-4.0177 10.926-4.0177c-1.7455 2.3721-1.7355 5.6174 0 8.0354z"
         transform="matrix(1.1,0,0,1.1,-5.5,0)"
         sodipodi:nodetypes="cccc"
         style="stroke-linejoin:round;stroke-width:.625;fill-rule:evenodd"
         id="path2615-0-5" />
    </marker>
    <marker
       inkscape:stockid="Arrow1Mstart"
       orient="auto"
       style="overflow:visible"
       refX="0"
       refY="0"
       id="Arrow1Mstart-30-1">
      <path
         d="m0 0l5-5-17.5 5 17.5 5-5-5z"
         transform="scale(.4)"
         sodipodi:nodetypes="ccccc"
         style="stroke:#000000;stroke-width:1pt;fill-rule:evenodd"
         id="path2629-9-6" />
    </marker>
    <marker
       inkscape:stockid="Arrow2Lstart"
       orient="auto"
       style="overflow:visible"
       refX="0"
       refY="0"
       id="Arrow2Lstart-75-6">
      <path
         d="m8.7186 4.0337l-10.926-4.0177 10.926-4.0177c-1.7455 2.3721-1.7355 5.6174 0 8.0354z"
         transform="matrix(1.1,0,0,1.1,-5.5,0)"
         sodipodi:nodetypes="cccc"
         style="stroke-linejoin:round;stroke-width:.625;fill-rule:evenodd"
         id="path2615-48-2" />
    </marker>
    <marker
       inkscape:stockid="Arrow1Mstart"
       orient="auto"
       style="overflow:visible"
       refX="0"
       refY="0"
       id="Arrow1Mstart-12-1">
      <path
         d="m0 0l5-5-17.5 5 17.5 5-5-5z"
         transform="scale(.4)"
         sodipodi:nodetypes="ccccc"
         style="stroke:#000000;stroke-width:1pt;fill-rule:evenodd"
         id="path2629-89-9" />
    </marker>
    <marker
       inkscape:stockid="Arrow2Lstart"
       orient="auto"
       style="overflow:visible"
       refX="0"
       refY="0"
       id="Arrow2Lstart-0-6">
      <path
         d="m8.7186 4.0337l-10.926-4.0177 10.926-4.0177c-1.7455 2.3721-1.7355 5.6174 0 8.0354z"
         transform="matrix(1.1,0,0,1.1,-5.5,0)"
         sodipodi:nodetypes="cccc"
         style="stroke-linejoin:round;stroke-width:.625;fill-rule:evenodd"
         id="path2615-64-4" />
    </marker>
    <marker
       inkscape:stockid="Arrow1Mstart"
       orient="auto"
       style="overflow:visible"
       refX="0"
       refY="0"
       id="Arrow1Mstart-6-8">
      <path
         d="m0 0l5-5-17.5 5 17.5 5-5-5z"
         transform="scale(.4)"
         sodipodi:nodetypes="ccccc"
         style="stroke:#000000;stroke-width:1pt;fill-rule:evenodd"
         id="path2629-2-0" />
    </marker>
    <marker
       inkscape:stockid="Arrow2Lstart"
       orient="auto"
       style="overflow:visible"
       refX="0"
       refY="0"
       id="Arrow2Lstart-08-8">
      <path
         d="m8.7186 4.0337l-10.926-4.0177 10.926-4.0177c-1.7455 2.3721-1.7355 5.6174 0 8.0354z"
         transform="matrix(1.1,0,0,1.1,-5.5,0)"
         sodipodi:nodetypes="cccc"
         style="stroke-linejoin:round;stroke-width:.625;fill-rule:evenodd"
         id="path2615-1-1" />
    </marker>
    <marker
       inkscape:stockid="Arrow1Mstart"
       orient="auto"
       style="overflow:visible"
       refX="0"
       refY="0"
       id="Arrow1Mstart-31-0">
      <path
         d="m0 0l5-5-17.5 5 17.5 5-5-5z"
         transform="scale(.4)"
         sodipodi:nodetypes="ccccc"
         style="stroke:#000000;stroke-width:1pt;fill-rule:evenodd"
         id="path2629-1-2" />
    </marker>
    <marker
       inkscape:stockid="Arrow2Lstart"
       orient="auto"
       style="overflow:visible"
       refX="0"
       refY="0"
       id="Arrow2Lstart-05-2">
      <path
         d="m8.7186 4.0337l-10.926-4.0177 10.926-4.0177c-1.7455 2.3721-1.7355 5.6174 0 8.0354z"
         transform="matrix(1.1,0,0,1.1,-5.5,0)"
         sodipodi:nodetypes="cccc"
         style="stroke-linejoin:round;stroke-width:.625;fill-rule:evenodd"
         id="path2615-66-9" />
    </marker>
    <marker
       inkscape:stockid="Arrow1Mstart"
       orient="auto"
       style="overflow:visible"
       refX="0"
       refY="0"
       id="Arrow1Mstart-4-7">
      <path
         d="m0 0l5-5-17.5 5 17.5 5-5-5z"
         transform="scale(.4)"
         sodipodi:nodetypes="ccccc"
         style="stroke:#000000;stroke-width:1pt;fill-rule:evenodd"
         id="path2629-0-5" />
    </marker>
    <marker
       inkscape:stockid="Arrow2Lstart"
       orient="auto"
       style="overflow:visible"
       refX="0"
       refY="0"
       id="Arrow2Lstart-9-6">
      <path
         d="m8.7186 4.0337l-10.926-4.0177 10.926-4.0177c-1.7455 2.3721-1.7355 5.6174 0 8.0354z"
         transform="matrix(1.1,0,0,1.1,-5.5,0)"
         sodipodi:nodetypes="cccc"
         style="stroke-linejoin:round;stroke-width:.625;fill-rule:evenodd"
         id="path2615-60-4" />
    </marker>
    <marker
       inkscape:stockid="Arrow1Mstart"
       orient="auto"
       style="overflow:visible"
       refX="0"
       refY="0"
       id="Arrow1Mstart-2-6">
      <path
         d="m0 0l5-5-17.5 5 17.5 5-5-5z"
         transform="scale(.4)"
         sodipodi:nodetypes="ccccc"
         style="stroke:#000000;stroke-width:1pt;fill-rule:evenodd"
         id="path2629-76-3" />
    </marker>
    <marker
       inkscape:stockid="Arrow2Lstart"
       orient="auto"
       style="overflow:visible"
       refX="0"
       refY="0"
       id="Arrow2Lstart-58-7">
      <path
         d="m8.7186 4.0337l-10.926-4.0177 10.926-4.0177c-1.7455 2.3721-1.7355 5.6174 0 8.0354z"
         transform="matrix(1.1,0,0,1.1,-5.5,0)"
         sodipodi:nodetypes="cccc"
         style="stroke-linejoin:round;stroke-width:.625;fill-rule:evenodd"
         id="path2615-70-9" />
    </marker>
    <marker
       inkscape:stockid="Arrow1Mstart"
       orient="auto"
       style="overflow:visible"
       refX="0"
       refY="0"
       id="Arrow1Mstart-48-7">
      <path
         d="m0 0l5-5-17.5 5 17.5 5-5-5z"
         transform="scale(.4)"
         sodipodi:nodetypes="ccccc"
         style="stroke:#000000;stroke-width:1pt;fill-rule:evenodd"
         id="path2629-04-4" />
    </marker>
    <marker
       inkscape:stockid="Arrow2Lstart"
       orient="auto"
       style="overflow:visible"
       refX="0"
       refY="0"
       id="Arrow2Lstart-90-7">
      <path
         d="m8.7186 4.0337l-10.926-4.0177 10.926-4.0177c-1.7455 2.3721-1.7355 5.6174 0 8.0354z"
         transform="matrix(1.1,0,0,1.1,-5.5,0)"
         sodipodi:nodetypes="cccc"
         style="stroke-linejoin:round;stroke-width:.625;fill-rule:evenodd"
         id="path2615-2-0" />
    </marker>
    <marker
       inkscape:stockid="Arrow1Mstart"
       orient="auto"
       style="overflow:visible"
       refX="0"
       refY="0"
       id="Arrow1Mstart-83-6">
      <path
         d="m0 0l5-5-17.5 5 17.5 5-5-5z"
         transform="scale(.4)"
         sodipodi:nodetypes="ccccc"
         style="stroke:#000000;stroke-width:1pt;fill-rule:evenodd"
         id="path2629-80-0" />
    </marker>
    <marker
       inkscape:stockid="Arrow2Lstart"
       orient="auto"
       style="overflow:visible"
       refX="0"
       refY="0"
       id="Arrow2Lstart-50-8">
      <path
         d="m8.7186 4.0337l-10.926-4.0177 10.926-4.0177c-1.7455 2.3721-1.7355 5.6174 0 8.0354z"
         transform="matrix(1.1,0,0,1.1,-5.5,0)"
         sodipodi:nodetypes="cccc"
         style="stroke-linejoin:round;stroke-width:.625;fill-rule:evenodd"
         id="path2615-29-5" />
    </marker>
    <marker
       inkscape:stockid="Arrow1Mstart"
       orient="auto"
       style="overflow:visible"
       refX="0"
       refY="0"
       id="Arrow1Mstart-43-3">
      <path
         d="m0 0l5-5-17.5 5 17.5 5-5-5z"
         transform="scale(.4)"
         sodipodi:nodetypes="ccccc"
         style="stroke:#000000;stroke-width:1pt;fill-rule:evenodd"
         id="path2629-51-9" />
    </marker>
    <marker
       inkscape:stockid="Arrow2Lstart"
       orient="auto"
       style="overflow:visible"
       refX="0"
       refY="0"
       id="Arrow2Lstart-92-4">
      <path
         d="m8.7186 4.0337l-10.926-4.0177 10.926-4.0177c-1.7455 2.3721-1.7355 5.6174 0 8.0354z"
         transform="matrix(1.1,0,0,1.1,-5.5,0)"
         sodipodi:nodetypes="cccc"
         style="stroke-linejoin:round;stroke-width:.625;fill-rule:evenodd"
         id="path2615-8-1" />
    </marker>
    <marker
       inkscape:stockid="Arrow1Mstart"
       orient="auto"
       style="overflow:visible"
       refX="0"
       refY="0"
       id="Arrow1Mstart-88-5">
      <path
         d="m0 0l5-5-17.5 5 17.5 5-5-5z"
         transform="scale(.4)"
         sodipodi:nodetypes="ccccc"
         style="stroke:#000000;stroke-width:1pt;fill-rule:evenodd"
         id="path2629-68-4" />
    </marker>
    <marker
       inkscape:stockid="Arrow2Lstart"
       orient="auto"
       style="overflow:visible"
       refX="0"
       refY="0"
       id="Arrow2Lstart-903-1">
      <path
         d="m8.7186 4.0337l-10.926-4.0177 10.926-4.0177c-1.7455 2.3721-1.7355 5.6174 0 8.0354z"
         transform="matrix(1.1,0,0,1.1,-5.5,0)"
         sodipodi:nodetypes="cccc"
         style="stroke-linejoin:round;stroke-width:.625;fill-rule:evenodd"
         id="path2615-33-5" />
    </marker>
    <marker
       inkscape:stockid="Arrow1Mstart"
       orient="auto"
       style="overflow:visible"
       refX="0"
       refY="0"
       id="Arrow1Mstart-73-5">
      <path
         d="m0 0l5-5-17.5 5 17.5 5-5-5z"
         transform="scale(.4)"
         sodipodi:nodetypes="ccccc"
         style="stroke:#000000;stroke-width:1pt;fill-rule:evenodd"
         id="path2629-26-4" />
    </marker>
    <marker
       inkscape:stockid="Arrow2Lstart"
       orient="auto"
       style="overflow:visible"
       refX="0"
       refY="0"
       id="Arrow2Lstart-086-9">
      <path
         d="m8.7186 4.0337l-10.926-4.0177 10.926-4.0177c-1.7455 2.3721-1.7355 5.6174 0 8.0354z"
         transform="matrix(1.1,0,0,1.1,-5.5,0)"
         sodipodi:nodetypes="cccc"
         style="stroke-linejoin:round;stroke-width:.625;fill-rule:evenodd"
         id="path2615-24-8" />
    </marker>
    <marker
       inkscape:stockid="Arrow1Mstart"
       orient="auto"
       style="overflow:visible"
       refX="0"
       refY="0"
       id="Arrow1Mstart-79-3">
      <path
         d="m0 0l5-5-17.5 5 17.5 5-5-5z"
         transform="scale(.4)"
         sodipodi:nodetypes="ccccc"
         style="stroke:#000000;stroke-width:1pt;fill-rule:evenodd"
         id="path2629-3-8" />
    </marker>
    <marker
       inkscape:stockid="Arrow2Lstart"
       orient="auto"
       style="overflow:visible"
       refX="0"
       refY="0"
       id="Arrow2Lstart-49-5">
      <path
         d="m8.7186 4.0337l-10.926-4.0177 10.926-4.0177c-1.7455 2.3721-1.7355 5.6174 0 8.0354z"
         transform="matrix(1.1,0,0,1.1,-5.5,0)"
         sodipodi:nodetypes="cccc"
         style="stroke-linejoin:round;stroke-width:.625;fill-rule:evenodd"
         id="path2615-9-2" />
    </marker>
    <marker
       inkscape:stockid="Arrow1Mstart"
       orient="auto"
       style="overflow:visible"
       refX="0"
       refY="0"
       id="Arrow1Mstart-45-2">
      <path
         d="m0 0l5-5-17.5 5 17.5 5-5-5z"
         transform="scale(.4)"
         sodipodi:nodetypes="ccccc"
         style="stroke:#000000;stroke-width:1pt;fill-rule:evenodd"
         id="path2629-93-2" />
    </marker>
    <marker
       inkscape:stockid="Arrow2Lstart"
       orient="auto"
       style="overflow:visible"
       refX="0"
       refY="0"
       id="Arrow2Lstart-2-7">
      <path
         d="m8.7186 4.0337l-10.926-4.0177 10.926-4.0177c-1.7455 2.3721-1.7355 5.6174 0 8.0354z"
         transform="matrix(1.1,0,0,1.1,-5.5,0)"
         sodipodi:nodetypes="cccc"
         style="stroke-linejoin:round;stroke-width:.625;fill-rule:evenodd"
         id="path2615-01-0" />
    </marker>
    <marker
       inkscape:stockid="Arrow1Mstart"
       orient="auto"
       style="overflow:visible"
       refX="0"
       refY="0"
       id="Arrow1Mstart-9-3">
      <path
         d="m0 0l5-5-17.5 5 17.5 5-5-5z"
         transform="scale(.4)"
         sodipodi:nodetypes="ccccc"
         style="stroke:#000000;stroke-width:1pt;fill-rule:evenodd"
         id="path2629-62-4" />
    </marker>
    <marker
       inkscape:stockid="Arrow2Lstart"
       orient="auto"
       style="overflow:visible"
       refX="0"
       refY="0"
       id="Arrow2Lstart-06-6">
      <path
         d="m8.7186 4.0337l-10.926-4.0177 10.926-4.0177c-1.7455 2.3721-1.7355 5.6174 0 8.0354z"
         transform="matrix(1.1,0,0,1.1,-5.5,0)"
         sodipodi:nodetypes="cccc"
         style="stroke-linejoin:round;stroke-width:.625;fill-rule:evenodd"
         id="path2615-47-3" />
    </marker>
    <marker
       inkscape:stockid="Arrow1Mstart"
       orient="auto"
       style="overflow:visible"
       refX="0"
       refY="0"
       id="Arrow1Mstart-485-6">
      <path
         d="m0 0l5-5-17.5 5 17.5 5-5-5z"
         transform="scale(.4)"
         sodipodi:nodetypes="ccccc"
         style="stroke:#000000;stroke-width:1pt;fill-rule:evenodd"
         id="path2629-82-3" />
    </marker>
    <marker
       inkscape:stockid="Arrow2Lstart"
       orient="auto"
       style="overflow:visible"
       refX="0"
       refY="0"
       id="Arrow2Lstart-01-3">
      <path
         d="m8.7186 4.0337l-10.926-4.0177 10.926-4.0177c-1.7455 2.3721-1.7355 5.6174 0 8.0354z"
         transform="matrix(1.1,0,0,1.1,-5.5,0)"
         sodipodi:nodetypes="cccc"
         style="stroke-linejoin:round;stroke-width:.625;fill-rule:evenodd"
         id="path2615-37-4" />
    </marker>
    <marker
       inkscape:stockid="Arrow1Mstart"
       orient="auto"
       style="overflow:visible"
       refX="0"
       refY="0"
       id="Arrow1Mstart-72-4">
      <path
         d="m0 0l5-5-17.5 5 17.5 5-5-5z"
         transform="scale(.4)"
         sodipodi:nodetypes="ccccc"
         style="stroke:#000000;stroke-width:1pt;fill-rule:evenodd"
         id="path2629-64-3" />
    </marker>
    <marker
       inkscape:stockid="Arrow2Lstart"
       orient="auto"
       style="overflow:visible"
       refX="0"
       refY="0"
       id="Arrow2Lstart-86-9">
      <path
         d="m8.7186 4.0337l-10.926-4.0177 10.926-4.0177c-1.7455 2.3721-1.7355 5.6174 0 8.0354z"
         transform="matrix(1.1,0,0,1.1,-5.5,0)"
         sodipodi:nodetypes="cccc"
         style="stroke-linejoin:round;stroke-width:.625;fill-rule:evenodd"
         id="path2615-04-7" />
    </marker>
    <marker
       inkscape:stockid="Arrow1Mstart"
       orient="auto"
       style="overflow:visible"
       refX="0"
       refY="0"
       id="Arrow1Mstart-67-2">
      <path
         d="m0 0l5-5-17.5 5 17.5 5-5-5z"
         transform="scale(.4)"
         sodipodi:nodetypes="ccccc"
         style="stroke:#000000;stroke-width:1pt;fill-rule:evenodd"
         id="path2629-60-5" />
    </marker>
    <clipPath
       clipPathUnits="userSpaceOnUse"
       id="clipPath4554-8">
      <path
         d="M 0,600 H 600 V 0 H 0 Z"
         id="path4552-9"
         inkscape:connector-curvature="0" />
    </clipPath>
    <inkscape:path-effect
       is_visible="true"
       id="path-effect4248"
       effect="spiro" />
    <inkscape:path-effect
       fuse_tolerance="0"
       vertical_pattern="false"
       prop_units="false"
       tang_offset="0"
       normal_offset="0"
       spacing="0"
       scale_y_rel="false"
       prop_scale="1"
       copytype="single_stretched"
       pattern="M 0,5 C 0,2.24 2.24,0 5,0 7.76,0 10,2.24 10,5 10,7.76 7.76,10 5,10 2.24,10 0,7.76 0,5 Z"
       is_visible="true"
       id="path-effect4250"
       effect="skeletal" />
    <inkscape:path-effect
       is_visible="true"
       id="path-effect4254"
       effect="spiro" />
    <inkscape:path-effect
       fuse_tolerance="0"
       vertical_pattern="false"
       prop_units="false"
       tang_offset="0"
       normal_offset="0"
       spacing="0"
       scale_y_rel="false"
       prop_scale="1"
       copytype="single_stretched"
       pattern="M 0,5 C 0,2.24 2.24,0 5,0 7.76,0 10,2.24 10,5 10,7.76 7.76,10 5,10 2.24,10 0,7.76 0,5 Z"
       is_visible="true"
       id="path-effect4256"
       effect="skeletal" />
    <inkscape:path-effect
       is_visible="true"
       id="path-effect4300"
       effect="spiro" />
    <inkscape:path-effect
       fuse_tolerance="0"
       vertical_pattern="false"
       prop_units="false"
       tang_offset="0"
       normal_offset="0"
       spacing="0"
       scale_y_rel="false"
       prop_scale="1"
       copytype="single_stretched"
       pattern="M 0,5 C 0,2.24 2.24,0 5,0 7.76,0 10,2.24 10,5 10,7.76 7.76,10 5,10 2.24,10 0,7.76 0,5 Z"
       is_visible="true"
       id="path-effect4302"
       effect="skeletal" />
    <inkscape:path-effect
       is_visible="true"
       id="path-effect4224"
       effect="spiro" />
    <inkscape:path-effect
       fuse_tolerance="0"
       vertical_pattern="false"
       prop_units="false"
       tang_offset="0"
       normal_offset="0"
       spacing="0"
       scale_y_rel="false"
       prop_scale="1"
       copytype="single_stretched"
       pattern="M 0,5 C 0,2.24 2.24,0 5,0 7.76,0 10,2.24 10,5 10,7.76 7.76,10 5,10 2.24,10 0,7.76 0,5 Z"
       is_visible="true"
       id="path-effect4226"
       effect="skeletal" />
    <inkscape:path-effect
       is_visible="true"
       id="path-effect5035"
       effect="spiro" />
    <inkscape:path-effect
       fuse_tolerance="0"
       vertical_pattern="false"
       prop_units="false"
       tang_offset="0"
       normal_offset="0"
       spacing="0"
       scale_y_rel="false"
       prop_scale="1"
       copytype="single_stretched"
       pattern="m 1.4613957,16.457685 c 0,-2.76 2.24,-5 5,-5 2.76,0 5.0000003,2.24 5.0000003,5 0,2.76 -2.2400003,5.000001 -5.0000003,5.000001 -2.76,0 -5,-2.240001 -5,-5.000001 z"
       is_visible="true"
       id="path-effect5037"
       effect="skeletal" />
    <inkscape:path-effect
       is_visible="true"
       id="path-effect5041"
       effect="spiro" />
    <inkscape:path-effect
       fuse_tolerance="0"
       vertical_pattern="false"
       prop_units="false"
       tang_offset="0"
       normal_offset="0"
       spacing="0"
       scale_y_rel="false"
       prop_scale="1"
       copytype="single_stretched"
       pattern="m 0,15 c 0,-2.76 2.24,-5 5,-5 2.76,0 5,2.24 5,5 0,2.76 -2.24,5 -5,5 -2.76,0 -5,-2.24 -5,-5 z"
       is_visible="true"
       id="path-effect5043"
       effect="skeletal" />
  </defs>
  <sodipodi:namedview
     id="base"
     pagecolor="#ffffff"
     bordercolor="#666666"
     borderopacity="1.0"
     inkscape:pageopacity="0.0"
     inkscape:pageshadow="2"
     inkscape:zoom="1.979899"
     inkscape:cx="42.730708"
     inkscape:cy="107.01368"
     inkscape:document-units="mm"
     inkscape:current-layer="layer1-0"
     showgrid="false"
     inkscape:window-width="1853"
     inkscape:window-height="1025"
     inkscape:window-x="67"
     inkscape:window-y="27"
     inkscape:window-maximized="1" />
  <metadata
     id="metadata5">
    <rdf:RDF>
      <cc:Work
         rdf:about="">
        <dc:format>image/svg+xml</dc:format>
        <dc:type
           rdf:resource="http://purl.org/dc/dcmitype/StillImage" />
        <dc:title></dc:title>
      </cc:Work>
    </rdf:RDF>
  </metadata>
  <g
     inkscape:label="Layer 1"
     inkscape:groupmode="layer"
     id="layer1"
     transform="translate(0,-246)">
    <g
       transform="matrix(1.9999999,0,0,1.9999999,-7.4294577,-322.09765)"
       id="layer1-4"
       inkscape:label="Layer 1">
      <g
         transform="matrix(0.21647508,0,0,0.21647508,1.3740558,248.01453)"
         id="layer1-37"
         inkscape:label="Layer 1">
        <g
           transform="matrix(0.25864891,0,0,0.25864891,-68.829959,167.07892)"
           id="layer1-7">
          <g
             transform="matrix(0.5974787,0,0,0.5974787,517.48685,-124.83014)"
             id="layer1-8">
            <g
               transform="matrix(0.7312917,0,0,0.7312917,-349.41525,292.13304)"
               inkscape:label="Ebene 1"
               id="layer1-0">
              <path
                 d="m 430.76102,906.04136 c -0.2037,-0.9732 -0.6438,-3.6515 -0.9779,-5.9517 -0.3342,-2.3003 -2.3578,-14.7507 -4.4968,-27.6675 -2.1391,-12.9169 -4.3142,-26.0911 -4.8336,-29.2761 -0.5193,-3.1849 -1.8338,-11.0026 -2.9209,-17.3726 -1.0872,-6.3699 -2.2572,-13.4637 -2.6001,-15.764 -0.8605,-5.7723 -2.8383,-17.7818 -4.8216,-29.2761 -0.9159,-5.3082 -1.9294,-11.3919 -2.2522,-13.5191 -0.3228,-2.1272 -1.1895,-7.4837 -1.9261,-11.9034 -0.7365,-4.4197 -1.7626,-10.7723 -2.2801,-14.1169 -0.5175,-3.3448 -1.9236,-11.886 -3.1247,-18.9811 -1.201,-7.0951 -2.8405,-16.8804 -3.6432,-21.7454 -1.7801,-10.7877 -1.0435,-10.0967 -13.4683,-12.6299 -8.5737,-1.748 -15.1225,-3.1404 -27.3457,-5.8151 -1.4156,-0.3097 -5.4692,-1.1629 -9.0081,-1.8958 -3.5388,-0.733 -9.764,-2.045 -13.8337,-2.9157 -4.0697,-0.8706 -12.3217,-2.6364 -18.3378,-3.9239 -6.016,-1.2876 -20.4932,-4.3601 -32.1714,-6.8281 -11.6783,-2.4679 -22.9705,-4.8925 -25.0938,-5.3882 -2.1233,-0.4955 -9.5067,-2.0842 -16.4075,-3.5303 -6.9007,-1.4461 -13.705,-2.8926 -15.1205,-3.2145 -1.4156,-0.3218 -6.3378,-1.348 -10.9384,-2.2803 -10.5953,-2.059 -13.8337,-3.2171 -13.8337,-4.7614 0,-1.0295 1.5421,-10.3592 3.1868,-19.3029 0.4534,-2.467 3.2669,-18.4368 5.1576,-29.276 0.3086,-1.7695 0.7183,-3.6515 0.9103,-4.1823 0.192,-0.5308 0.7909,-3.8606 1.3306,-7.3995 0.5398,-3.5388 1.5451,-9.4745 2.234,-13.1903 2.938,-15.8489 6.3902,-35.0521 8.4443,-46.9703 0.7014,-4.0697 1.7023,-9.7158 2.2244,-12.5469 0.522,-2.8311 1.5408,-8.622 2.2639,-12.8686 0.7232,-4.2467 2.0167,-11.4852 2.8746,-16.0858 0.8578,-4.6005 2.1627,-11.8391 2.8996,-16.0857 0.7369,-4.2466 1.7702,-9.8927 2.2961,-12.5469 0.5259,-2.6541 1.2068,-6.4182 1.513,-8.3646 0.3062,-1.9463 1.4652,-8.4611 2.5755,-14.4771 1.1104,-6.0161 2.4312,-13.2547 2.9353,-16.0858 0.5041,-2.8311 1.5062,-8.3324 2.2267,-12.2251 0.7207,-3.8928 2.186,-12.1448 3.2564,-18.3378 2.8638,-16.5702 3.146,-18.1672 4.8887,-27.6675 2.1934,-11.9575 3.3611,-18.5192 3.8362,-21.5549 0.2215,-1.4155 1.1026,-6.3378 1.9579,-10.9383 0.8554,-4.6005 1.8633,-10.1018 2.2399,-12.2251 0.3766,-2.1234 0.9353,-5.1636 1.2415,-6.7561 0.6112,-3.1779 2.3696,-13.2681 4.4851,-25.7371 0.7506,-4.4236 1.7647,-9.9249 2.2536,-12.2252 0.489,-2.3003 1.3408,-6.7882 1.8928,-9.9732 2.1197,-12.2296 5.3271,-30.3209 8.1561,-46.0052 0.3511,-1.9464 0.8949,-5.1313 1.2084,-7.0777 0.5321,-3.303 2.1445,-12.1969 5.1331,-28.3109 0.6891,-3.7158 2.2993,-12.6917 3.5783,-19.9463 1.2789,-7.2547 3.0596,-17.0992 3.9571,-21.8767 0.8974,-4.7774 2.4446,-13.319 3.438,-18.9811 1.712,-9.7583 4.2643,-24.176298 7.0622,-39.8927 0.6929,-3.8927 1.5712,-8.9597 1.9518,-11.26 0.3805,-2.3003 0.956,-5.3405 1.279,-6.756 0.3229,-1.4156 1.3409,-6.9169 2.2622,-12.2252 0.9213,-5.3083 2.3947,-13.5603 3.2743,-18.337699 0.8796,-4.7775 2.1522,-11.8713 2.8281,-15.7641 1.1537,-6.6453003 3.0741,-17.3661006 4.5523,-25.415401 0.3574,-1.9464 0.9088,-5.1314 1.2252,-7.0778 0.3164,-1.9463 0.9864,-5.7104 1.4888,-8.3646 0.5025,-2.6541 1.2743,-6.9972 1.7152,-9.6514 0.4409,-2.6541 1.229,-6.9973 1.7515,-9.6514 0.5225,-2.6542 1.1997,-6.4183 1.5049,-8.3646 0.3053,-1.9464 1.434,-8.3164 2.5082,-14.1555 2.3546,-12.798404 2.9084,-15.877904 4.2815,-23.806902 0.5823,-3.3619 1.4594,-7.939898 1.949,-10.173898 0.4826,-2.2417 0.8815,-5.0323 0.8815,-6.2097 0,-2.7262 1.8219,-5.1052 3.4355,-4.486 1.0289,0.3948 18.0894,19.646498 51.2563,57.8398 5.4852,6.3166 14.4611,16.5953 19.9463,22.8411 5.4852,6.2462 14.4611,16.5355 19.9463,22.8656004 5.4853,6.3298 12.2992,14.1303003 15.1425,17.3340003 2.8433,3.2040003 6.0282,6.8679003 7.0777,8.1426003 1.0495,1.2742 4.8362,5.6174 8.4148,9.6514 10.4178,11.743299 22.0632,25.045499 27.2731,31.154299 5.6795,6.6588 6.9316,8.0956 14.8889,17.0869 6.5334,7.382004 15.266,17.363602 27.0331,30.8975 4.1241,4.7435 12.6659,14.5177 18.9812,21.7202 6.3155,7.2026 12.7856,14.6348 14.378,16.5162 3.6101,4.2648 17.704,20.4785 18.8139,21.6437 0.4515,0.474 4.7222,5.3497 9.4906,10.8347 4.7682,5.4853 8.8195,10.118 9.0029,10.2949 0.3478,0.3356 8.5023,9.663 10.4062,11.9035 1.228,1.4448 12.5166,14.2365 15.5961,17.6717 1.0991,1.2264 2.7222,3.1294 3.6069,4.2289 0.8847,1.0995 3.3889,4.0049 5.5648,6.4568 2.1759,2.4516 10.3785,11.841 18.2283,20.8651 7.8499,9.0241 16.0819,18.4343 18.2934,20.9115 2.2118,2.4772 6.8776,7.8337 10.3682,11.9034 3.4906,4.0697 11.2851,13.0224 17.3211,19.8955 6.0361,6.8731 13.0018,14.8452 15.479,17.7162 2.4772,2.8712 5.4039,6.2238 6.5038,7.4503 2.9778,3.3203 15.6811,17.8809 18.2683,20.9385 1.2386,1.4639 4.5683,5.2507 7.3994,8.4148 2.8311,3.1643 6.4504,7.3048 8.0429,9.201 1.5925,1.8963 3.5058,4.054 4.2519,4.7948 0.7461,0.7409 3.5432,3.9529 6.2158,7.1376 2.6726,3.185 7.3396,8.5415 10.3708,11.9035 7.0333,7.8003 7.0494,7.169 -0.4894,19.8079 -3.3172,5.5614 -7.1537,12.0727 -8.5255,14.4695 -1.3718,2.3968 -6.8152,11.6622 -12.0965,20.5897 -12.9187,21.838 -14.9803,25.3557 -19.6883,33.6045 -2.222,3.8927 -4.6853,8.0911 -5.474,9.3297 -0.7887,1.2386 -3.5427,5.8713 -6.1201,10.2949 -2.5774,4.4235 -5.3368,9.0562 -6.132,10.2948 -0.7952,1.2386 -1.9817,3.2654 -2.6368,4.504 -0.655,1.2386 -3.4512,6.0161 -6.2139,10.6166 -2.7626,4.6006 -5.2612,8.7989 -5.5525,9.3298 -0.2912,0.5308 -1.4693,2.5576 -2.618,4.504 -1.1487,1.9463 -2.6626,4.5522 -3.3642,5.7908 -3.0668,5.414 -8.4792,14.6625 -9.7905,16.7292 -0.7857,1.2386 -3.1131,5.1475 -5.172,8.6863 -2.0588,3.5389 -4.4372,7.5404 -5.2852,8.8916 -2.1604,3.443 0.3561,6.6916 26.324,33.9821 2.2335,2.3473 5.6535,5.9832 7.6001,8.0802 6.3921,6.8853 17.0181,18.377 25.7688,27.8669 7.4148,8.0416 16.937,18.2773 29.9291,32.1715 1.8199,1.9464 7.4612,8.0268 12.5359,13.512 5.075,5.4853 12.5733,13.5474 16.6629,17.9157 4.0897,4.3683 7.5037,8.1323 7.5861,8.3646 0.7491,2.1026 -3.1501,2.5171 -40.3649,4.2907 -11.5013,0.5482 -25.8338,1.2816 -31.8498,1.6299 -6.0161,0.3482 -19.4798,1.0634 -29.9195,1.5892 -37.6587,1.8968 -57.1835,2.8733 -70.4556,3.5236 -7.4316,0.3641 -15.2492,0.7882 -17.3726,0.9424 -2.1233,0.1542 -10.6648,0.5994 -18.9811,0.9893 -18.6833,0.8759 -21.6663,1.1664 -22.6816,2.2089 -0.4421,0.4539 -2.5411,3.0779 -4.6645,5.8311 -4.4093,5.7173 -7.6902,9.8805 -8.8516,11.2324 -0.4399,0.5119 -2.5941,3.2625 -4.7873,6.1125 -4.159,5.4047 -7.337,9.4424 -12.5256,15.9127 -0.9428,1.1758 -4.8517,6.1612 -8.6863,11.0786 -3.8347,4.9175 -8.6207,10.9981 -10.6353,13.512 -2.0148,2.5141 -5.0375,6.453 -6.7174,8.7532 -1.6796,2.3003 -3.2598,4.3271 -3.5115,4.504 -0.4609,0.324 -4.952,6.0785 -7.3409,9.4063 -0.7078,0.9858 -2.445,3.1409 -3.8606,4.789 -1.4155,1.6481 -4.0214,4.9361 -5.7908,7.3068 -1.7695,2.3707 -4.2306,5.5475 -5.4692,7.0597 -1.2386,1.5123 -3.9892,5.0035 -6.1126,7.7585 -4.3281,5.6151 -4.4751,5.8034 -17.2053,22.0111 -5.0465,6.4254 -12.505,15.9397 -16.5747,21.1424 -16.9061,21.6135 -18.5849,23.1995 -19.5712,18.489 z m 12.489,-36.3538 c 1.0836,-1.1814 13.1472,-17.9581 16.7021,-23.2272 0.5135,-0.7611 2.83,-3.9897 5.1479,-7.1748 2.3178,-3.185 5.6179,-7.8177 7.3331,-10.2949 1.7156,-2.4772 4.3919,-6.2413 5.9475,-8.3646 1.5556,-2.1233 5.0925,-7.0456 7.8601,-10.9383 2.7674,-3.8928 8.3447,-11.7104 12.3938,-17.3726 4.049,-5.6622 7.7945,-10.9152 8.3234,-11.6725 1.3476,-1.9308 10.9808,-15.3599 23.2432,-32.4024 5.7292,-7.9625 11.2318,-15.6354 12.2284,-17.0509 0.9964,-1.4156 3.6808,-5.1796 5.9653,-8.3646 2.2845,-3.185 5.6434,-7.8808 7.4638,-10.4358 4.0958,-5.7467 0.1421,-5.1839 39.5671,-5.6331 17.6943,-0.2016 36.6594,-0.5 42.1446,-0.6632 5.4853,-0.1631 28.0697,-0.4999 50.1876,-0.7483 22.1179,-0.2484 41.662,-0.486 43.4315,-0.5279 1.7694,-0.042 11.9755,-0.1333 22.6809,-0.203 23.6248,-0.1537 22.7935,1.188 8.3645,-13.4978 -6.1045,-6.2135 -12.2573,-12.4851 -13.6728,-13.9367 -29.9736,-30.738 -55.5409,-56.8979 -66.3762,-67.914 -27.9403,-28.4068 -28.2994,-28.8379 -26.0229,-31.2456 0.3179,-0.3362 3.0928,-4.9544 6.1664,-10.2627 3.0735,-5.3083 6.5436,-11.244 7.7108,-13.1903 1.1676,-1.9464 5.6362,-9.6193 9.9301,-17.0509 4.294,-7.4316 8.0737,-13.9464 8.3999,-14.4772 1.0465,-1.7048 9.2436,-15.7183 9.9738,-17.0509 0.3879,-0.7078 1.4501,-2.445 2.3605,-3.8606 0.9105,-1.4155 2.3576,-3.8766 3.2159,-5.4691 0.8583,-1.5925 2.021,-3.6193 2.5839,-4.504 0.5628,-0.8848 4.4052,-7.3995 8.5383,-14.4772 4.1333,-7.0777 7.7823,-13.3029 8.1085,-13.8337 0.3264,-0.5309 2.2422,-3.8606 4.2574,-7.3995 3.9565,-6.9477 11.345,-19.7127 14.7114,-25.4155 1.1489,-1.9463 3.4505,-5.8552 5.1148,-8.6863 1.6643,-2.831 3.9917,-6.7386 5.1721,-8.6843 3.0119,-4.9634 2.3337,-5.3869 -4.8115,-3.004 -4.5891,1.5306 -16.9769,5.2976 -25.7372,7.8267 -4.4236,1.277 -9.9249,2.9095 -12.2251,3.6278 -2.3003,0.7182 -6.0644,1.8462 -8.3646,2.5065 -3.8501,1.1053 -13.1459,3.8529 -49.8658,14.7397 -18.8307,5.5828 -41.388,12.2412 -44.075,13.0095 -1.2386,0.3542 -5.437,1.6095 -9.3297,2.7893 -41.8287,12.6782 -41.5688,12.6177 -44.7892,10.4159 -1.1839,-0.7915 -7.0905,-4.8965 -13.1066,-9.0981 -6.0161,-4.1996 -13.8337,-9.6277 -17.3726,-12.0624 -3.5389,-2.4348 -9.0402,-6.2809 -12.2252,-8.5467 -3.185,-2.2658 -8.9758,-6.3214 -12.8686,-9.0125 -3.8927,-2.691 -8.6702,-6.0351 -10.6166,-7.4316 -1.9463,-1.3964 -5.5656,-3.9228 -8.0428,-5.6143 -4.8611,-3.3194 -33.1174,-23.0946 -43.992,-30.7875 -6.6466,-4.7022 -8.297,-5.4453 -8.6991,-3.9167 -0.3333,1.2666 -2.4556,12.0798 -2.9994,15.2815 -0.6214,3.659 -5.2743,26.654 -7.0301,34.7452 -0.7297,3.3619 -1.8988,9.1528 -2.598,12.8686 -0.6993,3.7158 -1.7017,8.7828 -2.2275,11.26 -0.9203,4.3355 -3.2199,15.9744 -5.1488,26.0589 -0.5076,2.6541 -1.8162,9.1689 -2.908,14.4772 -1.0918,5.3083 -2.2487,11.0991 -2.571,12.8686 -0.3222,1.7694 -1.4707,7.5603 -2.5521,12.8686 -1.0814,5.3083 -2.5588,12.6916 -3.2829,16.4074 -2.2016,11.2974 -1.5545,10.4274 -12.0939,16.2543 -1.8971,1.0489 -5.7547,3.3221 -8.5724,5.0515 -2.8179,1.7294 -5.2575,3.1444 -5.4214,3.1444 -0.3188,0 -9.7531,5.3476 -19.2321,10.901 -7.6111,4.459 -29.7889,17.2671 -38.1232,22.0162 -11.4846,6.545 -19.3885,11.0902 -33.9409,19.5198 -7.7855,4.5096 -16.9062,9.7923 -20.2681,11.7387 -3.3619,1.9467 -7.705,4.415 -9.6514,5.485 -6.1026,3.3549 -6.3385,4.4977 -1.089,5.2773 2.7688,0.4112 10.9647,2.1424 20.0699,4.2391 2.8311,0.652 15.571,3.3926 28.3109,6.0904 12.7399,2.6977 29.2439,6.2155 36.6755,7.8176 7.4316,1.602 19.0133,4.0563 25.7372,5.4541 17.5637,3.6515 19.8742,4.1373 26.9352,5.6639 3.4901,0.7545 12.3211,2.6621 19.6247,4.239 9.1849,1.9831 13.5242,3.1999 14.075,3.9463 1.0387,1.408 1.1802,2.3303 3.0922,20.1587 0.8919,8.3163 2.0399,18.4503 2.5511,22.52 0.5111,4.0697 1.3732,11.8874 1.9157,17.3726 0.5425,5.4852 1.4196,13.5925 1.9492,18.016 4.2556,35.5457 6.5675,55.8034 7.4155,64.9864 0.3433,3.7158 1.0481,9.7963 1.5663,13.5121 0.5181,3.7158 1.2548,9.9409 1.6371,13.8337 0.3823,3.8928 0.9532,8.9598 1.2688,11.26 0.3155,2.3003 0.7753,7.0057 1.0216,10.4558 0.4754,6.6595 0.7425,7.1137 2.8408,4.8257 z m -205.0868,-259.2378 c 4.5439,-3.0242 22.2646,-14.0268 22.6391,-14.0268 0.1638,0 1.543,-0.8226 3.0647,-1.828 1.5218,-1.0054 4.5041,-2.9314 6.6274,-4.28 2.1233,-1.3485 4.874,-3.0974 6.1126,-3.8863 1.2386,-0.7889 6.4503,-4.031 11.5817,-7.2045 39.6372,-24.5147 56.0762,-34.8951 56.7949,-35.8616 0.6652,-0.8949 0.063,-30.1401 -1.7897,-86.8823 -0.865,-26.4951 -1.709,-55.176 -2.5846,-87.8281 -0.1851,-6.9008 -0.4615,-14.8633 -0.6144,-17.6944 -0.1529,-2.8311 -0.4376,-12.9651 -0.6328,-22.52 -0.1952,-9.5549 -0.5009,-20.8471 -0.6794,-25.0938 -0.1784,-4.2466 -0.4662,-12.6434 -0.6396,-18.6594 -0.331,-11.4878 -1.3731,-45.136 -1.9228,-62.091 -0.1779,-5.4852 -0.6091,-20.6863 -0.9583,-33.7801 -0.6396,-23.9786 -1.6662,-58.9767 -2.2368,-76.2464 -0.2884,-8.7275 -0.5771,-18.540398 -1.3063,-44.3966 -0.1647,-5.8392 -0.4807,-17.8552 -0.7023,-26.7024 -0.2216,-8.8471 -0.4928,-17.533399 -0.6027,-19.302899 -0.11,-1.7694 -0.2229,-4.8991 -0.2511,-6.9548 -0.1027,-7.5017003 -1.8835,-1.8062 -3.2809,10.4937 -0.3417,3.008 -0.785,6.482599 -0.9851,7.721199 -0.2,1.2386 -1.2171,7.6085 -2.2601,14.1554 -1.0431,6.5469 -2.1798,13.496 -2.5261,15.4423 -0.3462,1.9464 -1.076,6.4343 -1.6217,9.9732 -0.9662,6.266304 -2.9958,18.775902 -5.4805,33.78 -0.674,4.0697 -1.3449,8.2681 -1.491,9.3298 -0.6795,4.9386 -3.7084,23.913 -3.9544,24.772 -0.2911,1.0168 -3.708,21.9989 -5.1867,31.8498 -0.478,3.185 -1.1886,7.5281 -1.5789,9.6514 -0.7075,3.8485 -1.6567,9.7937 -4.7769,29.9195 -0.9053,5.8392 -1.9329,12.2091 -2.2836,14.1555 -0.3507,1.9464 -1.506,9.0402 -2.5673,15.764 -1.0613,6.7238 -2.3513,14.6863 -2.8665,17.6943 -0.5153,3.0081 -1.6891,10.3914 -2.6086,16.4075 -0.9194,6.0161 -2.0943,12.9651 -2.6107,15.4423 -0.5165,2.4772 -1.2493,6.8204 -1.6284,9.6514 -1.069,7.9844 -5.6214,36.3731 -11.2465,70.1339 -1.2382,7.4316 -2.5087,15.5388 -2.8232,18.016 -0.3145,2.4772 -1.2926,8.7024 -2.1735,13.8338 -0.881,5.1313 -2.3767,14.2519 -3.3239,20.268 -0.9472,6.0161 -2.133,13.1099 -2.6351,15.764 -0.502,2.6542 -1.4786,8.5898 -2.1702,13.1903 -2.0217,13.4484 -3.1254,20.3684 -3.797,23.8069 -0.3456,1.7695 -0.9513,5.3888 -1.346,8.0429 -0.3947,2.6542 -0.9914,6.4182 -1.3261,8.3646 -0.3347,1.9464 -1.0626,6.4343 -1.6175,9.9732 -0.555,3.5388 -1.2837,8.0267 -1.6194,9.9731 -0.3357,1.9464 -1.062,6.5791 -1.6138,10.2949 -0.5518,3.7158 -1.2681,7.9142 -1.5918,9.3297 -0.3237,1.4156 -0.7605,4.1662 -0.9708,6.1126 -0.2102,1.9464 -0.6534,4.9866 -0.9849,6.756 -0.3314,1.7695 -1.9191,11.4691 -3.5283,21.5549 -1.6091,10.0858 -3.5119,21.8123 -4.2283,26.0589 -0.7165,4.2467 -1.5972,9.739 -1.957,12.2059 -0.3599,2.4665 -0.9201,4.981 -1.2447,5.5877 -1.6718,3.1237 1.1756,3.0185 6.0058,-0.2219 z m 131.6521,-83.3885 c 0.389,-0.9732 1.2861,-4.4149 1.9937,-7.6485 0.7075,-3.2333 4.8001,-19.7372 9.0948,-36.6755 4.2945,-16.9383 7.9541,-31.5203 8.1323,-32.405 0.1781,-0.8847 1.054,-4.3593 1.9463,-7.7212 0.8924,-3.3619 1.8355,-7.126 2.0958,-8.3646 0.2603,-1.2386 4.5877,-18.4664 9.6161,-38.284 l 9.1431,-36.0321 -0.6417,-4.504 c -0.8175,-5.7379 -5.7013,-32.8014 -9.1148,-50.5092 -0.307,-1.5925 -1.4457,-7.8177 -2.5304,-13.8338 -2.3194,-12.8641 -7.0455,-38.6418 -7.8447,-42.7881 -0.307,-1.5924 -0.8535,-4.7774 -1.2146,-7.0777 -0.361,-2.3002 -1.3955,-8.0911 -2.2988,-12.8686 -0.9033,-4.7774 -2.2,-11.7265 -2.8814,-15.4423 -1.6302,-8.889 -2.0688,-11.271 -5.1555,-27.9892 -1.4374,-7.7855 -2.8871,-16.0002 -3.2215,-18.2541 -0.3343,-2.2543 -1.1864,-7.032 -1.8934,-10.6166 -0.7071,-3.5848 -1.7092,-8.6895 -2.2271,-11.3436 -0.9898,-5.0729 -5.8257,-31.4889 -6.7728,-36.9973 -0.7054,-4.1018 -4.7536,-26.229996 -6.4152,-35.0669 -0.6987,-3.7158 -1.8743,-10.2305 -2.6124,-14.4772 -0.738,-4.2466 -1.9141,-10.5741 -2.6134,-14.0608 -0.6993,-3.4868 -1.6856,-8.9881 -2.1917,-12.2252 -2.4372,-15.588399 -3.6334,-22.3661993 -4.7297,-26.7968993 l -1.1938,-4.82569999 -0.3056,3.21709999 c -0.1681,1.7695 -0.071,6.1004 0.2149,9.6244003 0.2863,3.5239 0.9593,16.4088 1.4956,28.632699 0.5364,12.2238 1.2599,28.3057 1.6078,35.7373 0.348,7.431704 0.7948,18.434302 0.9929,24.4504 0.1981,6.016 0.4921,13.1575 0.6534,15.8702 0.3766,6.3341 1.5608,34.4196 1.664,39.4647 0.043,2.1233 0.3232,6.756 0.6218,10.2949 0.2985,3.5389 0.7086,12.8043 0.9113,20.5898 0.2026,7.7855 0.6509,19.9463 0.9961,27.024 1.0682,21.8991 1.1921,24.7643 1.5571,36.0321 0.1949,6.016 0.5372,14.268 0.7607,18.3377 0.2235,4.0697 0.4776,8.7024 0.5647,10.2949 0.087,1.5925 0.3544,9.2654 0.594,17.0509 0.2396,7.7855 0.5445,14.5898 0.6776,15.1206 0.133,0.5308 0.4363,7.9142 0.6739,16.4074 0.2377,8.4933 0.5452,15.6315 0.6834,15.8625 0.1382,0.2311 0.5446,8.1934 0.9031,17.6943 0.3585,9.5009 0.9442,24.0785 1.3015,32.3948 0.3573,8.3163 0.797,18.7399 0.9769,23.1635 0.1799,4.4235 0.6172,14.268 0.9718,21.8766 1.4345,30.7829 2.5917,59.6974 2.968,74.1553 0.3934,15.1205 0.6712,16.9543 2.047,13.512 z m 186.6847,-86.9274 c 0,-0.3171 -0.9874,-2.7059 -2.1944,-5.3083 -1.2069,-2.6024 -3.2634,-7.3377 -4.5699,-10.5226 -1.3066,-3.185 -2.7472,-6.6595 -3.2015,-7.7212 -0.4542,-1.0616 -2.9137,-6.9973 -5.4656,-13.1903 -2.5518,-6.193 -5.1548,-12.4182 -5.7844,-13.8337 -0.6295,-1.4156 -1.7295,-4.0215 -2.4444,-5.7909 -3.1423,-7.7771 -7.9792,-19.4637 -8.7886,-21.2332 -0.4855,-1.0616 -3.4036,-8.0107 -6.4845,-15.4423 -3.0811,-7.4316 -8.9372,-21.4745 -13.0134,-31.2063 -4.076,-9.7319 -7.9193,-18.9973 -8.5402,-20.5898 -1.3325,-3.4156 -8.6438,-21.0176 -12.1602,-29.276 -2.4383,-5.7266 -5.8373,-13.8891 -10.9853,-26.3807 -1.4584,-3.5388 -2.8972,-7.0134 -3.1973,-7.7211 -0.3001,-0.7078 -0.9747,-2.3003 -1.4989,-3.5389 -0.5243,-1.2386 -1.6945,-3.9893 -2.6005,-6.1126 -0.906,-2.1233 -3.9715,-9.5066 -6.812,-16.4074 -2.8407,-6.9008 -8.5235,-20.5093 -12.628,-30.2412 -4.1046,-9.7319 -8.1381,-19.4316 -8.9636,-21.5549 -0.8252,-2.1233 -3.1558,-7.7694 -5.1789,-12.5469 -5.5518,-13.1092 -8.1581,-19.3364 -12.4536,-29.7554 -2.1513,-5.2182 -4.4673,-10.7195 -5.1466,-12.225198 -0.6794,-1.5057 -2.8408,-6.6466 -4.803,-11.424098 -1.9624,-4.7774 -4.4772,-10.857804 -5.5886,-13.512004 -1.1113,-2.6541 -3.5676,-8.5898 -5.4584,-13.1903 -7.8267,-19.0429 -11.9942,-29.0644 -12.85,-30.900699 -0.499,-1.0706 -1.8261,-4.2555 -2.9491,-7.0777 -1.1229,-2.8222 -4.36,-10.6327 -7.1935,-17.3566003 -7.1073,-16.8655007 -11.0123,-26.3375007 -12.7328,-30.8846007 -2.1795,-5.7603 -3.3139,-8.1966 -4.6089,-9.8992 -1.5024,-1.975 -1.4823,-1.6653 0.4807,7.4194 1.7359,8.0345 4.2413,20.8665004 5.76,29.5039007 0.4979,2.8311 1.6466,9.2010003 2.5528,14.1554003 0.9062,4.9544 1.9364,10.7453 2.2892,12.8686 0.3528,2.1233 0.9168,5.163499 1.2533,6.755999 0.3365,1.5925 1.2141,6.37 1.9501,10.6166 0.7361,4.2467 1.7438,9.748 2.2395,12.2252 0.4957,2.4772 1.5133,7.9785 2.2613,12.2251 1.8084,10.266004 4.1733,23.444002 6.4665,36.0321 1.0315,5.6622 2.1833,12.1769 2.5593,14.4772 0.3762,2.3002 1.1073,6.0643 1.6248,8.3646 0.5174,2.3002 1.3786,6.7882 1.9138,9.9731 0.8824,5.252 2.1894,12.5797 4.4758,25.0938 0.4526,2.4772 1.5927,8.8471 2.5335,14.1554 2.049,11.5605 2.4591,13.7997 3.83,20.9115 2.1174,10.984 4.858,26.2166 5.8462,32.4932 1.257,7.983 1.242,7.8994 2.5151,14.1555 0.5761,2.8311 1.3568,6.8847 1.7349,9.008 0.3781,2.1233 1.1042,5.8874 1.6136,8.3646 0.5094,2.4772 1.1957,6.0965 1.5251,8.0428 0.3294,1.9464 1.7831,10.0536 3.2304,18.0161 3.7936,20.8715 5.7742,31.9939 6.4165,36.032 0.3095,1.9464 1.0225,5.7105 1.5844,8.3646 0.562,2.6542 1.0219,5.5704 1.0222,6.4806 0,0.9102 0.4511,2.937 1.0018,4.5041 1.0724,3.0518 1.2933,3.2521 12.5887,11.4195 3.7585,2.7179 9.4043,6.8101 12.5468,9.0936 3.1423,2.2836 9.3323,6.7516 13.7559,9.9294 11.0612,7.9458 26.0435,18.7599 29.9195,21.5961 7.6247,5.5791 21.3754,15.5665 28.5554,20.7397 2.6118,1.8818 6.8101,4.9164 9.3298,6.7431 2.5196,1.8271 6.1248,4.433 8.0119,5.7909 1.8868,1.3579 5.5061,4.1135 8.0429,6.1235 4.2613,3.3764 6.8641,4.5778 6.8641,3.1682 z m 45.0401,-17.1989 c 7.6086,-1.9747 20.2037,-5.2791 27.9892,-7.3428 7.7855,-2.064 22.1179,-5.7878 31.8498,-8.2751 9.7319,-2.4874 21.0241,-5.4099 25.0938,-6.4942 4.0697,-1.0845 11.3082,-2.9948 16.0857,-4.2452 4.7775,-1.2504 12.0161,-3.15 16.0857,-4.2215 4.0697,-1.0714 10.367,-2.6897 13.9946,-3.5961 6.8075,-1.701 7.8756,-2.5843 5.7896,-4.7859 -2.0011,-2.1105 -15.3008,-17.3212 -18.1834,-20.7957 -1.763,-2.1233 -5.9581,-7.0777 -9.3233,-11.0027 -3.3587,-3.9313 -7.9914,-9.4069 -10.2948,-12.1736 -2.3003,-2.7642 -6.2091,-7.386 -8.6863,-10.2705 -6.0507,-7.0455 -15.3272,-18.0951 -24.0495,-28.6461 -3.9494,-4.7775 -8.5673,-10.2788 -10.2614,-12.2252 -1.6944,-1.9463 -12.018,-14.2519 -22.9409,-27.3457 -10.9235,-13.0938 -20.896,-24.9863 -22.1623,-26.4283 -1.2658,-1.4418 -3.3149,-3.891 -4.5535,-5.4425 -1.2386,-1.5515 -4.1368,-5.0144 -6.4401,-7.6954 -2.3036,-2.6809 -6.0425,-7.1807 -8.3086,-9.9995 -2.2662,-2.819 -4.4376,-5.4151 -4.8253,-5.769 -0.3877,-0.3539 -2.7156,-3.1045 -5.1732,-6.1126 -2.4575,-3.008 -5.4952,-6.6408 -6.7502,-8.0724 -1.2547,-1.4284 -4.163,-4.8708 -6.4665,-7.644 -6.5218,-7.8595 -8.4623,-10.1784 -11.6621,-13.9309 -3.5981,-4.2201 -16.6044,-19.7996 -21.6714,-25.9598 -2.0149,-2.4494 -4.6971,-5.6344 -5.9605,-7.0777 -1.2611,-1.4349 -6.1061,-7.2515 -10.7645,-12.9136 -7.5668,-9.1947 -17.9839,-21.7094 -28.1308,-33.780098 -1.9367,-2.303498 -7.6439,-9.130298 -12.6884,-15.184902 -19.9849,-23.9614 -34.3913,-41.186 -36.8428,-44.023499 -1.4156,-1.64 -7.7855,-9.3149 -14.1555,-17.056 -6.3699,-7.7405003 -13.0294,-15.7235006 -14.7988,-17.7400006 -4.1124,-4.6861 -10.2145,-12.0367004 -24.2606,-29.2259004 -5.0573,-6.1834 -6.7109,-8.03 -7.1871,-8.03 -0.9635,0 -0.2086,2.2308 2.8095,8.3022 1.7694,3.5594 3.2171,6.6016 3.2171,6.7611 0,0.2566 2.2907,5.5192 4.7861,10.9956 0.4837,1.0616 2.9701,6.8525004 5.5252,12.8686004 2.5552,6.0161003 5.8774,13.6889006 7.3828,17.0509006 1.5052,3.3619 3.8235,8.7185 5.1515,11.9034 1.3281,3.185 3.4931,8.107199 4.8112,10.938299 1.318,2.8311 2.6161,5.8713 2.8846,6.756 0.2685,0.8848 1.3549,3.4907 2.4142,5.7909 1.0592,2.3003 4.5172,10.2421 7.6844,17.6486 3.1672,7.4066 6.4278,14.934704 7.2457,16.729204 0.8181,1.7945 3.0943,7.026898 5.0585,11.627398 6.6061,15.473898 17.8777,41.441398 24.7167,56.943598 4.2095,9.542 18.3319,42.3409 20.914,48.5725 1.7581,4.243 3.5964,8.4411 4.0852,9.3297 0.9088,1.652 11.7683,26.5717 12.3403,28.3174 0.1739,0.5308 1.0027,2.4128 1.8418,4.1822 0.8391,1.7695 3.3009,7.4156 5.4706,12.5469 5.1053,12.0733 5.3005,12.5257 7.2753,16.8502 0.9193,2.0129 1.6715,3.814 1.6715,4.0024 0,0.1883 0.75,2.0159 1.6667,4.0612 2.3305,5.2002 4.6469,10.5201 9.6044,22.0568 2.3571,5.4852 5.7086,13.1581 7.4477,17.0509 1.7392,3.8927 3.1612,7.2662 3.1601,7.4972 0,0.2307 1.1086,2.8366 2.4663,5.7909 1.3576,2.9543 2.84,6.24 3.2942,7.3016 0.4542,1.0617 3.7165,8.5898 7.2495,16.7292 3.533,8.1394 7.5256,17.4048 8.8716,20.5898 3.8467,9.0987 7.6388,17.8384 8.6542,19.9463 1.4819,3.0761 10.033,22.9685 10.7864,25.0937 1.0585,2.9838 1.8271,3.6636 3.6675,3.2439 0.9109,-0.2078 7.8813,-1.9935 15.4899,-3.9682 z"
                 id="path4580"
                 inkscape:connector-curvature="0"
                 style="stroke-width:0.64342976" />
            </g>
          </g>
        </g>
      </g>
    </g>
  </g>
</svg>
