<?xml version="1.0" encoding="UTF-8" standalone="no"?>
<!-- Created with Inkscape (http://www.inkscape.org/) -->

<svg
   xmlns:dc="http://purl.org/dc/elements/1.1/"
   xmlns:cc="http://creativecommons.org/ns#"
   xmlns:rdf="http://www.w3.org/1999/02/22-rdf-syntax-ns#"
   xmlns:svg="http://www.w3.org/2000/svg"
   xmlns="http://www.w3.org/2000/svg"
   xmlns:sodipodi="http://sodipodi.sourceforge.net/DTD/sodipodi-0.dtd"
   xmlns:inkscape="http://www.inkscape.org/namespaces/inkscape"
   width="51mm"
   height="51mm"
   viewBox="0 0 51 51"
   version="1.1"
   id="svg8"
   inkscape:version="0.92.3 (2405546, 2018-03-11)"
   sodipodi:docname="o5.svg">
  <defs
     id="defs2">
    <linearGradient
       id="linearGradient3144"
       y2="539.27"
       gradientUnits="userSpaceOnUse"
       x2="247.31"
       gradientTransform="matrix(1.8854,0,0,1,38.598,128.35)"
       y1="498.13"
       x1="200.38">
      <stop
         id="stop6741"
         offset="0" />
      <stop
         id="stop6743"
         stop-opacity="0"
         offset="1" />
    </linearGradient>
    <linearGradient
       id="linearGradient3144-2"
       y2="539.27"
       gradientUnits="userSpaceOnUse"
       x2="247.31"
       gradientTransform="matrix(1.8854,0,0,1,38.598,128.35)"
       y1="498.13"
       x1="200.38">
      <stop
         id="stop6741-8"
         offset="0" />
      <stop
         id="stop6743-9"
         stop-opacity="0"
         offset="1" />
    </linearGradient>
    <linearGradient
       id="linearGradient4219"
       y2="539.27"
       gradientUnits="userSpaceOnUse"
       x2="247.31"
       gradientTransform="matrix(1.21,0,0,1,169.55,-481.7)"
       y1="498.13"
       x1="200.38">
      <stop
         id="stop6741-2"
         offset="0" />
      <stop
         id="stop6743-2"
         stop-opacity="0"
         offset="1" />
    </linearGradient>
    <marker
       id="Arrow2Lstart"
       refY="0"
       refX="0"
       style="overflow:visible"
       orient="auto"
       inkscape:stockid="Arrow2Lstart">
      <path
         id="path2615"
         style="stroke-linejoin:round;stroke-width:.625;fill-rule:evenodd"
         sodipodi:nodetypes="cccc"
         transform="matrix(1.1,0,0,1.1,-5.5,0)"
         d="m8.7186 4.0337l-10.926-4.0177 10.926-4.0177c-1.7455 2.3721-1.7355 5.6174 0 8.0354z" />
    </marker>
    <marker
       id="Arrow1Mstart"
       refY="0"
       refX="0"
       style="overflow:visible"
       orient="auto"
       inkscape:stockid="Arrow1Mstart">
      <path
         id="path2629"
         style="stroke:#000000;stroke-width:1pt;fill-rule:evenodd"
         sodipodi:nodetypes="ccccc"
         transform="scale(.4)"
         d="m0 0l5-5-17.5 5 17.5 5-5-5z" />
    </marker>
    <marker
       id="Arrow2Lstart-8"
       refY="0"
       refX="0"
       style="overflow:visible"
       orient="auto"
       inkscape:stockid="Arrow2Lstart">
      <path
         id="path2615-7"
         style="stroke-linejoin:round;stroke-width:.625;fill-rule:evenodd"
         sodipodi:nodetypes="cccc"
         transform="matrix(1.1,0,0,1.1,-5.5,0)"
         d="m8.7186 4.0337l-10.926-4.0177 10.926-4.0177c-1.7455 2.3721-1.7355 5.6174 0 8.0354z" />
    </marker>
    <marker
       id="Arrow1Mstart-1"
       refY="0"
       refX="0"
       style="overflow:visible"
       orient="auto"
       inkscape:stockid="Arrow1Mstart">
      <path
         id="path2629-7"
         style="stroke:#000000;stroke-width:1pt;fill-rule:evenodd"
         sodipodi:nodetypes="ccccc"
         transform="scale(.4)"
         d="m0 0l5-5-17.5 5 17.5 5-5-5z" />
    </marker>
    <linearGradient
       id="linearGradient2855"
       y2="539.27"
       gradientUnits="userSpaceOnUse"
       x2="247.31"
       gradientTransform="translate(-160.12,-300.58)"
       y1="498.13"
       x1="200.38">
      <stop
         id="stop6741-26"
         offset="0" />
      <stop
         id="stop6743-6"
         stop-opacity="0"
         offset="1" />
    </linearGradient>
    <marker
       id="Arrow2Lstart-5"
       refY="0"
       refX="0"
       style="overflow:visible"
       orient="auto"
       inkscape:stockid="Arrow2Lstart">
      <path
         id="path2615-6"
         style="stroke-linejoin:round;stroke-width:.625;fill-rule:evenodd"
         sodipodi:nodetypes="cccc"
         transform="matrix(1.1,0,0,1.1,-5.5,0)"
         d="m8.7186 4.0337l-10.926-4.0177 10.926-4.0177c-1.7455 2.3721-1.7355 5.6174 0 8.0354z" />
    </marker>
    <marker
       id="Arrow1Mstart-11"
       refY="0"
       refX="0"
       style="overflow:visible"
       orient="auto"
       inkscape:stockid="Arrow1Mstart">
      <path
         id="path2629-5"
         style="stroke:#000000;stroke-width:1pt;fill-rule:evenodd"
         sodipodi:nodetypes="ccccc"
         transform="scale(.4)"
         d="m0 0l5-5-17.5 5 17.5 5-5-5z" />
    </marker>
    <marker
       id="Arrow2Lstart-4"
       refY="0"
       refX="0"
       style="overflow:visible"
       orient="auto"
       inkscape:stockid="Arrow2Lstart">
      <path
         id="path2615-4"
         style="stroke-linejoin:round;stroke-width:.625;fill-rule:evenodd"
         sodipodi:nodetypes="cccc"
         transform="matrix(1.1,0,0,1.1,-5.5,0)"
         d="m8.7186 4.0337l-10.926-4.0177 10.926-4.0177c-1.7455 2.3721-1.7355 5.6174 0 8.0354z" />
    </marker>
    <marker
       id="Arrow1Mstart-7"
       refY="0"
       refX="0"
       style="overflow:visible"
       orient="auto"
       inkscape:stockid="Arrow1Mstart">
      <path
         id="path2629-6"
         style="stroke:#000000;stroke-width:1pt;fill-rule:evenodd"
         sodipodi:nodetypes="ccccc"
         transform="scale(.4)"
         d="m0 0l5-5-17.5 5 17.5 5-5-5z" />
    </marker>
    <marker
       id="Arrow2Lstart-7"
       refY="0"
       refX="0"
       style="overflow:visible"
       orient="auto"
       inkscape:stockid="Arrow2Lstart">
      <path
         id="path2615-41"
         style="stroke-linejoin:round;stroke-width:.625;fill-rule:evenodd"
         sodipodi:nodetypes="cccc"
         transform="matrix(1.1,0,0,1.1,-5.5,0)"
         d="m8.7186 4.0337l-10.926-4.0177 10.926-4.0177c-1.7455 2.3721-1.7355 5.6174 0 8.0354z" />
    </marker>
    <marker
       id="Arrow1Mstart-8"
       refY="0"
       refX="0"
       style="overflow:visible"
       orient="auto"
       inkscape:stockid="Arrow1Mstart">
      <path
         id="path2629-59"
         style="stroke:#000000;stroke-width:1pt;fill-rule:evenodd"
         sodipodi:nodetypes="ccccc"
         transform="scale(.4)"
         d="m0 0l5-5-17.5 5 17.5 5-5-5z" />
    </marker>
    <marker
       id="Arrow2Lstart-3"
       refY="0"
       refX="0"
       style="overflow:visible"
       orient="auto"
       inkscape:stockid="Arrow2Lstart">
      <path
         id="path2615-3"
         style="stroke-linejoin:round;stroke-width:.625;fill-rule:evenodd"
         sodipodi:nodetypes="cccc"
         transform="matrix(1.1,0,0,1.1,-5.5,0)"
         d="m8.7186 4.0337l-10.926-4.0177 10.926-4.0177c-1.7455 2.3721-1.7355 5.6174 0 8.0354z" />
    </marker>
    <marker
       id="Arrow1Mstart-3"
       refY="0"
       refX="0"
       style="overflow:visible"
       orient="auto"
       inkscape:stockid="Arrow1Mstart">
      <path
         id="path2629-8"
         style="stroke:#000000;stroke-width:1pt;fill-rule:evenodd"
         sodipodi:nodetypes="ccccc"
         transform="scale(.4)"
         d="m0 0l5-5-17.5 5 17.5 5-5-5z" />
    </marker>
    <marker
       id="Arrow2Lstart-43"
       refY="0"
       refX="0"
       style="overflow:visible"
       orient="auto"
       inkscape:stockid="Arrow2Lstart">
      <path
         id="path2615-0"
         style="stroke-linejoin:round;stroke-width:.625;fill-rule:evenodd"
         sodipodi:nodetypes="cccc"
         transform="matrix(1.1,0,0,1.1,-5.5,0)"
         d="m8.7186 4.0337l-10.926-4.0177 10.926-4.0177c-1.7455 2.3721-1.7355 5.6174 0 8.0354z" />
    </marker>
    <marker
       id="Arrow1Mstart-30"
       refY="0"
       refX="0"
       style="overflow:visible"
       orient="auto"
       inkscape:stockid="Arrow1Mstart">
      <path
         id="path2629-9"
         style="stroke:#000000;stroke-width:1pt;fill-rule:evenodd"
         sodipodi:nodetypes="ccccc"
         transform="scale(.4)"
         d="m0 0l5-5-17.5 5 17.5 5-5-5z" />
    </marker>
    <marker
       id="Arrow2Lstart-75"
       refY="0"
       refX="0"
       style="overflow:visible"
       orient="auto"
       inkscape:stockid="Arrow2Lstart">
      <path
         id="path2615-48"
         style="stroke-linejoin:round;stroke-width:.625;fill-rule:evenodd"
         sodipodi:nodetypes="cccc"
         transform="matrix(1.1,0,0,1.1,-5.5,0)"
         d="m8.7186 4.0337l-10.926-4.0177 10.926-4.0177c-1.7455 2.3721-1.7355 5.6174 0 8.0354z" />
    </marker>
    <marker
       id="Arrow1Mstart-12"
       refY="0"
       refX="0"
       style="overflow:visible"
       orient="auto"
       inkscape:stockid="Arrow1Mstart">
      <path
         id="path2629-89"
         style="stroke:#000000;stroke-width:1pt;fill-rule:evenodd"
         sodipodi:nodetypes="ccccc"
         transform="scale(.4)"
         d="m0 0l5-5-17.5 5 17.5 5-5-5z" />
    </marker>
    <marker
       id="Arrow2Lstart-0"
       refY="0"
       refX="0"
       style="overflow:visible"
       orient="auto"
       inkscape:stockid="Arrow2Lstart">
      <path
         id="path2615-64"
         style="stroke-linejoin:round;stroke-width:.625;fill-rule:evenodd"
         sodipodi:nodetypes="cccc"
         transform="matrix(1.1,0,0,1.1,-5.5,0)"
         d="m8.7186 4.0337l-10.926-4.0177 10.926-4.0177c-1.7455 2.3721-1.7355 5.6174 0 8.0354z" />
    </marker>
    <marker
       id="Arrow1Mstart-6"
       refY="0"
       refX="0"
       style="overflow:visible"
       orient="auto"
       inkscape:stockid="Arrow1Mstart">
      <path
         id="path2629-2"
         style="stroke:#000000;stroke-width:1pt;fill-rule:evenodd"
         sodipodi:nodetypes="ccccc"
         transform="scale(.4)"
         d="m0 0l5-5-17.5 5 17.5 5-5-5z" />
    </marker>
    <marker
       id="Arrow2Lstart-08"
       refY="0"
       refX="0"
       style="overflow:visible"
       orient="auto"
       inkscape:stockid="Arrow2Lstart">
      <path
         id="path2615-1"
         style="stroke-linejoin:round;stroke-width:.625;fill-rule:evenodd"
         sodipodi:nodetypes="cccc"
         transform="matrix(1.1,0,0,1.1,-5.5,0)"
         d="m8.7186 4.0337l-10.926-4.0177 10.926-4.0177c-1.7455 2.3721-1.7355 5.6174 0 8.0354z" />
    </marker>
    <marker
       id="Arrow1Mstart-31"
       refY="0"
       refX="0"
       style="overflow:visible"
       orient="auto"
       inkscape:stockid="Arrow1Mstart">
      <path
         id="path2629-1"
         style="stroke:#000000;stroke-width:1pt;fill-rule:evenodd"
         sodipodi:nodetypes="ccccc"
         transform="scale(.4)"
         d="m0 0l5-5-17.5 5 17.5 5-5-5z" />
    </marker>
    <marker
       id="Arrow2Lstart-05"
       refY="0"
       refX="0"
       style="overflow:visible"
       orient="auto"
       inkscape:stockid="Arrow2Lstart">
      <path
         id="path2615-66"
         style="stroke-linejoin:round;stroke-width:.625;fill-rule:evenodd"
         sodipodi:nodetypes="cccc"
         transform="matrix(1.1,0,0,1.1,-5.5,0)"
         d="m8.7186 4.0337l-10.926-4.0177 10.926-4.0177c-1.7455 2.3721-1.7355 5.6174 0 8.0354z" />
    </marker>
    <marker
       id="Arrow1Mstart-4"
       refY="0"
       refX="0"
       style="overflow:visible"
       orient="auto"
       inkscape:stockid="Arrow1Mstart">
      <path
         id="path2629-0"
         style="stroke:#000000;stroke-width:1pt;fill-rule:evenodd"
         sodipodi:nodetypes="ccccc"
         transform="scale(.4)"
         d="m0 0l5-5-17.5 5 17.5 5-5-5z" />
    </marker>
    <marker
       id="Arrow2Lstart-9"
       refY="0"
       refX="0"
       style="overflow:visible"
       orient="auto"
       inkscape:stockid="Arrow2Lstart">
      <path
         id="path2615-60"
         style="stroke-linejoin:round;stroke-width:.625;fill-rule:evenodd"
         sodipodi:nodetypes="cccc"
         transform="matrix(1.1,0,0,1.1,-5.5,0)"
         d="m8.7186 4.0337l-10.926-4.0177 10.926-4.0177c-1.7455 2.3721-1.7355 5.6174 0 8.0354z" />
    </marker>
    <marker
       id="Arrow1Mstart-2"
       refY="0"
       refX="0"
       style="overflow:visible"
       orient="auto"
       inkscape:stockid="Arrow1Mstart">
      <path
         id="path2629-76"
         style="stroke:#000000;stroke-width:1pt;fill-rule:evenodd"
         sodipodi:nodetypes="ccccc"
         transform="scale(.4)"
         d="m0 0l5-5-17.5 5 17.5 5-5-5z" />
    </marker>
    <marker
       id="Arrow2Lstart-58"
       refY="0"
       refX="0"
       style="overflow:visible"
       orient="auto"
       inkscape:stockid="Arrow2Lstart">
      <path
         id="path2615-70"
         style="stroke-linejoin:round;stroke-width:.625;fill-rule:evenodd"
         sodipodi:nodetypes="cccc"
         transform="matrix(1.1,0,0,1.1,-5.5,0)"
         d="m8.7186 4.0337l-10.926-4.0177 10.926-4.0177c-1.7455 2.3721-1.7355 5.6174 0 8.0354z" />
    </marker>
    <marker
       id="Arrow1Mstart-48"
       refY="0"
       refX="0"
       style="overflow:visible"
       orient="auto"
       inkscape:stockid="Arrow1Mstart">
      <path
         id="path2629-04"
         style="stroke:#000000;stroke-width:1pt;fill-rule:evenodd"
         sodipodi:nodetypes="ccccc"
         transform="scale(.4)"
         d="m0 0l5-5-17.5 5 17.5 5-5-5z" />
    </marker>
    <linearGradient
       id="linearGradient4009"
       y2="540.1"
       gradientUnits="userSpaceOnUse"
       x2="306.87"
       gradientTransform="translate(-202.75,-323.7)"
       y1="540.1"
       x1="212.74">
      <stop
         id="stop6741-1"
         offset="0" />
      <stop
         id="stop6743-0"
         stop-opacity="0"
         offset="1" />
    </linearGradient>
    <marker
       id="Arrow2Lstart-90"
       refY="0"
       refX="0"
       style="overflow:visible"
       orient="auto"
       inkscape:stockid="Arrow2Lstart">
      <path
         id="path2615-2"
         style="stroke-linejoin:round;stroke-width:.625;fill-rule:evenodd"
         sodipodi:nodetypes="cccc"
         transform="matrix(1.1,0,0,1.1,-5.5,0)"
         d="m8.7186 4.0337l-10.926-4.0177 10.926-4.0177c-1.7455 2.3721-1.7355 5.6174 0 8.0354z" />
    </marker>
    <marker
       id="Arrow1Mstart-83"
       refY="0"
       refX="0"
       style="overflow:visible"
       orient="auto"
       inkscape:stockid="Arrow1Mstart">
      <path
         id="path2629-80"
         style="stroke:#000000;stroke-width:1pt;fill-rule:evenodd"
         sodipodi:nodetypes="ccccc"
         transform="scale(.4)"
         d="m0 0l5-5-17.5 5 17.5 5-5-5z" />
    </marker>
    <marker
       id="Arrow2Lstart-50"
       refY="0"
       refX="0"
       style="overflow:visible"
       orient="auto"
       inkscape:stockid="Arrow2Lstart">
      <path
         id="path2615-29"
         style="stroke-linejoin:round;stroke-width:.625;fill-rule:evenodd"
         sodipodi:nodetypes="cccc"
         transform="matrix(1.1,0,0,1.1,-5.5,0)"
         d="m8.7186 4.0337l-10.926-4.0177 10.926-4.0177c-1.7455 2.3721-1.7355 5.6174 0 8.0354z" />
    </marker>
    <marker
       id="Arrow1Mstart-43"
       refY="0"
       refX="0"
       style="overflow:visible"
       orient="auto"
       inkscape:stockid="Arrow1Mstart">
      <path
         id="path2629-51"
         style="stroke:#000000;stroke-width:1pt;fill-rule:evenodd"
         sodipodi:nodetypes="ccccc"
         transform="scale(.4)"
         d="m0 0l5-5-17.5 5 17.5 5-5-5z" />
    </marker>
    <marker
       id="Arrow2Lstart-92"
       refY="0"
       refX="0"
       style="overflow:visible"
       orient="auto"
       inkscape:stockid="Arrow2Lstart">
      <path
         id="path2615-8"
         style="stroke-linejoin:round;stroke-width:.625;fill-rule:evenodd"
         sodipodi:nodetypes="cccc"
         transform="matrix(1.1,0,0,1.1,-5.5,0)"
         d="m8.7186 4.0337l-10.926-4.0177 10.926-4.0177c-1.7455 2.3721-1.7355 5.6174 0 8.0354z" />
    </marker>
    <marker
       id="Arrow1Mstart-88"
       refY="0"
       refX="0"
       style="overflow:visible"
       orient="auto"
       inkscape:stockid="Arrow1Mstart">
      <path
         id="path2629-68"
         style="stroke:#000000;stroke-width:1pt;fill-rule:evenodd"
         sodipodi:nodetypes="ccccc"
         transform="scale(.4)"
         d="m0 0l5-5-17.5 5 17.5 5-5-5z" />
    </marker>
    <marker
       id="Arrow2Lstart-903"
       refY="0"
       refX="0"
       style="overflow:visible"
       orient="auto"
       inkscape:stockid="Arrow2Lstart">
      <path
         id="path2615-33"
         style="stroke-linejoin:round;stroke-width:.625;fill-rule:evenodd"
         sodipodi:nodetypes="cccc"
         transform="matrix(1.1,0,0,1.1,-5.5,0)"
         d="m8.7186 4.0337l-10.926-4.0177 10.926-4.0177c-1.7455 2.3721-1.7355 5.6174 0 8.0354z" />
    </marker>
    <marker
       id="Arrow1Mstart-73"
       refY="0"
       refX="0"
       style="overflow:visible"
       orient="auto"
       inkscape:stockid="Arrow1Mstart">
      <path
         id="path2629-26"
         style="stroke:#000000;stroke-width:1pt;fill-rule:evenodd"
         sodipodi:nodetypes="ccccc"
         transform="scale(.4)"
         d="m0 0l5-5-17.5 5 17.5 5-5-5z" />
    </marker>
    <marker
       id="Arrow2Lstart-086"
       refY="0"
       refX="0"
       style="overflow:visible"
       orient="auto"
       inkscape:stockid="Arrow2Lstart">
      <path
         id="path2615-24"
         style="stroke-linejoin:round;stroke-width:.625;fill-rule:evenodd"
         sodipodi:nodetypes="cccc"
         transform="matrix(1.1,0,0,1.1,-5.5,0)"
         d="m8.7186 4.0337l-10.926-4.0177 10.926-4.0177c-1.7455 2.3721-1.7355 5.6174 0 8.0354z" />
    </marker>
    <marker
       id="Arrow1Mstart-79"
       refY="0"
       refX="0"
       style="overflow:visible"
       orient="auto"
       inkscape:stockid="Arrow1Mstart">
      <path
         id="path2629-3"
         style="stroke:#000000;stroke-width:1pt;fill-rule:evenodd"
         sodipodi:nodetypes="ccccc"
         transform="scale(.4)"
         d="m0 0l5-5-17.5 5 17.5 5-5-5z" />
    </marker>
    <marker
       id="Arrow2Lstart-49"
       refY="0"
       refX="0"
       style="overflow:visible"
       orient="auto"
       inkscape:stockid="Arrow2Lstart">
      <path
         id="path2615-9"
         style="stroke-linejoin:round;stroke-width:.625;fill-rule:evenodd"
         sodipodi:nodetypes="cccc"
         transform="matrix(1.1,0,0,1.1,-5.5,0)"
         d="m8.7186 4.0337l-10.926-4.0177 10.926-4.0177c-1.7455 2.3721-1.7355 5.6174 0 8.0354z" />
    </marker>
    <marker
       id="Arrow1Mstart-45"
       refY="0"
       refX="0"
       style="overflow:visible"
       orient="auto"
       inkscape:stockid="Arrow1Mstart">
      <path
         id="path2629-93"
         style="stroke:#000000;stroke-width:1pt;fill-rule:evenodd"
         sodipodi:nodetypes="ccccc"
         transform="scale(.4)"
         d="m0 0l5-5-17.5 5 17.5 5-5-5z" />
    </marker>
    <marker
       id="Arrow2Lstart-2"
       refY="0"
       refX="0"
       style="overflow:visible"
       orient="auto"
       inkscape:stockid="Arrow2Lstart">
      <path
         id="path2615-01"
         style="stroke-linejoin:round;stroke-width:.625;fill-rule:evenodd"
         sodipodi:nodetypes="cccc"
         transform="matrix(1.1,0,0,1.1,-5.5,0)"
         d="m8.7186 4.0337l-10.926-4.0177 10.926-4.0177c-1.7455 2.3721-1.7355 5.6174 0 8.0354z" />
    </marker>
    <marker
       id="Arrow1Mstart-9"
       refY="0"
       refX="0"
       style="overflow:visible"
       orient="auto"
       inkscape:stockid="Arrow1Mstart">
      <path
         id="path2629-62"
         style="stroke:#000000;stroke-width:1pt;fill-rule:evenodd"
         sodipodi:nodetypes="ccccc"
         transform="scale(.4)"
         d="m0 0l5-5-17.5 5 17.5 5-5-5z" />
    </marker>
    <marker
       id="Arrow2Lstart-06"
       refY="0"
       refX="0"
       style="overflow:visible"
       orient="auto"
       inkscape:stockid="Arrow2Lstart">
      <path
         id="path2615-47"
         style="stroke-linejoin:round;stroke-width:.625;fill-rule:evenodd"
         sodipodi:nodetypes="cccc"
         transform="matrix(1.1,0,0,1.1,-5.5,0)"
         d="m8.7186 4.0337l-10.926-4.0177 10.926-4.0177c-1.7455 2.3721-1.7355 5.6174 0 8.0354z" />
    </marker>
    <marker
       id="Arrow1Mstart-485"
       refY="0"
       refX="0"
       style="overflow:visible"
       orient="auto"
       inkscape:stockid="Arrow1Mstart">
      <path
         id="path2629-82"
         style="stroke:#000000;stroke-width:1pt;fill-rule:evenodd"
         sodipodi:nodetypes="ccccc"
         transform="scale(.4)"
         d="m0 0l5-5-17.5 5 17.5 5-5-5z" />
    </marker>
    <marker
       id="Arrow2Lstart-01"
       refY="0"
       refX="0"
       style="overflow:visible"
       orient="auto"
       inkscape:stockid="Arrow2Lstart">
      <path
         id="path2615-37"
         style="stroke-linejoin:round;stroke-width:.625;fill-rule:evenodd"
         sodipodi:nodetypes="cccc"
         transform="matrix(1.1,0,0,1.1,-5.5,0)"
         d="m8.7186 4.0337l-10.926-4.0177 10.926-4.0177c-1.7455 2.3721-1.7355 5.6174 0 8.0354z" />
    </marker>
    <marker
       id="Arrow1Mstart-72"
       refY="0"
       refX="0"
       style="overflow:visible"
       orient="auto"
       inkscape:stockid="Arrow1Mstart">
      <path
         id="path2629-64"
         style="stroke:#000000;stroke-width:1pt;fill-rule:evenodd"
         sodipodi:nodetypes="ccccc"
         transform="scale(.4)"
         d="m0 0l5-5-17.5 5 17.5 5-5-5z" />
    </marker>
    <marker
       id="Arrow2Lstart-86"
       refY="0"
       refX="0"
       style="overflow:visible"
       orient="auto"
       inkscape:stockid="Arrow2Lstart">
      <path
         id="path2615-04"
         style="stroke-linejoin:round;stroke-width:.625;fill-rule:evenodd"
         sodipodi:nodetypes="cccc"
         transform="matrix(1.1,0,0,1.1,-5.5,0)"
         d="m8.7186 4.0337l-10.926-4.0177 10.926-4.0177c-1.7455 2.3721-1.7355 5.6174 0 8.0354z" />
    </marker>
    <marker
       id="Arrow1Mstart-67"
       refY="0"
       refX="0"
       style="overflow:visible"
       orient="auto"
       inkscape:stockid="Arrow1Mstart">
      <path
         id="path2629-60"
         style="stroke:#000000;stroke-width:1pt;fill-rule:evenodd"
         sodipodi:nodetypes="ccccc"
         transform="scale(.4)"
         d="m0 0l5-5-17.5 5 17.5 5-5-5z" />
    </marker>
    <clipPath
       id="clipPath4554"
       clipPathUnits="userSpaceOnUse">
      <path
         inkscape:connector-curvature="0"
         id="path4552"
         d="M 0,600 H 600 V 0 H 0 Z" />
    </clipPath>
  </defs>
  <sodipodi:namedview
     id="base"
     pagecolor="#ffffff"
     bordercolor="#666666"
     borderopacity="1.0"
     inkscape:pageopacity="0.0"
     inkscape:pageshadow="2"
     inkscape:zoom="1.979899"
     inkscape:cx="20.605998"
     inkscape:cy="95.77978"
     inkscape:document-units="mm"
     inkscape:current-layer="layer1-7"
     showgrid="false"
     inkscape:window-width="1853"
     inkscape:window-height="1025"
     inkscape:window-x="67"
     inkscape:window-y="27"
     inkscape:window-maximized="1" />
  <metadata
     id="metadata5">
    <rdf:RDF>
      <cc:Work
         rdf:about="">
        <dc:format>image/svg+xml</dc:format>
        <dc:type
           rdf:resource="http://purl.org/dc/dcmitype/StillImage" />
        <dc:title></dc:title>
      </cc:Work>
    </rdf:RDF>
  </metadata>
  <g
     inkscape:label="Layer 1"
     inkscape:groupmode="layer"
     id="layer1"
     transform="translate(0,-246)">
    <g
       transform="matrix(1.9999999,0,0,1.9999999,-7.4294577,-322.09765)"
       id="layer1-4"
       inkscape:label="Layer 1">
      <g
         transform="matrix(0.21647508,0,0,0.21647508,1.3740558,248.01453)"
         id="layer1-37"
         inkscape:label="Layer 1">
        <g
           transform="matrix(0.25864891,0,0,0.25864891,-68.829959,167.07892)"
           id="layer1-7">
          <g
             transform="matrix(0.83372702,0,0,-0.83372702,290.28662,477.64326)"
             inkscape:label="flower-clipart-publicdomainvectors.org"
             id="g4546">
            <g
               id="g4548">
              <g
                 clip-path="url(#clipPath4554)"
                 id="g4550">
                <path
                   inkscape:connector-curvature="0"
                   id="path4556"
                   style="fill:#000000;fill-opacity:1;fill-rule:nonzero;stroke:none"
                   d="m 160.552,327.433 c 0.983,-1.199 1.989,-2.23 3.029,-3.529 -0.251,-0.017 -0.448,-0.04 -0.653,-0.054 -0.551,0.919 -1.361,2.188 -2.376,3.583 M 408.041,506.45 c 1.659,1.299 3.191,1.764 4.073,1.764 0.371,0 0.605,-0.082 0.668,-0.163 0.264,-0.339 -0.25,-2.319 -2.689,-4.225 -1.659,-1.303 -3.195,-1.764 -4.072,-1.764 -0.378,0 -0.612,0.084 -0.673,0.163 -0.267,0.339 0.247,2.318 2.693,4.225 m 22.131,-25.27 c 0.329,0.849 1.559,2.102 3.587,2.999 1.185,0.532 2.408,0.822 3.439,0.822 1.026,0 1.482,-0.285 1.541,-0.424 0.176,-0.393 -0.805,-2.181 -3.635,-3.443 -1.189,-0.526 -2.417,-0.819 -3.448,-0.819 -1.025,0 -1.481,0.282 -1.54,0.426 -0.04,0.079 -0.016,0.248 0.056,0.439 m 56.376,3.525 c -2.161,-3.539 -9.718,-5.487 -17.719,-7.552 -4.297,-1.109 -8.881,-2.292 -13.162,-3.854 0.192,0.178 0.377,0.346 0.58,0.534 2.839,2.586 6.607,6.046 10.512,9.327 1.962,1.629 3.953,3.222 5.916,4.568 1.946,1.375 3.872,2.505 5.643,3.168 0.869,0.382 1.73,0.523 2.483,0.644 0.765,0.035 1.433,0.01 1.954,-0.203 0.564,-0.085 0.872,-0.441 1.135,-0.574 0.254,-0.167 0.385,-0.254 0.385,-0.254 0,0 -0.126,0.094 -0.365,0.28 -0.252,0.153 -0.549,0.537 -1.111,0.667 -0.527,0.256 -1.209,0.332 -2.011,0.353 -0.784,-0.066 -1.699,-0.156 -2.615,-0.481 -1.877,-0.554 -3.926,-1.576 -5.995,-2.826 -2.091,-1.227 -4.215,-2.693 -6.308,-4.199 -4.171,-3.021 -8.195,-6.22 -11.214,-8.605 -3.011,-2.39 -5.02,-3.988 -5.02,-3.988 -1.704,-1.455 -3.49,-2.978 -5.347,-4.542 -0.011,-0.009 -0.021,-0.014 -0.032,-0.025 l 10e-4,-0.002 c -17.015,-14.335 -39.848,-31.925 -58.795,-28.957 -0.053,1.743 -0.32,3.457 -0.773,5.123 5.018,4.401 11.318,9.923 17.633,15.462 7.009,6.042 14.142,11.956 19.842,15.907 2.388,1.648 4.504,2.919 6.24,3.734 0.787,-0.629 1.884,-1.002 3.251,-1.002 1.428,0 3.074,0.38 4.629,1.069 3.971,1.767 6.167,4.896 5.112,7.275 -1.022,2.32 -5.043,2.763 -8.825,1.084 -2.516,-1.117 -4.43,-2.844 -5.112,-4.613 -0.359,-0.935 -0.359,-1.859 -0.004,-2.661 0.179,-0.402 0.459,-0.739 0.79,-1.035 -1.763,-0.755 -3.91,-1.938 -6.333,-3.475 -5.883,-3.741 -13.261,-9.39 -20.516,-15.164 -6.227,-5.041 -12.449,-10.08 -17.509,-14.177 -0.512,1.297 -1.131,2.559 -1.865,3.76 1.557,1.739 3.384,3.875 5.419,6.351 5.689,6.89 12.869,16.268 20.392,25.34 7.512,9.062 15.46,17.828 22.479,23.165 1.755,1.326 3.426,2.469 4.997,3.319 1.553,0.879 3.001,1.469 4.225,1.865 1.225,0.341 2.227,0.571 2.917,0.574 0.691,0.045 1.06,0.071 1.06,0.071 0,0 -0.369,-0.003 -1.065,-0.005 -0.695,0.039 -1.711,-0.13 -2.983,-0.402 -1.26,-0.323 -2.769,-0.827 -4.4,-1.629 -1.649,-0.766 -3.418,-1.816 -5.278,-3.053 -7.452,-4.981 -16.017,-13.338 -24.129,-21.98 -8.119,-8.652 -15.887,-17.601 -21.905,-24.035 -1.9,-2.045 -3.598,-3.8 -5.074,-5.272 -0.507,0.533 -1.035,1.052 -1.595,1.547 3.665,5.13 7.263,11.956 10.656,18.82 3.873,7.828 7.574,15.732 11.065,21.247 0.888,1.368 1.726,2.606 2.567,3.628 0.523,0.666 1.032,1.211 1.523,1.702 0.061,-0.093 0.092,0.064 0.161,-0.024 0.651,-0.827 1.701,-1.017 2.962,-1.017 h 0.004 c 1.793,0 3.929,0.605 5.866,2.117 3.418,2.677 4.793,6.114 3.185,8.169 -1.563,2.005 -5.534,1.418 -8.822,-1.165 -3.202,-2.502 -4.576,-5.797 -3.437,-7.896 -0.534,-0.479 -1.082,-1.033 -1.646,-1.697 -0.896,-0.996 -1.788,-2.22 -2.744,-3.558 -3.744,-5.407 -7.789,-13.188 -11.974,-20.833 -3.638,-6.658 -7.478,-13.24 -11.186,-18.013 -3.258,2.417 -7.167,4.183 -11.503,5.043 3.16,10.363 7.334,19.591 12.138,27.762 0.206,0.341 0.409,0.685 0.618,1.021 0.202,0.34 0.412,0.545 0.618,0.88 22.187,34.975 55.486,47.086 67.012,47.086 h 0.34 c 4.655,0 6.885,-1.036 8.62,-3.409 0.383,-0.724 0.768,-1.425 1.175,-2.26 2.175,-4.477 4.88,-9.819 12.359,-13.644 8.845,-4.528 19.229,-12.628 21.814,-21.815 1.236,-4.389 0.598,-8.676 -1.906,-12.766 m -37.649,-60.924 c 30.646,-24.282 34.241,-73.441 27.469,-86.842 -3.81,-7.538 -7.207,-7.579 -10.488,-7.625 -2.369,-0.032 -5.051,-0.068 -7.033,-3.094 -1.994,-3.046 -3.922,-4.638 -5.891,-4.861 -0.605,-0.072 -1.254,-0.004 -1.938,0.181 4.674,11.834 -0.338,22.926 -9.67,33.345 l 0.022,0.019 c -0.063,0.082 -0.166,0.163 -0.252,0.246 -8.948,9.913 -21.768,19.218 -33.829,27.97 -16.919,12.277 -32.988,23.945 -34.408,34.32 1.714,0.906 3.299,1.985 4.734,3.224 0.168,-0.096 0.337,-0.189 0.531,-0.294 2.086,-1.142 4.982,-2.523 8.608,-3.819 3.616,-1.297 7.907,-2.446 12.513,-3.371 4.611,-0.942 9.532,-1.634 14.413,-2.351 4.876,-0.715 9.731,-1.433 14.144,-2.575 4.409,-1.119 8.374,-2.781 11.176,-5.085 1.36,-1.173 2.519,-2.394 3.271,-3.669 0.433,-0.605 0.735,-1.229 1.004,-1.814 0.307,-0.569 0.507,-1.129 0.668,-1.642 0.386,-1.004 0.54,-1.836 0.662,-2.4 0.128,-0.565 0.197,-0.867 0.197,-0.867 0,0 -0.049,0.305 -0.13,0.876 -0.084,0.575 -0.172,1.426 -0.489,2.465 -0.128,0.534 -0.29,1.114 -0.557,1.715 -0.23,0.619 -0.495,1.284 -0.892,1.939 -0.685,1.374 -1.788,2.744 -3.133,4.077 -2.761,2.639 -6.802,4.684 -11.247,6.168 -4.46,1.508 -9.329,2.598 -14.147,3.673 -4.827,1.069 -9.629,2.117 -14.016,3.351 -4.388,1.224 -8.37,2.618 -11.628,4.067 -3.048,1.35 -5.473,2.726 -7.113,3.758 1.784,2.535 3.061,5.438 3.658,8.621 0.008,0.055 0.012,0.11 0.022,0.163 4.778,-0.133 9.56,0.665 14.537,1.518 13.44,2.292 28.675,4.9 49.232,-11.387 m -0.516,-100.983 c -1.246,0.802 -2.631,1.925 -4.202,3.436 -1.066,1.014 -2.789,3.187 -4.783,5.701 -6.155,7.758 -15.2,19.165 -23.71,21.603 1.102,1.241 2.871,2.081 5.27,2.506 6.803,1.207 15.919,-1.377 17.875,-2.736 8.788,-9.729 13.584,-19.927 9.55,-30.51 m -68.199,30.588 -0.055,-0.011 c 0.067,-0.349 0.189,-0.722 0.311,-1.091 0.179,-0.746 0.357,-1.502 0.527,-2.235 h 0.002 l 7.773,-27.857 -3.933,22.673 c 1.124,-1.519 2.35,-3.088 3.616,-4.692 4.011,-5.098 8.999,-11.441 8.187,-14.192 -3.994,-13.513 -24.808,-9.628 -40.004,-6.797 -3.56,0.664 -6.633,1.239 -9.176,1.531 -5.438,0.619 -11.032,0.582 -16.447,0.572 -9.417,-0.062 -18.281,-0.087 -21.611,3.706 -1.349,1.529 -1.808,3.71 -1.415,6.669 1.315,9.828 11.181,24.936 20.727,39.544 11.348,17.376 22.092,33.846 21.698,44.747 1.367,-0.477 2.778,-0.882 4.25,-1.157 1.107,-0.21 2.209,-0.328 3.301,-0.407 -0.008,-0.024 -0.016,-0.045 -0.026,-0.069 -0.725,-2.19 -1.409,-5.176 -1.918,-8.768 -1.041,-7.164 -1.378,-16.579 -1.645,-25.955 -0.281,-9.367 -0.498,-18.724 -1.549,-25.634 -0.253,-1.728 -0.58,-3.29 -0.952,-4.654 -0.369,-1.369 -0.818,-2.519 -1.3,-3.41 -0.49,-0.887 -1.026,-1.491 -1.447,-1.831 -0.454,-0.304 -0.698,-0.471 -0.698,-0.471 0,0 0.26,0.145 0.74,0.418 0.45,0.311 1.045,0.889 1.619,1.757 0.562,0.871 1.115,2.009 1.598,3.372 0.485,1.357 0.943,2.922 1.331,4.649 1.607,6.906 2.552,16.296 3.556,25.606 0.986,9.31 2.06,18.607 3.575,25.279 0.733,3.322 1.593,6.004 2.287,7.653 0.325,0.745 0.609,1.376 0.916,1.894 0.095,0.179 0.157,0.29 0.217,0.405 1.497,0.225 2.949,0.562 4.353,1.017 0.428,-14.256 6.401,-40.223 11.592,-62.261 m -34.764,61.121 c -0.578,-9.533 -11.316,-25.965 -20.891,-40.62 -7.302,-11.183 -14.319,-21.925 -18.299,-31.13 7.951,30.554 21.781,56.3 39.19,71.75 m -43.472,-23.379 c -13.97,-7.291 -28.882,-15.084 -38.955,-24.355 -0.289,-0.183 -0.545,-0.363 -0.718,-0.53 l 0.071,-0.073 c -8.743,-8.277 -13.562,-17.741 -10.431,-29.076 -3.28,-0.291 -5.939,0.466 -7.768,3.4 -1.819,2.929 -4.367,3.309 -6.613,3.65 -3.174,0.474 -6.458,0.964 -9.336,9.072 -4.762,13.418 1.397,65.513 38.11,82.586 11.573,5.377 22.535,6.693 32.809,6.45 5.24,-0.651 10.603,-1.117 16.06,-1.37 1.255,-0.16 2.502,-0.325 3.731,-0.488 4.745,-0.628 9.329,-1.226 13.718,-1.473 0.034,-2.609 0.516,-5.162 1.42,-7.576 -1.862,-0.927 -4.724,-2.183 -8.238,-3.43 -7.082,-2.599 -17.087,-4.806 -27.177,-7.078 -5.04,-1.166 -10.094,-2.453 -14.7,-4.13 -4.604,-1.683 -8.726,-3.882 -11.687,-6.508 -1.44,-1.339 -2.675,-2.671 -3.525,-4.022 -0.471,-0.643 -0.833,-1.29 -1.137,-1.909 -0.34,-0.594 -0.597,-1.169 -0.789,-1.706 -0.453,-1.042 -0.677,-1.903 -0.829,-2.489 -0.166,-0.581 -0.254,-0.892 -0.254,-0.892 0,0 0.113,0.304 0.316,0.873 0.195,0.573 0.474,1.411 0.998,2.404 0.221,0.517 0.515,1.062 0.893,1.621 0.334,0.584 0.736,1.188 1.236,1.786 0.918,1.25 2.201,2.448 3.674,3.633 3.015,2.32 7.105,4.144 11.676,5.463 4.582,1.309 9.613,2.222 14.685,3.025 10.141,1.544 20.455,3.056 28.089,5.247 3.827,1.066 6.94,2.171 9.183,3.103 0.058,0.025 0.106,0.046 0.165,0.069 1.03,-1.542 2.24,-2.977 3.612,-4.291 -0.006,-0.661 -0.083,-1.316 -0.216,-1.968 -4.935,-4.429 -9.603,-9.613 -13.954,-15.45 -6.796,-4.527 -15.35,-8.993 -24.119,-13.568 m -21.749,-23.959 c 3.33,-0.323 6,-1.308 7.965,-2.929 -4.381,-1.509 -10.062,-7.212 -17.534,-15.087 -4.558,-4.807 -9.272,-9.78 -11.412,-10.413 -1.543,-0.464 -3.015,-0.874 -4.405,-1.18 -2.971,10.362 1.685,19.19 10.131,27.019 2.209,1.184 8.816,3.231 15.255,2.59 m -7.106,128.232 c -0.035,-0.333 -1.236,-1.278 -3.738,-1.278 h -0.003 c -0.364,0 -0.744,0.082 -1.133,0.126 -1.397,0.146 -2.709,0.645 -3.609,1.225 -0.693,0.444 -0.926,0.846 -0.907,0.999 0.039,0.335 1.236,1.206 3.723,1.206 0.373,0 0.757,-0.048 1.148,-0.092 2.202,-0.231 3.76,-1.053 4.332,-1.761 0.149,-0.187 0.198,-0.356 0.187,-0.425 m -61.878,-14.48 c -4.047,7.088 0.488,13.496 6.231,21.616 2.626,3.714 5.604,7.927 7.967,12.604 8.649,17.119 17.578,34.801 24.209,32.748 6.06,-1.906 9.216,-9.104 12.562,-16.725 1.646,-3.76 3.329,-7.574 5.421,-10.963 -2.73,1.808 -5.876,4.049 -8.811,6.595 -1.811,1.611 -3.525,3.335 -4.967,5.098 -1.406,1.786 -2.52,3.604 -3.285,5.263 -0.721,1.675 -1.125,3.157 -1.309,4.214 -0.15,1.067 -0.23,1.673 -0.23,1.673 0,0 0.035,-0.615 0.104,-1.69 0.112,-1.075 0.402,-2.601 1.012,-4.367 0.659,-1.751 1.659,-3.699 2.972,-5.639 1.343,-1.921 2.97,-3.818 4.707,-5.609 3.515,-3.539 7.426,-6.635 10.41,-8.856 3.011,-2.223 5.024,-3.606 5.024,-3.606 l 0.087,0.134 c 0.002,-0.004 0.005,-0.006 0.005,-0.006 l -0.085,-0.133 c 0.778,-0.499 1.6,-0.994 2.389,-1.49 0.146,-0.088 0.275,-0.201 0.423,-0.287 l 0.012,0.018 c 3.432,-2.149 6.96,-4.286 10.687,-6.525 17.966,-10.776 37.831,-22.703 46.082,-38.544 1.756,-4.52 3.089,-8.866 3.793,-12.666 0.007,-0.101 0.023,-0.425 0.031,-0.425 h 0.024 c 0.083,0 0.155,-0.804 0.215,-1.265 -0.406,-0.553 -0.779,-1.065 -1.13,-1.654 -1.024,0.406 -2.146,0.869 -3.357,1.323 -5.326,6.176 -12.445,13.299 -20.01,19.9 -8.605,7.546 -17.842,14.38 -25.271,18.68 -3.704,2.166 -6.94,3.688 -9.268,4.596 -0.729,0.299 -1.855,0.515 -1.855,0.692 0,0.716 -0.315,1.415 -0.826,2.054 -1.19,1.475 -3.546,2.531 -6.285,2.822 -4.413,0.475 -7.805,-1.163 -8.078,-3.732 -0.15,-1.4 0.64,-2.737 2.221,-3.756 1.285,-0.835 3.015,-1.399 4.878,-1.594 0.489,-0.054 0.971,-0.08 1.438,-0.08 3.723,0 6.395,1.535 6.642,3.808 0.016,0.138 0.01,0.274 0.01,0.416 0,-0.197 1.099,-0.425 1.805,-0.743 2.295,-0.981 5.469,-2.595 9.088,-4.865 7.255,-4.513 16.223,-11.594 24.534,-19.36 6.118,-5.691 11.905,-11.725 16.587,-17.199 1.688,-1.978 3.241,-3.881 4.604,-5.667 -1.363,1.786 -2.918,3.689 -4.606,5.667 -8.688,3.097 -20.294,6.806 -31.737,10.946 -11.458,4.14 -22.776,8.79 -30.496,13.662 -1.914,1.23 -3.648,2.413 -5.036,3.632 -1.423,1.179 -2.532,2.361 -3.358,3.399 -0.789,1.062 -1.375,1.945 -1.627,2.612 -0.291,0.657 -0.448,1.005 -0.448,1.005 0,0 0.134,-0.357 0.387,-1.032 0.215,-0.687 0.748,-1.611 1.486,-2.732 0.776,-1.1 1.827,-2.371 3.206,-3.648 1.336,-1.328 3.017,-2.625 4.88,-3.992 7.528,-5.398 18.672,-10.763 29.936,-15.606 11.273,-4.857 22.713,-9.277 31.103,-12.846 2.804,-1.184 5.227,-2.264 7.242,-3.202 -0.18,-0.598 -0.315,-1.214 -0.447,-1.831 -5.911,-0.265 -11.75,-0.258 -17.478,-0.009 -5.394,0.693 -11.019,1.303 -16.871,1.421 -45.728,5.726 -81.553,25.254 -87.543,35.746 m 120.611,50.892 c 0.318,-1.02 0.667,-2.764 0.436,-4.152 -0.452,-2.722 -1.68,-4.295 -2.275,-4.465 -0.025,-0.008 -0.025,0.577 -0.049,0.577 h -0.029 c -0.006,0 -0.014,-0.587 -0.018,-0.582 -0.099,0.08 -0.317,0.53 -0.43,0.682 -0.53,0.741 -1.148,3.036 -0.784,5.215 0.473,2.839 2.05,4.231 2.05,4.231 v -0.115 c 1.853,-0.028 0.851,-0.608 1.099,-1.391 m 34.642,-3.777 c 0.189,1.052 0.777,2.539 1.621,3.662 1.356,1.812 2.937,3.195 4.072,3.195 h 0.092 c 0.123,0 0.265,-0.944 0.121,-1.756 -0.189,-1.053 -0.78,-2.67 -1.621,-3.795 -1.392,-1.858 -3.023,-2.824 -3.914,-2.824 l -0.25,0.087 c -0.124,0.09 -0.267,0.621 -0.121,1.431 m -5.699,-71.923 c 6.044,0 10.943,-4.101 10.943,-9.164 0,-5.059 -4.899,-9.163 -10.943,-9.163 -6.048,0 -10.946,4.104 -10.946,9.163 0,5.063 4.898,9.164 10.946,9.164 m -55.349,96.454 c 2.879,13.706 7.861,12.997 21.189,11.107 4.761,-0.674 10.682,-1.516 17.579,-1.703 5.412,-0.134 12.402,0.869 19.842,1.94 12.878,1.853 27.478,3.964 32.944,-0.514 1.394,-1.145 2.128,-2.69 2.239,-4.721 0.148,-2.663 -5.806,-12.407 -12.158,-19.962 l 8.434,22.671 -12.921,-26.407 0.789,-0.343 c -0.001,-0.004 -0.003,-0.006 -0.004,-0.007 l -0.796,0.321 c -8.583,-20.914 -21.475,-54.415 -24.009,-72.544 -0.121,0.003 -0.244,0.015 -0.363,0.015 -0.289,7.305 -0.006,16.509 0.787,25.684 0.891,10.221 2.403,20.418 4.337,27.872 0.832,3.158 1.748,5.783 2.697,7.699 0.272,-0.064 0.541,-0.124 0.833,-0.124 2.001,0 4.395,1.533 6.241,3.995 1.12,1.497 1.886,3.154 2.153,4.661 0.329,1.856 -0.114,3.342 -1.235,4.186 -2.037,1.524 -5.7,0.023 -8.236,-3.367 -1.118,-1.498 -1.886,-3.151 -2.154,-4.658 -0.328,-1.856 0.112,-3.339 1.239,-4.183 0.291,-0.221 0.628,-0.377 0.986,-0.484 -1.019,-1.895 -2.024,-4.482 -2.958,-7.601 -2.214,-7.425 -4.089,-17.6 -5.348,-27.844 -1.125,-9.211 -1.739,-18.477 -1.706,-25.93 -2.21,-0.172 -4.345,-0.612 -6.374,-1.268 0.025,0.673 0.056,1.347 0.065,2.064 0.139,7.597 -0.705,17.47 -1.598,27.3 -0.881,9.824 -1.822,19.629 -1.65,26.988 0.038,1.834 0.148,3.519 0.348,4.994 0.185,1.478 0.5,2.741 0.847,3.749 0.382,0.996 0.843,1.709 1.229,2.133 0.431,0.378 0.663,0.58 0.663,0.58 0,0 -0.247,-0.187 -0.713,-0.533 -0.418,-0.4 -0.943,-1.093 -1.409,-2.082 -0.432,-1.002 -0.847,-2.269 -1.147,-3.756 -0.314,-1.485 -0.548,-3.179 -0.724,-5.032 -0.719,-7.421 -0.504,-17.338 -0.347,-27.194 0.169,-9.854 0.273,-19.713 -0.398,-26.892 -0.153,-1.76 -0.356,-3.353 -0.583,-4.743 -0.039,-0.021 -0.079,-0.042 -0.119,-0.062 -2.177,7.243 -4.951,16.886 -7.377,26.637 -1.212,4.911 -2.382,9.833 -3.317,14.485 -0.957,4.641 -1.749,9.002 -2.22,12.764 -0.279,1.873 -0.483,3.603 -0.579,5.143 -0.095,1.345 -0.221,2.511 -0.227,3.53 2.323,0.189 4.358,2.912 4.999,6.779 0.308,1.851 0.226,3.673 -0.232,5.133 -0.559,1.795 -1.638,2.911 -3.027,3.143 l -0.501,0.041 c -2.433,0 -4.592,-2.802 -5.256,-6.816 -0.451,-2.719 -0.066,-5.264 1.039,-6.802 0.582,-0.817 1.351,-1.326 2.223,-1.471 l 0.502,-0.043 c 0.04,0 0.073,0.016 0.112,0.017 -0.03,-1.021 0.056,-2.183 0.103,-3.53 0.035,-1.549 0.184,-3.286 0.39,-5.18 0.338,-3.791 0.978,-8.189 1.77,-12.881 0.772,-4.692 1.764,-9.669 2.804,-14.639 2.157,-10.217 4.69,-20.323 6.643,-27.753 -0.835,-0.628 -1.608,-1.32 -2.35,-2.044 -0.534,4.495 -1.913,8.694 -3.958,12.643 -3.063,7.837 -7.306,16.461 -11.687,25.367 -10.627,21.603 -21.616,43.947 -18.345,59.472 M 205.575,154.563 c -3.762,-2.765 -7.589,-3.948 -8.546,-2.647 -0.957,1.303 1.318,4.602 5.08,7.369 3.763,2.764 7.589,3.947 8.545,2.645 0.958,-1.304 -1.318,-4.599 -5.079,-7.367 m 107.131,9.312 c 0.307,-0.405 0.48,-0.634 0.48,-0.634 l 0.07,0.054 c 3.545,-3.729 6.191,-6.703 8.033,-8.884 1.894,-2.209 2.898,-3.387 2.898,-3.387 l 0.054,0.047 c 1.969,-3.639 4.009,-7.249 6.142,-10.815 -19.722,19.696 -49.722,36.298 -93.077,30.244 -0.337,0.47 -0.697,0.915 -1.084,1.33 -0.711,0.821 -1.531,1.485 -2.353,2.185 -0.846,0.593 -1.678,1.174 -2.5,1.749 -0.797,0.608 -1.656,1.114 -2.553,1.546 -0.881,0.445 -1.729,0.926 -2.594,1.325 -3.539,1.45 -7.112,2.094 -10.415,1.964 -3.309,-0.21 -6.215,-1.267 -8.596,-2.58 -2.396,-1.344 -4.118,-3.118 -5.485,-4.721 -1.214,-1.723 -2.119,-3.315 -2.443,-4.743 -0.789,-2.857 0.065,-4.406 -0.046,-4.393 0.107,-0.016 -0.719,1.551 0.113,4.375 0.338,1.416 1.262,2.982 2.488,4.674 1.379,1.569 3.114,3.302 5.497,4.592 2.37,1.259 5.243,2.256 8.491,2.414 3.246,0.079 6.733,-0.605 10.179,-2.074 0.843,-0.401 1.663,-0.885 2.512,-1.33 0.861,-0.424 1.697,-0.928 2.494,-1.555 0.812,-0.588 1.641,-1.184 2.475,-1.788 0.727,-0.648 1.544,-1.326 2.204,-2.113 0.274,-0.304 0.527,-0.635 0.772,-0.969 -6.12,-0.894 -12.511,-2.253 -19.17,-4.103 -2.723,1.855 -8.956,0.585 -14.968,-3.261 -6.808,-4.359 -10.75,-10.365 -8.799,-13.414 1.952,-3.05 9.055,-1.992 15.863,2.364 5.689,3.641 9.36,8.422 9.282,11.679 6.279,1.718 12.299,2.96 18.086,3.805 l 0.205,-0.49 c 1.001,-2.361 1.292,-5.014 0.805,-7.542 -0.637,-3.983 -2.658,-8.062 -6.012,-12.132 -2.917,-3.59 -6.756,-6.852 -11.369,-9.67 -4.968,-2.881 -9.957,-4.744 -14.867,-5.546 -5.399,-0.975 -11.135,-0.621 -16.327,0.991 -2.995,0.995 -5.425,2.14 -7.651,3.606 -0.472,0.304 -0.954,0.591 -1.437,0.877 -0.374,0.223 -0.738,0.44 -1.087,0.659 -0.385,0.253 -0.776,0.497 -1.137,0.786 l -0.32,0.258 -3.106,2.579 c -4.243,3.996 -7.976,8.697 -10.445,14.124 -2.422,5.426 -3.796,11.344 -3.962,17.334 -0.257,6.009 1.107,12.02 3.352,17.543 2.252,5.514 5.716,10.689 10.015,14.644 l 1.554,1.55 1.837,1.408 c 1.196,0.873 2.511,2.011 3.601,2.665 2.509,1.561 5.109,2.995 7.874,4.013 11.007,4.383 23.156,4.46 34.32,2.601 11.227,-1.949 21.755,-5.653 31.23,-10.156 9.524,-4.44 18.022,-9.69 25.563,-14.92 7.536,-5.255 14.08,-10.592 19.65,-15.562 5.455,-4.883 10.032,-9.344 13.664,-13.203 m 152.077,139.779 c 5.856,-0.763 10.272,-3.972 9.853,-7.168 -0.413,-3.196 -5.502,-5.167 -11.363,-4.405 -5.858,0.764 -10.271,3.973 -9.858,7.169 0.421,3.197 5.507,5.167 11.368,4.404 m -25.191,-49.568 c 5.153,0 9.335,-2.278 9.335,-5.091 0,-2.812 -4.182,-5.091 -9.335,-5.091 -5.154,0 -9.336,2.279 -9.336,5.091 0,2.813 4.182,5.091 9.336,5.091 M 301.087,87.977 c -2.785,-2.448 -5.728,-3.651 -6.574,-2.686 -0.849,0.963 0.723,3.729 3.505,6.178 2.785,2.447 5.728,3.648 6.573,2.686 0.847,-0.963 -0.724,-3.73 -3.504,-6.178 m 40.962,24.342 c 1.404,-0.502 2.594,-1.204 3.742,-1.885 l 0.518,-0.301 c 0.732,-0.362 1.261,-0.801 1.819,-1.267 0.334,-0.28 0.657,-0.544 0.868,-0.688 0.188,-0.156 0.373,-0.293 0.553,-0.425 0.155,-0.112 0.307,-0.214 0.399,-0.309 l 3.311,-3.764 c -14.837,4.455 -30.827,2.834 -47.242,-4.801 -2.504,0.529 -6.09,-0.992 -9.223,-3.873 -2.83,-2.601 -4.578,-5.612 -4.679,-8.057 -0.065,-1.524 0.521,-2.497 1.02,-3.039 0.539,-0.587 1.526,-1.283 3.191,-1.283 2.403,0 5.462,1.494 8.176,3.996 0.292,0.27 0.568,0.54 0.838,0.817 l 2.957,-0.355 0.08,0.594 c 0.034,0.175 0.061,0.378 0.081,0.597 0.037,0.319 0.057,0.494 0.148,0.649 l 0.176,0.392 c 0.292,0.872 1.826,2.196 4.404,2.427 2.913,0.36 6.543,-0.434 10.201,-2.15 1.756,-0.905 3.771,-2.05 5.396,-3.675 1.521,-1.553 3.117,-3.417 3.423,-5.438 0.28,-2.015 -0.252,-4.436 -1.55,-7.02 -1.105,-2.27 -2.796,-4.609 -5.009,-6.945 -4.443,-4.596 -10.105,-7.996 -15.923,-9.572 -3.363,-0.864 -6.624,-1.145 -9.574,-0.838 -1.855,0.204 -3.287,0.488 -4.767,0.946 -1.681,0.544 -3.451,1.283 -4.724,1.826 -6.603,3.197 -12.154,8.071 -14.687,13.741 -1.459,3.144 -2.693,6.396 -2.693,9.398 v 0.108 l 0.516,0.107 c -0.094,1.01 0.313,2.094 0.468,3.24 0.069,0.499 0.268,0.997 0.319,1.492 0.105,0.462 0.304,0.921 0.436,1.377 0.091,0.325 0.217,0.648 0.312,1.013 0.214,0.881 0.448,1.509 0.763,2.146 l 1.023,2.341 c 0.206,0.433 0.474,0.842 0.727,1.251 0.181,0.288 0.36,0.573 0.559,0.918 0.704,1.309 1.64,2.463 2.626,3.682 l 0.244,0.312 c 0.571,0.822 1.414,1.65 2.31,2.525 0.367,0.362 0.733,0.719 1.051,1.05 l 1.055,1.047 c 0.042,0.033 0.08,0.062 0.114,0.091 l 2.424,1.873 c 4.572,3.265 10.185,5.677 17.143,7.367 5.464,1.305 11.186,1.966 17.057,1.966 l 0.602,0.003 c 4.315,0 8.736,-0.567 13.447,-1.714 1.879,-0.524 3.819,-1.067 5.383,-1.814 z m 69.032,107.149 c 5.158,0 9.336,-2.28 9.336,-5.091 0,-2.813 -4.178,-5.092 -9.336,-5.092 -5.153,0 -9.335,2.279 -9.335,5.092 0,2.811 4.182,5.091 9.335,5.091 m -35.447,-80.994 c 0.461,-1.665 1.034,-3.568 1.635,-5.175 -0.976,-1.774 -1.934,-3.573 -2.842,-5.41 -0.061,3.383 0.354,6.943 1.207,10.585 m 3.506,10.355 c 0.558,-1.951 1.349,-4.874 2.225,-8.573 -0.911,-1.451 -1.8,-2.929 -2.665,-4.426 -0.896,2.756 -1.66,5.832 -1.903,6.827 0.659,2.049 1.432,4.11 2.343,6.172 m 3.676,7.118 c 0.257,-0.792 0.588,-1.709 0.997,-2.826 0.769,-2.083 1.594,-4.392 1.954,-6.258 -0.942,-1.332 -1.863,-2.695 -2.771,-4.075 -1.173,4.742 -2.125,7.939 -2.455,9.007 0.701,1.393 1.47,2.775 2.275,4.152 m -0.201,2.913 v 0.005 c 3.707,1.678 3.191,3.334 4.44,4.956 -0.004,0.02 0.422,0.036 0.418,0.054 0.056,0.068 0.334,0.142 0.387,0.21 0.022,-0.089 0.169,-0.173 0.19,-0.264 0.729,-2.979 2.59,-6.831 3.876,-8.791 -1.535,-1.883 -3.022,-3.831 -4.494,-5.839 -0.446,1.545 -1.243,3.174 -1.793,4.677 -0.553,1.491 -1.402,3.436 -1.643,4.263 0.03,0.049 -0.804,0.096 -0.777,0.142 z m 7.379,7.332 c 0.403,0.493 0.819,0.989 1.239,1.472 1.166,1.341 2.38,2.231 3.6,3.468 -0.009,0.188 -0.002,0.38 -0.003,0.572 0.001,0.001 0.003,0.004 0.007,0.005 0.003,-0.067 0,-0.129 0.003,-0.196 0.196,-3.39 1.648,-7.766 2.752,-9.944 -1.408,-1.543 -2.802,-3.14 -4.177,-4.781 -1.509,2.553 -3.653,7.751 -3.427,9.365 0.003,0.017 0.004,0.025 0.006,0.039 m 7.216,7.535 0.031,0.003 c 0.004,0.004 0.006,0.004 0.012,0.01 0.004,-0.009 0.009,-0.013 0.016,-0.006 l -0.014,0.007 c 1.341,1.246 2.701,2.17 4.092,3.292 -0.032,0.155 -0.066,0.319 -0.098,0.482 0.006,0.005 0.007,0.005 0.01,0.007 0.027,-0.144 0.06,-0.293 0.088,-0.431 0.772,-3.496 1.702,-7.738 2.039,-9.691 -1.41,-1.379 -2.81,-2.724 -4.204,-4.204 -1.159,2.763 -2.87,8.672 -1.972,10.531 m 12.514,9.653 c 0.012,0.009 0.027,0.016 0.04,0.025 10e-4,-0.058 0,-0.106 0.004,-0.165 0.172,-2.55 0.685,-6.778 1.21,-8.759 0.114,-0.433 0.213,-0.773 0.323,-0.946 -0.11,0.173 -0.226,0.513 -0.342,0.946 -1.895,-1.605 -3.796,-3.306 -5.695,-5.101 -0.584,3.031 -1.601,7.677 -2.005,9.507 2.11,1.59 4.269,3.054 6.471,4.351 -0.002,0.049 -0.004,0.091 -0.006,0.142 m 8.777,4.146 c 0.407,-2.312 0.838,-5.141 0.905,-6.475 -2.076,-1.469 -4.267,-3.079 -6.4,-4.807 -0.416,2.429 -0.74,6.765 -0.74,8.166 v 0.003 c 0,0.082 -0.003,0.156 -0.083,0.221 2.058,1.09 4.219,2.07 6.318,2.892 m 2.898,-8.727 c 1.47,0 4.414,0.448 10.195,2.134 -0.592,-1.124 -1.089,-2.228 -1.534,-3.27 0.301,0.038 0.583,0.901 0.786,0.912 l 0.145,-1.343 h -0.026 l 0.026,-1.332 c -0.006,0 -0.016,-0.213 -0.02,-0.213 l -0.006,-0.009 -0.111,1.871 c -0.201,-0.013 -0.474,0.055 -0.778,0.016 -1.333,-0.167 -3.538,-0.506 -6.037,-0.95 -2.619,-0.464 -6.763,-1.156 -9.277,-1.464 -0.896,-0.107 -0.643,-0.158 -2.496,-0.13 v 0.016 c 1.853,-0.029 1.596,0.03 2.496,0.139 1.701,1.365 3.582,2.634 5.245,3.822 0.234,-0.102 0.713,-0.199 1.392,-0.199 m 15.427,12.347 c 0.429,0 0.862,-0.027 1.29,-0.04 -4.814,-1.575 -10.534,-4.5 -16.656,-8.629 -0.21,1.973 -0.643,4.493 -0.876,5.803 5.378,1.866 10.846,2.866 16.242,2.866 m 6.932,-0.493 c 0.286,0.01 0.566,-0.012 0.846,-0.02 -2.146,-1.756 -5.148,-4.452 -6.066,-6.428 -1.125,-0.378 -2.213,-0.821 -3.247,-1.368 2.189,3.376 5.027,6.5 8.467,7.816 m 6.016,-0.816 c -0.081,-0.056 -0.155,-0.114 -0.236,-0.172 -1.63,-1.151 -3.44,-2.463 -5.001,-4.272 -0.931,-0.068 -1.843,-0.169 -2.73,-0.33 1.569,1.743 4.085,3.862 5.925,5.26 0.695,-0.126 1.374,-0.294 2.042,-0.486 m 2.51,-0.874 c 0.462,-0.191 0.914,-0.4 1.36,-0.615 -1.247,-0.973 -2.965,-2.369 -3.583,-3.131 -0.355,0.044 -0.703,0.118 -1.063,0.148 -0.467,0.04 -0.921,0.041 -1.382,0.062 1.021,0.912 2.108,1.701 3.181,2.458 0.511,0.357 1.003,0.716 1.487,1.078 m 5.227,-2.879 c -0.838,-0.536 -1.842,-1.224 -2.53,-1.842 -0.736,0.208 -1.493,0.378 -2.254,0.539 0.867,0.753 2.069,1.708 3.028,2.442 0.603,-0.359 1.186,-0.743 1.756,-1.139 m 6.515,-5.918 c -1.85,1.212 -4.074,2.35 -6.563,3.259 0.599,0.424 1.292,0.873 1.921,1.256 1.796,-1.446 3.36,-3.002 4.642,-4.515 m -10.713,0.872 -0.554,1.491 c 2.526,-0.577 4.923,-1.431 7.027,-2.454 -2.029,0.52 -4.206,0.851 -6.473,0.963 m -4.959,-0.1 -1.393,2.354 c 0.643,-0.013 1.264,-0.046 1.848,-0.098 0.489,-0.044 0.969,-0.134 1.459,-0.205 l 0.712,-1.922 c -0.883,-0.012 -1.759,-0.052 -2.626,-0.129 m -5.214,-0.83 -1.834,2.637 c 1.085,0.241 2.141,0.379 3.173,0.461 l 1.507,-2.543 c -0.96,-0.149 -1.912,-0.332 -2.846,-0.555 m -4.475,-1.43 -1.35,2.718 c 0.588,0.269 1.178,0.526 1.767,0.726 l 1.841,-2.641 c -0.768,-0.24 -1.518,-0.511 -2.258,-0.803 m -15.344,2.468 c 4.74,3.14 9.217,5.527 13.17,7.076 -0.566,-0.674 -1.161,-1.461 -1.782,-2.376 -0.525,-0.703 -1.016,-1.425 -1.479,-2.158 -3.63,-1.103 -7.496,-2.114 -9.909,-2.542 m 7.806,-6.693 c 0.443,1.209 1.044,2.645 1.789,4.162 0.803,0.678 1.634,1.247 2.475,1.753 l 1.272,-2.564 c -1.977,-0.937 -3.848,-2.044 -5.536,-3.351 m -3.235,-2.121 c -0.659,-0.154 -1.546,-0.371 -2.621,-0.637 -4.324,-1.057 -14.771,-3.609 -18.752,-4.072 1.961,1.867 3.926,3.63 5.879,5.284 0.191,-0.026 0.402,-0.041 0.668,-0.041 1.597,0 4.74,-0.02 11.352,1.152 1.579,0.279 3.092,0.311 4.313,0.311 -0.281,0 -0.553,-1.294 -0.839,-1.997 m -2.134,-5.574 c -4.758,-2.258 -19.873,-4.534 -24.784,-4.695 1.131,1.197 2.267,2.353 3.405,3.483 0.26,-0.087 0.597,-0.141 1.087,-0.141 2.227,0 7.412,1.018 20.322,4.172 0.402,0.098 0.779,0.19 1.124,0.275 -0.377,-0.984 -0.763,-2.017 -1.154,-3.094 m -1.81,-5.176 c -0.104,-0.307 -0.206,-0.591 -0.306,-0.891 -5.021,-2.197 -24.004,-5.3 -28.525,-5.224 1.32,1.577 2.657,3.113 4.004,4.596 0.405,-0.071 0.933,-0.108 1.59,-0.108 5.328,0 18.038,2.158 24.101,4.137 -0.289,-0.824 -0.573,-1.638 -0.864,-2.51 m -2.255,-6.209 c -5.683,-1.658 -26.762,-7.12 -32.834,-7.917 1.551,2.133 3.142,4.197 4.759,6.19 0.557,-0.126 1.3,-0.191 2.231,-0.191 6.494,0 20.857,2.816 26.878,4.647 -0.346,-0.943 -0.689,-1.854 -1.034,-2.729 m -2.927,-6.522 c -5.778,-3.192 -28.717,-8.104 -34.5,-8.084 1.021,1.581 2.066,3.133 3.132,4.652 0.109,-0.003 0.206,-0.011 0.327,-0.011 6.035,0 26.212,5.518 32.911,7.404 -0.612,-1.414 -1.235,-2.731 -1.87,-3.961 m -4.345,-6.8 c -4.657,-3.019 -29.508,-8.821 -34.431,-8.328 0.966,1.702 1.965,3.366 2.986,5.007 0.395,-0.057 0.877,-0.084 1.425,-0.084 6.883,0 24.827,4.299 32.646,7.142 -0.835,-1.365 -1.709,-2.602 -2.626,-3.737 m -35.472,-15.886 -3.327,-0.822 c 1.066,2.221 2.182,4.4 3.349,6.531 0.553,-0.112 1.233,-0.173 2.043,-0.173 6.817,0 21.682,3.762 29.736,6.529 -6.872,-5.92 -16.322,-8.251 -31.801,-12.065 M 267.64,284.243 c 0.257,3.697 0.204,8.192 0.101,11.622 4.039,-6.731 7.047,-13.711 8.763,-20.758 -2.89,3.146 -5.853,6.19 -8.864,9.136 m 1.245,-13.062 c -10.549,-0.533 -19.661,-0.987 -27.608,-0.987 h -0.002 c -13.792,0 -24.255,1.313 -33.897,6.175 2.722,-0.159 5.949,-0.24 9.518,-0.24 17.593,0 42.789,1.905 49.161,5.597 3.331,-3.278 6.592,-6.68 9.774,-10.205 -2.378,-0.116 -4.706,-0.232 -6.946,-0.34 m -74.81,14.63 c 2.658,-0.221 5.969,-0.326 9.704,-0.326 18.102,0 45.677,2.428 52.118,5.693 2.74,-2.408 5.454,-4.873 8.121,-7.438 -7.052,-3.235 -52.406,-6.942 -62.755,-3.728 -2.399,1.656 -4.784,3.578 -7.188,5.799 m -9.947,10.706 c 6.243,0.027 19.83,0.169 32.204,0.816 20.307,1.064 26.841,1.797 29.071,2.588 2.739,-2.157 5.451,-4.383 8.139,-6.687 -8.484,-3.032 -51.564,-6.573 -62.924,-4.042 -2.122,2.193 -4.277,4.626 -6.49,7.325 m -1.998,2.488 c -1.132,1.437 -2.281,2.949 -3.45,4.529 0.403,-0.008 0.824,-0.015 1.273,-0.015 13.151,0 44.777,3.587 50.619,7.257 3.986,-2.708 7.955,-5.57 11.89,-8.579 -9.616,-1.78 -50.751,-3.275 -60.332,-3.192 m -6.723,9.045 c -1.099,1.558 -2.166,3.044 -3.217,4.487 0.797,-0.035 1.636,-0.057 2.561,-0.057 13.322,0 38.804,3.459 43.403,6.241 3.256,-1.955 6.519,-4.014 9.773,-6.168 -6.91,-2.639 -42.01,-7.261 -51.45,-5.994 -0.357,0.496 -0.711,0.981 -1.07,1.491 m -5.474,7.561 c -1.43,1.924 -2.817,3.75 -4.154,5.466 0.857,0.047 1.798,0.096 2.871,0.152 29.466,1.523 36.245,2.557 37.842,4.075 2.854,-1.516 5.72,-3.107 8.597,-4.781 -6.997,-1.998 -35.279,-6.515 -45.156,-4.912 m -7.005,8.217 c -0.764,1.272 -2.007,3.101 -3.642,5.219 -1.049,-0.152 -1.905,-0.293 -2.432,-0.416 l -0.665,2.825 0.665,-2.802 c 0.527,0.125 1.383,0.44 2.432,0.44 0.13,-0.163 0.241,-0.318 0.367,-0.478 -0.116,0.163 -0.235,0.304 -0.352,0.478 2.311,0 5.649,0.698 9.148,1.109 14.124,1.647 19.089,2.423 20.944,3.379 0.704,0.365 0.974,0.746 1.108,1.216 0.078,0.272 0.101,0.733 0.094,1.322 -0.05,3.492 -1.467,11.786 -2.488,16.095 4.722,-1.138 9.415,-2.581 14.039,-4.289 0.238,-3.239 0.938,-12.554 1.513,-17.958 -4.411,2.235 -8.776,4.283 -13.064,6.147 0.007,-0.586 -0.016,-1.051 -0.094,-1.324 -0.134,-0.469 -0.404,-0.856 -1.108,-1.22 4.551,-1.978 9.188,-4.166 13.882,-6.572 -5.604,-1.36 -26.437,-2.44 -34.776,-2.871 -2.045,-0.103 -3.731,-0.19 -4.918,-0.261 -0.251,-0.017 -0.448,-0.025 -0.653,-0.039 m -17.103,4.918 1.001,5.857 c 1.831,-0.442 3.686,-1.046 5.551,-1.853 2.54,-2.764 4.637,-5.426 6.12,-7.477 -3.974,1.667 -8.238,2.834 -12.672,3.473 m -1.868,6.349 -0.006,-0.044 -1.017,-5.95 -0.019,-0.076 c -1.703,0.156 -3.42,0.166 -5.157,0.166 h -0.004 -0.233 -0.056 l 0.289,0.504 2.046,6.037 c 1.368,-0.044 2.759,-0.255 4.178,-0.471 z m -9.29,-5.856 -0.009,-0.029 c -1.994,-0.109 -3.986,-0.302 -5.956,-0.603 l -0.089,-0.344 0.089,0.357 1.486,5.979 c 2.051,0.456 4.242,0.785 6.54,0.908 z m 1.184,-0.844 -1.293,0.453 0.014,0.048 1.509,-0.497 c -0.078,0 -0.154,0 -0.23,-0.004 m -10.824,-0.633 v 0.145 l 0.787,0.005 c -1.795,-0.364 -4.493,-0.709 -4.493,-1.225 v 0.033 l -0.246,4.546 c 0.857,0.401 1.457,0.365 2.341,0.72 1.177,0.467 2.324,0.911 3.69,0.911 h -0.062 z m 0.461,-0.619 -0.129,0.029 0.004,0.016 0.158,-0.038 z m -13.624,10.864 c 0.866,0.83 1.769,1.626 2.704,2.39 1.039,-0.383 2.095,-0.749 3.189,-1.115 2.522,-0.846 5.102,-1.726 7.606,-3.007 -1.098,-0.355 -2.193,-0.719 -3.294,-1.158 -0.734,-0.294 -1.456,-0.612 -2.172,-0.934 l 0.113,0.159 c -1.43,1.003 -5.602,2.686 -8.146,3.665 m 5.445,-13.166 -0.087,0.007 0.056,0.913 c -5.384,-1.897 -10.323,-4.478 -14.456,-7.543 3.718,4.122 8.849,8.313 14.711,11.526 l -0.253,-3.983 -0.056,-0.913 z m -19.371,-8.017 c 1.507,3.972 3.806,8.491 6.83,12.849 1.525,-0.397 3.399,-0.943 4.87,-1.479 -4.912,-3.566 -8.938,-7.599 -11.7,-11.37 m 11.706,18.919 c 2.345,-0.881 5.396,-2.099 7.281,-3.008 -1.536,-0.807 -3.022,-1.672 -4.448,-2.588 -1.587,0.793 -4.062,1.543 -5.862,2.038 0.948,1.223 1.968,2.403 3.029,3.558 m 11.845,9.235 c 3.373,-1.254 10.215,-4.077 14.005,-6.665 -2.046,-0.164 -4.111,-0.481 -6.19,-0.956 -3.536,2.295 -7.287,3.561 -10.624,4.678 -0.451,0.153 -0.871,0.31 -1.312,0.46 1.323,0.906 2.687,1.752 4.121,2.483 m 6.484,2.492 c 6.885,-0.474 13.499,-4.584 18.982,-9.404 l 0.036,-0.537 c -2.354,0.534 -4.761,0.82 -7.206,0.888 -2.579,3.072 -10.003,6.391 -14.484,8.199 0.877,0.315 1.761,0.619 2.672,0.854 m 35.767,7.774 c 1.549,0 3.104,-0.04 4.658,-0.118 0.261,-2.318 0.895,-7.642 1.618,-11.254 -13.819,4.369 -26.065,6.461 -35.44,6.302 9.062,3.357 18.838,5.07 29.164,5.07 m 8.984,-15.228 c 4.028,-1.36 8.176,-2.909 12.42,-4.653 -4.235,-0.8 -11.905,-1.701 -17.031,-2.299 -4.618,-0.535 -8.684,-1.011 -10.926,-1.411 -1.612,1.918 -3.473,3.957 -5.528,5.959 15.943,1.093 19.897,1.891 21.065,2.404 m -24.923,-2.699 c -0.045,0.01 -0.09,0.025 -0.134,0.033 0.029,0.004 0.06,0.004 0.089,0.007 0.015,-0.015 0.029,-0.027 0.045,-0.04 m -0.961,4.572 c -2.724,2.348 -5.105,4.05 -7.197,5.273 7.756,-0.445 17.046,-2.211 27.308,-5.301 -4.429,-0.505 -11.429,-1.08 -18.239,-1.532 -0.611,0.532 -1.236,1.049 -1.872,1.56 m 38.12,11.025 c 0.753,-2.471 2.353,-11.514 2.705,-15.553 -4.946,2.07 -9.773,3.887 -14.443,5.454 -0.625,2.358 -1.399,7.989 -1.872,12.095 4.529,-0.362 9.077,-1.034 13.61,-1.996 m 29.708,-10.367 c 2.736,-2.794 2.745,-14.688 2.091,-19.708 -3.347,1.944 -6.681,3.783 -9.997,5.524 -0.436,3.431 -1.123,11.794 -1.616,18.401 3.22,-1.281 6.398,-2.686 9.522,-4.217 m 15.993,-9.186 c 1.401,-2.702 0.256,-13.661 -1.06,-18.488 -3.407,2.251 -6.818,4.394 -10.224,6.428 0.777,4.19 1.086,13.28 -0.576,19.133 4.073,-2.165 8.035,-4.536 11.86,-7.073 m 3.404,-2.334 c 3.377,-2.382 6.638,-4.892 9.741,-7.528 l -0.014,-0.015 c 0.534,-0.873 0.256,-5.475 0.05,-8.872 -0.186,-3.174 -0.387,-6.574 -0.283,-9.636 -3.807,2.886 -7.642,5.637 -11.497,8.247 1.239,3.988 2.487,12.362 2.003,17.804 m 12.68,-16.678 c 0.155,2.602 0.262,4.676 0.255,6.329 2.371,-2.149 4.635,-4.363 6.792,-6.641 -0.015,-1.724 -0.03,-8.129 0.461,-17.627 -2.527,2.137 -5.075,4.224 -7.646,6.233 -0.355,3.356 -0.1,7.764 0.138,11.706 m 17.877,-13.65 c 0.075,-1.312 0.43,-8.033 0.242,-13.779 -2.489,2.356 -5.005,4.647 -7.555,6.871 -0.448,7.628 -0.578,13.546 -0.607,17.055 2.888,-3.284 5.539,-6.674 7.92,-10.147 m 228.594,197.969 c -3.646,12.93 -18.224,21.601 -24.327,24.731 -6.351,3.249 -8.357,7.209 -10.163,10.921 -2.449,5.042 -5.206,9.838 -14.24,9.838 h -0.34 c -16.507,0 -51.716,-17.18 -73.325,-54.622 3.869,11.829 9.034,25.459 15.177,40.571 7.215,6.998 18.478,22.916 18.147,28.739 -0.188,3.484 -1.582,6.312 -4.037,8.325 -3.14,2.57 -8.043,3.781 -14.988,3.781 -6.737,0 -14.736,-1.174 -21.795,-2.191 -7.55,-1.088 -14.208,-1.992 -19.003,-1.869 -6.517,0.175 -11.981,0.948 -16.8,1.635 l -0.248,0.032 c -3.934,0.558 -7.333,1.037 -10.427,1.037 -9.159,0 -13.87,-4.64 -16.264,-16.016 -3.622,-17.194 7.747,-40.306 18.748,-62.673 0.458,-0.928 0.912,-1.853 1.366,-2.776 -9.484,7.945 -20.976,14.841 -31.405,21.097 -4.628,2.773 -8.083,4.883 -11.217,6.856 -5.325,3.294 -8.397,10.293 -11.369,17.062 -3.806,8.681 -7.401,16.882 -15.593,19.457 -0.875,0.276 -1.772,0.415 -2.661,0.415 -9.437,0 -16.944,-14.853 -27.331,-35.412 l -0.119,-0.237 c -2.2,-4.349 -4.942,-8.228 -7.594,-11.979 -6.22,-8.791 -12.095,-17.097 -6.486,-26.921 5.262,-9.213 31.468,-25.327 68.525,-34.033 -3.822,-1.066 -7.543,-2.445 -11.224,-4.153 -39.302,-18.278 -45.811,-74.277 -40.682,-88.72 3.871,-10.905 9.522,-11.748 13.261,-12.31 2.116,-0.316 2.581,-0.457 3.149,-1.367 2.4,-3.855 6.007,-5.811 10.728,-5.811 3.502,0 7.079,1.067 9.953,1.926 3.246,0.967 7.084,4.895 13.584,11.75 3.62,3.814 13.235,13.947 16.046,13.96 l 9.459,-2.695 -5.646,8.053 c -2.807,4.01 -7.44,6.436 -13.398,7.02 -0.753,0.074 -1.534,0.116 -2.33,0.13 7.946,5.166 17.039,9.912 25.916,14.541 4.021,2.097 7.904,4.125 11.613,6.154 -14.385,-24.629 -23.638,-56.289 -26.244,-90.152 -1.111,-14.516 -1.053,-29.201 0.17,-43.8 -2.677,5.061 -5.321,9.503 -7.52,12.592 -3.178,19.029 -15.52,38.596 -34.802,55.162 -0.091,0.114 -0.222,0.271 -0.409,0.431 l -1.523,1.203 -0.006,-0.004 c -8.499,7.044 -17.838,13.132 -27.792,18.111 l -1.533,1.29 -0.33,-0.375 c -17.379,8.388 -35.375,12.815 -52.147,12.815 -13.306,0 -25.787,-2.679 -37.101,-7.963 -22.362,-5.912 -36.928,-33.931 -35.701,-45.77 l 1.184,-11.431 5.372,10.161 c 5.788,10.941 23.098,19.194 40.264,19.194 8.321,0 16.252,-1.955 22.933,-5.647 l 1.15,-0.638 c 3.029,-3.889 6.233,-8.226 9.528,-12.893 9.504,-13.465 17.916,-22.622 26.347,-28.653 l -0.16,-0.46 1.755,-0.643 c 12.681,-8.483 25.474,-10.194 41.966,-10.194 7.956,0 16.962,0.447 27.394,0.968 l 8.538,0.421 c 4.23,-6.302 10.921,-18.99 15.476,-30.64 3.152,-18.558 8.252,-36.867 15.198,-54.581 -4.063,4.323 -8.651,8.897 -13.368,13.311 -18.13,17.013 -41.103,34.615 -63.026,48.296 -12.796,7.984 -25.366,14.771 -37.37,20.184 -5.458,2.395 -11.892,5.127 -18.16,7.201 -1.964,0.733 -3.921,1.314 -5.813,1.871 -0.965,0.286 -1.92,0.569 -2.953,0.894 -2.974,0.787 -5.646,1.482 -8.265,2.056 -6.006,1.234 -10.717,1.923 -14.797,2.159 -2.137,0.156 -4.505,0.302 -6.314,0.226 -0.519,-0.014 -1.024,-0.016 -1.518,-0.019 -1.364,-0.012 -2.655,-0.021 -3.822,-0.191 l -4.361,-0.441 -5.559,-1.097 0.741,-4.005 5.38,0.932 4.249,0.314 c 1.047,0.122 2.192,0.097 3.408,0.072 0.495,-0.009 1.002,-0.018 1.566,-0.021 l 0.413,0.004 c 1.616,0 3.397,-0.17 5.454,-0.365 3.838,-0.322 8.444,-1.116 14.064,-2.429 2.455,-0.599 4.95,-1.317 7.858,-2.165 0.935,-0.321 1.883,-0.631 2.844,-0.94 1.812,-0.586 3.683,-1.193 5.574,-1.952 6.073,-2.184 12.279,-5.005 17.531,-7.468 11.606,-5.592 23.744,-12.554 36.083,-20.695 12.422,-8.195 25.162,-17.72 37.149,-27.728 -2.788,1.457 -5.558,2.804 -8.323,4.042 -11.018,5.034 -22.121,8.462 -33.022,10.191 -13.999,2.111 -26.708,0.939 -37.276,-3.441 -2.727,-1.06 -5.51,-2.531 -8.775,-4.637 -1.056,-0.686 -1.866,-1.342 -2.646,-1.974 -0.403,-0.324 -0.803,-0.649 -1.277,-1.005 l -1.818,-1.433 -1.851,-1.85 c -4.765,-4.526 -8.49,-10.122 -11.073,-16.646 -2.627,-6.732 -3.78,-13.316 -3.432,-19.536 0.274,-6.513 1.881,-13.095 4.652,-19.053 2.585,-5.466 6.506,-10.615 11.747,-15.393 l 3.58,-2.887 c 0.873,-0.688 1.787,-1.229 2.671,-1.752 0.434,-0.258 0.871,-0.517 1.284,-0.783 2.521,-1.66 5.253,-2.949 8.632,-4.073 5.876,-1.826 12.32,-2.204 18.264,-1.13 5.365,0.877 10.823,2.908 16.26,6.06 5.05,3.086 9.237,6.651 12.438,10.592 3.812,4.625 6.129,9.36 6.868,14.006 0.464,2.393 0.381,4.918 -0.22,7.317 4.512,0.502 8.983,0.755 13.317,0.755 41.31,0 67.923,-22.608 83.68,-43.471 -5.708,1.245 -11.067,1.76 -16.234,1.577 -6.531,-0.157 -12.941,-1.053 -19.06,-2.668 -7.959,-2.15 -14.43,-5.141 -19.847,-9.198 l -2.771,-2.259 c -0.081,-0.06 -0.165,-0.121 -0.491,-0.435 L 278.96,109.1 c -0.33,-0.358 -0.664,-0.701 -1.001,-1.044 -0.944,-0.975 -1.927,-1.981 -2.778,-3.213 -1.348,-1.728 -2.541,-3.307 -3.444,-5.071 -0.148,-0.275 -0.307,-0.543 -0.464,-0.811 -0.357,-0.611 -0.716,-1.225 -1.031,-1.93 l -1.067,-2.627 c -0.529,-1.139 -0.829,-2.308 -1.025,-3.174 l -0.23,-0.908 c -0.173,-0.682 -0.345,-1.365 -0.479,-2.052 l -0.029,-0.219 c -0.045,-0.502 -0.101,-0.999 -0.156,-1.5 -0.175,-1.536 -0.349,-3.125 -0.183,-4.622 0.064,-4.04 1.144,-8.298 3.115,-12.3 3.364,-7.025 9.671,-12.915 17.844,-16.622 1.998,-0.805 3.71,-1.451 5.579,-2.005 1.763,-0.507 3.944,-0.885 5.978,-1.038 3.799,-0.303 7.674,0.135 11.722,1.287 6.877,2.047 13.198,6.037 18.296,11.559 2.564,2.845 4.443,5.6 5.733,8.405 1.688,3.59 2.292,6.96 1.792,9.995 -0.286,1.922 -1.251,3.612 -2.032,4.717 -0.422,0.712 -0.956,1.306 -1.445,1.844 l -0.156,0.179 c -0.425,0.489 -0.91,1.042 -1.367,1.386 -2.154,2.054 -4.594,3.371 -6.764,4.417 -4.111,1.81 -8.25,2.651 -11.639,2.396 16.915,6.457 33.074,5.83 47.706,-1.791 19.248,-21.839 41.79,-41.298 67,-57.832 l 1.703,-1.121 5.422,8.263 -1.702,1.12 c -7.888,5.173 -15.705,10.798 -23.243,16.72 l -0.141,0.199 c -0.508,0.736 -0.922,1.353 -1.567,2.58 -0.939,1.735 -2.658,5.453 -3.624,10.829 -0.701,3.88 -1.276,9.919 -0.037,16.662 0.561,3.148 1.512,6.069 2.817,8.651 1.569,2.982 3.458,5.095 5.691,6.334 0.512,0.315 1.119,0.547 1.683,0.756 l 0.326,0.091 c 0.22,0.062 0.447,0.126 0.632,0.186 l 2.3,0.338 c 1.062,0.158 2.063,0.308 2.954,0.308 0.185,0 0.372,-0.004 0.683,-0.028 0.766,-0.018 1.522,0.006 2.277,-0.031 l 3.346,-0.591 0.942,-0.345 c 0.291,-0.112 0.582,-0.215 0.876,-0.319 0.429,-0.149 0.855,-0.297 1.192,-0.446 2.495,-1.26 4.677,-3.08 6.243,-5.155 1.605,-2.446 2.484,-4.745 2.775,-6.926 0.182,-0.968 0.08,-2.009 0.08,-3.018 v -0.138 c 0,-0.374 -0.04,-0.747 -0.086,-1.116 -0.075,-0.603 -0.105,-1.175 -0.271,-1.524 l -0.082,-0.251 c -0.285,-0.834 -0.539,-1.631 -0.901,-2.111 l -0.186,-0.297 c -0.356,-0.589 -0.682,-1.141 -1.1,-1.496 -0.216,-0.21 -0.418,-0.421 -0.617,-0.625 -0.234,-0.243 -0.443,-0.475 -0.531,-0.553 l -2.383,-1.499 2.083,-3.5 2.607,1.471 c 0.407,0.274 0.805,0.634 1.227,1.034 0.176,0.162 0.355,0.33 0.441,0.414 0.866,0.658 1.459,1.519 2.062,2.415 0.756,0.946 1.195,2.039 1.623,3.114 0.456,0.918 0.625,1.87 0.777,2.711 0.061,0.347 0.119,0.701 0.208,1.054 l 0.069,0.562 c 0.079,1.235 0.172,2.631 -0.013,4.008 -0.239,2.88 -1.317,5.967 -3.272,9.283 -2.012,2.99 -4.774,5.537 -8.053,7.402 -0.566,0.296 -1.155,0.541 -1.755,0.788 -0.264,0.105 -0.526,0.216 -0.824,0.344 l -1.236,0.518 -4.287,1.021 -0.229,0.038 c -0.643,0.069 -1.29,0.107 -1.946,0.143 l -0.821,0.046 c -0.77,0.082 -1.518,0.104 -2.241,0.077 0.812,0.564 1.756,1.027 2.744,1.513 0.632,0.307 1.262,0.621 1.877,0.96 1.801,0.685 3.717,1.383 5.586,1.901 0.736,0.125 1.459,0.273 2.178,0.418 1.278,0.261 2.48,0.507 3.589,0.598 l 5.676,0.297 7.286,-0.553 8.225,-1.592 0.857,3.981 -8.281,1.966 -7.93,0.948 -6.1,-0.061 c -1.451,-0.06 -2.89,-0.29 -4.283,-0.516 -0.721,-0.115 -1.444,-0.23 -2.369,-0.359 -2.302,-0.522 -4.578,-1.256 -6.503,-1.907 l -0.266,-0.109 c -0.611,-0.308 -1.244,-0.587 -1.876,-0.866 -1.437,-0.632 -2.926,-1.29 -4.209,-2.229 l -0.927,-0.595 c -0.636,-0.4 -1.261,-0.799 -1.986,-1.318 l -2.376,-1.977 c -0.88,-0.671 -1.609,-1.437 -2.248,-2.114 l -0.242,-0.255 c -0.221,-0.243 -0.45,-0.477 -0.677,-0.708 -0.482,-0.495 -0.985,-1.007 -1.407,-1.568 l -1.08,-1.381 c -1.513,-1.493 -2.888,-3.276 -4.106,-5.334 -1.831,-3.202 -3.213,-6.782 -4.106,-10.629 -1.473,-6.233 -1.806,-13.037 -0.962,-19.675 0.021,-0.163 0.043,-0.325 0.067,-0.489 -8.373,7.387 -16.361,15.226 -23.806,23.358 -0.173,7.511 1.807,18.938 3.427,24.491 l 3.863,0.959 c 27.916,6.878 38.361,9.449 47.985,38.17 0.993,2.979 2.003,5.792 2.998,8.37 l 0.365,0.372 c 4.903,5.014 12.274,7.889 20.221,7.889 6.375,0 11.994,-1.839 15.033,-4.924 l 7.228,-7.341 -1.932,10.122 c -1.14,5.978 -13.032,20.139 -27.523,20.139 -0.194,0 -0.385,-0.002 -0.578,-0.009 -2.226,0.32 -4.511,0.484 -6.801,0.484 -17.306,0 -35.125,-9.079 -48.891,-24.91 -3.241,-3.729 -5.61,-6.804 -7.447,-9.674 l -0.949,-1.682 0.082,-0.061 c -7.177,-11.86 -10.535,-24.504 -9.283,-35.01 -1.536,-4.665 -3.167,-13.067 -3.791,-20.602 -8.445,9.791 -16.174,20.001 -23.021,30.414 -2.098,10.275 0.536,24.998 6.766,37.654 5.402,10.977 18.234,30.17 43.779,36.471 2.942,-2.45 8.411,-3.88 14.56,-3.659 6.373,0.212 11.982,2.117 14.65,4.971 1.178,1.263 1.778,2.708 1.724,4.172 -0.16,4.865 -7.414,8.368 -16.951,8.033 -7.966,-0.267 -14.168,-2.991 -15.89,-6.808 -28.139,-7.025 -42.215,-28.071 -48.136,-40.098 -4.552,-9.247 -7.358,-19.312 -8.047,-28.556 -1.232,2.103 -2.44,4.228 -3.624,6.367 0.092,30.299 18.408,82.965 86.508,91.912 2.473,-3.536 8.919,-5.137 14.822,-5.137 0.354,0 0.715,0.006 1.079,0.016 6.37,0.197 11.991,2.089 14.661,4.937 1.185,1.259 1.784,2.702 1.739,4.168 -0.152,4.872 -7.394,8.389 -16.934,8.073 -6.377,-0.198 -11.966,-2.107 -14.638,-4.934 -74.808,-8.978 -90.187,-64.842 -93.341,-87.386 -0.738,1.512 -1.493,3.09 -2.266,4.741 -3.417,29.465 8.288,61.869 31.36,86.75 22.966,24.769 53.885,38.559 87.158,38.909 2.922,-3.598 9.401,-6.395 17.008,-7.263 1.568,-0.18 3.143,-0.271 4.673,-0.271 9.2,0 15.748,3.216 16.295,8.001 0.343,2.977 -1.632,5.894 -5.554,8.22 -3.435,2.034 -8.097,3.469 -13.131,4.045 -1.571,0.18 -3.141,0.269 -4.673,0.269 -7.941,0 -13.814,-2.314 -15.685,-6.028 -34.821,-0.63 -67.166,-15.203 -91.213,-41.137 -19.539,-21.08 -31.668,-48.329 -33.513,-74.567 -14.581,37.361 -20.419,76.44 -17.353,116.319 0.689,8.944 1.86,17.702 3.472,26.187 0.256,-2.546 1.16,-4.709 2.698,-6.459 4.391,-4.993 12.591,-5.4 22.065,-5.4 l 6.274,0.02 c 4.195,0 8.66,-0.069 12.871,-0.546 2.348,-0.268 5.305,-0.821 8.855,-1.477 6.708,-1.255 15.051,-2.811 22.732,-2.811 12.628,0.002 20.333,4.4 22.896,13.068 1.54,5.201 -3.366,11.43 -9.042,18.644 -2.89,3.67 -6.163,7.821 -7.115,10.42 -4.379,18.598 -8.457,36.403 -10.439,49.92 6.684,-7.804 17.524,-15.665 29.628,-24.449 8,-5.806 16.217,-11.767 23.371,-17.95 -2.582,0.206 -5.027,0.154 -7.133,-0.172 -6.728,-1.026 -9.42,-4.485 -10.488,-7.2 l -1.707,-4.304 4.618,-0.452 c 7.016,-0.679 17.075,-13.362 22.48,-20.175 2.189,-2.762 3.917,-4.941 5.233,-6.204 3.491,-3.345 7.812,-6.787 12.758,-6.215 3.518,0.4 6.613,2.711 9.459,7.062 0.459,0.699 0.619,0.832 2.972,0.861 3.849,0.054 9.671,0.136 14.831,10.341 7.51,14.858 4.298,66.704 -28.81,92.944 -11.411,9.042 -22.322,13.573 -34.127,14.134 9.891,5.606 19.47,13.105 27.956,20.196 l 0.016,-0.018 1.645,1.401 c 5.277,4.491 14.394,6.843 22.608,8.962 l 0.276,0.07 c 9.253,2.389 17.247,4.453 20.425,9.653 3.237,5.293 4.058,10.884 2.448,16.615" />
              </g>
            </g>
          </g>
        </g>
      </g>
    </g>
  </g>
</svg>
