<?xml version="1.0" encoding="UTF-8" standalone="no"?>
<!-- Created with Inkscape (http://www.inkscape.org/) -->

<svg
   xmlns:dc="http://purl.org/dc/elements/1.1/"
   xmlns:cc="http://creativecommons.org/ns#"
   xmlns:rdf="http://www.w3.org/1999/02/22-rdf-syntax-ns#"
   xmlns:svg="http://www.w3.org/2000/svg"
   xmlns="http://www.w3.org/2000/svg"
   xmlns:sodipodi="http://sodipodi.sourceforge.net/DTD/sodipodi-0.dtd"
   xmlns:inkscape="http://www.inkscape.org/namespaces/inkscape"
   width="51mm"
   height="51mm"
   viewBox="0 0 51 51"
   version="1.1"
   id="svg8"
   inkscape:version="0.92.3 (2405546, 2018-03-11)"
   sodipodi:docname="p5.svg">
  <defs
     id="defs2">
    <linearGradient
       id="linearGradient3144"
       y2="539.27"
       gradientUnits="userSpaceOnUse"
       x2="247.31"
       gradientTransform="matrix(1.8854,0,0,1,38.598,128.35)"
       y1="498.13"
       x1="200.38">
      <stop
         id="stop6741"
         offset="0" />
      <stop
         id="stop6743"
         stop-opacity="0"
         offset="1" />
    </linearGradient>
    <linearGradient
       id="linearGradient3144-2"
       y2="539.27"
       gradientUnits="userSpaceOnUse"
       x2="247.31"
       gradientTransform="matrix(1.8854,0,0,1,38.598,128.35)"
       y1="498.13"
       x1="200.38">
      <stop
         id="stop6741-8"
         offset="0" />
      <stop
         id="stop6743-9"
         stop-opacity="0"
         offset="1" />
    </linearGradient>
    <linearGradient
       id="linearGradient4219"
       y2="539.27"
       gradientUnits="userSpaceOnUse"
       x2="247.31"
       gradientTransform="matrix(1.21,0,0,1,169.55,-481.7)"
       y1="498.13"
       x1="200.38">
      <stop
         id="stop6741-2"
         offset="0" />
      <stop
         id="stop6743-2"
         stop-opacity="0"
         offset="1" />
    </linearGradient>
    <marker
       id="Arrow2Lstart"
       refY="0"
       refX="0"
       style="overflow:visible"
       orient="auto"
       inkscape:stockid="Arrow2Lstart">
      <path
         id="path2615"
         style="stroke-linejoin:round;stroke-width:.625;fill-rule:evenodd"
         sodipodi:nodetypes="cccc"
         transform="matrix(1.1,0,0,1.1,-5.5,0)"
         d="m8.7186 4.0337l-10.926-4.0177 10.926-4.0177c-1.7455 2.3721-1.7355 5.6174 0 8.0354z" />
    </marker>
    <marker
       id="Arrow1Mstart"
       refY="0"
       refX="0"
       style="overflow:visible"
       orient="auto"
       inkscape:stockid="Arrow1Mstart">
      <path
         id="path2629"
         style="stroke:#000000;stroke-width:1pt;fill-rule:evenodd"
         sodipodi:nodetypes="ccccc"
         transform="scale(.4)"
         d="m0 0l5-5-17.5 5 17.5 5-5-5z" />
    </marker>
    <marker
       id="Arrow2Lstart-8"
       refY="0"
       refX="0"
       style="overflow:visible"
       orient="auto"
       inkscape:stockid="Arrow2Lstart">
      <path
         id="path2615-7"
         style="stroke-linejoin:round;stroke-width:.625;fill-rule:evenodd"
         sodipodi:nodetypes="cccc"
         transform="matrix(1.1,0,0,1.1,-5.5,0)"
         d="m8.7186 4.0337l-10.926-4.0177 10.926-4.0177c-1.7455 2.3721-1.7355 5.6174 0 8.0354z" />
    </marker>
    <marker
       id="Arrow1Mstart-1"
       refY="0"
       refX="0"
       style="overflow:visible"
       orient="auto"
       inkscape:stockid="Arrow1Mstart">
      <path
         id="path2629-7"
         style="stroke:#000000;stroke-width:1pt;fill-rule:evenodd"
         sodipodi:nodetypes="ccccc"
         transform="scale(.4)"
         d="m0 0l5-5-17.5 5 17.5 5-5-5z" />
    </marker>
    <linearGradient
       id="linearGradient2855"
       y2="539.27"
       gradientUnits="userSpaceOnUse"
       x2="247.31"
       gradientTransform="translate(-160.12,-300.58)"
       y1="498.13"
       x1="200.38">
      <stop
         id="stop6741-26"
         offset="0" />
      <stop
         id="stop6743-6"
         stop-opacity="0"
         offset="1" />
    </linearGradient>
    <marker
       id="Arrow2Lstart-5"
       refY="0"
       refX="0"
       style="overflow:visible"
       orient="auto"
       inkscape:stockid="Arrow2Lstart">
      <path
         id="path2615-6"
         style="stroke-linejoin:round;stroke-width:.625;fill-rule:evenodd"
         sodipodi:nodetypes="cccc"
         transform="matrix(1.1,0,0,1.1,-5.5,0)"
         d="m8.7186 4.0337l-10.926-4.0177 10.926-4.0177c-1.7455 2.3721-1.7355 5.6174 0 8.0354z" />
    </marker>
    <marker
       id="Arrow1Mstart-11"
       refY="0"
       refX="0"
       style="overflow:visible"
       orient="auto"
       inkscape:stockid="Arrow1Mstart">
      <path
         id="path2629-5"
         style="stroke:#000000;stroke-width:1pt;fill-rule:evenodd"
         sodipodi:nodetypes="ccccc"
         transform="scale(.4)"
         d="m0 0l5-5-17.5 5 17.5 5-5-5z" />
    </marker>
    <marker
       id="Arrow2Lstart-4"
       refY="0"
       refX="0"
       style="overflow:visible"
       orient="auto"
       inkscape:stockid="Arrow2Lstart">
      <path
         id="path2615-4"
         style="stroke-linejoin:round;stroke-width:.625;fill-rule:evenodd"
         sodipodi:nodetypes="cccc"
         transform="matrix(1.1,0,0,1.1,-5.5,0)"
         d="m8.7186 4.0337l-10.926-4.0177 10.926-4.0177c-1.7455 2.3721-1.7355 5.6174 0 8.0354z" />
    </marker>
    <marker
       id="Arrow1Mstart-7"
       refY="0"
       refX="0"
       style="overflow:visible"
       orient="auto"
       inkscape:stockid="Arrow1Mstart">
      <path
         id="path2629-6"
         style="stroke:#000000;stroke-width:1pt;fill-rule:evenodd"
         sodipodi:nodetypes="ccccc"
         transform="scale(.4)"
         d="m0 0l5-5-17.5 5 17.5 5-5-5z" />
    </marker>
    <marker
       id="Arrow2Lstart-7"
       refY="0"
       refX="0"
       style="overflow:visible"
       orient="auto"
       inkscape:stockid="Arrow2Lstart">
      <path
         id="path2615-41"
         style="stroke-linejoin:round;stroke-width:.625;fill-rule:evenodd"
         sodipodi:nodetypes="cccc"
         transform="matrix(1.1,0,0,1.1,-5.5,0)"
         d="m8.7186 4.0337l-10.926-4.0177 10.926-4.0177c-1.7455 2.3721-1.7355 5.6174 0 8.0354z" />
    </marker>
    <marker
       id="Arrow1Mstart-8"
       refY="0"
       refX="0"
       style="overflow:visible"
       orient="auto"
       inkscape:stockid="Arrow1Mstart">
      <path
         id="path2629-59"
         style="stroke:#000000;stroke-width:1pt;fill-rule:evenodd"
         sodipodi:nodetypes="ccccc"
         transform="scale(.4)"
         d="m0 0l5-5-17.5 5 17.5 5-5-5z" />
    </marker>
    <marker
       id="Arrow2Lstart-3"
       refY="0"
       refX="0"
       style="overflow:visible"
       orient="auto"
       inkscape:stockid="Arrow2Lstart">
      <path
         id="path2615-3"
         style="stroke-linejoin:round;stroke-width:.625;fill-rule:evenodd"
         sodipodi:nodetypes="cccc"
         transform="matrix(1.1,0,0,1.1,-5.5,0)"
         d="m8.7186 4.0337l-10.926-4.0177 10.926-4.0177c-1.7455 2.3721-1.7355 5.6174 0 8.0354z" />
    </marker>
    <marker
       id="Arrow1Mstart-3"
       refY="0"
       refX="0"
       style="overflow:visible"
       orient="auto"
       inkscape:stockid="Arrow1Mstart">
      <path
         id="path2629-8"
         style="stroke:#000000;stroke-width:1pt;fill-rule:evenodd"
         sodipodi:nodetypes="ccccc"
         transform="scale(.4)"
         d="m0 0l5-5-17.5 5 17.5 5-5-5z" />
    </marker>
    <marker
       id="Arrow2Lstart-43"
       refY="0"
       refX="0"
       style="overflow:visible"
       orient="auto"
       inkscape:stockid="Arrow2Lstart">
      <path
         id="path2615-0"
         style="stroke-linejoin:round;stroke-width:.625;fill-rule:evenodd"
         sodipodi:nodetypes="cccc"
         transform="matrix(1.1,0,0,1.1,-5.5,0)"
         d="m8.7186 4.0337l-10.926-4.0177 10.926-4.0177c-1.7455 2.3721-1.7355 5.6174 0 8.0354z" />
    </marker>
    <marker
       id="Arrow1Mstart-30"
       refY="0"
       refX="0"
       style="overflow:visible"
       orient="auto"
       inkscape:stockid="Arrow1Mstart">
      <path
         id="path2629-9"
         style="stroke:#000000;stroke-width:1pt;fill-rule:evenodd"
         sodipodi:nodetypes="ccccc"
         transform="scale(.4)"
         d="m0 0l5-5-17.5 5 17.5 5-5-5z" />
    </marker>
    <marker
       id="Arrow2Lstart-75"
       refY="0"
       refX="0"
       style="overflow:visible"
       orient="auto"
       inkscape:stockid="Arrow2Lstart">
      <path
         id="path2615-48"
         style="stroke-linejoin:round;stroke-width:.625;fill-rule:evenodd"
         sodipodi:nodetypes="cccc"
         transform="matrix(1.1,0,0,1.1,-5.5,0)"
         d="m8.7186 4.0337l-10.926-4.0177 10.926-4.0177c-1.7455 2.3721-1.7355 5.6174 0 8.0354z" />
    </marker>
    <marker
       id="Arrow1Mstart-12"
       refY="0"
       refX="0"
       style="overflow:visible"
       orient="auto"
       inkscape:stockid="Arrow1Mstart">
      <path
         id="path2629-89"
         style="stroke:#000000;stroke-width:1pt;fill-rule:evenodd"
         sodipodi:nodetypes="ccccc"
         transform="scale(.4)"
         d="m0 0l5-5-17.5 5 17.5 5-5-5z" />
    </marker>
    <marker
       id="Arrow2Lstart-0"
       refY="0"
       refX="0"
       style="overflow:visible"
       orient="auto"
       inkscape:stockid="Arrow2Lstart">
      <path
         id="path2615-64"
         style="stroke-linejoin:round;stroke-width:.625;fill-rule:evenodd"
         sodipodi:nodetypes="cccc"
         transform="matrix(1.1,0,0,1.1,-5.5,0)"
         d="m8.7186 4.0337l-10.926-4.0177 10.926-4.0177c-1.7455 2.3721-1.7355 5.6174 0 8.0354z" />
    </marker>
    <marker
       id="Arrow1Mstart-6"
       refY="0"
       refX="0"
       style="overflow:visible"
       orient="auto"
       inkscape:stockid="Arrow1Mstart">
      <path
         id="path2629-2"
         style="stroke:#000000;stroke-width:1pt;fill-rule:evenodd"
         sodipodi:nodetypes="ccccc"
         transform="scale(.4)"
         d="m0 0l5-5-17.5 5 17.5 5-5-5z" />
    </marker>
    <marker
       id="Arrow2Lstart-08"
       refY="0"
       refX="0"
       style="overflow:visible"
       orient="auto"
       inkscape:stockid="Arrow2Lstart">
      <path
         id="path2615-1"
         style="stroke-linejoin:round;stroke-width:.625;fill-rule:evenodd"
         sodipodi:nodetypes="cccc"
         transform="matrix(1.1,0,0,1.1,-5.5,0)"
         d="m8.7186 4.0337l-10.926-4.0177 10.926-4.0177c-1.7455 2.3721-1.7355 5.6174 0 8.0354z" />
    </marker>
    <marker
       id="Arrow1Mstart-31"
       refY="0"
       refX="0"
       style="overflow:visible"
       orient="auto"
       inkscape:stockid="Arrow1Mstart">
      <path
         id="path2629-1"
         style="stroke:#000000;stroke-width:1pt;fill-rule:evenodd"
         sodipodi:nodetypes="ccccc"
         transform="scale(.4)"
         d="m0 0l5-5-17.5 5 17.5 5-5-5z" />
    </marker>
    <marker
       id="Arrow2Lstart-05"
       refY="0"
       refX="0"
       style="overflow:visible"
       orient="auto"
       inkscape:stockid="Arrow2Lstart">
      <path
         id="path2615-66"
         style="stroke-linejoin:round;stroke-width:.625;fill-rule:evenodd"
         sodipodi:nodetypes="cccc"
         transform="matrix(1.1,0,0,1.1,-5.5,0)"
         d="m8.7186 4.0337l-10.926-4.0177 10.926-4.0177c-1.7455 2.3721-1.7355 5.6174 0 8.0354z" />
    </marker>
    <marker
       id="Arrow1Mstart-4"
       refY="0"
       refX="0"
       style="overflow:visible"
       orient="auto"
       inkscape:stockid="Arrow1Mstart">
      <path
         id="path2629-0"
         style="stroke:#000000;stroke-width:1pt;fill-rule:evenodd"
         sodipodi:nodetypes="ccccc"
         transform="scale(.4)"
         d="m0 0l5-5-17.5 5 17.5 5-5-5z" />
    </marker>
    <marker
       id="Arrow2Lstart-9"
       refY="0"
       refX="0"
       style="overflow:visible"
       orient="auto"
       inkscape:stockid="Arrow2Lstart">
      <path
         id="path2615-60"
         style="stroke-linejoin:round;stroke-width:.625;fill-rule:evenodd"
         sodipodi:nodetypes="cccc"
         transform="matrix(1.1,0,0,1.1,-5.5,0)"
         d="m8.7186 4.0337l-10.926-4.0177 10.926-4.0177c-1.7455 2.3721-1.7355 5.6174 0 8.0354z" />
    </marker>
    <marker
       id="Arrow1Mstart-2"
       refY="0"
       refX="0"
       style="overflow:visible"
       orient="auto"
       inkscape:stockid="Arrow1Mstart">
      <path
         id="path2629-76"
         style="stroke:#000000;stroke-width:1pt;fill-rule:evenodd"
         sodipodi:nodetypes="ccccc"
         transform="scale(.4)"
         d="m0 0l5-5-17.5 5 17.5 5-5-5z" />
    </marker>
    <marker
       id="Arrow2Lstart-58"
       refY="0"
       refX="0"
       style="overflow:visible"
       orient="auto"
       inkscape:stockid="Arrow2Lstart">
      <path
         id="path2615-70"
         style="stroke-linejoin:round;stroke-width:.625;fill-rule:evenodd"
         sodipodi:nodetypes="cccc"
         transform="matrix(1.1,0,0,1.1,-5.5,0)"
         d="m8.7186 4.0337l-10.926-4.0177 10.926-4.0177c-1.7455 2.3721-1.7355 5.6174 0 8.0354z" />
    </marker>
    <marker
       id="Arrow1Mstart-48"
       refY="0"
       refX="0"
       style="overflow:visible"
       orient="auto"
       inkscape:stockid="Arrow1Mstart">
      <path
         id="path2629-04"
         style="stroke:#000000;stroke-width:1pt;fill-rule:evenodd"
         sodipodi:nodetypes="ccccc"
         transform="scale(.4)"
         d="m0 0l5-5-17.5 5 17.5 5-5-5z" />
    </marker>
    <linearGradient
       id="linearGradient4009"
       y2="540.1"
       gradientUnits="userSpaceOnUse"
       x2="306.87"
       gradientTransform="translate(-202.75,-323.7)"
       y1="540.1"
       x1="212.74">
      <stop
         id="stop6741-1"
         offset="0" />
      <stop
         id="stop6743-0"
         stop-opacity="0"
         offset="1" />
    </linearGradient>
    <marker
       id="Arrow2Lstart-90"
       refY="0"
       refX="0"
       style="overflow:visible"
       orient="auto"
       inkscape:stockid="Arrow2Lstart">
      <path
         id="path2615-2"
         style="stroke-linejoin:round;stroke-width:.625;fill-rule:evenodd"
         sodipodi:nodetypes="cccc"
         transform="matrix(1.1,0,0,1.1,-5.5,0)"
         d="m8.7186 4.0337l-10.926-4.0177 10.926-4.0177c-1.7455 2.3721-1.7355 5.6174 0 8.0354z" />
    </marker>
    <marker
       id="Arrow1Mstart-83"
       refY="0"
       refX="0"
       style="overflow:visible"
       orient="auto"
       inkscape:stockid="Arrow1Mstart">
      <path
         id="path2629-80"
         style="stroke:#000000;stroke-width:1pt;fill-rule:evenodd"
         sodipodi:nodetypes="ccccc"
         transform="scale(.4)"
         d="m0 0l5-5-17.5 5 17.5 5-5-5z" />
    </marker>
    <marker
       id="Arrow2Lstart-50"
       refY="0"
       refX="0"
       style="overflow:visible"
       orient="auto"
       inkscape:stockid="Arrow2Lstart">
      <path
         id="path2615-29"
         style="stroke-linejoin:round;stroke-width:.625;fill-rule:evenodd"
         sodipodi:nodetypes="cccc"
         transform="matrix(1.1,0,0,1.1,-5.5,0)"
         d="m8.7186 4.0337l-10.926-4.0177 10.926-4.0177c-1.7455 2.3721-1.7355 5.6174 0 8.0354z" />
    </marker>
    <marker
       id="Arrow1Mstart-43"
       refY="0"
       refX="0"
       style="overflow:visible"
       orient="auto"
       inkscape:stockid="Arrow1Mstart">
      <path
         id="path2629-51"
         style="stroke:#000000;stroke-width:1pt;fill-rule:evenodd"
         sodipodi:nodetypes="ccccc"
         transform="scale(.4)"
         d="m0 0l5-5-17.5 5 17.5 5-5-5z" />
    </marker>
    <marker
       id="Arrow2Lstart-92"
       refY="0"
       refX="0"
       style="overflow:visible"
       orient="auto"
       inkscape:stockid="Arrow2Lstart">
      <path
         id="path2615-8"
         style="stroke-linejoin:round;stroke-width:.625;fill-rule:evenodd"
         sodipodi:nodetypes="cccc"
         transform="matrix(1.1,0,0,1.1,-5.5,0)"
         d="m8.7186 4.0337l-10.926-4.0177 10.926-4.0177c-1.7455 2.3721-1.7355 5.6174 0 8.0354z" />
    </marker>
    <marker
       id="Arrow1Mstart-88"
       refY="0"
       refX="0"
       style="overflow:visible"
       orient="auto"
       inkscape:stockid="Arrow1Mstart">
      <path
         id="path2629-68"
         style="stroke:#000000;stroke-width:1pt;fill-rule:evenodd"
         sodipodi:nodetypes="ccccc"
         transform="scale(.4)"
         d="m0 0l5-5-17.5 5 17.5 5-5-5z" />
    </marker>
    <marker
       id="Arrow2Lstart-903"
       refY="0"
       refX="0"
       style="overflow:visible"
       orient="auto"
       inkscape:stockid="Arrow2Lstart">
      <path
         id="path2615-33"
         style="stroke-linejoin:round;stroke-width:.625;fill-rule:evenodd"
         sodipodi:nodetypes="cccc"
         transform="matrix(1.1,0,0,1.1,-5.5,0)"
         d="m8.7186 4.0337l-10.926-4.0177 10.926-4.0177c-1.7455 2.3721-1.7355 5.6174 0 8.0354z" />
    </marker>
    <marker
       id="Arrow1Mstart-73"
       refY="0"
       refX="0"
       style="overflow:visible"
       orient="auto"
       inkscape:stockid="Arrow1Mstart">
      <path
         id="path2629-26"
         style="stroke:#000000;stroke-width:1pt;fill-rule:evenodd"
         sodipodi:nodetypes="ccccc"
         transform="scale(.4)"
         d="m0 0l5-5-17.5 5 17.5 5-5-5z" />
    </marker>
    <marker
       id="Arrow2Lstart-086"
       refY="0"
       refX="0"
       style="overflow:visible"
       orient="auto"
       inkscape:stockid="Arrow2Lstart">
      <path
         id="path2615-24"
         style="stroke-linejoin:round;stroke-width:.625;fill-rule:evenodd"
         sodipodi:nodetypes="cccc"
         transform="matrix(1.1,0,0,1.1,-5.5,0)"
         d="m8.7186 4.0337l-10.926-4.0177 10.926-4.0177c-1.7455 2.3721-1.7355 5.6174 0 8.0354z" />
    </marker>
    <marker
       id="Arrow1Mstart-79"
       refY="0"
       refX="0"
       style="overflow:visible"
       orient="auto"
       inkscape:stockid="Arrow1Mstart">
      <path
         id="path2629-3"
         style="stroke:#000000;stroke-width:1pt;fill-rule:evenodd"
         sodipodi:nodetypes="ccccc"
         transform="scale(.4)"
         d="m0 0l5-5-17.5 5 17.5 5-5-5z" />
    </marker>
    <marker
       id="Arrow2Lstart-49"
       refY="0"
       refX="0"
       style="overflow:visible"
       orient="auto"
       inkscape:stockid="Arrow2Lstart">
      <path
         id="path2615-9"
         style="stroke-linejoin:round;stroke-width:.625;fill-rule:evenodd"
         sodipodi:nodetypes="cccc"
         transform="matrix(1.1,0,0,1.1,-5.5,0)"
         d="m8.7186 4.0337l-10.926-4.0177 10.926-4.0177c-1.7455 2.3721-1.7355 5.6174 0 8.0354z" />
    </marker>
    <marker
       id="Arrow1Mstart-45"
       refY="0"
       refX="0"
       style="overflow:visible"
       orient="auto"
       inkscape:stockid="Arrow1Mstart">
      <path
         id="path2629-93"
         style="stroke:#000000;stroke-width:1pt;fill-rule:evenodd"
         sodipodi:nodetypes="ccccc"
         transform="scale(.4)"
         d="m0 0l5-5-17.5 5 17.5 5-5-5z" />
    </marker>
    <marker
       id="Arrow2Lstart-2"
       refY="0"
       refX="0"
       style="overflow:visible"
       orient="auto"
       inkscape:stockid="Arrow2Lstart">
      <path
         id="path2615-01"
         style="stroke-linejoin:round;stroke-width:.625;fill-rule:evenodd"
         sodipodi:nodetypes="cccc"
         transform="matrix(1.1,0,0,1.1,-5.5,0)"
         d="m8.7186 4.0337l-10.926-4.0177 10.926-4.0177c-1.7455 2.3721-1.7355 5.6174 0 8.0354z" />
    </marker>
    <marker
       id="Arrow1Mstart-9"
       refY="0"
       refX="0"
       style="overflow:visible"
       orient="auto"
       inkscape:stockid="Arrow1Mstart">
      <path
         id="path2629-62"
         style="stroke:#000000;stroke-width:1pt;fill-rule:evenodd"
         sodipodi:nodetypes="ccccc"
         transform="scale(.4)"
         d="m0 0l5-5-17.5 5 17.5 5-5-5z" />
    </marker>
    <marker
       id="Arrow2Lstart-06"
       refY="0"
       refX="0"
       style="overflow:visible"
       orient="auto"
       inkscape:stockid="Arrow2Lstart">
      <path
         id="path2615-47"
         style="stroke-linejoin:round;stroke-width:.625;fill-rule:evenodd"
         sodipodi:nodetypes="cccc"
         transform="matrix(1.1,0,0,1.1,-5.5,0)"
         d="m8.7186 4.0337l-10.926-4.0177 10.926-4.0177c-1.7455 2.3721-1.7355 5.6174 0 8.0354z" />
    </marker>
    <marker
       id="Arrow1Mstart-485"
       refY="0"
       refX="0"
       style="overflow:visible"
       orient="auto"
       inkscape:stockid="Arrow1Mstart">
      <path
         id="path2629-82"
         style="stroke:#000000;stroke-width:1pt;fill-rule:evenodd"
         sodipodi:nodetypes="ccccc"
         transform="scale(.4)"
         d="m0 0l5-5-17.5 5 17.5 5-5-5z" />
    </marker>
    <marker
       id="Arrow2Lstart-01"
       refY="0"
       refX="0"
       style="overflow:visible"
       orient="auto"
       inkscape:stockid="Arrow2Lstart">
      <path
         id="path2615-37"
         style="stroke-linejoin:round;stroke-width:.625;fill-rule:evenodd"
         sodipodi:nodetypes="cccc"
         transform="matrix(1.1,0,0,1.1,-5.5,0)"
         d="m8.7186 4.0337l-10.926-4.0177 10.926-4.0177c-1.7455 2.3721-1.7355 5.6174 0 8.0354z" />
    </marker>
    <marker
       id="Arrow1Mstart-72"
       refY="0"
       refX="0"
       style="overflow:visible"
       orient="auto"
       inkscape:stockid="Arrow1Mstart">
      <path
         id="path2629-64"
         style="stroke:#000000;stroke-width:1pt;fill-rule:evenodd"
         sodipodi:nodetypes="ccccc"
         transform="scale(.4)"
         d="m0 0l5-5-17.5 5 17.5 5-5-5z" />
    </marker>
    <marker
       id="Arrow2Lstart-86"
       refY="0"
       refX="0"
       style="overflow:visible"
       orient="auto"
       inkscape:stockid="Arrow2Lstart">
      <path
         id="path2615-04"
         style="stroke-linejoin:round;stroke-width:.625;fill-rule:evenodd"
         sodipodi:nodetypes="cccc"
         transform="matrix(1.1,0,0,1.1,-5.5,0)"
         d="m8.7186 4.0337l-10.926-4.0177 10.926-4.0177c-1.7455 2.3721-1.7355 5.6174 0 8.0354z" />
    </marker>
    <marker
       id="Arrow1Mstart-67"
       refY="0"
       refX="0"
       style="overflow:visible"
       orient="auto"
       inkscape:stockid="Arrow1Mstart">
      <path
         id="path2629-60"
         style="stroke:#000000;stroke-width:1pt;fill-rule:evenodd"
         sodipodi:nodetypes="ccccc"
         transform="scale(.4)"
         d="m0 0l5-5-17.5 5 17.5 5-5-5z" />
    </marker>
    <clipPath
       id="clipPath4554"
       clipPathUnits="userSpaceOnUse">
      <path
         inkscape:connector-curvature="0"
         id="path4552"
         d="M 0,600 H 600 V 0 H 0 Z" />
    </clipPath>
    <marker
       inkscape:stockid="Arrow2Lstart"
       orient="auto"
       style="overflow:visible"
       refX="0"
       refY="0"
       id="Arrow2Lstart-97">
      <path
         d="m8.7186 4.0337l-10.926-4.0177 10.926-4.0177c-1.7455 2.3721-1.7355 5.6174 0 8.0354z"
         transform="matrix(1.1,0,0,1.1,-5.5,0)"
         sodipodi:nodetypes="cccc"
         style="stroke-linejoin:round;stroke-width:.625;fill-rule:evenodd"
         id="path2615-99" />
    </marker>
    <marker
       inkscape:stockid="Arrow1Mstart"
       orient="auto"
       style="overflow:visible"
       refX="0"
       refY="0"
       id="Arrow1Mstart-32">
      <path
         d="m0 0l5-5-17.5 5 17.5 5-5-5z"
         transform="scale(.4)"
         sodipodi:nodetypes="ccccc"
         style="stroke:#000000;stroke-width:1pt;fill-rule:evenodd"
         id="path2629-4" />
    </marker>
    <marker
       inkscape:stockid="Arrow2Lstart"
       orient="auto"
       style="overflow:visible"
       refX="0"
       refY="0"
       id="Arrow2Lstart-8-3">
      <path
         d="m8.7186 4.0337l-10.926-4.0177 10.926-4.0177c-1.7455 2.3721-1.7355 5.6174 0 8.0354z"
         transform="matrix(1.1,0,0,1.1,-5.5,0)"
         sodipodi:nodetypes="cccc"
         style="stroke-linejoin:round;stroke-width:.625;fill-rule:evenodd"
         id="path2615-7-7" />
    </marker>
    <marker
       inkscape:stockid="Arrow1Mstart"
       orient="auto"
       style="overflow:visible"
       refX="0"
       refY="0"
       id="Arrow1Mstart-1-1">
      <path
         d="m0 0l5-5-17.5 5 17.5 5-5-5z"
         transform="scale(.4)"
         sodipodi:nodetypes="ccccc"
         style="stroke:#000000;stroke-width:1pt;fill-rule:evenodd"
         id="path2629-7-2" />
    </marker>
    <marker
       inkscape:stockid="Arrow2Lstart"
       orient="auto"
       style="overflow:visible"
       refX="0"
       refY="0"
       id="Arrow2Lstart-5-2">
      <path
         d="m8.7186 4.0337l-10.926-4.0177 10.926-4.0177c-1.7455 2.3721-1.7355 5.6174 0 8.0354z"
         transform="matrix(1.1,0,0,1.1,-5.5,0)"
         sodipodi:nodetypes="cccc"
         style="stroke-linejoin:round;stroke-width:.625;fill-rule:evenodd"
         id="path2615-6-1" />
    </marker>
    <marker
       inkscape:stockid="Arrow1Mstart"
       orient="auto"
       style="overflow:visible"
       refX="0"
       refY="0"
       id="Arrow1Mstart-11-7">
      <path
         d="m0 0l5-5-17.5 5 17.5 5-5-5z"
         transform="scale(.4)"
         sodipodi:nodetypes="ccccc"
         style="stroke:#000000;stroke-width:1pt;fill-rule:evenodd"
         id="path2629-5-5" />
    </marker>
    <marker
       inkscape:stockid="Arrow2Lstart"
       orient="auto"
       style="overflow:visible"
       refX="0"
       refY="0"
       id="Arrow2Lstart-4-1">
      <path
         d="m8.7186 4.0337l-10.926-4.0177 10.926-4.0177c-1.7455 2.3721-1.7355 5.6174 0 8.0354z"
         transform="matrix(1.1,0,0,1.1,-5.5,0)"
         sodipodi:nodetypes="cccc"
         style="stroke-linejoin:round;stroke-width:.625;fill-rule:evenodd"
         id="path2615-4-7" />
    </marker>
    <marker
       inkscape:stockid="Arrow1Mstart"
       orient="auto"
       style="overflow:visible"
       refX="0"
       refY="0"
       id="Arrow1Mstart-7-4">
      <path
         d="m0 0l5-5-17.5 5 17.5 5-5-5z"
         transform="scale(.4)"
         sodipodi:nodetypes="ccccc"
         style="stroke:#000000;stroke-width:1pt;fill-rule:evenodd"
         id="path2629-6-1" />
    </marker>
    <marker
       inkscape:stockid="Arrow2Lstart"
       orient="auto"
       style="overflow:visible"
       refX="0"
       refY="0"
       id="Arrow2Lstart-7-7">
      <path
         d="m8.7186 4.0337l-10.926-4.0177 10.926-4.0177c-1.7455 2.3721-1.7355 5.6174 0 8.0354z"
         transform="matrix(1.1,0,0,1.1,-5.5,0)"
         sodipodi:nodetypes="cccc"
         style="stroke-linejoin:round;stroke-width:.625;fill-rule:evenodd"
         id="path2615-41-1" />
    </marker>
    <marker
       inkscape:stockid="Arrow1Mstart"
       orient="auto"
       style="overflow:visible"
       refX="0"
       refY="0"
       id="Arrow1Mstart-8-1">
      <path
         d="m0 0l5-5-17.5 5 17.5 5-5-5z"
         transform="scale(.4)"
         sodipodi:nodetypes="ccccc"
         style="stroke:#000000;stroke-width:1pt;fill-rule:evenodd"
         id="path2629-59-1" />
    </marker>
    <marker
       inkscape:stockid="Arrow2Lstart"
       orient="auto"
       style="overflow:visible"
       refX="0"
       refY="0"
       id="Arrow2Lstart-3-7">
      <path
         d="m8.7186 4.0337l-10.926-4.0177 10.926-4.0177c-1.7455 2.3721-1.7355 5.6174 0 8.0354z"
         transform="matrix(1.1,0,0,1.1,-5.5,0)"
         sodipodi:nodetypes="cccc"
         style="stroke-linejoin:round;stroke-width:.625;fill-rule:evenodd"
         id="path2615-3-0" />
    </marker>
    <marker
       inkscape:stockid="Arrow1Mstart"
       orient="auto"
       style="overflow:visible"
       refX="0"
       refY="0"
       id="Arrow1Mstart-3-4">
      <path
         d="m0 0l5-5-17.5 5 17.5 5-5-5z"
         transform="scale(.4)"
         sodipodi:nodetypes="ccccc"
         style="stroke:#000000;stroke-width:1pt;fill-rule:evenodd"
         id="path2629-8-0" />
    </marker>
    <marker
       inkscape:stockid="Arrow2Lstart"
       orient="auto"
       style="overflow:visible"
       refX="0"
       refY="0"
       id="Arrow2Lstart-43-8">
      <path
         d="m8.7186 4.0337l-10.926-4.0177 10.926-4.0177c-1.7455 2.3721-1.7355 5.6174 0 8.0354z"
         transform="matrix(1.1,0,0,1.1,-5.5,0)"
         sodipodi:nodetypes="cccc"
         style="stroke-linejoin:round;stroke-width:.625;fill-rule:evenodd"
         id="path2615-0-5" />
    </marker>
    <marker
       inkscape:stockid="Arrow1Mstart"
       orient="auto"
       style="overflow:visible"
       refX="0"
       refY="0"
       id="Arrow1Mstart-30-1">
      <path
         d="m0 0l5-5-17.5 5 17.5 5-5-5z"
         transform="scale(.4)"
         sodipodi:nodetypes="ccccc"
         style="stroke:#000000;stroke-width:1pt;fill-rule:evenodd"
         id="path2629-9-6" />
    </marker>
    <marker
       inkscape:stockid="Arrow2Lstart"
       orient="auto"
       style="overflow:visible"
       refX="0"
       refY="0"
       id="Arrow2Lstart-75-6">
      <path
         d="m8.7186 4.0337l-10.926-4.0177 10.926-4.0177c-1.7455 2.3721-1.7355 5.6174 0 8.0354z"
         transform="matrix(1.1,0,0,1.1,-5.5,0)"
         sodipodi:nodetypes="cccc"
         style="stroke-linejoin:round;stroke-width:.625;fill-rule:evenodd"
         id="path2615-48-2" />
    </marker>
    <marker
       inkscape:stockid="Arrow1Mstart"
       orient="auto"
       style="overflow:visible"
       refX="0"
       refY="0"
       id="Arrow1Mstart-12-1">
      <path
         d="m0 0l5-5-17.5 5 17.5 5-5-5z"
         transform="scale(.4)"
         sodipodi:nodetypes="ccccc"
         style="stroke:#000000;stroke-width:1pt;fill-rule:evenodd"
         id="path2629-89-9" />
    </marker>
    <marker
       inkscape:stockid="Arrow2Lstart"
       orient="auto"
       style="overflow:visible"
       refX="0"
       refY="0"
       id="Arrow2Lstart-0-6">
      <path
         d="m8.7186 4.0337l-10.926-4.0177 10.926-4.0177c-1.7455 2.3721-1.7355 5.6174 0 8.0354z"
         transform="matrix(1.1,0,0,1.1,-5.5,0)"
         sodipodi:nodetypes="cccc"
         style="stroke-linejoin:round;stroke-width:.625;fill-rule:evenodd"
         id="path2615-64-4" />
    </marker>
    <marker
       inkscape:stockid="Arrow1Mstart"
       orient="auto"
       style="overflow:visible"
       refX="0"
       refY="0"
       id="Arrow1Mstart-6-8">
      <path
         d="m0 0l5-5-17.5 5 17.5 5-5-5z"
         transform="scale(.4)"
         sodipodi:nodetypes="ccccc"
         style="stroke:#000000;stroke-width:1pt;fill-rule:evenodd"
         id="path2629-2-0" />
    </marker>
    <marker
       inkscape:stockid="Arrow2Lstart"
       orient="auto"
       style="overflow:visible"
       refX="0"
       refY="0"
       id="Arrow2Lstart-08-8">
      <path
         d="m8.7186 4.0337l-10.926-4.0177 10.926-4.0177c-1.7455 2.3721-1.7355 5.6174 0 8.0354z"
         transform="matrix(1.1,0,0,1.1,-5.5,0)"
         sodipodi:nodetypes="cccc"
         style="stroke-linejoin:round;stroke-width:.625;fill-rule:evenodd"
         id="path2615-1-1" />
    </marker>
    <marker
       inkscape:stockid="Arrow1Mstart"
       orient="auto"
       style="overflow:visible"
       refX="0"
       refY="0"
       id="Arrow1Mstart-31-0">
      <path
         d="m0 0l5-5-17.5 5 17.5 5-5-5z"
         transform="scale(.4)"
         sodipodi:nodetypes="ccccc"
         style="stroke:#000000;stroke-width:1pt;fill-rule:evenodd"
         id="path2629-1-2" />
    </marker>
    <marker
       inkscape:stockid="Arrow2Lstart"
       orient="auto"
       style="overflow:visible"
       refX="0"
       refY="0"
       id="Arrow2Lstart-05-2">
      <path
         d="m8.7186 4.0337l-10.926-4.0177 10.926-4.0177c-1.7455 2.3721-1.7355 5.6174 0 8.0354z"
         transform="matrix(1.1,0,0,1.1,-5.5,0)"
         sodipodi:nodetypes="cccc"
         style="stroke-linejoin:round;stroke-width:.625;fill-rule:evenodd"
         id="path2615-66-9" />
    </marker>
    <marker
       inkscape:stockid="Arrow1Mstart"
       orient="auto"
       style="overflow:visible"
       refX="0"
       refY="0"
       id="Arrow1Mstart-4-7">
      <path
         d="m0 0l5-5-17.5 5 17.5 5-5-5z"
         transform="scale(.4)"
         sodipodi:nodetypes="ccccc"
         style="stroke:#000000;stroke-width:1pt;fill-rule:evenodd"
         id="path2629-0-5" />
    </marker>
    <marker
       inkscape:stockid="Arrow2Lstart"
       orient="auto"
       style="overflow:visible"
       refX="0"
       refY="0"
       id="Arrow2Lstart-9-6">
      <path
         d="m8.7186 4.0337l-10.926-4.0177 10.926-4.0177c-1.7455 2.3721-1.7355 5.6174 0 8.0354z"
         transform="matrix(1.1,0,0,1.1,-5.5,0)"
         sodipodi:nodetypes="cccc"
         style="stroke-linejoin:round;stroke-width:.625;fill-rule:evenodd"
         id="path2615-60-4" />
    </marker>
    <marker
       inkscape:stockid="Arrow1Mstart"
       orient="auto"
       style="overflow:visible"
       refX="0"
       refY="0"
       id="Arrow1Mstart-2-6">
      <path
         d="m0 0l5-5-17.5 5 17.5 5-5-5z"
         transform="scale(.4)"
         sodipodi:nodetypes="ccccc"
         style="stroke:#000000;stroke-width:1pt;fill-rule:evenodd"
         id="path2629-76-3" />
    </marker>
    <marker
       inkscape:stockid="Arrow2Lstart"
       orient="auto"
       style="overflow:visible"
       refX="0"
       refY="0"
       id="Arrow2Lstart-58-7">
      <path
         d="m8.7186 4.0337l-10.926-4.0177 10.926-4.0177c-1.7455 2.3721-1.7355 5.6174 0 8.0354z"
         transform="matrix(1.1,0,0,1.1,-5.5,0)"
         sodipodi:nodetypes="cccc"
         style="stroke-linejoin:round;stroke-width:.625;fill-rule:evenodd"
         id="path2615-70-9" />
    </marker>
    <marker
       inkscape:stockid="Arrow1Mstart"
       orient="auto"
       style="overflow:visible"
       refX="0"
       refY="0"
       id="Arrow1Mstart-48-7">
      <path
         d="m0 0l5-5-17.5 5 17.5 5-5-5z"
         transform="scale(.4)"
         sodipodi:nodetypes="ccccc"
         style="stroke:#000000;stroke-width:1pt;fill-rule:evenodd"
         id="path2629-04-4" />
    </marker>
    <marker
       inkscape:stockid="Arrow2Lstart"
       orient="auto"
       style="overflow:visible"
       refX="0"
       refY="0"
       id="Arrow2Lstart-90-7">
      <path
         d="m8.7186 4.0337l-10.926-4.0177 10.926-4.0177c-1.7455 2.3721-1.7355 5.6174 0 8.0354z"
         transform="matrix(1.1,0,0,1.1,-5.5,0)"
         sodipodi:nodetypes="cccc"
         style="stroke-linejoin:round;stroke-width:.625;fill-rule:evenodd"
         id="path2615-2-0" />
    </marker>
    <marker
       inkscape:stockid="Arrow1Mstart"
       orient="auto"
       style="overflow:visible"
       refX="0"
       refY="0"
       id="Arrow1Mstart-83-6">
      <path
         d="m0 0l5-5-17.5 5 17.5 5-5-5z"
         transform="scale(.4)"
         sodipodi:nodetypes="ccccc"
         style="stroke:#000000;stroke-width:1pt;fill-rule:evenodd"
         id="path2629-80-0" />
    </marker>
    <marker
       inkscape:stockid="Arrow2Lstart"
       orient="auto"
       style="overflow:visible"
       refX="0"
       refY="0"
       id="Arrow2Lstart-50-8">
      <path
         d="m8.7186 4.0337l-10.926-4.0177 10.926-4.0177c-1.7455 2.3721-1.7355 5.6174 0 8.0354z"
         transform="matrix(1.1,0,0,1.1,-5.5,0)"
         sodipodi:nodetypes="cccc"
         style="stroke-linejoin:round;stroke-width:.625;fill-rule:evenodd"
         id="path2615-29-5" />
    </marker>
    <marker
       inkscape:stockid="Arrow1Mstart"
       orient="auto"
       style="overflow:visible"
       refX="0"
       refY="0"
       id="Arrow1Mstart-43-3">
      <path
         d="m0 0l5-5-17.5 5 17.5 5-5-5z"
         transform="scale(.4)"
         sodipodi:nodetypes="ccccc"
         style="stroke:#000000;stroke-width:1pt;fill-rule:evenodd"
         id="path2629-51-9" />
    </marker>
    <marker
       inkscape:stockid="Arrow2Lstart"
       orient="auto"
       style="overflow:visible"
       refX="0"
       refY="0"
       id="Arrow2Lstart-92-4">
      <path
         d="m8.7186 4.0337l-10.926-4.0177 10.926-4.0177c-1.7455 2.3721-1.7355 5.6174 0 8.0354z"
         transform="matrix(1.1,0,0,1.1,-5.5,0)"
         sodipodi:nodetypes="cccc"
         style="stroke-linejoin:round;stroke-width:.625;fill-rule:evenodd"
         id="path2615-8-1" />
    </marker>
    <marker
       inkscape:stockid="Arrow1Mstart"
       orient="auto"
       style="overflow:visible"
       refX="0"
       refY="0"
       id="Arrow1Mstart-88-5">
      <path
         d="m0 0l5-5-17.5 5 17.5 5-5-5z"
         transform="scale(.4)"
         sodipodi:nodetypes="ccccc"
         style="stroke:#000000;stroke-width:1pt;fill-rule:evenodd"
         id="path2629-68-4" />
    </marker>
    <marker
       inkscape:stockid="Arrow2Lstart"
       orient="auto"
       style="overflow:visible"
       refX="0"
       refY="0"
       id="Arrow2Lstart-903-1">
      <path
         d="m8.7186 4.0337l-10.926-4.0177 10.926-4.0177c-1.7455 2.3721-1.7355 5.6174 0 8.0354z"
         transform="matrix(1.1,0,0,1.1,-5.5,0)"
         sodipodi:nodetypes="cccc"
         style="stroke-linejoin:round;stroke-width:.625;fill-rule:evenodd"
         id="path2615-33-5" />
    </marker>
    <marker
       inkscape:stockid="Arrow1Mstart"
       orient="auto"
       style="overflow:visible"
       refX="0"
       refY="0"
       id="Arrow1Mstart-73-5">
      <path
         d="m0 0l5-5-17.5 5 17.5 5-5-5z"
         transform="scale(.4)"
         sodipodi:nodetypes="ccccc"
         style="stroke:#000000;stroke-width:1pt;fill-rule:evenodd"
         id="path2629-26-4" />
    </marker>
    <marker
       inkscape:stockid="Arrow2Lstart"
       orient="auto"
       style="overflow:visible"
       refX="0"
       refY="0"
       id="Arrow2Lstart-086-9">
      <path
         d="m8.7186 4.0337l-10.926-4.0177 10.926-4.0177c-1.7455 2.3721-1.7355 5.6174 0 8.0354z"
         transform="matrix(1.1,0,0,1.1,-5.5,0)"
         sodipodi:nodetypes="cccc"
         style="stroke-linejoin:round;stroke-width:.625;fill-rule:evenodd"
         id="path2615-24-8" />
    </marker>
    <marker
       inkscape:stockid="Arrow1Mstart"
       orient="auto"
       style="overflow:visible"
       refX="0"
       refY="0"
       id="Arrow1Mstart-79-3">
      <path
         d="m0 0l5-5-17.5 5 17.5 5-5-5z"
         transform="scale(.4)"
         sodipodi:nodetypes="ccccc"
         style="stroke:#000000;stroke-width:1pt;fill-rule:evenodd"
         id="path2629-3-8" />
    </marker>
    <marker
       inkscape:stockid="Arrow2Lstart"
       orient="auto"
       style="overflow:visible"
       refX="0"
       refY="0"
       id="Arrow2Lstart-49-5">
      <path
         d="m8.7186 4.0337l-10.926-4.0177 10.926-4.0177c-1.7455 2.3721-1.7355 5.6174 0 8.0354z"
         transform="matrix(1.1,0,0,1.1,-5.5,0)"
         sodipodi:nodetypes="cccc"
         style="stroke-linejoin:round;stroke-width:.625;fill-rule:evenodd"
         id="path2615-9-2" />
    </marker>
    <marker
       inkscape:stockid="Arrow1Mstart"
       orient="auto"
       style="overflow:visible"
       refX="0"
       refY="0"
       id="Arrow1Mstart-45-2">
      <path
         d="m0 0l5-5-17.5 5 17.5 5-5-5z"
         transform="scale(.4)"
         sodipodi:nodetypes="ccccc"
         style="stroke:#000000;stroke-width:1pt;fill-rule:evenodd"
         id="path2629-93-2" />
    </marker>
    <marker
       inkscape:stockid="Arrow2Lstart"
       orient="auto"
       style="overflow:visible"
       refX="0"
       refY="0"
       id="Arrow2Lstart-2-7">
      <path
         d="m8.7186 4.0337l-10.926-4.0177 10.926-4.0177c-1.7455 2.3721-1.7355 5.6174 0 8.0354z"
         transform="matrix(1.1,0,0,1.1,-5.5,0)"
         sodipodi:nodetypes="cccc"
         style="stroke-linejoin:round;stroke-width:.625;fill-rule:evenodd"
         id="path2615-01-0" />
    </marker>
    <marker
       inkscape:stockid="Arrow1Mstart"
       orient="auto"
       style="overflow:visible"
       refX="0"
       refY="0"
       id="Arrow1Mstart-9-3">
      <path
         d="m0 0l5-5-17.5 5 17.5 5-5-5z"
         transform="scale(.4)"
         sodipodi:nodetypes="ccccc"
         style="stroke:#000000;stroke-width:1pt;fill-rule:evenodd"
         id="path2629-62-4" />
    </marker>
    <marker
       inkscape:stockid="Arrow2Lstart"
       orient="auto"
       style="overflow:visible"
       refX="0"
       refY="0"
       id="Arrow2Lstart-06-6">
      <path
         d="m8.7186 4.0337l-10.926-4.0177 10.926-4.0177c-1.7455 2.3721-1.7355 5.6174 0 8.0354z"
         transform="matrix(1.1,0,0,1.1,-5.5,0)"
         sodipodi:nodetypes="cccc"
         style="stroke-linejoin:round;stroke-width:.625;fill-rule:evenodd"
         id="path2615-47-3" />
    </marker>
    <marker
       inkscape:stockid="Arrow1Mstart"
       orient="auto"
       style="overflow:visible"
       refX="0"
       refY="0"
       id="Arrow1Mstart-485-6">
      <path
         d="m0 0l5-5-17.5 5 17.5 5-5-5z"
         transform="scale(.4)"
         sodipodi:nodetypes="ccccc"
         style="stroke:#000000;stroke-width:1pt;fill-rule:evenodd"
         id="path2629-82-3" />
    </marker>
    <marker
       inkscape:stockid="Arrow2Lstart"
       orient="auto"
       style="overflow:visible"
       refX="0"
       refY="0"
       id="Arrow2Lstart-01-3">
      <path
         d="m8.7186 4.0337l-10.926-4.0177 10.926-4.0177c-1.7455 2.3721-1.7355 5.6174 0 8.0354z"
         transform="matrix(1.1,0,0,1.1,-5.5,0)"
         sodipodi:nodetypes="cccc"
         style="stroke-linejoin:round;stroke-width:.625;fill-rule:evenodd"
         id="path2615-37-4" />
    </marker>
    <marker
       inkscape:stockid="Arrow1Mstart"
       orient="auto"
       style="overflow:visible"
       refX="0"
       refY="0"
       id="Arrow1Mstart-72-4">
      <path
         d="m0 0l5-5-17.5 5 17.5 5-5-5z"
         transform="scale(.4)"
         sodipodi:nodetypes="ccccc"
         style="stroke:#000000;stroke-width:1pt;fill-rule:evenodd"
         id="path2629-64-3" />
    </marker>
    <marker
       inkscape:stockid="Arrow2Lstart"
       orient="auto"
       style="overflow:visible"
       refX="0"
       refY="0"
       id="Arrow2Lstart-86-9">
      <path
         d="m8.7186 4.0337l-10.926-4.0177 10.926-4.0177c-1.7455 2.3721-1.7355 5.6174 0 8.0354z"
         transform="matrix(1.1,0,0,1.1,-5.5,0)"
         sodipodi:nodetypes="cccc"
         style="stroke-linejoin:round;stroke-width:.625;fill-rule:evenodd"
         id="path2615-04-7" />
    </marker>
    <marker
       inkscape:stockid="Arrow1Mstart"
       orient="auto"
       style="overflow:visible"
       refX="0"
       refY="0"
       id="Arrow1Mstart-67-2">
      <path
         d="m0 0l5-5-17.5 5 17.5 5-5-5z"
         transform="scale(.4)"
         sodipodi:nodetypes="ccccc"
         style="stroke:#000000;stroke-width:1pt;fill-rule:evenodd"
         id="path2629-60-5" />
    </marker>
    <clipPath
       clipPathUnits="userSpaceOnUse"
       id="clipPath4554-8">
      <path
         d="M 0,600 H 600 V 0 H 0 Z"
         id="path4552-9"
         inkscape:connector-curvature="0" />
    </clipPath>
    <inkscape:path-effect
       is_visible="true"
       id="path-effect4248"
       effect="spiro" />
    <inkscape:path-effect
       fuse_tolerance="0"
       vertical_pattern="false"
       prop_units="false"
       tang_offset="0"
       normal_offset="0"
       spacing="0"
       scale_y_rel="false"
       prop_scale="1"
       copytype="single_stretched"
       pattern="M 0,5 C 0,2.24 2.24,0 5,0 7.76,0 10,2.24 10,5 10,7.76 7.76,10 5,10 2.24,10 0,7.76 0,5 Z"
       is_visible="true"
       id="path-effect4250"
       effect="skeletal" />
    <inkscape:path-effect
       is_visible="true"
       id="path-effect4254"
       effect="spiro" />
    <inkscape:path-effect
       fuse_tolerance="0"
       vertical_pattern="false"
       prop_units="false"
       tang_offset="0"
       normal_offset="0"
       spacing="0"
       scale_y_rel="false"
       prop_scale="1"
       copytype="single_stretched"
       pattern="M 0,5 C 0,2.24 2.24,0 5,0 7.76,0 10,2.24 10,5 10,7.76 7.76,10 5,10 2.24,10 0,7.76 0,5 Z"
       is_visible="true"
       id="path-effect4256"
       effect="skeletal" />
    <inkscape:path-effect
       is_visible="true"
       id="path-effect4300"
       effect="spiro" />
    <inkscape:path-effect
       fuse_tolerance="0"
       vertical_pattern="false"
       prop_units="false"
       tang_offset="0"
       normal_offset="0"
       spacing="0"
       scale_y_rel="false"
       prop_scale="1"
       copytype="single_stretched"
       pattern="M 0,5 C 0,2.24 2.24,0 5,0 7.76,0 10,2.24 10,5 10,7.76 7.76,10 5,10 2.24,10 0,7.76 0,5 Z"
       is_visible="true"
       id="path-effect4302"
       effect="skeletal" />
    <inkscape:path-effect
       is_visible="true"
       id="path-effect4224"
       effect="spiro" />
    <inkscape:path-effect
       fuse_tolerance="0"
       vertical_pattern="false"
       prop_units="false"
       tang_offset="0"
       normal_offset="0"
       spacing="0"
       scale_y_rel="false"
       prop_scale="1"
       copytype="single_stretched"
       pattern="M 0,5 C 0,2.24 2.24,0 5,0 7.76,0 10,2.24 10,5 10,7.76 7.76,10 5,10 2.24,10 0,7.76 0,5 Z"
       is_visible="true"
       id="path-effect4226"
       effect="skeletal" />
    <inkscape:path-effect
       is_visible="true"
       id="path-effect5035"
       effect="spiro" />
    <inkscape:path-effect
       fuse_tolerance="0"
       vertical_pattern="false"
       prop_units="false"
       tang_offset="0"
       normal_offset="0"
       spacing="0"
       scale_y_rel="false"
       prop_scale="1"
       copytype="single_stretched"
       pattern="m 1.4613957,16.457685 c 0,-2.76 2.24,-5 5,-5 2.76,0 5.0000003,2.24 5.0000003,5 0,2.76 -2.2400003,5.000001 -5.0000003,5.000001 -2.76,0 -5,-2.240001 -5,-5.000001 z"
       is_visible="true"
       id="path-effect5037"
       effect="skeletal" />
    <inkscape:path-effect
       is_visible="true"
       id="path-effect5041"
       effect="spiro" />
    <inkscape:path-effect
       fuse_tolerance="0"
       vertical_pattern="false"
       prop_units="false"
       tang_offset="0"
       normal_offset="0"
       spacing="0"
       scale_y_rel="false"
       prop_scale="1"
       copytype="single_stretched"
       pattern="m 0,15 c 0,-2.76 2.24,-5 5,-5 2.76,0 5,2.24 5,5 0,2.76 -2.24,5 -5,5 -2.76,0 -5,-2.24 -5,-5 z"
       is_visible="true"
       id="path-effect5043"
       effect="skeletal" />
    <pattern
       height="5.1805778"
       patternUnits="userSpaceOnUse"
       width="30.066020"
       id="Wavy">
      <path
         d="m7.597 0.061c-2.518-0.248-4.941 0.241-7.607 1.727v1.273c2.783-1.63 5.183-2.009 7.482-1.781 2.298 0.228 4.497 1.081 6.781 1.938 4.567 1.713 9.551 3.458 15.813-0.157l-0.004-1.273c-6.44 3.709-10.816 1.982-15.371 0.273-2.278-0.854-4.576-1.75-7.094-2z"
         id="path5152" />
    </pattern>
  </defs>
  <sodipodi:namedview
     id="base"
     pagecolor="#ffffff"
     bordercolor="#666666"
     borderopacity="1.0"
     inkscape:pageopacity="0.0"
     inkscape:pageshadow="2"
     inkscape:zoom="1.979899"
     inkscape:cx="66.119653"
     inkscape:cy="58.462219"
     inkscape:document-units="mm"
     inkscape:current-layer="layer1-0"
     showgrid="false"
     inkscape:window-width="1853"
     inkscape:window-height="1025"
     inkscape:window-x="67"
     inkscape:window-y="27"
     inkscape:window-maximized="1" />
  <metadata
     id="metadata5">
    <rdf:RDF>
      <cc:Work
         rdf:about="">
        <dc:format>image/svg+xml</dc:format>
        <dc:type
           rdf:resource="http://purl.org/dc/dcmitype/StillImage" />
        <dc:title></dc:title>
      </cc:Work>
    </rdf:RDF>
  </metadata>
  <g
     inkscape:label="Layer 1"
     inkscape:groupmode="layer"
     id="layer1"
     transform="translate(0,-246)">
    <g
       transform="matrix(1.9999999,0,0,1.9999999,-7.4294577,-322.09765)"
       id="layer1-4"
       inkscape:label="Layer 1">
      <g
         transform="matrix(0.21647508,0,0,0.21647508,1.3740558,248.01453)"
         id="layer1-37"
         inkscape:label="Layer 1">
        <g
           transform="matrix(0.25864891,0,0,0.25864891,-68.829959,167.07892)"
           id="layer1-7">
          <g
             transform="matrix(0.5974787,0,0,0.5974787,517.48685,-124.83014)"
             id="layer1-8">
            <g
               transform="matrix(0.7312917,0,0,0.7312917,-349.41525,292.13304)"
               inkscape:label="Ebene 1"
               id="layer1-0">
              <path
                 d="m 536.56918,-109.12247 c -25.788,7.0691 -48.4547,34.084294 -39.6368,61.748696 4.7304,14.2465 13.8118,27.2491 14.3529,42.6839003 0.9016,6.5846003 9.3866,4.23559999 13.9875,6.3626003 -6.2008,2.853 -13.1783,6.1407 -15.8094,12.9379004 -1.9467,6.9545 4.5916,11.7033 8.2723,16.5354 -23.2632,-0.1618 -46.3415,3.2414 -69.6002,4.4899 -6.3348,-0.7583 -3.4911,7.255 -7.5879,9.4052 -10.6074,-2.2427 -19.2034,-11.1854 -30.042,-12.4385 -4.2911,4.2633 -4.9801,12.2859 -1.6924,17.474 0.028,4.369599 -2.5894,8.443399 -2.9547,12.840799 -3.0334,43.326704 -8.4665,86.468404 -15.2869,129.110804 -9.0815,-5.4979 -19.4346,-9.2942 -26.7775,-17.2659 -10.8062,-9.7243 -23.3789,-17.2984 -33.5747,-27.6653 -5.5442,-6.4875 -14.5748,-11.9808 -23.4399,-9.974 1.2369,-4.5962 6.9646,-9.5623 3.0527,-14.0245 -2.7813,-3.9766 -9.5846,0.8924 -10.7345,-4.5916 -5.7222,-18.898204 -0.5952,-38.762904 -1.1038,-58.021704 0.1965,-3.6299 -4.9361,-5.3269 -6.5721,-2.0762 -1.3871,4.9893 -2.428,10.219 -5.1215,14.7274 -1.3872,-11.8374 -7.2476,-22.643699 -13.7614,-32.529699 -2.6246,-3.5235 -4.0751,-10.6676 -9.7973,-8.1614 v 45.287299 c 3.2252,20.045 10.699,39.003304 16.5021,58.354704 -4.1561,9.5392 5.8433,18.3387 10.3286,26.3104 6.3524,-0.2497 13.5427,4.8367 13.2074,11.7958 26.5472,30.9483 52.0753,62.7844 81.396,91.2959 1.8635,2.742 5.9742,1.808 7.1255,-0.9988 30.0883,-47.4559 60.4864,-94.713 89.9365,-142.5481 19.7953,44.0434 36.4,89.4787 55.9224,133.6516 -9.3682,-4.3281 -16.4752,-13.4558 -26.685,-16.5169 -21.409,-9.0029 -45.167,-15.4811 -68.1945,-11.5322 -3.2922,11.3241 -2.7373,25.136 -2.3767,37.3618 5.4193,5.7707 8.485,-7.0516 12.8501,-7.2181 0.6288,6.5245 1.6461,13.0258 2.1964,19.5687 -29.6768,15.0049 -61.6285,25.136 -90.3711,42.0182 -18.926,10.3068 -39.5443,20.0218 -53.1435,37.3756 -2.7503,12.5772 8.3648,22.7038 11.7218,34.0788 -2.4368,4.8089 -9.4838,7.5833 -9.3867,13.6407 9.7659,17.0163 18.8381,34.5412 31.1194,49.9853 4.2495,3.1443 -2.6865,6.6585 -0.823,10.4502 21.9731,18.4034 42.1291,39.0726 63.1959,58.5396 7.3244,4.6239 9.2295,-14.0107 16.1655,-7.6758 9.8259,8.1844 21.9223,15.0279 28.2664,25.7093 10.1265,-0.4624 19.9155,3.8379 27.0503,10.9126 14.5054,10.7739 27.3554,23.7673 37.7502,38.564 1.5999,4.439 8.2954,1.8496 7.4584,-2.497 1.6924,-6.381 2.0485,-14.1956 4.1755,-19.9293 2.2519,12.8084 4.6379,28.6224 -0.1017,42.032 -2.8484,6.8435 -0.5642,14.4268 -1.6878,21.5015 -6.4366,6.3349 -11.9206,13.5483 -18.3988,19.8831 -3.3986,3.4218 4.476,7.2597 1.0728,10.1265 -10.2838,7.121 -18.2047,16.7851 -25.6262,26.6342 -2.053,4.3928 1.9837,7.8145 3.5189,11.375 -6.7926,6.1037 -16.3828,9.2017 -21.7975,16.6001 0.1758,9.4792 6.1361,18.7271 2.6635,28.2988 -6.3441,5.8724 -10.5751,13.4095 -15.5921,20.3454 -8.2307,7.3522 -19.8461,11.4213 -25.5336,21.4553 -3.9165,14.4269 10.6999,24.9695 11.657,38.934 4.4853,18.0335 -2.5802,37.5467 5.8725,54.8404 6.6308,9.7566 18.5699,13.3633 27.041,21.1316 5.7708,1.2022 4.4344,-6.3811 1.8404,-8.9243 -13.4697,-21.0854 -8.1197,-47.0721 -5.5026,-70.4232 2.5525,-13.5483 -0.2959,-28.8074 8.7255,-40.4136 6.8666,-7.6758 10.6768,-17.2475 15.4765,-26.218 9.8537,-2.9594 11.3611,-15.6754 19.5455,-20.7154 1.3086,24.5533 -2.5293,51.9735 5.6829,76.3419 2.201,12.1148 -1.7571,24.091 -3.3385,36.0208 -7.5464,10.8201 -12.9148,24.6921 -9.5485,37.9166 7.8746,5.965 18.3387,4.3466 27.4803,3.0519 16.4105,1.156 30.3749,10.4964 44.9312,17.1087 9.7196,4.8089 21.4507,1.2023 30.6247,7.4446 h 10.1542 c 4.3419,-0.8785 11.3195,-5.5487 7.1949,-10.3114 -21.2148,-4.8552 -33.7458,-24.2297 -50.8083,-35.9284 -11.7079,-4.254 -18.3294,-15.9527 -25.4273,-25.4781 -3.0102,-15.4441 2.2797,-31.3044 2.0855,-46.9797 3.7361,-36.2982 5.7892,-73.5213 18.9213,-107.9238 0.1757,-3.8378 0.763,-7.7682 4.6055,-9.7103 17.0948,-12.9009 31.9517,-29.0386 51.2984,-38.7952 13.072,-7.1209 20.5999,-20.2993 32.1737,-29.0848 7.6435,-4.624 16.8082,-11.5138 15.7169,-21.594 -5.1049,-30.3334 -12.9887,-60.2043 -20.438,-90.0752 -7.0932,-33.7551 -13.2246,-68.065 -28.3589,-99.3231 4.268,-22.3339 3.5744,-45.8838 9.3821,-68.1622 3.9535,-12.4524 0.4855,-25.6631 2.5154,-38.3282 6.4413,-14.0569 -12.272,-22.4031 -19.6473,-31.1147 0.763,-22.898 -1.7201,-45.6757 -3.1813,-68.4904 -0.5964,-1.452 -2.4877,-1.5075 -3.6991,-2.2242 0.7074,-9.3543 0.6057,-19.1017 1.7201,-28.2155 12.8685,-4.7488 23.4944,-20.5259 15.3932,-33.6672 -3.8518,-5.9835 -15.5088,-14.1772 -8.5544,-21.5709 13.6408,17.2197 19.4716,39.5535 34.0603,56.2461 10.4687,16.933 21.6819,33.4915 34.8787,48.4408 -2.6588,18.2601 -18.9583,31.1009 -23.3234,49.0189 -9.5207,17.7884 -17.8624,37.6854 -14.5794,58.3408 -9.6179,20.1651 -7.4307,43.5209 -2.7328,64.7449 0.8,3.653 5.7107,8.7856 9.2295,5.3176 2.6588,-7.2596 2.3305,-15.0742 2.0438,-22.6575 8.4388,16.184 15.2222,33.4776 26.4076,48.0432 1.5351,2.3582 5.8539,4.4853 7.6758,1.3872 2.4599,-9.0168 -1.5491,-18.1723 0.3791,-27.2353 4.5223,-21.3165 -12.4708,-38.0738 -17.7329,-57.3327 3.3015,-10.6675 10.8201,-19.3283 15.4163,-29.3438 15.1713,-13.1506 17.7053,-35.6278 31.6836,-49.8835 9.5161,-6.6817 15.2961,-16.9932 19.1802,-27.6006 v -7.0562 c -3.0056,-8.0596 -10.2652,-14.1632 -11.0513,-22.9997 -4.8552,-36.1086 -2.127,-72.7814 -7.8191,-108.769904 0.7028,-7.1672 3.5651,-17.2058 -4.1246,-21.5154 -9.826,-9.969299 -24.5857,-2.3628 -36.6035,-3.5235 -2.6588,-2.9408 -2.5108,-7.832999 -5.7106,-10.288299 -4.906,-0.3838 -7.759,-5.276 -12.9055,-4.9662 -23.4667,-2.6449 -47.0999,-3.6021 -70.5851,-6.2423 -0.069,-5.3962 -1.9467,-10.367 -4.5084,-15.0049 7.3568,2.8669 11.6062,-5.2251 13.3911,-11.1206 5.0494,-3.9535004 9.5855,-9.9139004 8.7532,-16.7342007 -1.5491,-6.0205003 6.4042,-4.661 8.5127,-8.5683003 -1.1282,-10.6999 -6.6724,-21.5801 -1.8403,-32.206 3.8009,-11.060604 8.9196,-26.254002 -1.452,-35.1608 5.1188,-8.745298 -8.3879,-12.559598 -14.9632,-12.704398 -0.3468,-2.9653 3.8518,-5.2482 1.6046,-8.392498 -7.1811,-6.7686 -18.0521,-5.6935 -27.1428,-6.0403 -3.0102,0.6936 -2.4091,4.6642 -4.6517,5.7971 -4.9153,-3.6471 -10.9404,-4.9241 -16.6001,-6.9124 h -16.503 z m 6.751,3.2196 c 9.9184,-0.1271 20.1883,3.3871 28.0028,9.554098 -7.1394,12.831598 -13.0997,26.691896 -22.7453,37.900494 -3.1305,0.1711 -5.2113,-3.5512 -8.0735,-4.5671 -12.1102,-2.896 -26.9994,7.660504 -24.632,20.825004 2.8808,5.6736 5.387,12.6373 12.1981,14.5054 8.8087,6.6077 20.1282,-0.1387 26.5001,-6.9452 4.4066,-7.9579 13.7008,-10.7831 20.979,-15.4533 -6.7418,8.8873 -13.4003,18.8519 -13.9968,30.361 -6.0806,-3.0795 -16.3319,-6.1036 -20.3594,1.7941 -5.1326,6.7048 0.9664,14.4269003 -0.3376,21.5478006 -7.5417,-5.6320003 -17.0486,-5.8632003 -25.848,-7.9440003 0.578,-21.6819003 -18.6162,-38.5317003 -15.7909,-60.4771043 3.357,-21.536196 22.7176,-38.818292 44.1035,-41.101192 z m 32.4604,1.5607 c 7.2874,0.2081 15.2175,0.289 21.8344,3.757 1.0173,2.907098 -2.5802,5.652798 -4.7396,7.184198 -13.0858,12.981898 -23.7672,29.917194 -41.6806,36.830098 8.4111,-15.594402 20.2947,-30.6973 24.5858,-47.770396 z m 18.0104,13.802598 c 6.2054,1.433398 14.1355,0.393 18.7225,5.692998 -16.0175,17.247498 -35.8266,31.3737 -56.7594,41.4864 -5.6413,-11.2409 7.5787,-16.683404 14.4129,-23.059804 9.3035,-6.542998 15.028,-16.813696 23.624,-24.119594 z m 16.1839,11.328698 c 10.8063,4.635098 6.0389,17.086596 5.1419,25.8351 -3.5466,0.5087 -7.5417,-0.5456 -11.2548,-0.2358 1.0034,-5.872404 2.4553,-12.756204 -2.1686,-17.512902 1.9097,-3.1503 7.4723,-3.9831 8.2815,-8.086398 z m -11.8096,11.288098 c 5.4146,3.797198 2.1039,13.428002 1.2762,19.208002 4.3974,-0.1156 9.1323,-1.3548 13.4835,0.8786 -3.9396,9.5947 -1.7571,20.3039 0.7075,30.0374 2.5848,5.9094 -9.7844,3.8748 -7.5371,10.6166003 1.5953,6.99609999 -3.7501,12.1565003 -8.1475,16.5724003 -2.5894,3.4171004 -2.3813,11.9483004 -8.841,10.0063004 -4.3142,-1.1699 -8.6607,-2.3444 -12.9148,-3.7131 -5.9279,-6.2886004 -6.7418,-15.55040071 -11.7819,-22.4402007 -0.7214,-1.5074 -3.6761,-4.5176003 -0.3607,-4.5731003 0.8739,-23.2864 15.3794,-43.6504 34.1158,-56.592902 z m -62.1972,7.213398 c 13.1182,-0.2405 18.7641,18.306304 11.7218,28.493004 -7.5787,3.9766 -18.8659,7.9995 -23.8367,-2.2103 -7.4446,-8.9844 -2.8899,-23.272504 8.6238,-25.801804 1.2161,-0.3052 2.3813,-0.4624 3.4911,-0.4809 z m 63.6213,20.863404 c -1.5906,-0.032 -3.1859,0.1156 -4.6887,0.3792 -5.3453,1.4334 -12.8223,1.6646 -15.9527,6.6862 7.5463,1.3225 14.9355,-6.7278 22.5881,-2.0854 -0.7352,2.2704 1.0867,12.212 -4.0136,7.7498 -1.5906,-2.8114 -6.1499,-1.082 -4.4251,2.0115 4.4945,0.8739 8.8965,2.2935 13.4789,2.7466 -0.5364,-2.8807 -1.9421,-5.6644 -1.5953,-8.7486 -2.4137,-4.7396 5.0494,-1.2253 3.9211,-4.98 -2.3536,-2.7097 -5.8169,-3.6853 -9.3127,-3.7593 z m -48.3159,20.2207 c 4.6841,-0.074 8.5081,4.8505 7.1255,9.604 -1.0589,4.5870003 4.809,5.9603003 5.78,9.84440029 2.0715,5.78000031 3.542,11.94380071 7.5741,16.78050071 2.2426,2.6264 -1.1144,5.0725 -2.3768,7.1903 -1.4103,5.1557 1.2346,12.2489 -0.9849,16.6972 -11.5414,-2.0253 -23.3464,-3.6761 -34.9388,-5.7893 3.6299,-8.7069 4.7581,-18.9722 5.5997,-28.5993004 2.0576,-0.1248 5.0771,2.0854 6.2007,-0.8924 -1.9097,-7.9116003 -7.4076,-21.3073006 3.972,-24.4840006 0.6936,-0.2266 1.378,-0.3422 2.0485,-0.3514 z m -18.5561,24.1880006 c 1.4011,0 2.6634,0.3653 3.4356,1.7109 -0.4577,8.9474004 -0.3375,19.3745004 -7.1671,26.1486004 -6.8435,-1.8265 -13.0258,-6.9914 -15.7401,-13.65 -1.2207,-8.0041 8.3001,-11.1345004 14.0985,-13.7748004 1.526,0.1526 3.5651,-0.4393 5.3731,-0.4347 z m 43.914,15.8279004 c 7.7266,-0.3283 10.501,10.182 11.4397,16.4059 -3.9396,4.3373 -11.1947,6.6447 -16.7018,4.1154 0.7028,-6.5985 -0.4578,-15.4164 4.4991,-20.4519 0.259,-0.032 0.5133,-0.055 0.763,-0.069 z m -60.1719,13.9691 c 2.3813,-0.01 4.0044,0.7583 3.2183,3.7685 3.898,8.6792 12.642,15.231399 13.9968,24.974099 -27.0226,-2.9269 -54.1145,-5.951 -81.0769,-9.3959 -1.6693,-4.549999 -6.1175,-8.961299 -5.8216,-14.001399 19.9987,-2.1825 40.1685,-2.6912 60.2135,-4.5824 2.0808,0.541 6.4042,-0.7537 9.4699,-0.7629 z m 6.5152,0.4115 c 16.7157,6.136 34.7585,6.5661 51.8302,11.1715 -8.1058,14.015299 -14.3713,29.584299 -21.372,44.427299 -12.2813,-17.3538 -19.5919,-37.523699 -30.4582,-55.598799 z m -110.8785,1.9606 c 7.514,1.3548 13.6315,7.4585 21.0391,9.7196 9.9878,1.1282 0.8509,15.365499 -2.7882,16.669399 -7.3059,-7.3521 -24.8678,-13.386399 -18.2509,-26.388999 z m -146.5155,0.5456 c 9.641,12.1102 18.1034,28.543799 17.069,45.143899 6.5082,-1.1698 8.6459,-11.9899 11.3685,-17.6266 0.6876,19.319 -5.3467,40.506104 3.4102,58.974304 -3.9073,4.1986 -8.4845,10.33 -14.75,10.2837 -6.8144,-21.9362 -15.8432,-43.692004 -17.0861,-66.899804 0.7572,-9.9693 0.653,-19.920099 -0.012,-29.875499 z m 322.6892,4.0922 c 26.1533,3.1073 52.7042,3.2322 78.7372,7.5926 0.5318,4.0506 -3.7639,7.416899 -5.9511,10.505699 -19.6565,2.9686 -39.572,3.468 -59.395,4.4205 -4.9477,1.4103 -11.5646,-0.6797 -15.1574,3.5327 2.9177,17.4694 4.9754,35.304104 3.4957,52.944604 -8.6977,-2.7281 -17.5064,-5.1834 -26.5555,-6.3071 -4.4159,-5.6366 -6.0574,-13.2569 -7.0655,-20.188304 3.7732,-11.5877 9.3081,-22.5743 14.45,-33.6163 4.9569,-6.8944 8.2445,-16.646399 17.4416,-18.884399 z m -144.3422,5.78 c 3.1536,0.8971 3.9951,7.143999 5.0448,10.061799 28.271,4.1754 56.9906,6.7602 85.2523,10.6629 27.6931,35.724904 35.0175,81.548504 43.5025,124.671804 -6.1268,-4.5731 -9.8306,-12.679 -15.2314,-18.3665 -10.6676,1.0312 -21.8067,-1.2623 -31.6974,-4.5037 -26.6342,-28.5577 -40.4368,-66.3912 -59.0205,-100.063004 -5.9187,3.2229 -6.2979,13.6685 -11.8744,17.8393 -7.3938,-6.8897 -15.9019,-12.42 -23.7673,-18.7086 2.4322,-7.2227 4.1015,-14.8661 7.7914,-21.593999 z m 228.0733,4.943 c 1.9282,0.014 2.5339,2.769799 3.2275,4.318799 3.69,7.3753 5.1465,15.5644 7.736,23.328 -13.8812,7.0562 -26.8885,16.1331 -41.5141,21.524704 -6.9406,-6.538304 -11.093,-15.901904 -16.0268,-24.091004 -3.3709,-1.1514 -3.9812,3.4495 -1.4103,4.9939 34.9157,51.511204 71.9399,101.612004 105.7042,153.839904 -0.2312,2.6449 -3.0055,6.8296 -5.877,4.1801 -28.1323,-21.0992 -49.9067,-49.5969 -68.0049,-79.4354 -15.5505,-18.5977 -22.1628,-42.9244 -37.6254,-61.512804 -1.8496,-1.8404 -8.018,1.354804 -4.6055,3.181304 2.6496,1.7524 -1.6785,4.2725 -1.5767,6.6076 -0.6844,10.2976 10.9403,15.2638 13.28,24.5256 2.2612,10.0526 -5.0031,20.2531 -14.4962,23.2494 -5.5025,1.4658 -3.5974,9.0491 -4.1754,13.2338 0.689,28.8075 -4.7766,57.1987 -15.2037,83.8976 0.7954,-61.1938 4.3188,-124.4591 1.0266,-185.403204 23.1846,-2.6311 46.7715,-1.6924 69.9284,-5.0355 3.9166,-2.89 5.0587,-8.1521 8.7024,-11.226999 0.3329,-0.1249 0.6381,-0.1758 0.9109,-0.1758 z m -257.3385,4.808999 c 15.6106,9.6086 28.6502,23.1291 43.484,33.8938 -1.563,6.5152 -5.7153,13.636104 -9.3081,19.804504 -13.368,-16.424404 -23.4112,-35.544604 -34.1759,-53.698304 z m -3.972,2.0623 c 11.5785,17.4046 22.6252,35.6509 34.1898,53.254404 1.2623,1.6785 1.0912,4.0598 -0.01,5.7938 -6.2886,11.6478 -11.0883,24.054 -17.9595,35.3596 -4.4391,-19.4346 -12.0455,-38.0091 -18.3341,-56.930404 -1.0589,-12.3322 -0.4069,-25.3025 2.1131,-37.4774 z m 293.1143,2.3397 c 3.4633,-0.01 6.9544,0.5873 9.2433,2.9732 -8.8781,4.3188 -17.1781,9.9693 -26.0238,14.4315 -2.386,-4.194 -2.4183,-9.3821 -4.624,-13.7101 3.6206,-4.0275 10.5335,-1.4473 15.4626,-3.2969 1.7941,-0.1757 3.8611,-0.3977 5.9419,-0.3977 z m 12.8824,6.6262 c 5.4424,3.394 1.7709,14.8661 -0.8092,20.6091 -6.1129,8.1937 -5.3685,19.027704 -10.441,27.716104 -7.4585,14.9632 -11.8836,31.5633 -20.7894,45.6618 -5.6505,-5.7291 -16.2903,-15.1528 -8.7255,-23.8042 8.4758,-19.2774 18.1214,-38.0831 26.2088,-57.536204 0.8508,-7.6758 8.6931,-9.8214 14.5563,-12.6466 z m -17.8995,10.256 c 0.2636,0.028 0.3561,0.2358 0.037,0.8184 -7.7174,21.765104 -19.9756,41.514104 -28.3635,62.950904 -1.1976,0.8092 -2.631,-0.3422 -3.0194,-1.4935 -7.3106,-11.8189 -16.2626,-23.2217 -23.0367,-34.9573 16.8359,-10.524204 35.3688,-18.680904 53.3052,-27.078104 0.37,-0.1248 0.8092,-0.2728 1.0774,-0.2404 z m -229.5344,1.5582 c 3.1211,12.3692 9.2248,23.975404 10.7877,36.742204 -29.4363,49.1483 -61.0828,96.8169 -91.4346,145.3503 -1.5537,3.2183 -4.0368,-1.2346 -5.521,-2.3167 -17.4417,-18.2462 -35.6602,-35.956 -50.235,-56.6576 -1.7848,-2.3721 -5.9557,-3.4495 -4.6563,-7.3151 1.3918,-14.2095 0.9063,-28.4791 1.0774,-42.721 -0.4532,-1.5074 2.1409,-1.7155 2.4507,-0.3329 9.1,10.8016 21.9916,17.1688 32.0349,26.9347 7.2504,8.115 18.2694,10.723 26.6711,17.3029 -3.4772,8.7208 -1.3872,18.3988 -3.787,27.4017 1.9606,1.082 4.046,2.4276 6.4227,1.9837 26.4723,-48.2466 50.2118,-97.8943 76.1894,-146.372204 z m 4.9615,3.6206 c 16.1932,27.272304 31.7714,55.178004 46.9334,83.157704 2.9177,6.2701 10.7323,6.8204 16.1701,9.8722 14.2927,28.8629 28.9692,58.2853 42.61,87.2407 -13.3078,3.6529 -28.9831,7.5001 -41.9442,-0.1618 -3.0934,-6.0528 5.7107,1.156 5.4286,-4.2449 -20.549,-45.1994 -37.5005,-91.8091 -57.49,-137.2721 -1.7155,-13.4604 -7.2042,-25.894304 -11.7079,-38.591804 z m 244.7659,8.0041 c 1.6415,8.1614 0.032,16.683404 2.2935,24.770704 0.9016,6.3256 3.3154,14.6072 -3.2831,18.5699 -7.1163,15.5828 -11.62,33.0106 -19.4161,47.9692 -3.3616,-5.78 -11.5646,-10.219 -9.752,-18.1029 9.6133,-24.5718 22.7685,-47.775 30.1577,-73.206904 z m -312.6413,10.783204 c 4.0737,7.5648 6.0574,19.6103 9.4606,28.6964 3.7038,9.1324 7.4169,18.6809 7.8053,28.5161 -5.4933,10.2514 -10.2883,20.868 -15.9019,31.05 -3.8194,-10.9311 -6.64,-22.995 -7.8191,-34.6752 2.053,-17.8255 4.2032,-35.9006 6.4551,-53.5873 z m 161.548,18.2092 c 7.7406,0 14.8939,4.0367 22.4217,5.5442 -0.5179,34.7538 -0.282,71.2879 -2.6449,104.8395 -4.2448,-37.2739 -13.0766,-73.8912 -23.18,-109.9999 0.2497,-0.06 0.7398,-0.1803 0.9849,-0.2451 0.8138,-0.093 1.6184,-0.1387 2.4183,-0.1387 z m -263.2155,4.6934 c 1.3784,-0.01 3.1531,0.43 2.3596,1.9651 -5.3809,10.2468 -8.5026,21.9455 -15.9356,30.9622 -3.5429,-5.4193 -6.7104,-11.079 -9.7733,-16.7804 7.9472,-4.5777 14.5249,-11.19 22.2122,-16.0175 0.2613,-0.074 0.6774,-0.1294 1.1371,-0.1294 z m 416.6023,12.0639 c 3.0518,19.6797 1.045,43.0447 5.9926,63.7462 6.6123,9.0445 14.2881,21.3952 4.9015,30.9807 -10.8294,-14.0476 -19.6936,-29.7969 -30.5461,-43.9972 6.8528,-16.7897 12.4987,-34.1065 19.652,-50.7297 z m -410.4617,3.6853 c 4.5315,-0.088 8.9243,2.8993 12.8732,4.8413 4.0275,15.5551 2.2888,32.9367 0.3884,47.9692 -5.2436,-9.8167 -21.6934,-16.8636 -17.1328,-30.1853 1.1791,-7.5972 4.3475,-14.8291 3.8712,-22.6252 z m -5.7444,0.3283 c 4.2879,6.0528 -1.0112,15.9944 -2.4275,23.1384 -11.9299,-4.7812 0.092,-15.5782 2.4275,-23.1384 z m 91.8231,31.924 c 4.9939,6.5198 7.3059,18.237 6.173,27.3555 -3.3663,6.6493 -8.0874,14.2835 -11.7634,19.7259 -0.2405,-15.2823 4.9291,-31.346 5.5904,-47.0814 z m 146.1271,3.9997 c 6.4412,1.0867 13.5621,0.4809 19.4762,3.6253 8.5775,10.3346 19.2958,21.5246 18.3248,35.7711 5.9233,14.6811 2.5478,30.7726 4.4437,46.0502 -2.3953,0.1387 -3.2368,-2.2842 -4.0322,-4.0876 -11.4166,-27.7208 -27.6837,-53.3237 -38.2125,-81.359 z m 66.7286,22.3616 c 2.8715,22.935 3.6021,46.1427 2.4739,69.2395 -5.2529,32.7378 -3.4403,66.5946 -5.387,99.092 -10.1357,-11.2825 -19.6565,-23.5084 -32.4187,-32.0165 2.7143,-15.8325 7.6249,-31.3737 9.8028,-47.049 9.6873,-29.3392 21.7882,-58.4795 25.529,-89.266 z m 80.7579,15.643 c 10.9588,9.5115 20.831,20.6969 32.2245,29.5333 -15.629,12.3646 -18.9675,34.7631 -31.5725,48.9773 -4.8413,-20.6785 -4.8136,-42.2031 -7.3475,-63.2515 2.1455,-5.1141 4.4714,-10.1774 6.6955,-15.2591 z m -236.7895,15.0048 c 17.1781,0 34.0464,4.3881 50.05,10.4964 6.4412,3.0241 14.8245,5.2991 18.9629,11.0375 -22.6529,-3.6206 -45.9901,-3.5882 -68.7447,-1.0774 -5.3823,0.5364 -5.2575,9.4144 -10.834,8.7994 1.8218,-9.2711 -1.3918,-21.5292 3.1859,-28.9785 2.4646,-0.1896 4.9246,-0.2774 7.3799,-0.2774 z m 225.9879,6.3718 c 1.9143,9.863 2.5524,19.8924 3.5373,29.8155 -1.2854,14.6811 9.3867,32.6638 -3.9211,44.1544 -2.2981,5.1696 -4.9246,11.2316 -7.87,15.5874 -4.4391,-14.8661 -1.0034,-31.9563 -1.6092,-47.6686 2.2658,-8.9567 -2.5663,-18.3341 0.763,-26.9578 2.9963,-4.9986 6.0805,-9.9462 9.1,-14.9309 z m -199.3399,15.3886 c 14.3159,1.7109 29.0848,0.7445 43.077,4.9523 -22.2829,8.596 -46.6652,18.1492 -61.4989,38.6103 -3.6345,-8.2076 -2.0346,-20.2669 -4.4899,-29.9403 0.504,-3.1073 -3.1305,-8.0874 0.2635,-10.2976 7.2042,-2.9455 15.2546,-1.082 22.6483,-3.3247 z m 47.4467,8.9752 c 4.3511,-0.111 6.8805,4.1477 9.456,7.6203 5.4609,2.0854 11.2271,3.9443 17.2012,3.8795 -4.2494,6.2424 -11.6709,10.2976 -16.2301,16.6094 -20.5629,17.2474 -36.3122,39.1096 -52.288,60.4632 -2.2288,1.8311 -1.2023,-3.7408 -1.808,-4.2032 -0.9849,-18.778 -6.8528,-36.6821 -12.0039,-54.4752 13.1321,-15.6845 33.1494,-23.5684 52.3435,-29.0571 1.2207,-0.5548 2.3212,-0.8092 3.3293,-0.8369 z m 88.8128,4.6933 c 6.0482,3.935 11.486,10.4918 16.7527,16.0221 2.6495,2.9594 -1.3456,6.5013 -1.0959,9.7289 -0.2636,10.5612 -0.2636,21.1455 -1.0126,31.6789 -6.2378,22.0101 -6.58,45.8884 -9.6087,67.8523 -6.3626,-7.8145 -13.4003,-19.6982 -10.3623,-31.1194 3.0657,-31.2859 -1.9652,-63.3439 5.3268,-94.1628 z m -34.0649,0.9526 c 4.0691,-0.2543 0.6289,6.7926 0.259,9.2433 -17.6035,83.2733 -40.4321,165.8114 -50.5679,250.3378 -4.7766,19.8369 -6.8897,42.2169 -12.8362,61.7764 -11.8975,-14.8892 -25.4272,-29.501 -41.3337,-40.6448 -6.2655,-6.0112 -15.0788,-9.9878 -23.8783,-9.5717 5.6505,-27.9751 15.606,-55.0254 24.5302,-82.1219 10.7739,-30.7032 18.0844,-62.7937 32.0026,-92.3409 2.4507,-8.2769 8.4758,-15.1204 9.7196,-23.7765 8.744,-23.5037 24.8632,-43.0585 38.3513,-63.9035 5.817,-6.0712 15.5366,-3.898 22.2414,-8.6699 0.5919,-0.1989 1.0912,-0.3006 1.512,-0.3283 z m 82.1405,0.4577 c 2.4368,17.6267 -0.088,35.6047 0.356,53.3608 -4.0784,-0.7491 -8.4943,-2.0623 -11.8513,-4.4714 -2.9593,-17.0347 3.9582,-33.9354 11.4953,-48.8894 z m -209.8595,14.8476 c 2.3351,5.2806 1.008,13.9321 4.2772,19.8046 4.6748,1.3178 6.2563,-4.0044 9.3636,-6.1546 1.0635,2.0762 2.2102,4.1524 2.8576,6.4181 -26.8376,8.7486 -50.5725,24.6828 -75.431,37.7965 -22.3339,14.2141 -45.9809,26.7451 -65.36,45.056 -1.2207,1.2948 -4.0506,4.5315 -4.809,1.0173 -3.8286,-8.6468 -10.6721,-16.5538 -10.9634,-26.3567 12.4246,-17.3815 33.0476,-26.107 51.1782,-36.363 28.4005,-16.3226 59.654,-26.611 88.8868,-41.2182 z m 90.1677,5.2991 c -6.4551,15.4534 -20.6646,30.694 -27.5497,47.5392 -7.4816,22.3384 -17.696,43.7012 -25.3117,66.0351 -15.6291,43.3729 -28.1878,87.9019 -42.1476,131.8297 -14.0661,-13.4095 -31.9193,-25.2007 -47.9322,-35.8359 29.8894,-53.0833 58.4841,-107.4613 94.7778,-156.6189 17.0717,-16.6925 29.783,-37.653 48.1634,-52.9492 z m -73.5213,20.2392 c 4.7488,2.7466 3.6298,10.8849 5.5441,15.8002 -13.0072,7.4168 -23.8459,18.519 -35.5954,27.9658 -36.8994,27.8826 -63.3208,66.7241 -92.0219,102.1438 -12.7853,-14.1494 -21.1732,-32.2754 -30.9807,-48.7831 -0.5271,-4.439 4.7396,-7.1671 7.1534,-10.2652 20.0264,-20.8079 45.3843,-34.9111 69.5863,-50.0916 25.7833,-11.4212 49.4673,-27.5497 76.3142,-36.7699 z m 181.4635,13.2015 c 8.2631,2.853 17.7422,7.1625 19.6519,16.5168 5.9696,10.3716 9.9,21.6773 15.347,32.2199 2.6126,14.0107 -0.9618,28.1601 0.7491,42.2632 -4.3512,-1.1097 -6.0944,-6.9359 -8.2076,-10.6814 -9.2109,-14.1031 -14.8661,-30.1021 -22.7731,-44.8988 -1.3409,-0.9711 -2.7004,0.1849 -2.9316,1.5721 -2.52,8.8318 1.7155,19.9756 -2.9593,27.7902 -6.8343,-20.2068 -9.3405,-45.8237 1.1236,-64.782 z m -176.65,8.1567 c 5.4286,5.669 2.0068,18.2416 4.8737,26.3382 -31.3275,44.6214 -55.2381,93.9593 -83.9392,140.2916 -1.6461,0.7398 -4.9661,2.6357 -2.2611,4.3465 7.8007,2.497 14.9494,6.5661 21.3813,11.6062 -1.1375,3.6067 -4.3188,6.7048 -7.3059,9.0168 -20.5582,-18.9583 -40.6402,-39.6275 -61.2677,-57.6611 20.5998,-26.4954 39.6691,-54.7479 63.5381,-78.6539 8.0319,-10.5427 19.9062,-17.0162 28.4236,-27.0503 12.1056,-9.5346 22.6945,-21.1316 36.5572,-28.234 z m 97.1406,12.7021 c 39.4519,27.508 58.8495,76.5222 68.1807,122.6233 8.2954,41.4772 20.5119,82.1682 27.7346,123.8303 -0.43,5.8724 -3.7778,11.19 -8.9058,14.0569 -14.191,8.0457 -21.5755,23.9522 -36.178,31.4431 -25.1452,14.0569 -44.3024,36.2982 -68.5598,51.6961 -3.0565,-23.9522 1.6415,-48.1819 9.5254,-70.8394 16.0545,-12.2073 31.2072,-28.345 51.6684,-34.0325 3.8702,-0.4162 12.346,1.1097 11.0282,-5.3639 -4.735,-13.0396 -9.8676,-26.033 -14.561,-39.1651 -23.4204,-54.1006 -28.6871,-113.2413 -41.4031,-170.2088 -3.9304,-7.5833 -2.275,-16.8081 1.4704,-24.04 z m -7.1856,24.6412 c 8.5081,16.5538 7.3567,36.9918 12.4246,55.0716 8.8919,51.6036 23.721,102.3749 44.0943,150.788 2.4877,3.7455 -3.9628,4.4853 -6.2285,3.4218 -19.0786,-16.0915 -28.3635,-39.9512 -39.8356,-61.4527 -4.8783,-11.6987 -8.3879,-23.9523 -13.539,-35.5585 -5.4933,-14.1956 -13.2801,-28.4374 -11.9808,-43.974 4.9986,-22.75 9.8445,-45.685 15.065,-68.2962 z m -17.7839,85.2199 c 11.0514,27.7902 20.3086,59.372 35.7295,86.3298 1.6369,3.1905 4.7304,5.9187 4.4853,9.7566 -6.3302,17.8948 -5.4979,38.1478 -15.1158,54.9791 -1.3733,2.6819 -3.4449,-0.2312 -4.6656,-1.4796 -11.264,3.3292 -19.0462,13.3633 -29.4825,18.0797 -2.386,3.4218 -5.2621,7.4909 -9.5578,8.4157 1.845,-17.7099 7.5556,-35.4197 2.9409,-53.2683 -2.1825,-41.5696 9.3358,-82.0757 15.666,-122.813 z m 42.7765,100.3867 c 6.1314,6.7972 11.8836,16.8775 19.9247,23.1661 3.8194,3.4218 -3.9119,4.2541 -5.7291,5.6413 -9.4329,2.5432 -14.8568,11.9761 -24.1279,14.5193 5.1557,-13.9644 5.9742,-29.1773 9.9323,-43.3267 z m -30.8142,59.0482 c -3.7038,18.6809 -10.1728,40.6449 -10.515,61.0828 -0.467,6.9823 4.2449,13.9183 1.8728,20.7617 -9.0214,7.3059 -16.9007,16.2302 -26.0146,23.2587 1.5028,-6.1962 -1.2577,-12.8547 1.6415,-18.6347 -3.6529,-14.1956 -6.6307,-29.0848 -15.3423,-41.2459 -2.7605,-3.6067 3.0888,-5.595 4.8182,-7.9995 11.9576,-15.1667 26.574,-28.1138 43.5394,-37.2231 z m -48.4131,53.777 c 6.9082,13.1783 11.9299,30.0096 10.5149,45.6387 -2.4045,13.4557 -14.9771,21.409 -22.5974,31.8592 -1.7432,2.312 -2.0854,6.6123 -5.4054,7.3059 5.8123,-17.2937 -0.1757,-35.096 -3.8842,-52.0661 -2.2149,-2.0807 -5.8447,-4.8551 -3.1396,-8.0457 7.3012,-8.9705 14.6164,-18.3109 24.5117,-24.692 z m 52.644,19.6056 c 2.2149,0.046 -0.3283,3.9767 -0.7121,5.1327 -15.4071,45.6387 -15.3331,94.4217 -20.5906,141.91 -2.9963,13.7332 10.4687,21.9177 17.4232,31.5818 2.4923,4.8552 8.2631,5.0864 12.3368,7.9533 16.1932,11.6524 28.4745,29.7321 48.5333,35.2809 -0.971,2.9131 -4.7858,1.156 -6.4736,3.4217 -6.6123,2.0346 -12.1842,-4.5315 -18.8057,-4.2078 -21.3258,0.8323 -36.8948,-16.7388 -57.3328,-19.5132 -10.5426,-3.0518 -23.143,4.0692 -32.0904,-3.9304 -0.8046,-11.6062 3.468,-23.2123 10.1126,-32.599 2.7652,-15.7678 7.4123,-32.8303 0.9017,-48.2281 -3.3801,-21.779 -2.6449,-43.9742 -2.6079,-65.9843 0.7398,-6.751 7.9024,-9.5716 11.4813,-14.5655 14.0246,-10.2653 24.4424,-24.9695 37.3156,-36.2521 0.1896,0 0.3607,-0.046 0.5086,0 z m -77.4147,20.8542 c 11.19,24.091 2.3952,57.5686 -16.4614,76.6656 0.4162,-19.6519 4.8506,-38.749 -0.541,-57.846 -4.9569,-10.7276 11.4675,-13.0397 17.0024,-18.8196 z m -20.3548,45.4538 c 1.2948,0 1.5213,1.7108 1.3317,2.7281 -3.3385,13.9644 -1.5212,28.5762 -5.4146,42.4481 -0.6798,1.9884 1.5259,2.682 2.9454,3.1906 -0.097,31.3043 -14.3574,67.6488 4.4437,96.7337 -7.6296,-5.8262 -18.4081,-8.7856 -23.0968,-17.8948 -8.0827,-20.9467 1.6138,-45.2688 -9.3497,-65.3831 -0.6982,-9.5717 -13.7286,-17.3399 -5.6736,-27.0965 12.8177,-10.3578 28.0121,-18.4498 34.8139,-34.7261 z"
                 id="path4"
                 inkscape:connector-curvature="0"
                 style="stroke-width:0.46239817" />
            </g>
          </g>
        </g>
      </g>
    </g>
  </g>
</svg>
